<?xml version="1.0" encoding="UTF-8" standalone="no"?>
<svg
   xmlns:dc="http://purl.org/dc/elements/1.1/"
   xmlns:cc="http://creativecommons.org/ns#"
   xmlns:rdf="http://www.w3.org/1999/02/22-rdf-syntax-ns#"
   xmlns:svg="http://www.w3.org/2000/svg"
   xmlns="http://www.w3.org/2000/svg"
   xmlns:xlink="http://www.w3.org/1999/xlink"
   xmlns:sodipodi="http://sodipodi.sourceforge.net/DTD/sodipodi-0.dtd"
   xmlns:inkscape="http://www.inkscape.org/namespaces/inkscape"
   id="30b67e24-71e0-4c14-b173-6690a8f5300f"
   data-name="Layer 1"
   width="2039.1212"
   height="876.04956"
   viewBox="0 0 2039.1213 876.04955"
   version="1.1"
   sodipodi:docname="advanced.svg"
   inkscape:version="0.92.4 (5da689c313, 2019-01-14)">
  <metadata
     id="metadata157">
    <rdf:RDF>
      <cc:Work
         rdf:about="">
        <dc:format>image/svg+xml</dc:format>
        <dc:type
           rdf:resource="http://purl.org/dc/dcmitype/StillImage" />
        <dc:title>be_the_hero</dc:title>
      </cc:Work>
    </rdf:RDF>
  </metadata>
  <sodipodi:namedview
     pagecolor="#ffffff"
     bordercolor="#666666"
     borderopacity="1"
     objecttolerance="10"
     gridtolerance="10"
     guidetolerance="10"
     inkscape:pageopacity="0"
     inkscape:pageshadow="2"
     inkscape:window-width="1920"
     inkscape:window-height="1043"
     id="namedview155"
     showgrid="false"
     inkscape:zoom="0.76197023"
     inkscape:cx="523.71412"
     inkscape:cy="532.96123"
     inkscape:window-x="2560"
     inkscape:window-y="0"
     inkscape:window-maximized="1"
     inkscape:current-layer="layer1"
     fit-margin-top="0"
     fit-margin-left="0"
     fit-margin-right="0"
     fit-margin-bottom="0" />
  <defs
     id="defs10">
    <linearGradient
       id="80eb2e63-b174-4995-98de-a6f06d09e993"
       x1="660.62"
       y1="785.22998"
       x2="660.62"
       y2="108.23"
       gradientTransform="rotate(6.1,644.05481,452.1126)"
       gradientUnits="userSpaceOnUse">
      <stop
         offset="0"
         stop-color="gray"
         stop-opacity="0.25"
         id="stop2" />
      <stop
         offset="0.54"
         stop-color="gray"
         stop-opacity="0.12"
         id="stop4" />
      <stop
         offset="1"
         stop-color="gray"
         stop-opacity="0.1"
         id="stop6" />
    </linearGradient>
    <linearGradient
       id="897a3ab3-8922-4256-a8e6-4a2ee8dcb308"
       x1="636.28003"
       y1="829.65002"
       x2="636.28003"
       y2="226.73"
       gradientTransform="matrix(0.97,0.05,-0.05,1,52.93,-28.22)"
       xlink:href="#80eb2e63-b174-4995-98de-a6f06d09e993" />
  </defs>
  <title
     id="title12">be_the_hero</title>
  <g
     inkscape:groupmode="layer"
     id="layer2"
     inkscape:label="Layer 0"
     transform="translate(972.48518,-0.00321286)">
    <path
       style="opacity:0.1;fill:#ffa200"
       d="m 126.72,461.64 c 3,33.76 22.14,64.32 33.82,96.47 a 228.68,228.68 0 0 1 4.45,142 c -2.78,9.58 -6.21,19.19 -6.21,29 0,33.82 38.53,56.27 73.54,71.2 a 1340.62,1340.62 0 0 0 276.82,83.64 c 31.07,5.87 69.88,8.4 89.54,-13.67 9.44,-10.6 11.72,-24.44 18.65,-36.33 C 635,803.62 678,791.84 716.6,785.09 A 1212.54,1212.54 0 0 1 857.27,768.9 c 47.48,-2.67 101.39,-5 132.86,-36.17 20,-19.82 25.82,-47.17 26.62,-73 2.61,-84.74 -37.88,-176.44 14.09,-249.83 21.79,-30.78 57.37,-53.26 79,-84.13 31.31,-44.73 28.61,-101.54 7.41,-149.21 -21.2,-47.67 -58.75,-88.2 -95.76,-127.92 -12.24,-13.13 -25.3,-26.79 -43.68,-32.88 -19.13,-6.34 -40.82,-3.43 -61.33,-0.43 -93.3,13.62 -190.14,28.46 -268.39,75.24 -38.86,23.23 -71.32,53.36 -106,81.07 C 467.2,231.51 380.44,286.81 281.55,310.45 201.21,329.66 119.5,381.47 126.72,461.64 Z"
       transform="translate(-66.64,-11.98)"
       id="path14"
       inkscape:connector-curvature="0" />
    <a
       id="a1674">
      <g
         transform="translate(-24.37129,289.08972)"
         id="g1664">
        <path
           inkscape:connector-curvature="0"
           style="fill:#f2f2f2"
           d="m 102.05112,-139.31739 a 58.487,58.487 0 0 1 58.40593,-55.43027 c 1.77754,0 3.5328,0.0927 5.27,0.248 a 77.70681,77.70681 0 0 1 134.32685,-0.0635 c 1.46553,-0.11007 2.94093,-0.18445 4.43459,-0.18445 a 58.487,58.487 0 0 1 58.40593,55.43027"
           id="path32-2" />
        <path
           inkscape:connector-curvature="0"
           style="fill:none;stroke:#3f3d56;stroke-miterlimit:10"
           d="m 114.23267,-143.81646 a 58.487,58.487 0 0 1 58.40593,-55.43026 c 1.77754,0 3.5328,0.0927 5.26995,0.248 a 77.70681,77.70681 0 0 1 134.32685,-0.0635 c 1.46553,-0.11007 2.94092,-0.18445 4.43459,-0.18445 a 58.487,58.487 0 0 1 58.40593,55.43026"
           stroke-miterlimit="10"
           id="path34-9" />
        <path
           inkscape:connector-curvature="0"
           style="fill:#ffa200"
           d="m 543.07969,4.2533245 c 0,0 105.12,52.1975305 123.96913,44.9478705 18.84913,-7.24966 25.3738,-71.771604 25.3738,-71.771604 l -77.57133,-14.49931 z"
           id="path36-1" />
        <path
           inkscape:connector-curvature="0"
           style="opacity:0.1"
           d="m 543.07969,4.2533245 c 0,0 105.12,52.1975305 123.96913,44.9478705 18.84913,-7.24966 25.3738,-71.771604 25.3738,-71.771604 l -77.57133,-14.49931 z"
           id="path38-2" />
        <path
           inkscape:connector-curvature="0"
           style="opacity:1;fill:#ffae23;fill-opacity:1"
           d="m 694.23504,-78.755249 c 0,0 -110.54869,-44.449931 -206.24416,-87.222901 0,0 -50.02263,-12.32442 -76.12139,10.87448 0,0 21.749,-2.89986 21.749,9.42456 0,0 18.8491,24.64883 -39.87311,28.99862 -40.89583,3.02933 -57.17843,27.507321 -63.29552,42.089791 a 59.24487,59.24487 0 0 1 -23.95771,28.17011 c -14.13464,8.44768 -34.62017,14.66271 -58.4649,3.68656 0,0 1.35559,2.084 3.92695,5.55645 46.0383,62.172164 217.481,116.280763 278.02235,68.118084 37.41476,-29.7647005 96.72794,-67.385004 139.24718,-48.43619 66.69684,29.72359 79.02125,16.67420951 79.02125,16.67420951 l 2.89987,-7.97462001 c 0,0 -64.522,-17.3991835 -65.97188,-39.8731135 -1.44988,-22.47393 9.06207,-30.08604 9.06207,-30.08604 z"
           id="path68" />
        <path
           inkscape:connector-curvature="0"
           style="fill:#ffa200"
           d="m 725.34512,-46.071086 c 0,0 6.61905,-3.715129 10.55918,2.129741 3.94013,5.844869 -4.75945,15.9944 -10.55918,15.9944 -5.79973,0 -5.79973,-12.32442 -5.79973,-12.32442 z"
           id="path76-7" />
      </g>
    </a>
  </g>
  <g
     inkscape:groupmode="layer"
     id="layer1"
     inkscape:label="Layer 1"
     transform="translate(972.48518,-0.00321286)">
    <path
       style="fill:#444176"
       d="m 521.81,701.2 c 0,0 -23.23,30.53 -42.45,30.8 -19.22,0.27 -30.55,12.86 -21.41,20.74 9.14,7.88 108.74,-4.5 108.74,-4.5 0,0 0.94,-37.52 -7.68,-43 -8.62,-5.48 -37.2,-4.04 -37.2,-4.04 z"
       transform="translate(-66.64,-11.98)"
       id="path18"
       inkscape:connector-curvature="0" />
    <path
       style="fill:#444176"
       d="m 771.26,737.85 c 0,0 3.56,24.18 -7.42,40.67 -10.98,16.49 19.82,22.85 19.82,22.85 0,0 22.37,6.23 24,-15.86 1.63,-22.09 1.1,-39 -1,-40.8 -2.1,-1.8 -3.85,-14.23 -3.85,-14.23 z"
       transform="translate(-66.64,-11.98)"
       id="path20"
       inkscape:connector-curvature="0" />
    <path
       style="fill:#31304d;fill-opacity:1"
       d="m 770.28,747 c 0,0 -32.36,-56.44 -46.92,-71 -14.56,-14.56 -19.45,-33.56 -19.45,-33.56 0,0 -20.14,-120.39 -46.63,-124 -26.49,-3.61 -99.16,58.5 -99.16,58.5 l 5.18,131.08 c -15.77,18.28 -46.71,-1.16 -46.71,-1.16 0,0 -1.59,-35.56 -9.93,-100.95 -8.34,-65.39 12.21,-64 12.21,-64 0,0 66.67,-85 92.61,-90.68 14,-3.05 23.42,-13.93 29.19,-23.31 a 76.67,76.67 0 0 0 7.16,-15 l 110.83,11.85 -9.82,91.85 c 0,0 -1.36,120.4 5.4,121.89 6.76,1.49 48.74,82.76 51.4,93.79 2.66,11.03 -35.36,14.7 -35.36,14.7 z"
       transform="translate(-66.64,-11.98)"
       id="path22"
       inkscape:connector-curvature="0" />
    <g
       style="opacity:0.1"
       id="g28">
      <path
         d="m 652.09,518.78 a 10.92,10.92 0 0 0 -3.91,-1.39 c -26.49,-3.6 -99.16,58.5 -99.16,58.5 L 554.21,707 c -4.73,5.48 -10.83,7.57 -17,7.81 9.37,2.18 20.22,2 27.67,-6.67 L 559.65,577 c 0,0 62.14,-53.07 92.44,-58.22 z"
         transform="translate(-66.64,-11.98)"
         id="path24"
         inkscape:connector-curvature="0" />
      <path
         d="m 807.15,732.48 c -2.66,-11 -44.64,-92.3 -51.4,-93.79 -6.76,-1.49 -5.4,-121.89 -5.4,-121.89 l 9.82,-91.85 -10.63,-1.14 -9.82,91.85 c 0,0 -1.36,120.4 5.4,121.89 6.76,1.49 48.74,82.76 51.4,93.79 1.8,7.47 -15,11.54 -26.11,13.39 l 1.39,2.4 c 0,0 38.01,-3.62 35.35,-14.65 z"
         transform="translate(-66.64,-11.98)"
         id="path26"
         inkscape:connector-curvature="0" />
    </g>
    <path
       d="m 824.37,269.81 c 0,0 -104.81,-3.53 -85.65,-17.6 11.82,-8.69 16.93,-25.68 19.12,-37.43 a 99.61,99.61 0 0 0 1.58,-12.57 c 0,0 55.87,-5.54 42.13,15.25 -3.6,5.46 -3.75,11.65 -2,17.81 4.93,17.36 24.82,34.54 24.82,34.54 z"
       transform="translate(-66.64,-11.98)"
       id="path30"
       style="fill:#a0616a;fill-opacity:1"
       inkscape:connector-curvature="0" />
    <path
       style="fill:#dfe5ee"
       d="m 710.36,244.57 c 0,0 -25.36,14.18 -30.36,46.66 -5,32.48 -9.11,-1 -9.11,-1 0,0 -14.53,13.8 -19,12.56 -4.47,-1.24 -3.68,48.74 20.21,55.14 23.89,6.4 42.76,-98.31 42.76,-98.31 z"
       transform="translate(-66.64,-11.98)"
       id="path32"
       inkscape:connector-curvature="0" />
    <path
       style="opacity:0.05"
       d="m 710.36,244.57 c 0,0 -25.36,14.18 -30.36,46.66 -5,32.48 -9.11,-1 -9.11,-1 0,0 -14.53,13.8 -19,12.56 -4.47,-1.24 -3.68,48.74 20.21,55.14 23.89,6.4 42.76,-98.31 42.76,-98.31 z"
       transform="translate(-66.64,-11.98)"
       id="path34"
       inkscape:connector-curvature="0" />
    <path
       d="m 674,290.58 c 0,0 -19.48,-62 -49.78,-29.89 -30.3,32.11 36.55,31.55 36.55,31.55 z"
       transform="translate(-66.64,-11.98)"
       id="path36"
       style="fill:#a0616a;fill-opacity:1"
       inkscape:connector-curvature="0" />
    <path
       style="opacity:0.1"
       d="m 801.56,217.47 c -3.6,5.46 -3.75,11.65 -2,17.81 a 42,42 0 0 1 -41.72,-20.5 99.61,99.61 0 0 0 1.58,-12.57 c 0,0 55.88,-5.54 42.14,15.26 z"
       transform="translate(-66.64,-11.98)"
       id="path38"
       inkscape:connector-curvature="0" />
    <path
       style="opacity:0.1"
       d="m 758.66,424.79 -1.44,13.43 c -12.23,-3.27 -96.13,-25 -113.89,-11.94 a 20.47,20.47 0 0 1 -2.66,1.69 76.67,76.67 0 0 0 7.16,-15 z"
       transform="translate(-66.64,-11.98)"
       id="path42"
       inkscape:connector-curvature="0" />
    <path
       style="fill:#dfe5ee"
       d="m 846.07,318.2 c -5.59,21.77 -25.82,40.27 -40.86,51.46 a 169.62,169.62 0 0 1 -17.31,11.42 c 0,0 -15.57,9.07 -23.81,29.34 a 68.77,68.77 0 0 0 -5,24.4 c 0,0 -96.22,-26.41 -115.38,-12.34 -10.07,7.4 -8.48,-3.06 -4.7,-14.64 a 119.83,119.83 0 0 1 15.67,-31.1 c 5.29,-7.61 11.93,-18.76 13.93,-29.15 2.65,-13.8 20.64,-66.29 29,-90.29 a 57.16,57.16 0 0 1 25.62,-31.11 c 7.76,-4.39 22.28,-5.12 32.4,-2.89 0,0 -3.26,10.85 11.72,12.79 1.62,0.21 3.23,0.5 4.82,0.87 6,1.41 20.79,4.22 27.35,-0.52 l 13.61,9.13 c 0,0 42.15,36.76 32.94,72.63 z"
       transform="translate(-66.64,-11.98)"
       id="path44"
       inkscape:connector-curvature="0" />
    <path
       style="opacity:0.1"
       d="m 831,337.86 c -6.15,7.11 -15,17.71 -25.76,31.8 a 169.62,169.62 0 0 1 -17.31,11.42 c 0,0 -15.57,9.07 -23.81,29.34 C 731.35,412.14 691.74,347 691.74,347 l 25.94,-27.17 44.22,31.6 14.4,-30.85 a 52,52 0 0 1 42.07,-29.78 l 0.69,-0.06 c 9.21,-0.84 14.53,4.66 17.59,11.62 a 33.72,33.72 0 0 1 -5.65,35.5 z"
       transform="translate(-66.64,-11.98)"
       id="path50"
       inkscape:connector-curvature="0" />
    <g
       style="opacity:0.05"
       id="g58">
      <path
         d="m 748.8,222.57 c 0,0 -3.26,10.85 11.72,12.79 1.62,0.21 3.23,0.5 4.82,0.87 a 80.55,80.55 0 0 0 13.58,2.05 c -2.69,-0.42 -5.07,-0.92 -6.75,-1.32 -1.68,-0.4 -3.2,-0.66 -4.82,-0.87 -15,-1.94 -11.72,-12.79 -11.72,-12.79 a 54.79,54.79 0 0 0 -8.95,-1.14 c 0.73,0.13 1.44,0.26 2.12,0.41 z"
         transform="translate(-66.64,-11.98)"
         id="path52"
         inkscape:connector-curvature="0" />
      <path
         d="m 813.14,245.58 -13.61,-9.13 a 11.74,11.74 0 0 1 -3.34,1.61 l 10.12,6.79 c 0,0 42.14,36.75 32.93,72.62 -5.59,21.77 -25.82,40.27 -40.86,51.46 a 169.62,169.62 0 0 1 -17.31,11.42 c 0,0 -15.57,9.07 -23.81,29.34 A 68.6,68.6 0 0 0 752.34,433 c 4.27,1.09 6.78,1.78 6.78,1.78 a 68.77,68.77 0 0 1 5,-24.4 c 8.24,-20.27 23.81,-29.34 23.81,-29.34 a 169.62,169.62 0 0 0 17.31,-11.42 c 15,-11.18 35.27,-29.69 40.86,-51.46 9.18,-35.83 -32.96,-72.58 -32.96,-72.58 z"
         transform="translate(-66.64,-11.98)"
         id="path54"
         inkscape:connector-curvature="0" />
      <path
         d="m 636.91,421.75 -0.72,0.5 c 0.38,3.16 2.5,3.94 7.55,0.23 6,-4.38 19.39,-4.84 35,-3.39 -18.46,-2.23 -35.02,-2.34 -41.83,2.66 z"
         transform="translate(-66.64,-11.98)"
         id="path56"
         inkscape:connector-curvature="0" />
    </g>
    <path
       style="opacity:0.05"
       d="m 663.83,361.35 c 0,0 7.73,20 18.46,27.25 10.73,7.25 24.78,19.54 24.78,19.54"
       transform="translate(-66.64,-11.98)"
       id="path60"
       inkscape:connector-curvature="0" />
    <path
       style="fill:url(#897a3ab3-8922-4256-a8e6-4a2ee8dcb308)"
       d="M 810,721.69 793.88,652.07 C 787,640.64 779.93,634.5 774,631.23 c -7.64,-4.7 -13.72,-4.67 -15.64,-4.5 l -2.16,-2.28 c -8.22,-11.61 -12.58,-42 -12.58,-42 -0.43,-14.25 -9.46,-23.9 -21.08,-30.42 -19.58,-11.73 -47.66,-14 -53.63,-14.35 l -4.76,-9.47 -1.28,-0.31 -0.3,-0.6 c -1,-0.27 -2.13,-0.5 -3.22,-0.72 l 8.42,-172.79 0.08,-1.67 33.25,1.62 a 10.07,10.07 0 0 0 1,-20.1 l -38.93,-1.9 v -0.84 l 3.64,-74.66 v -0.84 a 15.25,15.25 0 0 0 5.84,-11.34 14.62,14.62 0 1 0 -29.2,-1.42 15.25,15.25 0 0 0 4.71,11.85 v 0.84 L 644.5,330 v 0.84 L 605.53,329 a 10.07,10.07 0 0 0 -1,20.1 l 31.63,1.54 -0.08,1.67 -8.53,175 a 231.4,231.4 0 0 0 -36.14,7.51 l -13.76,48.85 -40.19,7.28 -20.94,46 -19.52,34.23 c -2.07,0.76 -4.08,1.57 -6,2.4 v 0 c -72.75,30.7 -75.7,106.94 -75.7,106.94 20.27,34.56 122.63,19.41 122.63,19.41 58.42,52.37 174.54,21.94 174.54,21.94 28,6.9 50.16,9.89 67.64,10.56 v 0 c 48.74,1.86 61,-14.37 61,-14.37 C 858.65,773.58 810,721.69 810,721.69 Z"
       transform="translate(-66.64,-11.98)"
       id="path62"
       inkscape:connector-curvature="0" />
    <rect
       style="fill:#ffa200"
       x="609.40997"
       y="289.45999"
       width="87.980003"
       height="18.74"
       transform="rotate(-83.9,613.38702,329.91401)"
       id="rect64" />
    <rect
       style="fill:#f0f5fa"
       x="538.34003"
       y="429.47"
       width="197.14"
       height="31.77"
       transform="rotate(-83.9,596.89966,476.43829)"
       id="rect66" />
    <rect
       style="opacity:0.05"
       x="637.27002"
       y="347.64999"
       width="15.48"
       height="197.14"
       transform="rotate(6.1,724.35508,-184.92929)"
       id="rect68" />
    <rect
       style="opacity:0.1"
       x="642.88"
       y="335.51001"
       width="8.1499996"
       height="31.77"
       transform="rotate(-83.9,606.95094,382.47948)"
       id="rect70" />
    <rect
       style="opacity:0.1"
       x="644.71997"
       y="328.75"
       width="8.96"
       height="18.74"
       transform="rotate(-83.9,609.18838,369.204)"
       id="rect72" />
    <rect
       style="fill:#eb9500;fill-opacity:0.99170125"
       x="590.29999"
       y="334.41"
       width="116.49"
       height="19.549999"
       rx="9.7799997"
       ry="9.7799997"
       transform="rotate(6.1,727.9486,-287.03667)"
       id="rect74" />
    <path
       style="fill:#a8a8a8"
       d="m 420.06,783.52 c 0,0 -0.81,-78.2 76.57,-110 l 17.92,-34.21 18.74,-45.62 39.92,-9 11.4,-48.06 c 0,0 44,-15.48 72.5,-9.78 l 5.7,9.78 c 0,0 73.32,-0.81 76.57,39.1 0,0 7.33,36.66 17.92,43.18 0,0 17.92,-4.07 35.84,22 l 19.55,66.8 c 0,0 51.32,48.06 35.84,92.05 0,0 -21.18,30.14 -128.71,9.78 0,0 -114.86,35 -176,-13 0.07,0.01 -101.76,19.56 -123.76,-13.02 z"
       transform="translate(-66.64,-11.98)"
       id="path76"
       inkscape:connector-curvature="0" />
    <path
       style="opacity:0.1;fill:none;stroke:#000000;stroke-miterlimit:10"
       d="m 471.38,771.3 c 0,0 16.29,-22.81 15.48,-39.1 -0.81,-16.29 3.84,-56.05 3.84,-56.05"
       transform="translate(-66.64,-11.98)"
       stroke-miterlimit="10"
       id="path78"
       inkscape:connector-curvature="0" />
    <path
       style="opacity:0.1;fill:none;stroke:#000000;stroke-miterlimit:10"
       d="m 530.85,710.2 c 0,0 16.29,-30.14 14.66,-46.43 0,0 17.11,-31 30.14,-28.51"
       transform="translate(-66.64,-11.98)"
       stroke-miterlimit="10"
       id="path80"
       inkscape:connector-curvature="0" />
    <path
       style="opacity:0.1;fill:none;stroke:#000000;stroke-miterlimit:10"
       d="m 620.46,624.67 c 0,0 44.8,-16.29 47.25,-29.33"
       transform="translate(-66.64,-11.98)"
       stroke-miterlimit="10"
       id="path82"
       inkscape:connector-curvature="0" />
    <path
       style="opacity:0.1;fill:none;stroke:#000000;stroke-miterlimit:10"
       d="m 636.75,662.14 c 0,0 47.25,-21.14 47.25,-26.88 h 23.62 c 0,0 34.21,44.8 30.14,64.36"
       transform="translate(-66.64,-11.98)"
       stroke-miterlimit="10"
       id="path84"
       inkscape:connector-curvature="0" />
    <path
       style="opacity:0.1;fill:none;stroke:#000000;stroke-miterlimit:10"
       d="m 692.15,694.72 c 0,0 -45.62,-3.26 -61.91,9.78 -16.29,13.04 -45.62,19.55 -45.62,19.55 0,0 -17.11,36.66 -23.62,43.18 -6.51,6.52 -17.11,29.33 -17.11,29.33"
       transform="translate(-66.64,-11.98)"
       stroke-miterlimit="10"
       id="path86"
       inkscape:connector-curvature="0" />
    <path
       style="opacity:0.1;fill:none;stroke:#000000;stroke-miterlimit:10"
       d="m 692.15,737.9 c 0,0 4.85,17.1 11.4,26.88 6.55,9.78 16.29,44.8 16.29,44.8"
       transform="translate(-66.64,-11.98)"
       stroke-miterlimit="10"
       id="path88"
       inkscape:connector-curvature="0" />
    <path
       style="opacity:0.1;fill:none;stroke:#000000;stroke-miterlimit:10"
       d="m 768.72,787.59 c 0,0 10.34,28.77 19.43,29"
       transform="translate(-66.64,-11.98)"
       stroke-miterlimit="10"
       id="path90"
       inkscape:connector-curvature="0" />
    <path
       style="opacity:0.1;fill:none;stroke:#000000;stroke-miterlimit:10"
       d="m 701,664.1 c 0,0 26.86,7.26 38.09,24.85 11.23,17.59 45.57,33.55 45.57,33.55"
       transform="translate(-66.64,-11.98)"
       stroke-miterlimit="10"
       id="path92"
       inkscape:connector-curvature="0" />
    <path
       style="opacity:0.1;fill:none;stroke:#000000;stroke-miterlimit:10"
       d="m 712.51,577.42 c 0,0 0,37.47 10.59,37.47 10.59,0 34.22,4.11 34.22,4.11"
       transform="translate(-66.64,-11.98)"
       stroke-miterlimit="10"
       id="path94"
       inkscape:connector-curvature="0" />
    <path
       style="opacity:0.1;fill:none;stroke:#000000;stroke-miterlimit:10"
       d="m 660.64,532.95 c 0,0 -2.71,64.73 -16.55,81.48"
       transform="translate(-66.64,-11.98)"
       stroke-miterlimit="10"
       id="path96"
       inkscape:connector-curvature="0" />
    <g
       style="opacity:0.05"
       id="g104">
      <path
         d="m 811.08,706.94 -19.55,-66.8 c -17.92,-26.07 -35.84,-22 -35.84,-22 C 745.1,611.63 737.77,575 737.77,575 734.51,535.08 661.2,535.9 661.2,535.9 l -5.7,-9.78 c -7.22,-1.44 -15.43,-1.53 -23.66,-0.85 2,0.2 3.89,0.48 5.74,0.85 l 5.7,9.78 c 0,0 73.32,-0.81 76.57,39.1 0,0 7.33,36.66 17.92,43.18 0,0 17.92,-4.07 35.84,22 l 19.55,66.8 c 0,0 51.32,48.02 35.84,92.02 0,0 -10.45,14.87 -53.93,16.66 58.61,2.15 71.85,-16.66 71.85,-16.66 15.48,-44 -35.84,-92.06 -35.84,-92.06 z"
         transform="translate(-66.64,-11.98)"
         id="path98"
         inkscape:connector-curvature="0" />
      <path
         d="m 524.33,795.74 a 380.76,380.76 0 0 1 -52.19,5.65 c 20.4,0.78 41.63,-1.42 55.31,-3.31 q -1.57,-1.14 -3.12,-2.34 z"
         transform="translate(-66.64,-11.98)"
         id="path100"
         inkscape:connector-curvature="0" />
      <path
         d="m 700.29,808.77 a 334.73,334.73 0 0 1 -76.93,12.16 c 37.55,1.36 73.12,-6.46 87.79,-10.22 -3.52,-0.59 -7.15,-1.23 -10.86,-1.94 z"
         transform="translate(-66.64,-11.98)"
         id="path102"
         inkscape:connector-curvature="0" />
    </g>
    <rect
       style="opacity:0.05"
       x="653.03998"
       y="254.89"
       width="9.7799997"
       height="79.830002"
       transform="rotate(6.1,737.27113,-336.374)"
       id="rect106" />
    <path
       style="opacity:0.1"
       d="m 667.39,256.09 -0.68,6.36 a 14.67,14.67 0 0 1 -18.63,-2 l 0.68,-6.36 z"
       transform="translate(-66.64,-11.98)"
       id="path108"
       inkscape:connector-curvature="0" />
    <circle
       style="fill:#eb9500;fill-opacity:1"
       cx="658.67999"
       cy="249.42"
       r="14.66"
       transform="rotate(-83.9,618.67266,280.50824)"
       id="circle110" />
    <path
       style="opacity:0.05"
       d="m 673.26,251 a 14.66,14.66 0 0 1 -16.14,13 l 3.12,-29.16 A 14.66,14.66 0 0 1 673.26,251 Z"
       transform="translate(-66.64,-11.98)"
       id="path112"
       inkscape:connector-curvature="0" />
    <path
       d="m 723.5,322.75 -10.22,16.57 -9.78,-8.49 -13.4,-11.64 c 0,0 -24.78,2 -40.64,-22 -6.8,-10.27 -1.51,-16.15 6.74,-19.5 a 34.24,34.24 0 0 1 39.41,10.5 z"
       transform="translate(-66.64,-11.98)"
       id="path114"
       style="fill:#a0616a;fill-opacity:1"
       inkscape:connector-curvature="0" />
    <polygon
       style="opacity:0.1"
       points="656.86,310.77 646.65,327.34 636.87,318.84 651.24,303.8 "
       id="polygon116" />
    <path
       style="fill:#dfe5ee"
       d="m 779.66,317.87 -14.4,30.84 -44.26,-31.6 -25.9,27.17 c 0,0 59.42,97.72 92.9,50.62 20.31,-28.61 36.67,-48.53 46.38,-59.76 a 33.7,33.7 0 0 0 5.67,-35.5 c -3.06,-7 -8.38,-12.45 -17.59,-11.62 l -0.69,0.07 a 52,52 0 0 0 -42.11,29.78 z"
       transform="translate(-66.64,-11.98)"
       id="path118"
       inkscape:connector-curvature="0" />
    <path
       style="fill:none;stroke:#535461;stroke-width:2;stroke-miterlimit:10"
       d="m 985.83,672.35 c 0,0 -13.26,-45 2.49,-78.14 a 71.09,71.09 0 0 0 5.75,-44.6 119.57,119.57 0 0 0 -6.31,-20.93"
       transform="translate(-66.64,-11.98)"
       stroke-miterlimit="10"
       id="path120"
       inkscape:connector-curvature="0" />
    <path
       style="fill:#ffa200"
       d="m 997.54,507.74 c 0,5.52 -10,21.51 -10,21.51 0,0 -10,-16 -10,-21.51 a 10,10 0 0 1 20,0 z"
       transform="translate(-66.64,-11.98)"
       id="path122"
       inkscape:connector-curvature="0" />
    <path
       style="fill:#ffa200"
       d="m 1014.06,538.29 c -3,4.63 -20.08,12.63 -20.08,12.63 0,0 0.31,-18.86 3.31,-23.49 a 10,10 0 0 1 16.77,10.86 z"
       transform="translate(-66.64,-11.98)"
       id="path124"
       inkscape:connector-curvature="0" />
    <path
       style="fill:#ffa200"
       d="m 1013.33,590.51 c -4.93,2.48 -23.71,0.77 -23.71,0.77 0,0 9.79,-16.12 14.71,-18.6 a 10,10 0 1 1 9,17.84 z"
       transform="translate(-66.64,-11.98)"
       id="path126"
       inkscape:connector-curvature="0" />
    <path
       style="fill:#ffa200"
       d="m 1003.89,629.9 c -4.44,3.28 -23.24,4.76 -23.24,4.76 0,0 6.92,-17.54 11.36,-20.82 a 10,10 0 1 1 11.88,16.06 z"
       transform="translate(-66.64,-11.98)"
       id="path128"
       inkscape:connector-curvature="0" />
    <path
       style="fill:#ffa200"
       d="m 973,552 c 4,3.84 22.39,7.83 22.39,7.83 0,0 -4.51,-18.31 -8.47,-22.15 A 10,10 0 1 0 973,552 Z"
       transform="translate(-66.64,-11.98)"
       id="path130"
       inkscape:connector-curvature="0" />
    <path
       style="fill:#ffa200"
       d="m 962.55,598.19 c 4.93,2.48 23.71,0.77 23.71,0.77 0,0 -9.79,-16.12 -14.71,-18.6 a 10,10 0 1 0 -9,17.84 z"
       transform="translate(-66.64,-11.98)"
       id="path132"
       inkscape:connector-curvature="0" />
    <path
       style="fill:#ffa200"
       d="m 958.54,644.49 c 4.44,3.28 23.24,4.76 23.24,4.76 0,0 -6.92,-17.54 -11.36,-20.82 a 10,10 0 0 0 -11.88,16.06 z"
       transform="translate(-66.64,-11.98)"
       id="path134"
       inkscape:connector-curvature="0" />
    <path
       style="fill:#a8a8a8"
       d="m 945.12,662.8 c 0,0 22.41,-0.69 29.16,-5.5 6.75,-4.81 34.47,-10.55 36.14,-2.84 1.67,7.71 33.67,38.35 8.38,38.56 -25.29,0.21 -58.78,-3.94 -65.52,-8 -6.74,-4.06 -8.16,-22.22 -8.16,-22.22 z"
       transform="translate(-66.64,-11.98)"
       id="path146"
       inkscape:connector-curvature="0" />
    <path
       style="opacity:0.2"
       d="m 1019.25,690.34 c -25.3,0.2 -58.78,-3.94 -65.52,-8 -5.13,-3.13 -7.18,-14.34 -7.86,-19.52 h -0.75 c 0,0 1.42,18.07 8.16,22.18 6.74,4.11 40.22,8.25 65.52,8 7.3,-0.06 9.82,-2.66 9.69,-6.5 -1.02,2.34 -3.81,3.79 -9.24,3.84 z"
       transform="translate(-66.64,-11.98)"
       id="path148"
       inkscape:connector-curvature="0" />
    <circle
       cx="-60.104214"
       cy="742.68243"
       r="41.990002"
       transform="rotate(-81.78)"
       id="circle40"
       style="fill:#a0616a;fill-opacity:1" />
    <path
       id="path70"
       d="m 736.9653,221.3512 c 0,0 11.91153,2.68246 2.7047,11.5188 0,0 -2.78294,14.20125 -26.38823,17.67266 -23.60531,3.47142 -25.93299,-1.47533 -25.93299,-1.47533 l 2.1619,-1.57791 c 0,0 27.64948,-1.36492 28.9207,-5.46752 1.27122,-4.1026 18.53392,-20.6707 18.53392,-20.6707 z"
       style="fill:#ffa200;stroke-width:0.65977877"
       inkscape:connector-curvature="0"
       sodipodi:nodetypes="ccsccsc" />
    <path
       id="path74"
       d="m 724.10744,259.52579 c 0,0 -13.25223,-4.51862 -13.19094,-3.07 0.0613,1.44862 -8.26815,-5.55384 -5.46571,-8.5255 2.80244,-2.97166 11.27974,-8.40961 13.69785,-2.707 2.41811,5.70261 4.9588,14.3025 4.9588,14.3025 z"
       style="fill:#ffa200"
       inkscape:connector-curvature="0" />
    <path
       id="path78-0"
       d="m 700.79955,243.8464 c 0,0 6.61905,-3.71513 10.55918,2.12974 3.94013,5.84487 -4.75945,15.9944 -10.55918,15.9944 -5.79973,0 -5.79973,-12.32442 -5.79973,-12.32442 z"
       style="opacity:0.1"
       inkscape:connector-curvature="0" />
    <path
       inkscape:connector-curvature="0"
       style="fill:#ffa200;stroke-width:1.2206502"
       d="m 692.09056,263.32742 c 0,0 6.44701,-15.30487 4.60501,-15.30487 -1.842,0 7.49331,-9.41324 11.11465,-5.98203 3.62134,3.43121 10.06836,13.63446 2.70035,16.18523 -7.36801,2.55077 -18.42001,5.10167 -18.42001,5.10167 z"
       id="path72" />
    <path
       id="path70-6"
       d="m 670.49404,210.33447 c 0,0 -8.71378,10.59927 0.58357,20.1688 0,0 4.59023,25.84104 23.92221,19.14285 20.93553,6.54258 21.86353,2.36659 21.86353,2.36659 l -2.06645,-1.43793 c 0,0 -22.94905,-10.26874 -24.90973,-16.28309 -1.96066,-6.01436 -19.39313,-23.95722 -19.39313,-23.95722 z"
       style="fill:#ffa200;stroke-width:0.78066123"
       inkscape:connector-curvature="0"
       sodipodi:nodetypes="ccccccc" />
    <path
       inkscape:connector-curvature="0"
       style="fill:#0b0017;fill-opacity:1;stroke-width:1.05916262"
       d="m 704.20892,100.56689 c -4.27864,2.59035 -8.4515,5.66093 -11.6193,9.97078 a 47.885787,57.35324 0 0 0 -4.55321,7.78378 c -4.56091,8.79509 -13.25757,16.60364 -12.12675,26.86813 0.32266,2.92894 1.08244,6.13022 -0.17753,8.67006 -1.11898,2.25561 -3.42788,3.12551 -5.25243,4.5775 -3.9162,3.11638 -5.56871,8.93084 -6.79385,14.36773 -2.24364,9.95671 0.14529,23.04682 4.3074,32.07487 a 35.185522,42.142017 0 0 1 2.50079,5.45473 9.1281047,10.932813 0 0 1 -0.59764,9.05749 l 8.50477,0.15916 a 69.065111,82.719905 0 0 1 -1.75716,10.88385 8.6364898,10.344002 0 0 0 10.23412,-4.50736 24.728334,29.617348 0 0 0 0.84388,7.9868 32.623932,39.073977 0 0 0 7.644,-10.51296 29.282186,35.071537 0 0 0 4.21562,-17.01618 62.698487,75.094542 0 0 0 -1.18985,-13.22326 c -1.23769,-9.46185 -1.90497,-19.01559 -2.57141,-28.5595 -0.34614,-4.95687 -0.67863,-10.06818 0.59801,-14.8015 l 2.95704,0.40206 a 14.126488,16.919422 0 0 1 1.95948,-5.33368 17.518569,20.982148 0 0 1 4.41823,3.47719 l 5.22768,-9.21547 c 1.68349,3.31982 4.60315,5.40411 7.407,7.35564 l 10.65755,7.41775 0.58078,-2.70002 a 60.345835,72.27675 0 0 0 14.01797,16.66253 3.8061174,4.5586212 0 0 1 -0.14114,-3.75612 c 1.687,6.82692 -0.86329,14.07781 -3.85245,20.23175 -2.98927,6.15392 -6.57093,12.27388 -7.16407,19.35794 -0.44358,5.29828 0.83521,10.82441 -0.54556,15.88593 -0.67989,2.49254 -1.96694,4.69188 -2.70283,7.1615 -1.75482,5.89008 -0.17995,12.37402 1.39605,18.3362 l 6.53288,-6.86315 c 2.39085,-2.51181 4.85029,-5.07394 7.82219,-6.43025 3.05078,-1.3923 6.51897,-1.45155 9.32505,-3.44999 5.00934,-3.56749 5.98354,-11.68314 5.884,-18.66233 -0.0528,-3.71005 -0.24642,-7.51044 0.69374,-11.04604 1.59376,-5.99368 6.09132,-10.0959 9.15087,-15.20857 a 24.994219,29.9358 0 0 0 3.45818,-26.04263 c -1.52182,-5.76059 -4.49671,-10.87152 -5.85766,-16.68955 -1.35478,-5.79163 -1.08694,-12.1761 -3.43555,-17.49249 a 22.76442,27.26515 0 0 0 -4.40183,-6.56411 71.672208,85.842449 0 0 0 -27.56354,-19.642896 c -9.74343,-3.939248 -18.96841,-1.913425 -28.03343,3.574706 z"
       id="path80-3" />
    <path
       style="fill:#ffa200"
       d="m 66.75,687.08 c 0,0 47.74,-7.6 52.09,35.18 4.35,42.78 91.8,48.74 91.8,48.74 L 209,772.07 C 136.8,819.47 67.77,802.26 78.18,739.32 82,715.93 81.73,692.43 66.75,687.08 Z"
       transform="translate(-66.64,-11.98)"
       id="path142"
       inkscape:connector-curvature="0" />
    <path
       style="fill:none;stroke:#535461;stroke-miterlimit:10"
       d="m 66.75,687.08 c 0,0 37.06,8.13 34,41.83 -3.06,33.7 55.04,74.09 109.89,42.09"
       transform="translate(-66.64,-11.98)"
       stroke-miterlimit="10"
       id="path144"
       inkscape:connector-curvature="0" />
    <path
       style="fill:#ffa200"
       d="m 141.26,517.87 c 0,0 41.84,41.84 18.22,103.92 -23.62,62.08 40.52,165.32 40.52,165.32 0,0 -0.69,-0.1 -2,-0.32 -85.93,-15.17 -128.62,-113.44 -80.84,-186.45 17.77,-27.15 32.35,-58.99 24.1,-82.47 z"
       transform="translate(-66.64,-11.98)"
       id="path136"
       inkscape:connector-curvature="0" />
    <g
       id="g6754" />
    <path
       style="fill:none;stroke:#535461;stroke-miterlimit:10"
       d="m 141.26,517.87 c 0,0 23.62,51.28 0,93.12 -23.62,41.84 -4,159.25 58.71,176.12"
       transform="translate(-66.64,-11.98)"
       stroke-miterlimit="10"
       id="path140"
       inkscape:connector-curvature="0" />
    <path
       inkscape:connector-curvature="0"
       id="path138"
       transform="translate(-66.64,-11.98)"
       d="m 141.26,518.56 c 0,0 41.84,41.84 18.22,103.92 C 135.86,684.56 200,787.8 200,787.8 c 0,0 -0.69,-0.1 -2,-0.32 C 112.08,772.31 69.39,674 117.17,601 c 17.76,-27.11 32.34,-59 24.09,-82.44 z"
       style="opacity:0.1" />
    <path
       style="fill:#a8a8a8"
       d="m 247.66,774.54 c 0,0 -37.61,-7.54 -47.66,-17.54 -10.05,-10 -55.15,-27.57 -60.16,-15 -5.01,12.57 -67.66,55.1 -25.04,62.62 42.62,7.52 100.27,10 112.8,5 12.53,-5 20.06,-35.08 20.06,-35.08 z"
       transform="translate(-66.64,-11.98)"
       id="path150"
       inkscape:connector-curvature="0" />
    <path
       style="opacity:0.2"
       d="m 114.8,800 c 42.62,7.52 100.27,10 112.8,5 9.55,-3.82 16.18,-22.16 18.8,-30.7 l 1.25,0.26 c 0,0 -7.52,30.08 -20.05,35.09 -12.53,5.01 -70.19,2.51 -112.8,-5 -12.3,-2.17 -15.82,-7.27 -14.49,-13.72 1.04,4.18 5.33,7.42 14.49,9.07 z"
       transform="translate(-66.64,-11.98)"
       id="path152"
       inkscape:connector-curvature="0" />
    <g
       id="g1076"
       transform="matrix(1.7514715,0.22578247,0,1.7540255,394.33749,198.78758)">
      <g
         transform="translate(-10.076211,-8.721249)"
         style="display:inline"
         inkscape:label="durr"
         id="layer8">
        <g
           inkscape:export-ydpi="299.96201"
           inkscape:export-xdpi="299.96201"
           id="flowRoot4504-8-4"
           style="font-style:normal;font-variant:normal;font-weight:bold;font-stretch:normal;font-size:20px;line-height:25px;font-family:Arial;-inkscape-font-specification:'Arial, Bold';text-align:start;letter-spacing:0px;word-spacing:0px;writing-mode:lr-tb;text-anchor:start;display:inline;opacity:1;fill:#000000;fill-opacity:1;stroke:none;stroke-width:1px;stroke-linecap:butt;stroke-linejoin:miter;stroke-opacity:1"
           transform="matrix(0.26458333,0,0,0.26458333,23.911751,-45.388537)"
           aria-label="lad">
          <path
             sodipodi:nodetypes="cscsccscscc"
             inkscape:connector-curvature="0"
             id="path4584-3"
             style="font-style:normal;font-variant:normal;font-weight:bold;font-stretch:normal;font-size:96px;font-family:'Montserrat Alternates';-inkscape-font-specification:'Montserrat Alternates Bold';fill:#000000;fill-opacity:1"
             d="m 95.601062,269.44343 -0.0011,38.5225 c -5.7e-5,1.984 0.513084,3.552 1.537084,4.704 1.024,1.088 2.240001,1.632 3.648004,1.632 2.688,0 3.65097,0.033 6.816,0.0205 l 0.0103,12.55209 c -5.1871,0.009 -3.85034,0.003 -8.842344,0.003 -4.928,0 -9.12,-1.632 -12.576,-4.896 -3.392,-3.264 -5.088,-7.712 -5.088,-13.344 v -39.1945 z" />
        </g>
        <path
           sodipodi:nodetypes="ssscscccccccsscscscsss"
           inkscape:export-ydpi="299.96201"
           inkscape:export-xdpi="299.96201"
           id="path4588-1"
           style="font-style:normal;font-variant:normal;font-weight:bold;font-stretch:normal;font-size:96px;line-height:25px;font-family:'Montserrat Alternates';-inkscape-font-specification:'Montserrat Alternates Bold';text-align:start;letter-spacing:0px;word-spacing:0px;writing-mode:lr-tb;text-anchor:start;opacity:1;fill:#000000;fill-opacity:1;stroke:none;stroke-width:0.26458332px;stroke-linecap:butt;stroke-linejoin:miter;stroke-opacity:1"
           d="m 75.669676,41.098735 c -1.608667,0 -3.048,-0.6858 -4.318,-2.0574 -1.27,-1.3716 -1.905,-3.0734 -1.905,-5.105399 0,-2.032 0.618067,-3.691467 1.8542,-4.9784 1.236133,-1.303867 2.683933,-1.9558 4.3434,-1.9558 1.659469,0 3.014136,0.5842 4.064003,1.7526 l 1.77e-4,-5.64119 1.905,-1.700293 1.905,1.700293 -1.77e-4,17.782389 h -3.81 v -1.8034 c -1.0668,1.337733 -2.413001,2.0066 -4.038603,2.0066 z m -2.3876,-7.010399 c 0,1.100666 0.3302,2.006599 0.9906,2.717799 0.6604,0.694267 1.430867,1.0414 2.3114,1.0414 0.880535,0 1.625603,-0.347133 2.235203,-1.0414 0.626533,-0.7112 0.9398,-1.617133 0.9398,-2.717799 0,-1.1176 -0.313267,-2.040467 -0.9398,-2.7686 -0.6096,-0.745067 -1.363134,-1.1176 -2.260603,-1.1176 -0.897467,0 -1.667933,0.372533 -2.3114,1.1176 -0.643467,0.745067 -0.9652,1.667933 -0.9652,2.7686 z"
           inkscape:connector-curvature="0" />
        <g
           inkscape:export-ydpi="299.96201"
           inkscape:export-xdpi="299.96201"
           id="flowRoot4504-6"
           style="font-style:normal;font-variant:normal;font-weight:bold;font-stretch:normal;font-size:20px;line-height:25px;font-family:Arial;-inkscape-font-specification:'Arial, Bold';text-align:start;letter-spacing:0px;word-spacing:0px;writing-mode:lr-tb;text-anchor:start;opacity:1;fill:#ffffff;fill-opacity:1;stroke:none;stroke-width:1px;stroke-linecap:butt;stroke-linejoin:miter;stroke-opacity:1"
           transform="matrix(0.26458333,0,0,0.26458333,-10.022048,-59.473525)"
           aria-label="data">
          <path
             inkscape:connector-curvature="0"
             id="path4612-4"
             style="font-style:normal;font-variant:normal;font-weight:bold;font-stretch:normal;font-size:96px;font-family:'Montserrat Alternates';-inkscape-font-specification:'Montserrat Alternates Bold';fill:#ffffff;fill-opacity:1"
             d="m 171.53287,326.87793 q -9.888,0 -17.28,-7.392 -7.392,-7.392 -7.392,-19.392 0,-12.096 7.584,-19.296 7.584,-7.2 17.568,-7.2 7.776,0 13.536,5.184 v -4.32 h 14.496 v 51.648 h -14.496 v -4.224 q -6.144,4.992 -14.016,4.992 z m -10.176,-26.496 q 0,6.336 3.744,10.368 3.744,3.936 8.736,3.936 4.992,0 8.448,-3.936 3.456,-4.032 3.456,-10.272 0,-6.336 -3.456,-10.56 -3.456,-4.224 -8.544,-4.224 -5.088,0 -8.736,4.224 -3.648,4.128 -3.648,10.464 z" />
          <path
             sodipodi:nodetypes="sssssccccccsscscssscs"
             inkscape:connector-curvature="0"
             id="path4616-0"
             style="font-style:normal;font-variant:normal;font-weight:bold;font-stretch:normal;font-size:96px;font-family:'Montserrat Alternates';-inkscape-font-specification:'Montserrat Alternates Bold';fill:#ffffff;fill-opacity:1"
             d="m 264.91341,326.87793 c -6.592,0 -12.352,-2.464 -17.28,-7.392 -4.928,-4.928 -7.392,-11.392 -7.392,-19.392 0,-8.064 2.528,-14.496 7.584,-19.296 5.056,-4.8 10.912,-7.2 17.568,-7.2 5.184,0 9.696,1.728 13.536,5.184 v -4.32 h 14.496 v 52.44075 h -14.496 v -5.01675 c -4.096,3.328 -8.768,4.992 -14.016,4.992 z m -10.176,-26.496 c 0,4.224 1.248,7.68 3.744,10.368 2.496,2.624 5.408,3.936 8.736,3.936 3.328,0 6.144,-1.312 8.448,-3.936 2.304,-2.688 3.456,-6.112 3.456,-10.272 0,-4.224 -1.152,-7.744 -3.456,-10.56 -2.304,-2.816 -5.152,-4.224 -8.544,-4.224 -3.392,0 -6.304,1.408 -8.736,4.224 -2.432,2.752 -3.648,6.24 -3.648,10.464 z" />
          <path
             sodipodi:nodetypes="cccccccccccc"
             inkscape:connector-curvature="0"
             id="path4614-2"
             style="font-style:normal;font-variant:normal;font-weight:bold;font-stretch:normal;font-size:96px;font-family:'Montserrat Alternates';-inkscape-font-specification:'Montserrat Alternates Bold';fill:#ffffff;fill-opacity:1"
             d="m 209.3575,326.42845 4e-5,-17.79057 -7.6e-4,-49.632 14.49624,-10e-6 v 15.456 h 12.48 v 11.232 h -12.48 l -10e-4,22.272 -3e-5,15.24998 -7.24725,6.42519 -7.24724,-6.42519" />
        </g>
        <path
           inkscape:export-ydpi="299.96201"
           inkscape:export-xdpi="299.96201"
           sodipodi:nodetypes="cccsccssscccccsccsc"
           inkscape:connector-curvature="0"
           id="path1711-6-2-1"
           d="m 17.452682,8.7212544 -1.906485,1.9064846 1.940098,1.940098 h 0.282821 c 0.946542,0 1.789879,0.223753 2.529901,0.671209 0.740024,0.430247 1.316456,1.041043 1.729492,1.832696 0.430247,0.791651 0.645475,1.703714 0.645475,2.736304 0,1.015381 -0.197915,1.918919 -0.593741,2.710572 -0.395827,0.791653 -0.946686,1.40271 -1.652289,1.832957 -0.252626,0.154039 -0.518946,0.279256 -0.798045,0.378146 0.194754,0.207133 1.7463,1.536742 1.7463,1.536742 l -1.241054,2.325074 c 0.957959,-0.187072 1.84731,-0.490146 2.667767,-0.909914 1.497255,-0.757234 2.650383,-1.824061 3.459245,-3.200848 0.826073,-1.376788 1.239217,-2.951585 1.239217,-4.724198 0,-1.772614 -0.404618,-3.338623 -1.21348,-4.6982 C 25.479041,11.68159 24.343225,10.614499 22.880388,9.8572668 21.434762,9.1000353 19.765401,8.7212544 17.872319,8.7212544 Z"
           style="font-style:normal;font-variant:normal;font-weight:bold;font-stretch:normal;font-size:192px;line-height:25px;font-family:Montserrat;-inkscape-font-specification:'Montserrat Bold';text-align:start;letter-spacing:0px;word-spacing:0px;writing-mode:lr-tb;text-anchor:start;fill:#ffffff;fill-opacity:1;stroke:none;stroke-width:0.13445187px;stroke-linecap:butt;stroke-linejoin:miter;stroke-opacity:1" />
        <path
           inkscape:export-ydpi="299.96201"
           inkscape:export-xdpi="299.96201"
           sodipodi:nodetypes="ssssscccccccsscscssscs"
           id="path4586-7"
           style="font-style:normal;font-variant:normal;font-weight:bold;font-stretch:normal;font-size:96px;line-height:25px;font-family:'Montserrat Alternates';-inkscape-font-specification:'Montserrat Alternates Bold';text-align:start;letter-spacing:0px;word-spacing:0px;writing-mode:lr-tb;text-anchor:start;opacity:1;fill:#000000;fill-opacity:1;stroke:none;stroke-width:0.26458332px;stroke-linecap:butt;stroke-linejoin:miter;stroke-opacity:1"
           d="m 60.069768,41.098735 c -1.744133,0 -3.268133,-0.651933 -4.572,-1.9558 -1.303866,-1.303867 -1.9558,-3.014133 -1.9558,-5.130799 0,-2.1336 0.668867,-3.8354 2.0066,-5.1054 1.337734,-1.27 2.887134,-1.905 4.6482,-1.905 1.3716,0 2.5654,0.4572 3.5814,1.3716 l 2.88e-4,-1.35286 1.9175,-1.700476 1.9175,1.700476 1.12e-4,13.875059 h -3.8354 v -1.1176 c -1.083733,0.880531 -2.319866,1.3208 -3.7084,1.3208 z m -2.6924,-7.010399 c 0,1.117599 0.3302,2.031999 0.9906,2.743199 0.6604,0.694267 1.430867,1.0414 2.3114,1.0414 0.880534,0 1.6256,-0.347133 2.2352,-1.0414 0.6096,-0.7112 0.9144,-1.617133 0.9144,-2.717799 0,-1.1176 -0.3048,-2.048933 -0.9144,-2.794 -0.6096,-0.745067 -1.363133,-1.1176 -2.2606,-1.1176 -0.897466,0 -1.667933,0.372533 -2.3114,1.1176 -0.643466,0.728133 -0.9652,1.651 -0.9652,2.7686 z"
           inkscape:connector-curvature="0" />
        <path
           sodipodi:nodetypes="ccccccc"
           inkscape:connector-curvature="0"
           id="rect2037"
           d="m 79.708456,20.517949 1.905,-1.7 1.905,1.7 V 22.218 l -1.905,-1.700015 -1.905,1.700015 z"
           style="opacity:1;fill:#000000;fill-opacity:1;fill-rule:evenodd;stroke:none;stroke-width:1.05833328;stroke-linecap:butt;stroke-linejoin:miter;stroke-miterlimit:4;stroke-dasharray:none;stroke-opacity:0" />
        <path
           sodipodi:nodetypes="ccccccc"
           inkscape:connector-curvature="0"
           id="rect2037-6"
           d="m 79.708456,17.927898 1.905,-1.7 1.905,1.7 v 1.700051 l -1.905,-1.700015 -1.905,1.700015 z"
           style="display:inline;opacity:1;fill:#000000;fill-opacity:1;fill-rule:evenodd;stroke:none;stroke-width:1.05833328;stroke-linecap:butt;stroke-linejoin:miter;stroke-miterlimit:4;stroke-dasharray:none;stroke-opacity:0" />
      </g>
      <g
         transform="translate(-10.076211,-8.721249)"
         inkscape:label="L"
         id="layer9"
         style="fill:#000000">
        <path
           inkscape:export-ydpi="299.96201"
           inkscape:export-xdpi="299.96201"
           sodipodi:nodetypes="cczcccccccccc"
           inkscape:connector-curvature="0"
           id="path1711-6-2-1-9"
           d="m 10.076211,8.721255 v 18.096381 c 0,0 6.723806,0.0017 7.275896,0 0.552089,-0.0017 0.786041,-0.100838 0.786041,-0.100838 l 1.26597,-1.979505 -2.025955,-1.740245 h -2.577755 v -10.42921 l -0.89967,-0.899934 -1.040165,-1.040164 -5.55e-4,-2.68e-4 c 1.3e-4,1.33e-4 0.957608,-0.957398 1.906482,-1.906223 z"
           style="font-style:normal;font-variant:normal;font-weight:bold;font-stretch:normal;font-size:192px;line-height:25px;font-family:Montserrat;-inkscape-font-specification:'Montserrat Bold';text-align:start;letter-spacing:0px;word-spacing:0px;writing-mode:lr-tb;text-anchor:start;fill:#000000;fill-opacity:1;stroke:none;stroke-width:0.13445187px;stroke-linecap:butt;stroke-linejoin:miter;stroke-opacity:1" />
      </g>
    </g>
    <text
       xml:space="preserve"
       style="font-style:normal;font-variant:normal;font-weight:normal;font-stretch:normal;font-size:6.32232952px;line-height:80.50000072%;font-family:'Droid Sans';-inkscape-font-specification:'Droid Sans';text-align:start;letter-spacing:0px;word-spacing:0px;text-anchor:start;display:inline;opacity:0.97000002;fill:#000000;fill-opacity:0.98823529;stroke:none;stroke-width:0.19892259px;stroke-linecap:butt;stroke-linejoin:miter;stroke-miterlimit:100000;stroke-opacity:1"
       x="-360.75244"
       y="522.9082"
       id="text5839-9-5-8"
       inkscape:export-filename="/home/adina/repos/datalad-handbook/docs/artwork/src/local_wf_simple.png"
       inkscape:export-xdpi="272.60767"
       inkscape:export-ydpi="272.60767"><tspan
         sodipodi:role="line"
         style="font-style:normal;font-variant:normal;font-weight:normal;font-stretch:normal;font-size:308px;line-height:80.50000072%;font-family:'Latin Modern Sans Demi Cond';-inkscape-font-specification:'Latin Modern Sans Demi Cond';text-align:center;text-anchor:middle;fill:#000000;fill-opacity:0.98823529;stroke-width:0.19892259px;stroke-linecap:butt;stroke-linejoin:round;stroke-miterlimit:100000"
         x="-360.75241"
         y="522.9082"
         id="tspan14931">Advanced</tspan></text>
  </g>
</svg>
