<?xml version="1.0" encoding="UTF-8" standalone="no"?>
<svg
   xmlns:dc="http://purl.org/dc/elements/1.1/"
   xmlns:cc="http://creativecommons.org/ns#"
   xmlns:rdf="http://www.w3.org/1999/02/22-rdf-syntax-ns#"
   xmlns:svg="http://www.w3.org/2000/svg"
   xmlns="http://www.w3.org/2000/svg"
   xmlns:xlink="http://www.w3.org/1999/xlink"
   xmlns:sodipodi="http://sodipodi.sourceforge.net/DTD/sodipodi-0.dtd"
   xmlns:inkscape="http://www.inkscape.org/namespaces/inkscape"
   sodipodi:docname="closedbox.svg"
   inkscape:version="1.0rc1 (09960d6f05, 2020-04-09)"
   id="svg8"
   version="1.1"
   viewBox="0 0 210 297"
   height="297mm"
   width="210mm">
  <defs
     id="defs2">
    <linearGradient
       id="7e9b6443-5111-46ce-82ab-312f92c279a9-6-4-5"
       x1="279.92001"
       y1="417.64001"
       x2="279.92001"
       y2="253.24001"
       xlink:href="#de77dbfb-dd49-4fbc-923c-7946454dd32b" />
    <linearGradient
       gradientUnits="userSpaceOnUse"
       y2="536.32001"
       x2="608.5"
       y1="536.32001"
       x1="366.37"
       id="de77dbfb-dd49-4fbc-923c-7946454dd32b">
      <stop
         id="stop2"
         stop-opacity="0.25"
         stop-color="gray"
         offset="0" />
      <stop
         id="stop4"
         stop-opacity="0.12"
         stop-color="gray"
         offset="0.54" />
      <stop
         id="stop6"
         stop-opacity="0.1"
         stop-color="gray"
         offset="1" />
    </linearGradient>
    <linearGradient
       id="0bd401ed-ef45-4e9e-bf5f-b77781a1e2b2-5-3-7"
       x1="306.82001"
       y1="455.63"
       x2="306.82001"
       y2="291.23001"
       xlink:href="#de77dbfb-dd49-4fbc-923c-7946454dd32b" />
    <linearGradient
       id="8c2d82fb-4f28-4e85-a5ca-7392731b2ba5-6-0-2"
       x1="398.54001"
       y1="493.89999"
       x2="398.54001"
       y2="312.51001"
       xlink:href="#de77dbfb-dd49-4fbc-923c-7946454dd32b" />
    <linearGradient
       id="5d661687-e38a-43c0-8ba0-d38908ccc19f-2-7-8"
       x1="632.27002"
       y1="432.45001"
       x2="632.27002"
       y2="406.53"
       xlink:href="#de77dbfb-dd49-4fbc-923c-7946454dd32b" />
    <linearGradient
       gradientTransform="matrix(0.11944796,0,0,0.11944796,92.284518,56.168143)"
       id="e62c516b-7ef4-49fd-a0a5-f3f48af03dcb-9-8-29"
       x1="518.71002"
       y1="403.60001"
       x2="518.71002"
       y2="335.57999"
       xlink:href="#de77dbfb-dd49-4fbc-923c-7946454dd32b" />
  </defs>
  <sodipodi:namedview
     inkscape:window-maximized="1"
     inkscape:window-y="390"
     inkscape:window-x="0"
     inkscape:window-height="1013"
     inkscape:window-width="1680"
     showgrid="false"
     inkscape:document-rotation="0"
     inkscape:current-layer="layer1"
     inkscape:document-units="mm"
     inkscape:cy="423.9588"
     inkscape:cx="679.20748"
     inkscape:zoom="1.4"
     inkscape:pageshadow="2"
     inkscape:pageopacity="0.0"
     borderopacity="1.0"
     bordercolor="#666666"
     pagecolor="#ffffff"
     id="base" />
  <metadata
     id="metadata5">
    <rdf:RDF>
      <cc:Work
         rdf:about="">
        <dc:format>image/svg+xml</dc:format>
        <dc:type
           rdf:resource="http://purl.org/dc/dcmitype/StillImage" />
        <dc:title></dc:title>
      </cc:Work>
    </rdf:RDF>
  </metadata>
  <g
     id="layer1"
     inkscape:groupmode="layer"
     inkscape:label="Layer 1">
    <g
       id="g3137">
      <polygon
         id="polygon298-2-8-6"
         fill="#535461"
         points="368.88,758.01 608.94,695.17 608.94,363.36 368.88,305.54 "
         transform="matrix(0.11944796,0,0,0.11944796,92.284518,56.168143)" />
      <polygon
         id="polygon300-7-8-0"
         opacity="0.1"
         points="368.88,758.01 608.94,695.17 608.94,363.36 368.88,305.54 "
         transform="matrix(0.11944796,0,0,0.11944796,92.284518,56.168143)" />
      <polygon
         id="polygon302-0-4-2"
         fill="#535461"
         points="368.88,758.01 128.83,696.42 128.83,363.36 368.88,305.54 "
         transform="matrix(0.11944796,0,0,0.11944796,92.284518,56.168143)" />
      <polygon
         id="polygon304-9-3-7"
         opacity="0.17"
         points="368.88,758.01 128.83,696.42 128.83,361.36 368.88,303.54 "
         transform="matrix(0.11944796,0,0,0.11944796,92.284518,56.168143)" />
      <polygon
         id="polygon394-6-5-91"
         fill="#535461"
         points="368.88,758.01 372.12,427.46 128.83,363.36 128.83,696.42 "
         transform="matrix(0.11944796,0,0,0.11944796,92.284518,56.168143)" />
      <polygon
         id="polygon396-3-9-9"
         fill="#535461"
         points="368.88,427.46 608.94,363.36 608.94,695.17 368.88,758.01 "
         transform="matrix(0.11944796,0,0,0.11944796,92.284518,56.168143)" />
      <polygon
         transform="matrix(0.11960578,0.0098829,-0.0131531,0.08209189,126.54655,61.323254)"
         points="128.83,363.36 5.66,465.16 245.71,525.49 368.88,427.46 "
         fill="#535461"
         id="polygon486-9-8-2" />
      <polygon
         transform="matrix(0.11944796,0,0,0.11944796,92.284518,56.168143)"
         points="608.94,363.36 608.94,695.17 368.88,758.01 368.88,427.46 "
         opacity="0.07"
         id="polygon398-2-7-6" />
      <g
         id="g3086">
        <polygon
           id="polygon488-7-6-3"
           fill="#535461"
           points="608.94,363.36 733.37,465.16 494.57,525.49 368.88,427.46 "
           transform="matrix(0.11944796,0,0,-0.11944796,63.996852,150.62998)" />
        <polygon
           id="polygon490-6-3-60"
           opacity="0.07"
           points="368.88,427.46 608.94,363.36 733.37,465.16 494.57,525.49 "
           transform="matrix(-0.11944796,0,0,0.11944796,195.80887,44.458659)" />
      </g>
    </g>
  </g>
</svg>
