<?xml version="1.0" encoding="UTF-8" standalone="no"?>
<svg
   xmlns:dc="http://purl.org/dc/elements/1.1/"
   xmlns:cc="http://creativecommons.org/ns#"
   xmlns:rdf="http://www.w3.org/1999/02/22-rdf-syntax-ns#"
   xmlns:svg="http://www.w3.org/2000/svg"
   xmlns="http://www.w3.org/2000/svg"
   xmlns:sodipodi="http://sodipodi.sourceforge.net/DTD/sodipodi-0.dtd"
   xmlns:inkscape="http://www.inkscape.org/namespaces/inkscape"
   width="295.28162mm"
   height="185.5923mm"
   viewBox="0 0 295.28162 185.5923"
   version="1.1"
   id="svg8"
   inkscape:version="1.0.2 (e86c870879, 2021-01-15)"
   sodipodi:docname="coarsemetadata.svg"
   inkscape:export-filename="/home/adina/coarsemetadata.png"
   inkscape:export-xdpi="206.45"
   inkscape:export-ydpi="206.45">
  <defs
     id="defs2">
    <rect
       x="1078.5673"
       y="-248.32466"
       width="414.92075"
       height="107.45834"
       id="rect51159-7" />
    <rect
       x="1078.5673"
       y="-248.32466"
       width="414.92075"
       height="107.45834"
       id="rect51159-7-3" />
    <rect
       x="1078.5673"
       y="-248.32466"
       width="414.92075"
       height="107.45834"
       id="rect51159-7-9" />
    <rect
       x="1078.5673"
       y="-248.32466"
       width="414.92075"
       height="107.45834"
       id="rect51159-7-0-2" />
    <rect
       x="1078.5673"
       y="-248.32466"
       width="639.54126"
       height="770.56641"
       id="rect51159-7-36" />
    <rect
       x="1078.5673"
       y="-248.32466"
       width="414.92075"
       height="107.45834"
       id="rect232" />
  </defs>
  <sodipodi:namedview
     id="base"
     pagecolor="#ffffff"
     bordercolor="#666666"
     borderopacity="1.0"
     inkscape:pageopacity="0.0"
     inkscape:pageshadow="2"
     inkscape:zoom="0.75575672"
     inkscape:cx="142.13533"
     inkscape:cy="195.81168"
     inkscape:document-units="mm"
     inkscape:current-layer="layer1"
     inkscape:document-rotation="0"
     showgrid="false"
     fit-margin-top="0"
     fit-margin-left="0"
     fit-margin-right="0"
     fit-margin-bottom="0"
     inkscape:window-width="2560"
     inkscape:window-height="1376"
     inkscape:window-x="0"
     inkscape:window-y="27"
     inkscape:window-maximized="1" />
  <metadata
     id="metadata5">
    <rdf:RDF>
      <cc:Work
         rdf:about="">
        <dc:format>image/svg+xml</dc:format>
        <dc:type
           rdf:resource="http://purl.org/dc/dcmitype/StillImage" />
        <dc:title></dc:title>
      </cc:Work>
    </rdf:RDF>
  </metadata>
  <g
     inkscape:label="Layer 1"
     inkscape:groupmode="layer"
     id="layer1"
     transform="translate(-1.066334,-101.2818)">
    <g
       id="g47899-0-3"
       transform="matrix(0.32972011,0,0,0.32972011,121.12822,449.47892)"
       inkscape:export-filename="/home/adina/ukbworkflow.png"
       inkscape:export-xdpi="206.45"
       inkscape:export-ydpi="206.45"
       style="opacity:1">
      <g
         id="g45339-2-3"
         transform="translate(-1356.9126,-749.65776)"
         style="stroke:#ffe5b8;stroke-opacity:1">
        <rect
           style="opacity:1;fill:#e6e6e6;fill-opacity:1;fill-rule:nonzero;stroke:none;stroke-width:0.713091;stroke-linecap:round;stroke-linejoin:bevel;stroke-miterlimit:100;stroke-dasharray:none;stroke-dashoffset:0;stroke-opacity:1"
           id="rect2459-2-4-5"
           width="447.65219"
           height="99.870728"
           x="993.02637"
           y="-265.74725" />
        <g
           id="g383-1-3-0"
           transform="matrix(1.6629431,0,0,1.3945947,1208.7083,-208.36197)"
           style="stroke:#ffe5b8;stroke-opacity:1">
          <rect
             y="-70.13681"
             x="-129.69922"
             height="28.988708"
             width="270.16861"
             id="rect14571-8-3-49-7-1"
             style="opacity:1;fill:#333333;fill-opacity:1;fill-rule:evenodd;stroke:#ffe5b8;stroke-width:0.29588;stroke-linecap:round;stroke-linejoin:miter;stroke-miterlimit:4;stroke-dasharray:none;stroke-dashoffset:0;stroke-opacity:1" />
          <text
             transform="scale(0.87456041,1.1434316)"
             xml:space="preserve"
             style="font-style:normal;font-variant:normal;font-weight:normal;font-stretch:normal;font-size:2.77673px;line-height:0%;font-family:'Droid Sans';-inkscape-font-specification:'Droid Sans';text-align:center;letter-spacing:0px;word-spacing:0px;text-anchor:middle;fill:#ffffff;fill-opacity:1;stroke:#ffe5b8;stroke-width:0.231394;stroke-linecap:square;stroke-linejoin:round;stroke-miterlimit:100000;stroke-opacity:1"
             x="14.298311"
             y="-44.834503"
             id="text14575-4-8-1-9-4"><tspan
               sodipodi:role="line"
               id="tspan14577-3-9-07-4-5"
               x="14.298311"
               y="-44.834503"
               style="font-style:normal;font-variant:normal;font-weight:bold;font-stretch:normal;font-size:14.8092px;line-height:1.25;font-family:'Latin Modern Sans Demi Cond';-inkscape-font-specification:'Latin Modern Sans Demi Cond Bold';fill:#ffffff;fill-opacity:1;stroke:#ffe5b8;stroke-width:0.231394;stroke-linecap:square;stroke-linejoin:round;stroke-miterlimit:100000;stroke-opacity:1">Author, Agent, Date, and Time</tspan></text>
        </g>
        <text
           xml:space="preserve"
           id="text51157-7"
           style="font-style:normal;font-weight:normal;font-size:16.9333px;line-height:1.25;font-family:sans-serif;text-align:center;letter-spacing:0px;word-spacing:0px;white-space:pre;shape-inside:url(#rect51159-7);fill:#000000;fill-opacity:1;stroke:none;"
           transform="translate(12.437989,-12.902564)"
           x="-206.8429"
           y="0"><tspan
             x="1078.5664"
             y="-232.10212"><tspan
               style="font-style:normal;font-variant:normal;font-weight:normal;font-stretch:normal;font-size:16.9333px;font-family:'Latin Modern Sans Demi Cond';-inkscape-font-specification:'Latin Modern Sans Demi Cond';text-align:start;text-anchor:start">Author:  Jane Doe &lt;j.doe@fz-juelich.de&gt;
</tspan></tspan><tspan
             x="1078.5664"
             y="-209.69539"><tspan
               style="font-style:normal;font-variant:normal;font-weight:normal;font-stretch:normal;font-size:16.9333px;font-family:'Latin Modern Sans Demi Cond';-inkscape-font-specification:'Latin Modern Sans Demi Cond';text-align:start;text-anchor:start">AuthorDate: Wed Feb 10 18:05:30 2021 +0100
</tspan></tspan><tspan
             x="1078.5664"
             y="-187.28867"><tspan
               style="font-style:normal;font-variant:normal;font-weight:normal;font-stretch:normal;font-size:16.9333px;font-family:'Latin Modern Sans Demi Cond';-inkscape-font-specification:'Latin Modern Sans Demi Cond';text-align:start;text-anchor:start">Commit:  Jane Doe &lt;j.doe@fz-juelich.de&gt;
</tspan></tspan><tspan
             x="1078.5664"
             y="-164.88195"><tspan
               style="font-style:normal;font-variant:normal;font-weight:normal;font-stretch:normal;font-size:16.9333px;font-family:'Latin Modern Sans Demi Cond';-inkscape-font-specification:'Latin Modern Sans Demi Cond';text-align:start;text-anchor:start">CommitDate: Wed Feb 10 18:05:30 2021 +0100
</tspan></tspan></text>
      </g>
      <g
         id="g45339-2-3-62"
         transform="translate(-1148.4187,-287.49022)"
         style="stroke:#ffe5b8;stroke-opacity:1" />
    </g>
    <g
       style="fill:none"
       id="g907"
       transform="matrix(1.3438477,0,0,1.3438477,1.4552348,115.67446)">
      <path
         d="m 11.3135,15.4999 c 0.1724,-0.5334 0.4118,-1.0368 0.7084,-1.5 H 4.25278 c -1.24202,0 -2.24887,1.0069 -2.24887,2.2489 v 0.5777 c 0,0.8928 0.31851,1.7563 0.89828,2.4352 1.5663,1.8342 3.95231,2.7394 7.09821,2.7394 0.931,0 1.7957,-0.0793 2.5923,-0.2385 -0.3592,-0.4132 -0.6671,-0.8723 -0.9138,-1.3672 -0.5234,0.0704 -1.0827,0.1057 -1.6785,0.1057 -2.73834,0 -4.70422,-0.7458 -5.95753,-2.2135 C 3.69502,17.8802 3.50391,17.3622 3.50391,16.8265 v -0.5777 c 0,-0.4136 0.33528,-0.7489 0.74887,-0.7489 z"
         fill="#212121"
         id="path890" />
      <path
         d="m 10.0004,2.00464 c 2.7614,0 5,2.23857 5,5 0,2.76142 -2.2386,4.99996 -5,4.99996 -2.76146,0 -5.00004,-2.23854 -5.00004,-4.99996 0,-2.76143 2.23858,-5 5.00004,-5 z m 0,1.5 c -1.93303,0 -3.50004,1.567 -3.50004,3.5 0,1.933 1.56701,3.49996 3.50004,3.49996 1.933,0 3.5,-1.56696 3.5,-3.49996 0,-1.933 -1.567,-3.5 -3.5,-3.5 z"
         fill="#212121"
         id="path892" />
      <path
         d="M 17.5,12 C 20.5376,12 23,14.4624 23,17.5 23,20.5376 20.5376,23 17.5,23 14.4624,23 12,20.5376 12,17.5 12,14.4624 14.4624,12 17.5,12 Z m 2,5.5001 h -2 v -2.5002 c 0,-0.2761 -0.2239,-0.5 -0.5,-0.5 -0.2761,0 -0.5,0.2239 -0.5,0.5 v 2.9986 0.0016 c 0,0.2761 0.2239,0.5 0.5,0.5 h 2.5 c 0.2761,0 0.5,-0.2239 0.5,-0.5 0,-0.2762 -0.2239,-0.5 -0.5,-0.5 z"
         fill="#212121"
         id="path894" />
    </g>
    <g
       id="g3292"
       transform="matrix(0.3297201,0,0,0.3297201,121.65755,423.65014)"
       style="opacity:1">
      <g
         id="g45339-2-3-6"
         transform="translate(-1358.5175,-531.02446)"
         style="stroke:#ffe5b8;stroke-opacity:1">
        <rect
           style="opacity:1;fill:#e6e6e6;fill-opacity:1;fill-rule:nonzero;stroke:none;stroke-width:0.713091;stroke-linecap:round;stroke-linejoin:bevel;stroke-miterlimit:100;stroke-dasharray:none;stroke-dashoffset:0;stroke-opacity:1"
           id="rect2459-2-4-5-7"
           width="447.65219"
           height="99.870728"
           x="993.02637"
           y="-265.74725" />
        <g
           id="g383-1-3-0-5"
           transform="matrix(1.6629431,0,0,1.3945947,1208.7083,-208.36197)"
           style="stroke:#ffe5b8;stroke-opacity:1">
          <rect
             y="-70.13681"
             x="-129.69922"
             height="28.988708"
             width="270.16861"
             id="rect14571-8-3-49-7-1-3"
             style="opacity:1;fill:#333333;fill-opacity:1;fill-rule:evenodd;stroke:#ffe5b8;stroke-width:0.29588;stroke-linecap:round;stroke-linejoin:miter;stroke-miterlimit:4;stroke-dasharray:none;stroke-dashoffset:0;stroke-opacity:1" />
          <text
             transform="scale(0.87456041,1.1434316)"
             xml:space="preserve"
             style="font-style:normal;font-variant:normal;font-weight:normal;font-stretch:normal;font-size:2.77673px;line-height:0%;font-family:'Droid Sans';-inkscape-font-specification:'Droid Sans';text-align:center;letter-spacing:0px;word-spacing:0px;text-anchor:middle;fill:#ffffff;fill-opacity:1;stroke:#ffe5b8;stroke-width:0.231394;stroke-linecap:square;stroke-linejoin:round;stroke-miterlimit:100000;stroke-opacity:1"
             x="14.298311"
             y="-44.834503"
             id="text14575-4-8-1-9-4-5"><tspan
               sodipodi:role="line"
               id="tspan14577-3-9-07-4-5-6"
               x="16.645565"
               y="-44.834503"
               style="font-style:normal;font-variant:normal;font-weight:bold;font-stretch:normal;font-size:14.8092px;line-height:1.25;font-family:'Latin Modern Sans Demi Cond';-inkscape-font-specification:'Latin Modern Sans Demi Cond Bold';fill:#ffffff;fill-opacity:1;stroke:#ffe5b8;stroke-width:0.231394;stroke-linecap:square;stroke-linejoin:round;stroke-miterlimit:100000;stroke-opacity:1">Software container image </tspan></text>
        </g>
        <text
           xml:space="preserve"
           id="text51157-7-2"
           style="font-style:normal;font-weight:normal;font-size:16.9333px;line-height:1.25;font-family:sans-serif;text-align:center;letter-spacing:0px;word-spacing:0px;white-space:pre;shape-inside:url(#rect51159-7-3);fill:#000000;fill-opacity:1;stroke:none;"
           transform="translate(33.81257,9.9263634)"
           x="-206.8429"
           y="0"><tspan
             x="1078.5664"
             y="-232.10212"><tspan
               style="font-style:normal;font-variant:normal;font-weight:normal;font-stretch:normal;font-size:16.9333px;font-family:'Latin Modern Sans Demi Cond';-inkscape-font-specification:'Latin Modern Sans Demi Cond';text-align:start;text-anchor:start">Origin: http://containers.ds.inm7.de/annex/...
</tspan></tspan><tspan
             x="1078.5664"
             y="-209.69539"><tspan
               style="font-style:normal;font-variant:normal;font-weight:normal;font-stretch:normal;font-size:16.9333px;font-family:'Latin Modern Sans Demi Cond';-inkscape-font-specification:'Latin Modern Sans Demi Cond';text-align:start;text-anchor:start">Version: dfa6d975ea8888ed33bf714c674371e</tspan></tspan></text>
      </g>
      <g
         id="g3042"
         transform="matrix(0.19795568,0,0,0.19795568,-356.68889,-792.8869)"
         style="stroke:#ffe5b8;stroke-opacity:1">
        <g
           id="g2981">
          <path
             d="M 462.5,22.5 H 7.5 C 3.357,22.5 0,25.857 0,30 v 410 c 0,4.143 3.357,7.5 7.5,7.5 h 455 c 4.143,0 7.5,-3.357 7.5,-7.5 V 30 c 0,-4.143 -3.357,-7.5 -7.5,-7.5 z m -7.5,410 H 15 v -395 h 277.5 v 45 h -255 c -4.143,0 -7.5,3.357 -7.5,7.5 0,4.143 3.357,7.5 7.5,7.5 h 395 c 4.143,0 7.5,-3.357 7.5,-7.5 0,-4.143 -3.357,-7.5 -7.5,-7.5 h -125 v -45 H 455 Z"
             id="path2969" />
          <circle
             cx="381.5"
             cy="60"
             r="7.5"
             id="circle2971" />
          <circle
             cx="340.5"
             cy="60"
             r="7.5"
             id="circle2973" />
          <circle
             cx="422.5"
             cy="60"
             r="7.5"
             id="circle2975" />
          <path
             d="m 235,206.676 c -30.646,0 -55.577,24.932 -55.577,55.577 0,30.645 24.931,55.577 55.577,55.577 8.816,0 17.612,-2.133 25.436,-6.167 3.682,-1.898 5.127,-6.422 3.229,-10.104 -1.899,-3.682 -6.422,-5.124 -10.104,-3.229 -5.789,2.985 -12.033,4.499 -18.561,4.499 -22.374,0 -40.577,-18.203 -40.577,-40.577 0,-22.374 18.203,-40.577 40.577,-40.577 22.374,0 40.577,18.203 40.577,40.577 0,6.528 -1.514,12.772 -4.498,18.56 -1.898,3.681 -0.453,8.204 3.229,10.104 3.68,1.895 8.203,0.455 10.104,-3.229 4.034,-7.821 6.166,-16.616 6.166,-25.435 C 290.577,231.607 265.646,206.676 235,206.676 Z"
             id="path2977" />
          <path
             d="m 358.087,234.753 h -31.543 c -1.851,-6.15 -4.322,-12.095 -7.387,-17.767 l 22.324,-22.323 c 1.406,-1.407 2.196,-3.314 2.196,-5.304 0,-1.99 -0.79,-3.896 -2.196,-5.304 l -28.284,-28.284 c -2.93,-2.928 -7.678,-2.928 -10.607,0 l -22.323,22.324 c -5.672,-3.064 -11.616,-5.536 -17.767,-7.387 v -31.543 c 0,-4.143 -3.357,-7.5 -7.5,-7.5 h -40 c -4.143,0 -7.5,3.357 -7.5,7.5 v 31.543 c -6.15,1.851 -12.095,4.322 -17.767,7.387 L 167.41,155.771 c -2.93,-2.928 -7.678,-2.928 -10.607,0 l -28.284,28.284 c -1.406,1.407 -2.196,3.314 -2.196,5.304 0,1.99 0.79,3.896 2.196,5.304 l 22.324,22.323 c -3.064,5.672 -5.536,11.616 -7.387,17.767 h -31.543 c -4.143,0 -7.5,3.357 -7.5,7.5 v 40 c 0,4.143 3.357,7.5 7.5,7.5 h 31.544 c 1.851,6.152 4.321,12.096 7.386,17.767 l -22.323,22.322 c -1.407,1.407 -2.197,3.314 -2.197,5.304 0,1.99 0.79,3.896 2.196,5.304 l 28.284,28.284 c 2.929,2.927 7.678,2.929 10.606,0 l 22.324,-22.323 c 5.672,3.064 11.616,5.536 17.767,7.387 v 31.542 c 0,4.143 3.357,7.5 7.5,7.5 h 40 c 4.143,0 7.5,-3.357 7.5,-7.5 v -31.542 c 6.15,-1.851 12.095,-4.322 17.767,-7.387 l 22.324,22.323 c 2.928,2.928 7.677,2.928 10.606,0 l 28.284,-28.284 c 1.406,-1.407 2.196,-3.314 2.196,-5.304 0,-1.99 -0.79,-3.896 -2.197,-5.304 L 319.157,307.52 c 3.064,-5.672 5.535,-11.615 7.386,-17.767 h 31.544 c 4.143,0 7.5,-3.357 7.5,-7.5 v -40 c 0,-4.143 -3.358,-7.5 -7.5,-7.5 z m -7.5,40 h -29.802 c -3.486,0 -6.513,2.402 -7.305,5.798 -1.995,8.563 -5.383,16.712 -10.069,24.223 -1.848,2.961 -1.408,6.805 1.061,9.273 l 21.1,21.099 -17.678,17.678 -21.101,-21.1 c -2.468,-2.467 -6.31,-2.906 -9.272,-1.06 -7.511,4.687 -15.661,8.074 -24.223,10.069 -3.396,0.792 -5.798,3.818 -5.798,7.305 v 29.801 h -25 v -29.801 c 0,-3.486 -2.402,-6.513 -5.798,-7.305 -8.562,-1.995 -16.712,-5.383 -24.223,-10.069 -2.962,-1.847 -6.807,-1.406 -9.272,1.06 l -21.101,21.1 -17.678,-17.678 21.1,-21.099 c 2.469,-2.469 2.908,-6.313 1.06,-9.274 -4.685,-7.508 -8.072,-15.657 -10.068,-24.222 -0.792,-3.396 -3.818,-5.798 -7.305,-5.798 h -29.802 v -25 h 29.802 c 3.486,0 6.513,-2.402 7.305,-5.798 1.995,-8.562 5.383,-16.712 10.069,-24.223 1.848,-2.961 1.408,-6.805 -1.06,-9.273 l -21.101,-21.1 17.678,-17.678 21.1,21.101 c 2.468,2.468 6.312,2.908 9.273,1.06 7.511,-4.687 15.661,-8.074 24.223,-10.069 3.396,-0.792 5.798,-3.818 5.798,-7.305 v -29.802 h 25 v 29.802 c 0,3.486 2.402,6.513 5.798,7.305 8.562,1.995 16.712,5.383 24.223,10.069 2.962,1.848 6.807,1.405 9.273,-1.06 l 21.1,-21.101 17.678,17.678 -21.101,21.1 c -2.468,2.469 -2.907,6.313 -1.06,9.273 4.687,7.511 8.074,15.661 10.069,24.223 0.792,3.396 3.818,5.798 7.305,5.798 h 29.802 z"
             id="path2979" />
        </g>
        <g
           id="g2983" />
        <g
           id="g2985" />
        <g
           id="g2987" />
        <g
           id="g2989" />
        <g
           id="g2991" />
        <g
           id="g2993" />
        <g
           id="g2995" />
        <g
           id="g2997" />
        <g
           id="g2999" />
        <g
           id="g3001" />
        <g
           id="g3003" />
        <g
           id="g3005" />
        <g
           id="g3007" />
        <g
           id="g3009" />
        <g
           id="g3011" />
      </g>
    </g>
    <g
       id="g3571"
       transform="matrix(0.3297201,0,0,0.3297201,201.36979,366.59576)"
       style="opacity:1">
      <g
         id="g45339-2-3-1"
         transform="translate(-1600.2743,-217.68776)"
         style="stroke:#ffe5b8;stroke-opacity:1">
        <rect
           style="opacity:1;fill:#e6e6e6;fill-opacity:1;fill-rule:nonzero;stroke:none;stroke-width:0.713091;stroke-linecap:round;stroke-linejoin:bevel;stroke-miterlimit:100;stroke-dasharray:none;stroke-dashoffset:0;stroke-opacity:1"
           id="rect2459-2-4-5-2"
           width="447.65219"
           height="99.870728"
           x="993.02637"
           y="-265.74725" />
        <g
           id="g383-1-3-0-7"
           transform="matrix(1.6629431,0,0,1.3945947,1208.7083,-208.36197)"
           style="stroke:#ffe5b8;stroke-opacity:1">
          <rect
             y="-70.13681"
             x="-129.69922"
             height="28.988708"
             width="270.16861"
             id="rect14571-8-3-49-7-1-0"
             style="opacity:1;fill:#333333;fill-opacity:1;fill-rule:evenodd;stroke:#ffe5b8;stroke-width:0.29588;stroke-linecap:round;stroke-linejoin:miter;stroke-miterlimit:4;stroke-dasharray:none;stroke-dashoffset:0;stroke-opacity:1" />
          <text
             transform="scale(0.87456041,1.1434316)"
             xml:space="preserve"
             style="font-style:normal;font-variant:normal;font-weight:normal;font-stretch:normal;font-size:2.77673px;line-height:0%;font-family:'Droid Sans';-inkscape-font-specification:'Droid Sans';text-align:center;letter-spacing:0px;word-spacing:0px;text-anchor:middle;fill:#ffffff;fill-opacity:1;stroke:#ffe5b8;stroke-width:0.231394;stroke-linecap:square;stroke-linejoin:round;stroke-miterlimit:100000;stroke-opacity:1"
             x="14.298311"
             y="-44.834503"
             id="text14575-4-8-1-9-4-9"><tspan
               sodipodi:role="line"
               id="tspan14577-3-9-07-4-5-3"
               x="14.298311"
               y="-44.834503"
               style="font-style:normal;font-variant:normal;font-weight:bold;font-stretch:normal;font-size:14.8092px;line-height:1.25;font-family:'Latin Modern Sans Demi Cond';-inkscape-font-specification:'Latin Modern Sans Demi Cond Bold';fill:#ffffff;fill-opacity:1;stroke:#ffe5b8;stroke-width:0.231394;stroke-linecap:square;stroke-linejoin:round;stroke-miterlimit:100000;stroke-opacity:1">Input data</tspan></text>
        </g>
        <text
           xml:space="preserve"
           id="text51157-7-6"
           style="font-style:normal;font-weight:normal;font-size:16.9333px;line-height:1.25;font-family:sans-serif;text-align:center;letter-spacing:0px;word-spacing:0px;white-space:pre;shape-inside:url(#rect51159-7-9);fill:#000000;fill-opacity:1;stroke:none;"
           transform="translate(28.486959,7.9610911)"
           x="-206.8429"
           y="0"><tspan
             x="1078.5664"
             y="-232.10212"><tspan
               style="font-style:normal;font-variant:normal;font-weight:normal;font-stretch:normal;font-size:16.9333px;font-family:'Latin Modern Sans Demi Cond';-inkscape-font-specification:'Latin Modern Sans Demi Cond';text-align:start;text-anchor:start">Origin: http://ukb.ds.inm7.de/alias/bids  
</tspan></tspan><tspan
             x="1078.5664"
             y="-209.69539"><tspan
               style="font-style:normal;font-variant:normal;font-weight:normal;font-stretch:normal;font-size:16.9333px;font-family:'Latin Modern Sans Demi Cond';-inkscape-font-specification:'Latin Modern Sans Demi Cond';text-align:start;text-anchor:start">Version: 0c7f0b45140dde1d7291b15725e201
</tspan></tspan></text>
      </g>
      <g
         id="g3358"
         transform="matrix(1.6565138,0,0,1.6565138,-604.50997,-478.03118)">
        <g
           id="g3300">
          <path
             d="m 49.5,38 c 0,-3.859 -3.14,-7 -7,-7 -3.86,0 -7,3.141 -7,7 v 1 h -4 v 18 h 22 V 39 h -4 z m -12,0 c 0,-2.757 2.243,-5 5,-5 2.757,0 5,2.243 5,5 v 1 h -10 z m 14,3 v 14 h -18 V 41 h 2 14 z"
             id="path3294" />
          <path
             d="M 41.5,51.858 V 53 c 0,0.553 0.448,1 1,1 0.552,0 1,-0.447 1,-1 v -1.142 c 1.72,-0.447 3,-1.999 3,-3.858 0,-2.206 -1.794,-4 -4,-4 -2.206,0 -4,1.794 -4,4 0,1.859 1.28,3.411 3,3.858 z M 42.5,46 c 1.103,0 2,0.897 2,2 0,1.103 -0.897,2 -2,2 -1.103,0 -2,-0.897 -2,-2 0,-1.103 0.897,-2 2,-2 z"
             id="path3296" />
          <path
             d="M 53.354,8.51 C 52.197,4.22 43.578,0 28.5,0 13.422,0 4.803,4.22 3.646,8.51 3.562,8.657 3.5,8.818 3.5,9 v 0.5 12 0.5 11.5 0.5 12 c 0,0.161 0.042,0.313 0.115,0.448 1.139,4.833 10.691,7.68 19.811,8.364 0.025,0.002 0.051,0.003 0.076,0.003 0.519,0 0.957,-0.399 0.996,-0.925 C 24.54,53.339 24.126,52.859 23.576,52.818 12.461,51.984 5.984,48.6 5.532,45.838 5.524,45.793 5.514,45.75 5.5,45.707 v -8.414 c 0.018,0.016 0.039,0.032 0.057,0.048 0.232,0.205 0.47,0.409 0.738,0.605 3.772,2.845 11.3,5.054 22.205,5.054 0.552,0 1,-0.447 1,-1 0,-0.553 -0.448,-1 -1,-1 -0.827,0 -1.637,-0.016 -2.432,-0.044 -0.482,-0.018 -0.947,-0.049 -1.417,-0.076 -0.297,-0.017 -0.603,-0.028 -0.895,-0.049 -0.624,-0.045 -1.23,-0.103 -1.829,-0.165 -0.12,-0.013 -0.246,-0.021 -0.365,-0.034 C 20.876,40.557 20.208,40.471 19.557,40.376 19.533,40.373 19.508,40.37 19.485,40.367 16.106,39.868 13.206,39.107 10.937,38.202 10.92,38.195 10.902,38.189 10.886,38.182 10.472,38.015 10.083,37.844 9.712,37.668 9.665,37.646 9.615,37.624 9.568,37.601 9.235,37.441 8.928,37.276 8.633,37.11 8.56,37.068 8.483,37.027 8.412,36.985 8.156,36.835 7.922,36.681 7.698,36.527 7.609,36.465 7.518,36.404 7.435,36.342 7.247,36.203 7.077,36.062 6.915,35.921 6.823,35.841 6.732,35.761 6.649,35.68 6.516,35.551 6.4,35.422 6.29,35.293 6.21,35.199 6.134,35.105 6.066,35.01 5.979,34.889 5.905,34.768 5.839,34.647 5.784,34.546 5.735,34.445 5.693,34.344 5.645,34.225 5.607,34.106 5.579,33.988 5.541,33.825 5.5,33.662 5.5,33.5 v -8.207 c 0.018,0.016 0.039,0.032 0.057,0.048 0.232,0.205 0.47,0.409 0.738,0.605 3.772,2.845 11.3,5.054 22.205,5.054 10.88,0 18.396,-2.199 22.177,-5.034 0.29,-0.212 0.55,-0.431 0.799,-0.653 0.008,-0.007 0.017,-0.014 0.024,-0.021 V 34 c 0,0.553 0.448,1 1,1 0.552,0 1,-0.447 1,-1 V 22 21.5 9.5 9 C 53.5,8.818 53.438,8.657 53.354,8.51 Z M 51.5,13.293 V 21.5 c 0,0.163 -0.041,0.327 -0.08,0.491 -0.028,0.117 -0.065,0.233 -0.112,0.351 -0.042,0.103 -0.092,0.206 -0.148,0.309 -0.066,0.119 -0.138,0.238 -0.223,0.357 -0.069,0.096 -0.147,0.192 -0.228,0.289 -0.108,0.127 -0.223,0.254 -0.353,0.38 -0.085,0.083 -0.178,0.165 -0.272,0.247 -0.16,0.139 -0.327,0.278 -0.513,0.415 -0.086,0.064 -0.18,0.127 -0.271,0.19 -0.222,0.153 -0.453,0.305 -0.706,0.453 -0.074,0.044 -0.153,0.087 -0.23,0.13 -0.292,0.165 -0.597,0.328 -0.926,0.487 -0.049,0.023 -0.103,0.047 -0.153,0.071 -0.369,0.174 -0.754,0.345 -1.166,0.51 -0.019,0.007 -0.039,0.015 -0.058,0.022 -2.269,0.904 -5.166,1.665 -8.543,2.164 -0.024,0.003 -0.05,0.006 -0.074,0.01 -0.651,0.095 -1.318,0.181 -2.003,0.256 -0.12,0.013 -0.246,0.022 -0.367,0.034 -0.599,0.062 -1.204,0.12 -1.827,0.165 -0.293,0.021 -0.599,0.032 -0.897,0.049 -0.469,0.027 -0.934,0.059 -1.416,0.076 C 30.137,28.984 29.327,29 28.5,29 27.673,29 26.863,28.984 26.068,28.956 25.586,28.938 25.121,28.907 24.651,28.88 24.354,28.863 24.048,28.852 23.756,28.831 23.132,28.786 22.526,28.728 21.927,28.666 21.807,28.653 21.681,28.645 21.562,28.632 20.876,28.557 20.208,28.471 19.557,28.376 19.533,28.373 19.508,28.37 19.485,28.367 16.106,27.868 13.206,27.107 10.937,26.202 10.92,26.195 10.902,26.189 10.886,26.182 10.472,26.015 10.083,25.844 9.712,25.668 9.665,25.646 9.615,25.624 9.568,25.601 9.235,25.441 8.928,25.276 8.633,25.11 8.56,25.068 8.483,25.027 8.412,24.985 8.156,24.835 7.922,24.681 7.698,24.527 7.609,24.465 7.518,24.404 7.435,24.342 7.247,24.203 7.077,24.062 6.915,23.921 6.823,23.841 6.732,23.761 6.649,23.68 6.516,23.551 6.4,23.422 6.29,23.293 6.21,23.199 6.134,23.105 6.066,23.01 5.979,22.889 5.905,22.768 5.839,22.647 5.784,22.546 5.735,22.445 5.693,22.344 5.645,22.225 5.607,22.106 5.579,21.988 5.541,21.825 5.5,21.662 5.5,21.5 v -8.207 c 0.12,0.109 0.257,0.216 0.387,0.324 0.072,0.06 0.139,0.12 0.215,0.18 0.3,0.236 0.624,0.469 0.975,0.696 0.073,0.047 0.155,0.093 0.231,0.14 0.294,0.183 0.605,0.362 0.932,0.538 0.121,0.065 0.242,0.129 0.367,0.193 0.365,0.186 0.748,0.366 1.151,0.542 0.066,0.029 0.126,0.059 0.193,0.087 0.469,0.199 0.967,0.389 1.485,0.572 0.143,0.051 0.293,0.099 0.44,0.149 0.412,0.139 0.838,0.272 1.279,0.401 0.159,0.046 0.315,0.094 0.478,0.139 0.585,0.162 1.189,0.316 1.823,0.458 0.087,0.02 0.181,0.037 0.269,0.056 0.559,0.122 1.139,0.235 1.735,0.34 0.202,0.036 0.407,0.07 0.613,0.104 0.567,0.093 1.151,0.179 1.75,0.257 0.154,0.02 0.301,0.042 0.457,0.062 0.744,0.09 1.514,0.167 2.305,0.233 0.195,0.016 0.398,0.028 0.596,0.042 0.633,0.046 1.28,0.084 1.942,0.114 0.241,0.011 0.481,0.022 0.727,0.03 0.862,0.029 1.74,0.05 2.65,0.05 0.91,0 1.788,-0.021 2.65,-0.05 0.245,-0.008 0.485,-0.02 0.727,-0.03 0.662,-0.03 1.309,-0.068 1.942,-0.114 0.198,-0.015 0.4,-0.026 0.596,-0.042 0.791,-0.065 1.561,-0.143 2.305,-0.233 0.156,-0.019 0.303,-0.042 0.457,-0.062 0.599,-0.078 1.182,-0.164 1.75,-0.257 0.206,-0.034 0.411,-0.068 0.613,-0.104 0.596,-0.105 1.176,-0.218 1.735,-0.34 0.088,-0.019 0.182,-0.036 0.269,-0.056 0.634,-0.142 1.238,-0.296 1.823,-0.458 0.163,-0.045 0.319,-0.092 0.478,-0.139 0.441,-0.128 0.867,-0.262 1.279,-0.401 0.147,-0.05 0.297,-0.098 0.44,-0.149 0.518,-0.184 1.017,-0.374 1.485,-0.572 0.067,-0.028 0.127,-0.059 0.193,-0.087 0.403,-0.176 0.786,-0.356 1.151,-0.542 0.125,-0.064 0.247,-0.128 0.367,-0.193 0.327,-0.175 0.638,-0.354 0.932,-0.538 0.076,-0.047 0.158,-0.093 0.231,-0.14 0.351,-0.227 0.675,-0.459 0.975,-0.696 0.075,-0.06 0.142,-0.12 0.215,-0.18 0.13,-0.108 0.267,-0.215 0.387,-0.324 z M 28.5,2 c 13.554,0 23,3.952 23,7.5 0,3.548 -9.446,7.5 -23,7.5 C 14.946,17 5.5,13.048 5.5,9.5 5.5,5.952 14.946,2 28.5,2 Z"
             id="path3298" />
        </g>
        <g
           id="g3302" />
        <g
           id="g3304" />
        <g
           id="g3306" />
        <g
           id="g3308" />
        <g
           id="g3310" />
        <g
           id="g3312" />
        <g
           id="g3314" />
        <g
           id="g3316" />
        <g
           id="g3318" />
        <g
           id="g3320" />
        <g
           id="g3322" />
        <g
           id="g3324" />
        <g
           id="g3326" />
        <g
           id="g3328" />
        <g
           id="g3330" />
      </g>
    </g>
    <g
       id="g3872"
       transform="translate(-72.084317,80.25124)">
      <g
         id="g383-1-3-0-1"
         transform="matrix(0.54830578,0,0,0.45982591,144.34709,192.12638)"
         style="opacity:1;stroke:#ffe5b8;stroke-opacity:1">
        <rect
           y="-70.13681"
           x="-129.69922"
           height="28.988708"
           width="270.16861"
           id="rect14571-8-3-49-7-1-8"
           style="opacity:1;fill:#333333;fill-opacity:1;fill-rule:evenodd;stroke:#ffe5b8;stroke-width:0.29588;stroke-linecap:round;stroke-linejoin:miter;stroke-miterlimit:4;stroke-dasharray:none;stroke-dashoffset:0;stroke-opacity:1" />
        <text
           transform="scale(0.87456041,1.1434316)"
           xml:space="preserve"
           style="font-style:normal;font-variant:normal;font-weight:normal;font-stretch:normal;font-size:2.77673px;line-height:0%;font-family:'Droid Sans';-inkscape-font-specification:'Droid Sans';text-align:center;letter-spacing:0px;word-spacing:0px;text-anchor:middle;fill:#ffffff;fill-opacity:1;stroke:#ffe5b8;stroke-width:0.231394;stroke-linecap:square;stroke-linejoin:round;stroke-miterlimit:100000;stroke-opacity:1"
           x="14.298311"
           y="-44.834503"
           id="text14575-4-8-1-9-4-7"><tspan
             sodipodi:role="line"
             id="tspan14577-3-9-07-4-5-9"
             x="14.298313"
             y="-44.834503"
             style="font-style:normal;font-variant:normal;font-weight:bold;font-stretch:normal;font-size:14.8092px;line-height:1.25;font-family:'Latin Modern Sans Demi Cond';-inkscape-font-specification:'Latin Modern Sans Demi Cond Bold';fill:#ffffff;fill-opacity:1;stroke:#ffe5b8;stroke-width:0.231394;stroke-linecap:square;stroke-linejoin:round;stroke-miterlimit:100000;stroke-opacity:1">Transformations</tspan></text>
      </g>
      <text
         xml:space="preserve"
         id="text51157-7-20"
         style="font-style:normal;font-weight:normal;font-size:16.9333px;line-height:1.25;font-family:sans-serif;text-align:start;letter-spacing:0px;word-spacing:0px;white-space:pre;shape-inside:url(#rect51159-7-0-2);opacity:1;fill:#000000;fill-opacity:1;stroke:none;stroke-opacity:1;"
         transform="matrix(0.3297201,0,0,0.3297201,-241.99568,257.13666)"
         x="-363.24701"
         y="0"><tspan
           x="1078.5664"
           y="-232.10212"><tspan
             style="font-style:normal;font-variant:normal;font-weight:normal;font-stretch:normal;font-size:16.9333px;font-family:'Latin Modern Sans Demi Cond';-inkscape-font-specification:'Latin Modern Sans Demi Cond';text-align:start;text-anchor:start">Input data 
</tspan></tspan><tspan
           x="1078.5664"
           y="-209.69539"><tspan
             style="font-style:normal;font-variant:normal;font-weight:normal;font-stretch:normal;font-size:16.9333px;font-family:'Latin Modern Sans Demi Cond';-inkscape-font-specification:'Latin Modern Sans Demi Cond';text-align:start;text-anchor:start">Output files/results 
</tspan></tspan><tspan
           x="1078.5664"
           y="-187.28867"><tspan
             style="font-style:normal;font-variant:normal;font-weight:normal;font-stretch:normal;font-size:16.9333px;font-family:'Latin Modern Sans Demi Cond';-inkscape-font-specification:'Latin Modern Sans Demi Cond';text-align:start;text-anchor:start">Software (container images) 
</tspan></tspan><tspan
           x="1078.5664"
           y="-164.88195"><tspan
             style="font-style:normal;font-variant:normal;font-weight:normal;font-stretch:normal;font-size:16.9333px;font-family:'Latin Modern Sans Demi Cond';-inkscape-font-specification:'Latin Modern Sans Demi Cond';text-align:start;text-anchor:start">Commands
</tspan></tspan></text>
      <g
         id="g3746"
         transform="matrix(0.11804462,0,0,0.11804462,65.552029,193.90406)">
        <g
           id="g3685">
          <g
             id="g3683">
            <g
               id="g3681">
              <g
                 id="g3750"
                 transform="matrix(0.72186889,0,0,0.72186889,97.846229,-261.85119)">
                <path
                   d="m 181.173,256 c -41.28,0 -74.667,33.387 -74.667,74.667 0,41.28 33.387,74.667 74.667,74.667 41.28,0 74.667,-33.387 74.667,-74.667 0,-41.174 -33.387,-74.56 -74.667,-74.667 z m 0,128 c -29.44,0 -53.333,-23.893 -53.333,-53.333 0,-29.44 23.893,-53.333 53.333,-53.333 29.44,0 53.333,23.893 53.333,53.333 0,29.44 -23.893,53.333 -53.333,53.333 z"
                   id="path3673" />
                <path
                   d="m 361.867,285.013 c 0.747,-2.773 0.32,-5.653 -1.067,-8.107 l -42.987,-73.92 c -2.987,-5.013 -9.387,-6.827 -14.507,-3.947 l -27.413,15.68 c -12.16,-10.453 -26.133,-18.56 -41.173,-23.893 v -30.933 c 0,-5.867 -4.8,-10.667 -10.667,-10.667 H 138.72 c -5.867,0 -10.667,4.8 -10.667,10.667 v 30.933 c -15.147,5.333 -29.12,13.44 -41.28,23.893 l -27.52,-15.68 c -5.12,-2.88 -11.52,-1.173 -14.507,3.947 l -43.093,73.92 c -2.987,5.12 -1.28,11.627 3.84,14.613 L 32.8,307.2 c -2.56,15.573 -2.56,31.467 0,47.04 L 5.493,369.813 c -5.12,2.88 -6.827,9.493 -3.947,14.613 0,0 0,0 0,0.107 l 42.987,73.92 c 2.987,5.013 9.387,6.827 14.507,3.947 l 27.627,-15.787 c 13.547,11.093 26.453,18.56 41.28,23.787 v 30.933 c 0,5.867 4.8,10.667 10.667,10.667 h 85.333 c 5.867,0 10.667,-4.8 10.667,-10.667 V 470.4 c 15.04,-5.333 29.013,-13.44 41.173,-23.893 l 27.413,15.68 c 5.12,2.88 11.52,1.173 14.507,-3.947 l 42.987,-73.92 c 2.987,-5.12 1.28,-11.627 -3.84,-14.613 l -27.2,-15.573 c 2.56,-15.573 2.56,-31.36 0,-46.933 l 27.2,-15.573 c 2.453,-1.495 4.266,-3.841 5.013,-6.615 z m -49.494,7.467 c -4.053,2.347 -6.08,6.933 -5.12,11.52 3.84,17.6 3.84,35.947 0,53.547 -0.96,4.48 1.067,9.173 5.12,11.52 L 336.8,383.04 304.48,438.507 279.733,424.32 c -4.053,-2.24 -9.067,-1.707 -12.48,1.387 -15.787,14.08 -29.227,21.867 -46.4,26.773 -4.587,1.28 -7.787,5.44 -7.68,10.24 v 27.947 h -65.067 v -28.053 c 0.96,-4.8 -2.24,-8.96 -6.827,-10.24 -17.387,-4.907 -30.827,-12.693 -46.507,-26.773 -3.413,-3.093 -8.427,-3.627 -12.373,-1.387 L 57.547,438.4 25.334,382.933 49.867,368.96 c 4.053,-2.347 6.08,-6.933 5.12,-11.52 -3.84,-17.6 -3.84,-35.84 0,-53.547 0.96,-4.48 -1.067,-9.173 -5.12,-11.52 L 25.333,278.4 57.653,222.933 82.506,237.12 c 3.947,2.24 8.96,1.707 12.373,-1.387 15.68,-14.08 29.12,-21.76 46.507,-26.773 4.587,-1.28 7.787,-5.547 7.893,-10.24 v -28.053 h 62.933 v 28.16 c 0.96,4.8 4.053,8.96 8.64,10.24 17.28,4.907 30.72,12.693 46.4,26.773 3.413,3.093 8.427,3.627 12.373,1.28 l 24.853,-14.187 32.213,55.467 z"
                   id="path3677" />
              </g>
            </g>
          </g>
        </g>
        <g
           id="g3687" />
        <g
           id="g3689" />
        <g
           id="g3691" />
        <g
           id="g3693" />
        <g
           id="g3695" />
        <g
           id="g3697" />
        <g
           id="g3699" />
        <g
           id="g3701" />
        <g
           id="g3703" />
        <g
           id="g3705" />
        <g
           id="g3707" />
        <g
           id="g3709" />
        <g
           id="g3711" />
        <g
           id="g3713" />
        <g
           id="g3715" />
      </g>
    </g>
    <g
       id="g47899-0-3-7"
       transform="matrix(0.32972011,0,0,0.33001617,268.72864,449.67274)"
       inkscape:export-filename="/home/adina/ukbworkflow.png"
       inkscape:export-xdpi="206.45"
       inkscape:export-ydpi="206.45">
      <g
         id="g45339-2-3-5"
         transform="translate(-1356.9126,-749.65776)"
         style="stroke:#ffe5b8;stroke-opacity:1">
        <rect
           style="opacity:1;fill:none;fill-opacity:1;fill-rule:nonzero;stroke:none;stroke-width:1.68961;stroke-linecap:round;stroke-linejoin:bevel;stroke-miterlimit:100;stroke-dasharray:none;stroke-dashoffset:0;stroke-opacity:1"
           id="rect2459-2-4-5-3"
           width="447.65219"
           height="560.69214"
           x="993.02637"
           y="-305.81866" />
        <text
           xml:space="preserve"
           id="text51157-7-7"
           style="font-style:normal;font-weight:normal;font-size:11.7692px;line-height:1.25;font-family:sans-serif;text-align:start;letter-spacing:0px;word-spacing:0px;white-space:pre;shape-inside:url(#rect51159-7-36);fill:#000000;fill-opacity:1;stroke:none;"
           transform="translate(-71.016649,-46.605401)"
           x="-206.8429"
           y="0"><tspan
             x="1078.5664"
             y="-237.91123"><tspan
               style="shape-inside:url(#rect51159-7-36)">commit e035f896s45c9fac70cn7cc4dbd0dad43907755p
</tspan></tspan><tspan
             x="1078.5664"
             y="-223.19973"><tspan
               style="shape-inside:url(#rect51159-7-36)">Author:     Jane Doe &lt;j.doe@fz-juelich.de&gt;
</tspan></tspan><tspan
             x="1078.5664"
             y="-208.48823"><tspan
               style="shape-inside:url(#rect51159-7-36)">AuthorDate: Wed Feb 10 18:05:30 2021 +0100
</tspan></tspan><tspan
             x="1078.5664"
             y="-193.77673"><tspan
               style="shape-inside:url(#rect51159-7-36)">Commit:     Jane Doe &lt;j.doe@fz-juelich.de&gt;
</tspan></tspan><tspan
             x="1078.5664"
             y="-179.06523"><tspan
               style="shape-inside:url(#rect51159-7-36)">CommitDate: Wed Feb 10 18:05:30 2021 +0100
</tspan></tspan><tspan
             x="1078.5664"
             y="-164.35372"><tspan
               style="shape-inside:url(#rect51159-7-36)">
</tspan></tspan><tspan
             x="1078.5664"
             y="-149.64222"><tspan
               style="shape-inside:url(#rect51159-7-36)">[DATALAD RUNCMD] Compute sub-6025043/ses-2
</tspan></tspan><tspan
             x="1078.5664"
             y="-134.93072"><tspan
               style="shape-inside:url(#rect51159-7-36)">
</tspan></tspan><tspan
             x="1078.5664"
             y="-120.21922"><tspan
               style="shape-inside:url(#rect51159-7-36)">    === Do not change lines below ===
</tspan></tspan><tspan
             x="1078.5664"
             y="-105.50772"><tspan
               style="shape-inside:url(#rect51159-7-36)">    {
</tspan></tspan><tspan
             x="1078.5664"
             y="-90.796214"><tspan
               style="shape-inside:url(#rect51159-7-36)">     &quot;chain&quot;: [],
</tspan></tspan><tspan
             x="1078.5664"
             y="-76.084712"><tspan
               style="shape-inside:url(#rect51159-7-36)">     &quot;cmd&quot;: &quot;singularity exec -B {pwd} --cleanenv code/pipeline/.datalad/
</tspan></tspan><tspan
             x="1078.5664"
             y="-61.37321"><tspan
               style="shape-inside:url(#rect51159-7-36)">                  environments/cat/image sh -e -u -x -c  [...]'
</tspan></tspan><tspan
             x="1078.5664"
             y="-46.661708"><tspan
               style="shape-inside:url(#rect51159-7-36)">     &quot;dsid&quot;: &quot;8938de76-0302-45b5-9825-3c6ce3f3fffe&quot;,
</tspan></tspan><tspan
             x="1078.5664"
             y="-31.950206"><tspan
               style="shape-inside:url(#rect51159-7-36)">     &quot;exit&quot;: 0,
</tspan></tspan><tspan
             x="1078.5664"
             y="-17.238706"><tspan
               style="shape-inside:url(#rect51159-7-36)">     &quot;extra_inputs&quot;: [
</tspan></tspan><tspan
             x="1078.5664"
             y="-2.5272055"><tspan
               style="shape-inside:url(#rect51159-7-36)">      &quot;code/pipeline/.datalad/environments/cat/image&quot;
</tspan></tspan><tspan
             x="1078.5664"
             y="12.184295"><tspan
               style="shape-inside:url(#rect51159-7-36)">     ],
</tspan></tspan><tspan
             x="1078.5664"
             y="26.895795"><tspan
               style="shape-inside:url(#rect51159-7-36)">     &quot;inputs&quot;: [
</tspan></tspan><tspan
             x="1078.5664"
             y="41.607295"><tspan
               style="shape-inside:url(#rect51159-7-36)">      &quot;inputs/ukb/sub-6025043/ses-2/anat/sub-6025043_ses-2_T1w.nii.gz&quot;,
</tspan></tspan><tspan
             x="1078.5664"
             y="56.318795"><tspan
               style="shape-inside:url(#rect51159-7-36)">      &quot;code/cat_standalone_batch.txt&quot;,
</tspan></tspan><tspan
             x="1078.5664"
             y="71.030293"><tspan
               style="shape-inside:url(#rect51159-7-36)">      &quot;code/finalize_job_outputs.sh&quot;
</tspan></tspan><tspan
             x="1078.5664"
             y="85.741796"><tspan
               style="shape-inside:url(#rect51159-7-36)">     ],
</tspan></tspan><tspan
             x="1078.5664"
             y="100.4533"><tspan
               style="shape-inside:url(#rect51159-7-36)">     &quot;outputs&quot;: [
</tspan></tspan><tspan
             x="1078.5664"
             y="115.1648"><tspan
               style="shape-inside:url(#rect51159-7-36)">      &quot;sub-6025043/ses-2&quot;
</tspan></tspan><tspan
             x="1078.5664"
             y="129.8763"><tspan
               style="shape-inside:url(#rect51159-7-36)">     ],
</tspan></tspan><tspan
             x="1078.5664"
             y="144.5878"><tspan
               style="shape-inside:url(#rect51159-7-36)">     &quot;pwd&quot;: &quot;.&quot;
</tspan></tspan><tspan
             x="1078.5664"
             y="159.29931"><tspan
               style="shape-inside:url(#rect51159-7-36)">    }
</tspan></tspan><tspan
             x="1078.5664"
             y="174.01081"><tspan
               style="shape-inside:url(#rect51159-7-36)">    ^^^ Do not change lines above ^^^
</tspan></tspan><tspan
             x="1078.5664"
             y="188.72231"><tspan
               style="shape-inside:url(#rect51159-7-36)">---
</tspan></tspan><tspan
             x="1078.5664"
             y="203.43381"><tspan
               style="shape-inside:url(#rect51159-7-36)"> sub-6025043/ses-2/inforoi.tar.gz | 1 +
</tspan></tspan><tspan
             x="1078.5664"
             y="218.14531"><tspan
               style="shape-inside:url(#rect51159-7-36)"> sub-6025043/ses-2/native.tar.gz  | 1 +
</tspan></tspan><tspan
             x="1078.5664"
             y="232.85682"><tspan
               style="shape-inside:url(#rect51159-7-36)"> sub-6025043/ses-2/surface.tar.gz | 1 +
</tspan></tspan><tspan
             x="1078.5664"
             y="247.56832"><tspan
               style="shape-inside:url(#rect51159-7-36)"> sub-6025043/ses-2/vbm.tar.gz     | 1 +
</tspan></tspan><tspan
             x="1078.5664"
             y="262.27982"><tspan
               style="shape-inside:url(#rect51159-7-36)"> 4 files changed, 4 insertions(+)
</tspan></tspan></text>
      </g>
      <g
         id="g45339-2-3-62-0"
         transform="translate(-1148.4187,-287.49022)"
         style="stroke:#ffe5b8;stroke-opacity:1" />
    </g>
    <g
       id="g5143"
       transform="matrix(0.76484184,0,0,0.84977944,170.7033,145.62621)">
      <g
         id="g5107"
         transform="matrix(0.26458333,0,0,0.26458333,92.839706,22.685035)">
        <g
           id="g5035">
          <g
             id="g5033">
            <g
               id="g5005" />
            <g
               id="g5200"
               transform="translate(20.919359,-32.949728)">
              <g
                 id="g4999"
                 transform="matrix(3.2663151,0,0,2.9398386,-137.26715,-387.60408)">
                <g
                   id="g4711"
                   transform="translate(-90.304844,94.943539)">
                  <g
                     id="g888"
                     transform="matrix(0.1023981,0,0,0.1023981,150.4975,172.04359)">
                    <path
                       d="m 454.962,110.751 c -0.018,-0.185 -0.05,-0.365 -0.081,-0.545 -0.011,-0.06 -0.016,-0.122 -0.028,-0.182 -0.043,-0.215 -0.098,-0.425 -0.159,-0.632 -0.007,-0.025 -0.012,-0.052 -0.02,-0.077 -0.065,-0.213 -0.141,-0.421 -0.224,-0.625 -0.008,-0.021 -0.015,-0.043 -0.023,-0.064 -0.081,-0.195 -0.173,-0.384 -0.269,-0.57 -0.016,-0.031 -0.029,-0.063 -0.045,-0.094 -0.093,-0.173 -0.196,-0.339 -0.301,-0.504 -0.027,-0.042 -0.05,-0.086 -0.077,-0.127 -0.103,-0.154 -0.216,-0.3 -0.33,-0.446 -0.037,-0.048 -0.07,-0.098 -0.109,-0.145 -0.142,-0.173 -0.294,-0.338 -0.45,-0.498 -0.015,-0.015 -0.027,-0.031 -0.042,-0.046 l -104,-104 C 348.786,2.178 348.766,2.163 348.747,2.145 348.591,1.992 348.43,1.844 348.261,1.705 348.206,1.66 348.148,1.622 348.092,1.579 347.954,1.472 347.817,1.365 347.672,1.268 347.621,1.234 347.567,1.206 347.516,1.173 347.36,1.074 347.204,0.976 347.041,0.889 347.005,0.87 346.967,0.854 346.93,0.836 346.749,0.743 346.565,0.653 346.376,0.574 346.352,0.564 346.327,0.557 346.302,0.547 346.1,0.466 345.896,0.39 345.686,0.326 345.659,0.318 345.632,0.313 345.605,0.305 345.399,0.245 345.19,0.19 344.977,0.147 344.914,0.134 344.849,0.129 344.785,0.118 344.608,0.087 344.431,0.056 344.249,0.038 344.001,0.013 343.751,0 343.5,0 H 95.5 C 73.72,0 56,17.72 56,39.5 v 432 c 0,21.78 17.72,39.5 39.5,39.5 h 320 c 21.78,0 39.5,-17.72 39.5,-39.5 v -360 c 0,-0.251 -0.013,-0.501 -0.038,-0.749 z M 351,25.606 429.394,104 H 375.5 C 361.991,104 351,93.01 351,79.5 Z M 415.5,496 H 95.5 C 81.991,496 71,485.01 71,471.5 V 39.5 C 71,25.99 81.991,15 95.5,15 H 336 v 64.5 c 0,21.78 17.72,39.5 39.5,39.5 H 440 v 352.5 c 0,13.51 -10.991,24.5 -24.5,24.5 z"
                       id="path833" />
                    <g
                       id="g835" />
                    <g
                       id="g837" />
                    <g
                       id="g839" />
                    <g
                       id="g841" />
                    <g
                       id="g843" />
                    <g
                       id="g845" />
                    <g
                       id="g847" />
                    <g
                       id="g849" />
                    <g
                       id="g851" />
                    <g
                       id="g853" />
                    <g
                       id="g855" />
                    <g
                       id="g857" />
                    <g
                       id="g859" />
                    <g
                       id="g861" />
                    <g
                       id="g863" />
                  </g>
                  <path
                     style="opacity:1;fill:#ffffff;stroke:#050a00;stroke-width:0.704546"
                     d="m 158.93393,221.57982 c -0.60105,-0.66416 -0.66346,-2.8863 -0.66346,-23.62305 v -22.88994 l 1.05627,-0.83087 c 1.01678,-0.7998 1.51885,-0.83086 13.42961,-0.83086 h 12.37333 v 4.04893 4.04892 l 1.36301,1.36301 c 1.36078,1.36078 1.36929,1.363 5.21149,1.363 h 3.84848 v 18.56093 c 0,13.90176 -0.12075,18.68167 -0.48106,19.04198 -0.35946,0.35946 -4.9037,0.48106 -17.97764,0.48106 -16.44128,0 -17.53659,-0.0442 -18.16003,-0.73311 z"
                     id="path4691" />
                </g>
                <path
                   style="opacity:1;fill:#ffffff;stroke:#050a00;stroke-width:2.66285"
                   d="m 367.72022,1046.885 c -3.12191,-1.82 -4.59299,-8.7238 -3.94713,-18.524 l 0.47711,-7.2395 13.60478,13.683 13.60477,13.6829 -10.57447,-0.046 c -5.81596,-0.025 -11.74024,-0.7257 -13.16506,-1.5564 z"
                   id="path4977"
                   transform="scale(0.26458333)" />
              </g>
              <g
                 id="g5031"
                 transform="translate(68.564548,404.10928)">
                <path
                   d="m 59.923,30.592 h 3.224 v 20.276 h -3.224 z"
                   id="path5007" />
                <path
                   d="m 61.528,66.238 c 1.221,0 2.292,0.417 3.228,1.242 0.925,0.816 1.397,1.988 1.397,3.514 v 10.912 c 0,1.431 -0.466,2.562 -1.397,3.379 -0.929,0.816 -2,1.23 -3.228,1.23 -1.218,0 -2.326,-0.414 -3.23,-1.23 -0.917,-0.822 -1.379,-1.948 -1.379,-3.379 V 70.994 c 0,-1.525 0.457,-2.697 1.379,-3.514 0.904,-0.825 2.012,-1.242 3.23,-1.242 z m -1.373,16.131 c 0,0.932 0.441,1.394 1.373,1.394 0.935,0 1.395,-0.462 1.395,-1.394 V 70.379 C 62.923,69.463 62.469,69 61.528,69 c -0.922,0 -1.373,0.463 -1.373,1.379 z"
                   id="path5009" />
                <path
                   d="m 61.528,101.896 c 1.221,0 2.292,0.414 3.228,1.23 0.925,0.815 1.397,1.997 1.397,3.531 v 10.899 c 0,1.425 -0.466,2.569 -1.397,3.386 -0.929,0.816 -2,1.23 -3.228,1.23 -1.218,0 -2.326,-0.414 -3.23,-1.23 -0.917,-0.816 -1.379,-1.961 -1.379,-3.386 v -10.899 c 0,-1.534 0.457,-2.716 1.379,-3.531 0.904,-0.816 2.012,-1.23 3.23,-1.23 z m -1.373,16.124 c 0,0.932 0.441,1.389 1.373,1.389 0.935,0 1.395,-0.457 1.395,-1.389 v -11.978 c 0,-0.932 -0.454,-1.395 -1.395,-1.395 -0.922,0 -1.373,0.463 -1.373,1.395 z"
                   id="path5011" />
                <path
                   d="m 31.822,30.592 c 1.221,0 2.302,0.404 3.23,1.227 0.917,0.816 1.404,1.988 1.404,3.529 v 10.9 c 0,1.428 -0.481,2.563 -1.404,3.379 -0.922,0.816 -2.003,1.236 -3.23,1.236 -1.242,0 -2.314,-0.42 -3.243,-1.236 C 27.681,48.812 27.2,47.676 27.2,46.248 v -10.9 c 0,-1.541 0.481,-2.712 1.379,-3.529 0.923,-0.816 1.995,-1.227 3.243,-1.227 z m -1.385,16.124 c 0,0.929 0.463,1.388 1.386,1.388 0.935,0 1.409,-0.459 1.409,-1.388 v -11.98 c 0,-0.929 -0.469,-1.395 -1.409,-1.395 -0.917,0 -1.386,0.46 -1.386,1.395 z"
                   id="path5013" />
                <path
                   d="m 31.822,66.238 c 1.221,0 2.302,0.417 3.23,1.242 0.917,0.816 1.404,1.988 1.404,3.514 v 10.912 c 0,1.431 -0.481,2.562 -1.404,3.379 -0.923,0.817 -2.003,1.23 -3.23,1.23 -1.242,0 -2.314,-0.414 -3.243,-1.23 C 27.681,84.463 27.2,83.337 27.2,81.906 V 70.994 c 0,-1.525 0.481,-2.697 1.379,-3.514 0.923,-0.825 1.995,-1.242 3.243,-1.242 z m -1.385,16.131 c 0,0.932 0.463,1.394 1.386,1.394 0.935,0 1.409,-0.462 1.409,-1.394 V 70.379 C 33.232,69.463 32.763,69 31.823,69 c -0.917,0 -1.386,0.463 -1.386,1.379 z"
                   id="path5015" />
                <path
                   d="m 30.221,101.896 h 3.227 v 20.277 h -3.227 z"
                   id="path5017" />
                <path
                   d="m 91.243,30.592 c 1.224,0 2.296,0.404 3.233,1.227 0.913,0.816 1.395,1.988 1.395,3.529 v 10.9 c 0,1.428 -0.476,2.563 -1.395,3.379 -0.932,0.816 -2.004,1.236 -3.233,1.236 -1.236,0 -2.308,-0.42 -3.228,-1.236 -0.919,-0.815 -1.382,-1.951 -1.382,-3.379 v -10.9 c 0,-1.541 0.456,-2.712 1.382,-3.529 0.921,-0.816 1.992,-1.227 3.228,-1.227 z m -1.389,16.124 c 0,0.929 0.469,1.388 1.389,1.388 0.919,0 1.406,-0.459 1.406,-1.388 v -11.98 c 0,-0.929 -0.475,-1.395 -1.406,-1.395 -0.92,0 -1.389,0.46 -1.389,1.395 z"
                   id="path5019" />
                <path
                   d="m 91.243,66.238 c 1.224,0 2.296,0.417 3.233,1.242 0.913,0.816 1.395,1.988 1.395,3.514 v 10.912 c 0,1.431 -0.476,2.562 -1.395,3.379 -0.932,0.816 -2.004,1.23 -3.233,1.23 -1.236,0 -2.308,-0.414 -3.228,-1.23 -0.919,-0.822 -1.382,-1.948 -1.382,-3.379 V 70.994 c 0,-1.525 0.456,-2.697 1.382,-3.514 0.921,-0.825 1.992,-1.242 3.228,-1.242 z m -1.389,16.131 c 0,0.932 0.469,1.394 1.389,1.394 0.919,0 1.406,-0.462 1.406,-1.394 V 70.379 C 92.649,69.463 92.174,69 91.243,69 c -0.92,0 -1.389,0.463 -1.389,1.379 z"
                   id="path5021" />
                <path
                   d="m 89.63,101.896 h 3.227 v 20.277 H 89.63 Z"
                   id="path5023" />
                <path
                   d="m 120.952,30.592 c 1.212,0 2.289,0.404 3.228,1.227 0.913,0.816 1.388,1.988 1.388,3.529 v 10.9 c 0,1.428 -0.475,2.563 -1.388,3.379 -0.926,0.816 -2.01,1.236 -3.228,1.236 -1.242,0 -2.313,-0.42 -3.252,-1.236 -0.901,-0.815 -1.388,-1.951 -1.388,-3.379 v -10.9 c 0,-1.541 0.486,-2.712 1.388,-3.529 0.939,-0.816 2.01,-1.227 3.252,-1.227 z m -1.394,16.124 c 0,0.929 0.457,1.388 1.395,1.388 0.919,0 1.406,-0.459 1.406,-1.388 v -11.98 c 0,-0.929 -0.48,-1.395 -1.406,-1.395 -0.932,0 -1.395,0.46 -1.395,1.395 z"
                   id="path5025" />
                <path
                   d="m 120.952,66.238 c 1.212,0 2.289,0.417 3.228,1.242 0.913,0.816 1.388,1.988 1.388,3.514 v 10.912 c 0,1.431 -0.475,2.562 -1.388,3.379 -0.926,0.816 -2.01,1.23 -3.228,1.23 -1.242,0 -2.313,-0.414 -3.252,-1.23 -0.901,-0.822 -1.388,-1.948 -1.388,-3.379 V 70.994 c 0,-1.525 0.486,-2.697 1.388,-3.514 0.939,-0.825 2.01,-1.242 3.252,-1.242 z m -1.394,16.131 c 0,0.932 0.457,1.394 1.395,1.394 0.919,0 1.406,-0.462 1.406,-1.394 v -11.99 c 0,-0.916 -0.48,-1.379 -1.406,-1.379 -0.932,0 -1.395,0.463 -1.395,1.379 z"
                   id="path5027" />
                <path
                   d="m 119.345,101.896 h 3.215 v 20.277 h -3.215 z"
                   id="path5029" />
              </g>
            </g>
          </g>
        </g>
        <g
           id="g5037" />
        <g
           id="g5039" />
        <g
           id="g5041" />
        <g
           id="g5043" />
        <g
           id="g5045" />
        <g
           id="g5047" />
        <g
           id="g5049" />
        <g
           id="g5051" />
        <g
           id="g5053" />
        <g
           id="g5055" />
        <g
           id="g5057" />
        <g
           id="g5059" />
        <g
           id="g5061" />
        <g
           id="g5063" />
        <g
           id="g5065" />
      </g>
    </g>
  </g>
</svg>
