<?xml version="1.0" encoding="UTF-8" standalone="no"?>
<svg
   xmlns:dc="http://purl.org/dc/elements/1.1/"
   xmlns:cc="http://creativecommons.org/ns#"
   xmlns:rdf="http://www.w3.org/1999/02/22-rdf-syntax-ns#"
   xmlns:svg="http://www.w3.org/2000/svg"
   xmlns="http://www.w3.org/2000/svg"
   xmlns:sodipodi="http://sodipodi.sourceforge.net/DTD/sodipodi-0.dtd"
   xmlns:inkscape="http://www.inkscape.org/namespaces/inkscape"
   width="227.47797mm"
   height="204.31314mm"
   viewBox="0 0 227.47797 204.31314"
   version="1.1"
   id="svg8"
   inkscape:version="1.0.1 (3bc2e813f5, 2020-09-07)"
   sodipodi:docname="consortium.svg">
  <defs
     id="defs2" />
  <sodipodi:namedview
     id="base"
     pagecolor="#ffffff"
     bordercolor="#666666"
     borderopacity="1.0"
     inkscape:pageopacity="0.0"
     inkscape:pageshadow="2"
     inkscape:zoom="0.35"
     inkscape:cx="298.88062"
     inkscape:cy="834.09739"
     inkscape:document-units="mm"
     inkscape:current-layer="layer1"
     inkscape:document-rotation="0"
     showgrid="false"
     fit-margin-top="0"
     fit-margin-left="0"
     fit-margin-right="0"
     fit-margin-bottom="0"
     inkscape:window-width="1920"
     inkscape:window-height="1119"
     inkscape:window-x="0"
     inkscape:window-y="44"
     inkscape:window-maximized="1" />
  <metadata
     id="metadata5">
    <rdf:RDF>
      <cc:Work
         rdf:about="">
        <dc:format>image/svg+xml</dc:format>
        <dc:type
           rdf:resource="http://purl.org/dc/dcmitype/StillImage" />
        <dc:title></dc:title>
      </cc:Work>
    </rdf:RDF>
  </metadata>
  <g
     inkscape:label="Layer 1"
     inkscape:groupmode="layer"
     id="layer1"
     transform="translate(-26.754502,72.521602)">
    <g
       id="g54"
       transform="translate(46.403268,-40.997867)">
      <ellipse
         style="fill:#ccc;fill-rule:evenodd;stroke-width:1;stroke-linecap:round;stroke-linejoin:bevel"
         id="path48"
         cx="39.857845"
         cy="116.00906"
         rx="59.506611"
         ry="56.238976" />
      <path
         style="fill:#666;stroke-width:0.264583"
         d="m -2.75264,150.46271 c -0.446654,-0.44666 -0.446654,-9.50168 0,-9.94834 0.461639,-0.46164 83.570026,-0.46164 84.031666,0 0.44666,0.44666 0.44666,9.50168 0,9.94834 -0.46164,0.46164 -83.570027,0.46164 -84.031666,0 z m 9.260416,-15.875 c -0.458385,-0.45839 -0.458385,-30.65662 0,-31.115 0.446654,-0.44666 9.50168,-0.44666 9.948334,0 0.458385,0.45838 0.458385,30.65661 0,31.115 -0.446654,0.44665 -9.50168,0.44665 -9.948334,0 z m 18.520834,0 c -0.458386,-0.45839 -0.458386,-30.65662 0,-31.115 0.446653,-0.44666 9.501684,-0.44666 9.948334,0 0.45838,0.45838 0.45838,30.65661 0,31.115 -0.44665,0.44665 -9.501681,0.44665 -9.948334,0 z m 18.520836,0 c -0.45839,-0.45839 -0.45839,-30.65662 0,-31.115 0.44665,-0.44666 9.50168,-0.44666 9.94833,0 0.45839,0.45838 0.45839,30.65661 0,31.115 -0.44665,0.44665 -9.50168,0.44665 -9.94833,0 z m 18.52083,0 c -0.45838,-0.45839 -0.45838,-30.65662 0,-31.115 0.44666,-0.44666 9.50168,-0.44666 9.94834,0 0.45838,0.45838 0.45838,30.65661 0,31.115 -0.44666,0.44665 -9.50168,0.44665 -9.94834,0 z M -2.75264,97.546038 c -0.209296,-0.2093 -0.3175,-1.3314 -0.3175,-3.29254 0,-2.71917 0.0512,-3.03009 0.595312,-3.61515 0.327422,-0.35206 3.21468798,-2.18622 6.416146,-4.07591 3.201458,-1.88969 12.26711,-7.26375 20.145894,-11.94235 10.743782,-6.3799 14.535432,-8.50655 15.166562,-8.50655 0.627982,0 3.908092,1.82151 12.927022,7.17863 10.26701,6.09845 17.24437,10.23849 26.86027,15.93762 0.99559,0.59007 1.97786,1.31226 2.18281,1.60488 0.48499,0.69241 0.53054,6.23598 0.0552,6.71137 -0.46164,0.46164 -83.570027,0.46164 -84.031666,0 z"
         id="path24"
         sodipodi:nodetypes="sssssssssssssssssssssssssssssssssssss" />
    </g>
    <g
       id="g60"
       transform="translate(154.86801,-40.456501)">
      <ellipse
         style="fill:#ccc;fill-rule:evenodd;stroke-width:1;stroke-linecap:round;stroke-linejoin:bevel"
         id="ellipse56"
         cx="39.857845"
         cy="116.00906"
         rx="59.506611"
         ry="56.238976" />
      <path
         style="fill:#666;stroke-width:0.264583"
         d="m -2.75264,150.46271 c -0.446654,-0.44666 -0.446654,-9.50168 0,-9.94834 0.461639,-0.46164 83.570026,-0.46164 84.031666,0 0.44666,0.44666 0.44666,9.50168 0,9.94834 -0.46164,0.46164 -83.570027,0.46164 -84.031666,0 z m 9.260416,-15.875 c -0.458385,-0.45839 -0.458385,-30.65662 0,-31.115 0.446654,-0.44666 9.50168,-0.44666 9.948334,0 0.458385,0.45838 0.458385,30.65661 0,31.115 -0.446654,0.44665 -9.50168,0.44665 -9.948334,0 z m 18.520834,0 c -0.458386,-0.45839 -0.458386,-30.65662 0,-31.115 0.446653,-0.44666 9.501684,-0.44666 9.948334,0 0.45838,0.45838 0.45838,30.65661 0,31.115 -0.44665,0.44665 -9.501681,0.44665 -9.948334,0 z m 18.520836,0 c -0.45839,-0.45839 -0.45839,-30.65662 0,-31.115 0.44665,-0.44666 9.50168,-0.44666 9.94833,0 0.45839,0.45838 0.45839,30.65661 0,31.115 -0.44665,0.44665 -9.50168,0.44665 -9.94833,0 z m 18.52083,0 c -0.45838,-0.45839 -0.45838,-30.65662 0,-31.115 0.44666,-0.44666 9.50168,-0.44666 9.94834,0 0.45838,0.45838 0.45838,30.65661 0,31.115 -0.44666,0.44665 -9.50168,0.44665 -9.94834,0 z M -2.75264,97.546038 c -0.209296,-0.2093 -0.3175,-1.3314 -0.3175,-3.29254 0,-2.71917 0.0512,-3.03009 0.595312,-3.61515 0.327422,-0.35206 3.21468798,-2.18622 6.416146,-4.07591 3.201458,-1.88969 12.26711,-7.26375 20.145894,-11.94235 10.743782,-6.3799 14.535432,-8.50655 15.166562,-8.50655 0.627982,0 3.908092,1.82151 12.927022,7.17863 10.26701,6.09845 17.24437,10.23849 26.86027,15.93762 0.99559,0.59007 1.97786,1.31226 2.18281,1.60488 0.48499,0.69241 0.53054,6.23598 0.0552,6.71137 -0.46164,0.46164 -83.570027,0.46164 -84.031666,0 z"
         id="path58"
         sodipodi:nodetypes="sssssssssssssssssssssssssssssssssssss" />
    </g>
    <g
       id="g66"
       transform="translate(100.54167,-132.29169)">
      <ellipse
         style="fill:#ccc;fill-rule:evenodd;stroke-width:1;stroke-linecap:round;stroke-linejoin:bevel"
         id="ellipse62"
         cx="39.857845"
         cy="116.00906"
         rx="59.506611"
         ry="56.238976" />
      <path
         style="fill:#666;stroke-width:0.264583"
         d="m -2.75264,150.46271 c -0.446654,-0.44666 -0.446654,-9.50168 0,-9.94834 0.461639,-0.46164 83.570026,-0.46164 84.031666,0 0.44666,0.44666 0.44666,9.50168 0,9.94834 -0.46164,0.46164 -83.570027,0.46164 -84.031666,0 z m 9.260416,-15.875 c -0.458385,-0.45839 -0.458385,-30.65662 0,-31.115 0.446654,-0.44666 9.50168,-0.44666 9.948334,0 0.458385,0.45838 0.458385,30.65661 0,31.115 -0.446654,0.44665 -9.50168,0.44665 -9.948334,0 z m 18.520834,0 c -0.458386,-0.45839 -0.458386,-30.65662 0,-31.115 0.446653,-0.44666 9.501684,-0.44666 9.948334,0 0.45838,0.45838 0.45838,30.65661 0,31.115 -0.44665,0.44665 -9.501681,0.44665 -9.948334,0 z m 18.520836,0 c -0.45839,-0.45839 -0.45839,-30.65662 0,-31.115 0.44665,-0.44666 9.50168,-0.44666 9.94833,0 0.45839,0.45838 0.45839,30.65661 0,31.115 -0.44665,0.44665 -9.50168,0.44665 -9.94833,0 z m 18.52083,0 c -0.45838,-0.45839 -0.45838,-30.65662 0,-31.115 0.44666,-0.44666 9.50168,-0.44666 9.94834,0 0.45838,0.45838 0.45838,30.65661 0,31.115 -0.44666,0.44665 -9.50168,0.44665 -9.94834,0 z M -2.75264,97.546038 c -0.209296,-0.2093 -0.3175,-1.3314 -0.3175,-3.29254 0,-2.71917 0.0512,-3.03009 0.595312,-3.61515 0.327422,-0.35206 3.21468798,-2.18622 6.416146,-4.07591 3.201458,-1.88969 12.26711,-7.26375 20.145894,-11.94235 10.743782,-6.3799 14.535432,-8.50655 15.166562,-8.50655 0.627982,0 3.908092,1.82151 12.927022,7.17863 10.26701,6.09845 17.24437,10.23849 26.86027,15.93762 0.99559,0.59007 1.97786,1.31226 2.18281,1.60488 0.48499,0.69241 0.53054,6.23598 0.0552,6.71137 -0.46164,0.46164 -83.570027,0.46164 -84.031666,0 z"
         id="path64"
         sodipodi:nodetypes="sssssssssssssssssssssssssssssssssssss" />
    </g>
  </g>
</svg>
