<?xml version="1.0" encoding="UTF-8" standalone="no"?>
<svg
   xmlns:dc="http://purl.org/dc/elements/1.1/"
   xmlns:cc="http://creativecommons.org/ns#"
   xmlns:rdf="http://www.w3.org/1999/02/22-rdf-syntax-ns#"
   xmlns:svg="http://www.w3.org/2000/svg"
   xmlns="http://www.w3.org/2000/svg"
   xmlns:sodipodi="http://sodipodi.sourceforge.net/DTD/sodipodi-0.dtd"
   xmlns:inkscape="http://www.inkscape.org/namespaces/inkscape"
   inkscape:version="1.0rc1 (09960d6f05, 2020-04-09)"
   sodipodi:docname="debug.svg"
   version="1.1"
   viewBox="0 0 669.55541 434.57175"
   height="434.57175"
   width="669.55542"
   data-name="Layer 1"
   id="e7dedc5b-fca6-4313-b5a0-e6297481e8ae">
  <metadata
     id="metadata328">
    <rdf:RDF>
      <cc:Work
         rdf:about="">
        <dc:format>image/svg+xml</dc:format>
        <dc:type
           rdf:resource="http://purl.org/dc/dcmitype/StillImage" />
        <dc:title>bug fixing</dc:title>
      </cc:Work>
    </rdf:RDF>
  </metadata>
  <sodipodi:namedview
     fit-margin-bottom="0"
     fit-margin-right="0"
     fit-margin-left="0"
     fit-margin-top="0"
     inkscape:document-rotation="0"
     inkscape:current-layer="e7dedc5b-fca6-4313-b5a0-e6297481e8ae"
     inkscape:window-maximized="1"
     inkscape:window-y="27"
     inkscape:window-x="0"
     inkscape:cy="41.239292"
     inkscape:cx="453.48695"
     inkscape:zoom="1.0824912"
     showgrid="false"
     id="namedview326"
     inkscape:window-height="1376"
     inkscape:window-width="2560"
     inkscape:pageshadow="2"
     inkscape:pageopacity="0"
     guidetolerance="10"
     gridtolerance="10"
     objecttolerance="10"
     borderopacity="1"
     bordercolor="#666666"
     pagecolor="#ffffff" />
  <defs
     id="defs9">
    <linearGradient
       gradientUnits="userSpaceOnUse"
       gradientTransform="rotate(-2.31,-9508.1256,5082.979)"
       y2="493.39999"
       x2="678.20001"
       y1="821.78998"
       x1="678.20001"
       id="af83dc26-9572-4816-b7a1-1af4f72ff554">
      <stop
         id="stop2"
         stop-opacity="0.25"
         stop-color="gray"
         offset="0" />
      <stop
         id="stop4"
         stop-opacity="0.12"
         stop-color="gray"
         offset="0.54" />
      <stop
         id="stop6"
         stop-opacity="0.1"
         stop-color="gray"
         offset="1" />
    </linearGradient>
  </defs>
  <title
     id="title11">bug fixing</title>
  <ellipse
     id="ellipse203"
     opacity="0.1"
     fill="#ffa200"
     ry="20"
     rx="115"
     cy="405.21429"
     cx="511.918" />
  <path
     style="fill:url(#af83dc26-9572-4816-b7a1-1af4f72ff554)"
     inkscape:connector-curvature="0"
     id="path237"
     fill="url(#af83dc26-9572-4816-b7a1-1af4f72ff554)"
     d="m 577.28798,393.55429 a 9.56,9.56 0 0 0 -2.17,-2.41 c -4.37,-4.13 -6.4,-10.19 -7.48,-16.13 -1.08,-5.94 -1.39,-12 -3.12,-17.81 a 58.74,58.74 0 0 0 -3.52,-8.67 c -1,-2.14 -2.26,-6.33 -4.09,-7.83 a 2.7,2.7 0 0 0 -1.26,-0.61 14.85,14.85 0 0 0 -3.62,-4.82 c -2.86,-2.59 -6.35,-4.65 -8.26,-8 a 18,18 0 0 0 -1.93,-3.29 c -1.29,-1.42 -3.33,-2 -4.52,-3.5 -1.55,-1.94 -1.2,-4.72 -1,-7.19 0.2,-2.47 0,-5.43 -2.14,-6.73 -1.28,-0.79 -2.93,-0.71 -4.26,-1.41 -2,-1 -2.79,-3.52 -2.75,-5.77 0.04,-2.25 0.74,-4.44 0.92,-6.69 0.56,-7.16 -4.16,-14.28 -2.34,-21.22 0.69,-2.63 2.27,-4.91 3.44,-7.36 a 15.37,15.37 0 0 0 1,-2.54 35.73,35.73 0 0 0 9.74,2.35 c -5.51,-12.36 -4.11,-26.72 -6.68,-40 l 0.33,-0.45 a 20.84,20.84 0 0 0 4.22,-11.86 c 0,-4.94 -2.31,-9.56 -3.35,-14.4 -0.89,-4.11 -0.85,-8.41 -2,-12.45 a 37.65,37.65 0 0 0 -3.16,-7.22 q -1.87,-3.47 -3.93,-6.83 -1.92,-6.36 -3.85,-12.72 c -1.8,-5.95 -3.65,-12 -7.15,-17.14 -1.28,-1.88 -1.67,-5.7 -3.64,-6.84 a 8.81,8.81 0 0 0 -5.2,-0.91 c -2.78,-1.56 -5.22,-3.81 -5.57,-6.89 a 6.68,6.68 0 0 1 0.2,-2 h 0.34 c 4.4,-0.4 6.63,-4.28 8.92,-7.68 3.7,-5.5 2.29,-12.94 0,-19.199998 a 13,13 0 0 0 -3,-5.29 c -3.21,-3 -8.29,-2.34 -12.43,-3.79 -1.39,-0.48 -2.69,-1.21 -4.11,-1.55 -2.75,-0.64 -5.63,0.26 -8.15,1.53 -2.52,1.27 -4.87,2.91 -7.51,3.91 -2.64,1 -5.9,1.79 -6.55,4.5 a 5,5 0 0 0 0.22,2.73 10.18,10.18 0 0 0 3.09,4.459998 17.81,17.81 0 0 0 10.87,24.82 c 0.76,1.22 1.47,2.46 2.12,3.73 1.16,2.24 2.14,4.88 1.74,7.28 a 22.45,22.45 0 0 0 -2,2.45 c -2.87,4 -4.5,8.69 -6,13.37 a 141.65,141.65 0 0 0 -4.83,18.27 c -2.44,5.19 -5.42,10.15 -7.19,15.6 a 35.21,35.21 0 0 1 -9.38,-1.26 l -8.44,-1.91 c -2.94,-0.67 -6,-1.39 -8.3,-3.33 -1.22,-1 -2.17,-2.33 -3.41,-3.32 -1.24,-0.99 -3.73,-2.15 -5.09,-1.33 a 4,4 0 0 0 -0.69,0.53 c -1.24,-2.51 -2.42,-5 -3.86,-7.43 -2.07,-3.4 -5.15,-6.51 -9.05,-7.16 a 9.21,9.21 0 0 0 -6.79,1.58 c -2.28,1.62 -3.71,5 -2,7.28 a 13.29,13.29 0 0 0 1.39,1.42 29.2,29.2 0 0 1 3.09,4.29 21.91,21.91 0 0 0 13.49,8.76 l -0.35,1 c -0.71,2.08 -2.22,4.59 -1.84,6.75 l 37.54,12.85 a 23.13,23.13 0 0 0 7.56,1.67 12.21,12.21 0 0 0 3,-0.4 v 1.92 0.08 c 0.1,13.19 -2,26.29 -2.39,39.47 -0.07,2.41 0,5 1.52,6.88 1.7,2.06 4.72,2.47 7.35,2 q 0.95,-0.16 1.86,-0.42 a 69.33,69.33 0 0 1 1.92,10.11 l 2.48,17.86 a 27.14,27.14 0 0 1 0.39,5.54 c -0.29,4.19 -2.5,7.94 -4.1,11.81 -1.6,3.87 -2.55,8.5 -0.45,12.12 0.66,1.12 1.57,2.07 2.16,3.23 a 13.14,13.14 0 0 1 1,5.68 q 0.23,8.08 0.44,16.18 a 1.83,1.83 0 0 0 -1.26,0.25 c -2.08,1.62 -1.85,9.33 -2,11.72 -0.16,4 0,8.08 -0.22,12.12 a 72.22,72.22 0 0 1 -2.61,16.09 10.29,10.29 0 0 1 -2.29,4.61 9.74,9.74 0 0 1 -4.07,2.11 46.49,46.49 0 0 1 -15.41,2.1 c -2.11,-0.07 -4.31,-0.27 -6.27,0.53 -1.96,0.8 -3.54,3 -2.83,5 0.61,1.68 2.46,2.48 4.13,3.11 a 65.53,65.53 0 0 1 11,5.06 29.74,29.74 0 0 0 4.25,2.41 21.91,21.91 0 0 0 4.38,1.08 l 17.73,3.06 c 3.63,0.62 8,1 10.31,-2 1.25,-1.62 1.43,-3.82 1.37,-5.88 -0.1,-4 -0.9,-8.07 -0.38,-12.07 a 37.14,37.14 0 0 1 1.86,-6.93 q 2.65,-7.87 5.32,-15.73 c 1.78,-5.26 3.58,-10.57 4.27,-16.09 0.25,-2 0.23,-4.28 -1.3,-5.53 a 3.54,3.54 0 0 0 -1.32,-0.68 c -0.06,-4.82 -0.69,-9.65 -0.42,-14.47 0.07,-1.2 0.19,-2.4 0.29,-3.61 a 17.61,17.61 0 0 1 2.47,2.92 c 1.71,2.68 2.34,6.22 4.95,8 2.22,1.52 5.51,1.44 7.07,3.64 a 10.26,10.26 0 0 1 1.12,2.71 19.32,19.32 0 0 0 4,6.35 32,32 0 0 0 2.47,6.34 q 2.21,4.67 4.4,9.31 a 108.59,108.59 0 0 0 5,9.77 27.55,27.55 0 0 1 3.35,6.46 c 1.41,4.94 -0.89,10.36 -4.53,14 -3.64,3.64 -8.44,5.73 -13.17,7.68 a 3.71,3.71 0 0 0 -1.34,0.8 2.59,2.59 0 0 0 -0.61,1.74 c 0,2.31 1.9,4.29 4.08,5 a 15.26,15.26 0 0 0 6.83,0.25 c 12.78,-1.55 25.52,-4.67 36.82,-10.88 a 13,13 0 0 0 4.39,-3.39 5.13,5.13 0 0 0 0.73,-5.21 z" />
  <path
     inkscape:connector-curvature="0"
     id="path239"
     fill="#2f2e41"
     d="m 523.27798,169.30429 q 3.2,4.91 6,10.06 a 37,37 0 0 1 3.17,7.17 c 1.16,4 1.13,8.27 2,12.35 1,4.8 3.34,9.38 3.34,14.3 a 20.56,20.56 0 0 1 -4.22,11.76 55.82,55.82 0 0 1 -8.82,9.1 187.62,187.62 0 0 1 -12.48,-61.21 c -0.1,-2.9 -0.12,-5.89 0.94,-8.6 0.65,-1.7 3.77,-6.36 5.78,-4.53 0.73,0.67 0.92,3.69 1.37,4.7 a 36.13,36.13 0 0 0 2.92,4.9 z" />
  <path
     inkscape:connector-curvature="0"
     id="path241"
     opacity="0.1"
     d="m 523.27798,169.30429 q 3.2,4.91 6,10.06 a 37,37 0 0 1 3.17,7.17 c 1.16,4 1.13,8.27 2,12.35 1,4.8 3.34,9.38 3.34,14.3 a 20.56,20.56 0 0 1 -4.22,11.76 55.82,55.82 0 0 1 -8.82,9.1 187.62,187.62 0 0 1 -12.48,-61.21 c -0.1,-2.9 -0.12,-5.89 0.94,-8.6 0.65,-1.7 3.77,-6.36 5.78,-4.53 0.73,0.67 0.92,3.69 1.37,4.7 a 36.13,36.13 0 0 0 2.92,4.9 z" />
  <g
     transform="matrix(0.56154966,0.82744303,0.82744303,-0.56154966,-322.84969,70.240352)"
     id="g993">
    <path
       inkscape:connector-curvature="0"
       d="m 452,441.63 c -7.91,7.9 -8.86,11.38 -13.61,12.95 -4.75,1.57 -21.84,10.42 -16.47,20.23 l 14.44,9.54 0.42,0.28 2.21,6.64 -21.84,38.88 c 0,0 -36,-16.46 -39.53,7.89 -3.53,24.35 -1.29,31 -2.24,44 -0.95,13 0.31,16.76 -2.86,16.76 -3.17,0 -4.42,-8.54 -4.42,-8.54 0,0 -0.2,-0.39 -0.55,-1.12 -4.71,-9.79 -36.68,-81.66 14.53,-131.06 0,0 23.72,-1.56 29.43,-28.76 3.94,-18.8 17.72,-17.18 26.88,-13.35 a 30.38,30.38 0 0 1 8.22,4.83 40.48,40.48 0 0 1 5.89,7 c 2.61,4.12 4.03,9.29 -0.5,13.83 z"
       fill="#d0d2d5"
       id="path243"
       transform="translate(-88.65,-57.09)" />
    <path
       inkscape:connector-curvature="0"
       d="m 436.78,484.63 2.21,6.64 -21.84,38.88 c 0,0 -36,-16.46 -39.53,7.89 -3.53,24.35 -1.29,31 -2.24,44 -0.95,13 0.31,16.76 -2.86,16.76 -3.17,0 -4.42,-8.54 -4.42,-8.54 0,0 -0.2,-0.39 -0.55,-1.12 -1.59,-12.16 -9.65,-83.29 19.57,-79.51 0,0 23.71,11.08 27.5,6.66 3,-3.5 16.32,-23.63 21.74,-31.89 z"
       transform="translate(-88.65,-57.09)"
       opacity="0.1"
       id="path245" />
    <path
       inkscape:connector-curvature="0"
       d="m 452.5,427.74 -14.44,16.41 c 0,0 -16.77,22.44 -20.25,21.49 a 16.23,16.23 0 0 0 -3.17,-0.37 6.16,6.16 0 0 1 -4,-10.38 c 5.72,-6 16.26,-17.39 16.95,-19.92 0.69,-2.53 7.4,-13.62 10.76,-19.05 a 30.38,30.38 0 0 1 8.22,4.83 40.48,40.48 0 0 1 5.93,6.99 z"
       transform="translate(-88.65,-57.09)"
       opacity="0.1"
       id="path247" />
  </g>
  <path
     inkscape:connector-curvature="0"
     id="path249"
     fill="#454b69"
     d="m 668.69798,255.07429 c -2.45,4.9 -15,23.28 -20.49,31.31 l -2.57,3.78 c 0,0 -1,6.64 -17.39,-1.59 -16.39,-8.23 -401.48,-170.72 -401.48,-170.72 l -2.61,-7.84 19,-28.449998 422.07,163.069998 c 0,0 6.64,4.11 3.47,10.44 z" />
  <path
     inkscape:connector-curvature="0"
     id="path251"
     opacity="0.1"
     d="m 648.20798,286.38429 -2.57,3.78 c 0,0 -1,6.64 -17.39,-1.59 -16.39,-8.23 -401.48,-170.72 -401.48,-170.72 l -2.61,-7.84 z" />
  <path
     inkscape:connector-curvature="0"
     id="path253"
     fill="#fbbebe"
     d="m 423.92798,180.24429 c -3.91,-0.64 -8.25,-0.33 -11.29,2.21 a 9.29,9.29 0 0 0 -3.24,6.16 c -0.26,2.77 1.35,6.06 4.13,6.27 a 13.17,13.17 0 0 0 2,-0.13 29.89,29.89 0 0 1 5.24,0.44 21.39,21.39 0 0 0 18.23,-7.36 c 2.39,-3 -0.76,-4.3 -3.58,-4.9 -3.86,-0.82 -7.63,-2.07 -11.49,-2.69 z" />
  <path
     inkscape:connector-curvature="0"
     id="path255"
     fill="#3f3d56"
     d="m 482.80798,270.55429 2.48,17.62 a 26.84,26.84 0 0 1 0.38,5.51 c -0.29,4.15 -2.5,7.87 -4.09,11.71 -1.59,3.84 -2.56,8.44 -0.45,12 0.65,1.11 1.56,2.06 2.15,3.21 a 12.92,12.92 0 0 1 1,5.63 l 0.68,25 a 157.33,157.33 0 0 0 23.18,-0.13 1.29,1.29 0 0 0 0.84,-0.26 1.36,1.36 0 0 0 0.29,-0.91 c 0.34,-5.85 -0.68,-11.71 -0.35,-17.56 0.12,-2.14 0.42,-4.27 0.46,-6.42 0.12,-8.71 -4.18,-17.24 -2.88,-25.85 a 57,57 0 0 1 1.6,-6.43 c 4.11,-15 3.24,-30.76 2.33,-46.25 a 1.09,1.09 0 0 0 -0.2,-0.7 1.06,1.06 0 0 0 -0.54,-0.29 28.45,28.45 0 0 0 -25.78,4.9 c -1.09,0.88 -3.84,1.73 -4.56,2.78 -1,1.46 0.31,2.92 0.89,4.47 a 56.89,56.89 0 0 1 2.57,11.97 z" />
  <path
     inkscape:connector-curvature="0"
     id="path257"
     opacity="0.1"
     d="m 482.80798,270.55429 2.48,17.62 a 26.84,26.84 0 0 1 0.38,5.51 c -0.29,4.15 -2.5,7.87 -4.09,11.71 -1.59,3.84 -2.56,8.44 -0.45,12 0.65,1.11 1.56,2.06 2.15,3.21 a 12.92,12.92 0 0 1 1,5.63 l 0.68,25 a 157.33,157.33 0 0 0 23.18,-0.13 1.29,1.29 0 0 0 0.84,-0.26 1.36,1.36 0 0 0 0.29,-0.91 c 0.34,-5.85 -0.68,-11.71 -0.35,-17.56 0.12,-2.14 0.42,-4.27 0.46,-6.42 0.12,-8.71 -4.18,-17.24 -2.88,-25.85 a 57,57 0 0 1 1.6,-6.43 c 4.11,-15 3.24,-30.76 2.33,-46.25 a 1.09,1.09 0 0 0 -0.2,-0.7 1.06,1.06 0 0 0 -0.54,-0.29 28.45,28.45 0 0 0 -25.78,4.9 c -1.09,0.88 -3.84,1.73 -4.56,2.78 -1,1.46 0.31,2.92 0.89,4.47 a 56.89,56.89 0 0 1 2.57,11.97 z" />
  <path
     inkscape:connector-curvature="0"
     id="path259"
     fill="#3f3d56"
     d="m 529.17798,265.24429 c -1.17,2.43 -2.74,4.69 -3.44,7.3 -1.82,6.89 2.89,14 2.33,21.06 -0.18,2.23 -0.87,4.4 -0.92,6.63 -0.05,2.23 0.77,4.71 2.75,5.74 1.33,0.68 3,0.61 4.25,1.39 2.11,1.29 2.35,4.22 2.14,6.68 -0.21,2.46 -0.56,5.21 1,7.13 1.19,1.49 3.23,2.07 4.51,3.48 a 17.17,17.17 0 0 1 1.93,3.26 c 1.91,3.34 5.4,5.38 8.26,8 2.86,2.62 5.28,6.46 4,10.09 -0.94,2.66 -3.58,4.3 -6.12,5.55 a 64.93,64.93 0 0 1 -14.57,5.15 3.52,3.52 0 0 1 -1.67,0.09 3.57,3.57 0 0 1 -1.46,-1 c -2.95,-2.89 -6,-5.92 -7.36,-9.81 a 10.07,10.07 0 0 0 -1.12,-2.68 c -1.56,-2.19 -4.85,-2.11 -7.07,-3.62 -2.6,-1.77 -3.23,-5.28 -4.93,-7.93 -1.7,-2.65 -4.19,-4.23 -6,-6.56 -3.06,-3.88 -3.81,-9.06 -6,-13.49 -0.93,-1.88 -2.12,-3.64 -2.86,-5.6 a 30.58,30.58 0 0 1 -1.37,-7.24 c -1.41,-11.68 -5,-23.44 -2.74,-35 0.5,-2.54 1.27,-5 1.59,-7.62 0.55,-4.53 -0.32,-9.17 0.35,-13.69 a 3.77,3.77 0 0 1 1.51,-2.91 4,4 0 0 1 1.72,-0.35 117.28,117.28 0 0 1 17.78,0.4 c 3,0.29 6.36,0.9 8.16,3.35 1.53,2.1 1.45,4.91 1.94,7.46 0.61,3.14 2.2,4.85 3.87,7.31 1.67,2.46 0.77,4.89 -0.46,7.43 z" />
  <path
     inkscape:connector-curvature="0"
     id="path261"
     fill="#2f2e41"
     d="m 506.10798,346.50429 c 1.58,0 3.33,-0.1 4.55,0.9 1.52,1.25 1.54,3.54 1.3,5.49 -0.7,5.48 -2.49,10.75 -4.28,16 l -5.32,15.61 a 36.65,36.65 0 0 0 -1.86,6.88 c -0.52,4 0.28,8 0.38,12 0,2 -0.13,4.22 -1.38,5.83 -2.26,2.91 -6.67,2.57 -10.3,2 l -17.71,-3 a 21.07,21.07 0 0 1 -4.38,-1.07 30.61,30.61 0 0 1 -4.25,-2.39 65.42,65.42 0 0 0 -11,-5 c -1.66,-0.62 -3.52,-1.41 -4.12,-3.08 -0.71,-2 0.87,-4.2 2.83,-5 1.96,-0.8 4.15,-0.6 6.27,-0.54 a 47,47 0 0 0 15.4,-2.08 9.74,9.74 0 0 0 4.06,-2.1 10,10 0 0 0 2.34,-4.71 70.17,70.17 0 0 0 2.68,-16 c 0.21,-4 0.07,-8 0.23,-12 0.1,-2.37 -0.13,-10 1.95,-11.63 1.59,-1.22 8.13,2.15 10.28,2.64 a 50,50 0 0 0 12.33,1.25 z" />
  <path
     inkscape:connector-curvature="0"
     id="path263"
     fill="#2f2e41"
     d="m 564.44798,357.62429 c 1.73,5.73 2,11.79 3.12,17.68 1.12,5.89 3.1,11.9 7.47,16 a 9.87,9.87 0 0 1 2.17,2.4 5.06,5.06 0 0 1 -0.75,5.23 13.13,13.13 0 0 1 -4.39,3.37 c -11.29,6.16 -24,9.27 -36.81,10.81 a 15.51,15.51 0 0 1 -6.82,-0.25 c -2.18,-0.74 -4.11,-2.7 -4.07,-5 a 2.55,2.55 0 0 1 0.6,-1.73 3.73,3.73 0 0 1 1.35,-0.79 c 4.72,-1.94 9.51,-4.05 13.16,-7.63 3.65,-3.58 5.94,-9 4.53,-13.86 a 27.42,27.42 0 0 0 -3.37,-6.41 108.35,108.35 0 0 1 -5,-9.69 l -4.4,-9.23 c -1.29,-2.7 -2.59,-5.48 -2.81,-8.46 a 40.6,40.6 0 0 0 16.22,-2.6 25.51,25.51 0 0 0 6.67,-4 c 1.7,-1.42 3.25,-4.07 5.54,-2.22 1.84,1.48 3,5.65 4.08,7.76 a 57,57 0 0 1 3.51,8.62 z" />
  <path
     inkscape:connector-curvature="0"
     id="path265"
     fill="#fbbebe"
     d="m 499.96798,128.43429 c 0.44,3.84 4.16,6.37 7.71,7.89 l -22.47,7.17 c 1.45,-2.78 0.28,-6.18 -1.16,-9 a 50.93,50.93 0 0 0 -4,-6.41 c -0.22,-0.31 -0.47,-0.7 -0.31,-1.06 a 1.12,1.12 0 0 1 0.63,-0.49 c 4.62,-2.06 9.38,-4.19 14.43,-4.94 1.46,-0.21 4.22,-0.79 5.31,0.69 1.09,1.48 -0.35,4.38 -0.14,6.15 z" />
  <path
     inkscape:connector-curvature="0"
     id="path267"
     opacity="0.1"
     d="m 499.96798,128.43429 c 0.44,3.84 4.16,6.37 7.71,7.89 l -22.47,7.17 c 1.45,-2.78 0.28,-6.18 -1.16,-9 a 50.93,50.93 0 0 0 -4,-6.41 c -0.22,-0.31 -0.47,-0.7 -0.31,-1.06 a 1.12,1.12 0 0 1 0.63,-0.49 c 4.62,-2.06 9.38,-4.19 14.43,-4.94 1.46,-0.21 4.22,-0.79 5.31,0.69 1.09,1.48 -0.35,4.38 -0.14,6.15 z" />
  <circle
     id="circle269"
     fill="#fbbebe"
     r="17.620001"
     cy="113.92429"
     cx="486.90799" />
  <path
     inkscape:connector-curvature="0"
     id="path271"
     fill="#2f2e41"
     d="m 471.63798,258.92429 c 1.71,2.05 4.72,2.45 7.35,2 6.15,-1 11.18,-5.53 17.2,-7.16 7.38,-2 15.19,0.57 22.16,3.72 6.97,3.15 13.9,7 21.52,7.54 -6.89,-15.36 -2.95,-33.84 -9.54,-49.33 -1.61,-3.79 -3.86,-7.44 -4.22,-11.54 -0.45,-5.09 2.09,-10 2.48,-15.06 0.36,-4.51 -1,-9 -2.3,-13.3 q -2.41,-7.92 -4.82,-15.84 c -1.8,-5.91 -3.65,-11.92 -7.14,-17 -1.29,-1.87 -1.68,-5.66 -3.64,-6.79 -4.28,-2.47 -10.77,0.64 -15.41,0.81 -4.64,0.17 -8.87,3.47 -11.58,7.2 -2.87,3.94 -4.5,8.63 -6,13.27 a 126.15,126.15 0 0 0 -5.33,21.23 c -0.15,1.08 -0.28,2.16 -0.38,3.25 -1,10.27 0.46,20.6 0.54,30.92 v 0.07 c 0.1,13.09 -2,26.1 -2.39,39.18 -0.04,2.39 0.02,5 1.5,6.83 z" />
  <path
     inkscape:connector-curvature="0"
     id="path273"
     opacity="0.1"
     d="m 472.55798,212.85429 c 3.45,-0.87 6.57,-3.1 9.25,-5.54 a 38.67,38.67 0 0 0 6.14,-7 49.86,49.86 0 0 0 5.29,-11.07 129.36,129.36 0 0 0 7,-32.27 c 0.26,-3 0.34,-6.22 -1.45,-8.6 a 7.24,7.24 0 0 0 -8.75,-2.12 c -2.36,1.15 -3.89,3.48 -5.31,5.71 -2.81,4.42 -5.64,8.9 -7.45,13.82 -0.8,2.18 -1.39,4.42 -2.17,6.61 a 61,61 0 0 1 -2.74,6.33 c -0.15,1.08 -0.28,2.16 -0.38,3.25 -0.93,10.27 0.49,20.56 0.57,30.88 z" />
  <path
     inkscape:connector-curvature="0"
     id="path275"
     fill="#2f2e41"
     d="m 498.73798,146.44429 c 1.79,2.38 1.71,5.63 1.46,8.59 a 129.18,129.18 0 0 1 -7,32.27 49.43,49.43 0 0 1 -5.29,11.16 39.07,39.07 0 0 1 -6.14,7 c -3.4,3.1 -7.54,5.87 -12.15,5.91 a 23.16,23.16 0 0 1 -7.56,-1.65 l -37.55,-12.78 c -0.38,-2.14 1.13,-4.64 1.84,-6.7 l 2,-5.93 c 0.57,-1.64 1.23,-3.41 2.72,-4.3 1.49,-0.89 3.85,0.33 5.09,1.32 1.24,0.99 2.18,2.29 3.4,3.3 2.31,1.92 5.36,2.64 8.3,3.3 l 8.43,1.89 a 35.2,35.2 0 0 0 9.38,1.25 c 2.35,-7.18 6.82,-13.5 9.35,-20.62 0.78,-2.18 1.37,-4.43 2.18,-6.61 1.8,-4.92 4.64,-9.39 7.45,-13.82 1.41,-2.22 2.94,-4.55 5.31,-5.71 a 7.23,7.23 0 0 1 8.78,2.13 z" />
  <path
     inkscape:connector-curvature="0"
     id="path277"
     fill="#2f2e41"
     d="m 492.52798,117.90429 a 8.89,8.89 0 0 0 -1.06,-3.3 2.77,2.77 0 0 0 -3,-1.32 c -1.76,0.55 -2.35,3.27 -4.19,3.36 -1.24,0.06 -2.13,-1.2 -2.52,-2.38 -0.39,-1.18 -0.6,-2.53 -1.53,-3.36 a 5.7,5.7 0 0 0 -2.18,-1 c -4.27,-1.35 -8.68,-3.84 -10.1,-8.09 a 4.84,4.84 0 0 1 -0.23,-2.709998 c 0.65,-2.69 4,-3.5 6.55,-4.47 2.55,-0.97 5,-2.63 7.5,-3.89 2.5,-1.26 5.4,-2.15 8.15,-1.51 a 42.47,42.47 0 0 1 4.11,1.53 c 4.14,1.44 9.21,0.77 12.42,3.76 a 12.83,12.83 0 0 1 3,5.24 c 2.24,6.219998 3.66,13.599998 -0.05,19.059998 -2.29,3.37 -4.51,7.22 -8.91,7.63 -5.12,0.43 -7.15,-4.21 -7.96,-8.55 z" />
  <g
     transform="translate(-103.71202,-351.66571)"
     id="g283"
     opacity="0.1">
    <path
       inkscape:connector-curvature="0"
       id="path279"
       transform="translate(-88.65,-57.09)"
       d="m 677.07,520.9 c -0.39,-1.18 -0.6,-2.53 -1.52,-3.36 a 5.7,5.7 0 0 0 -2.18,-1 c -4.28,-1.35 -8.68,-3.84 -10.11,-8.09 a 4.93,4.93 0 0 1 -0.22,-2.71 3.39,3.39 0 0 1 0.53,-1.19 c -1.63,0.71 -3.05,1.65 -3.45,3.31 a 4.84,4.84 0 0 0 0.23,2.71 c 1.42,4.25 5.83,6.74 10.1,8.09 a 5.7,5.7 0 0 1 2.18,1 c 0.93,0.83 1.13,2.17 1.53,3.36 0.4,1.19 1.28,2.44 2.52,2.38 1.24,-0.06 1.84,-1.19 2.63,-2.14 -1.09,-0.14 -1.88,-1.26 -2.24,-2.36 z" />
    <path
       inkscape:connector-curvature="0"
       id="path281"
       transform="translate(-88.65,-57.09)"
       d="m 695.79,533.06 c -5.14,0.47 -7.17,-4.21 -8,-8.52 a 8.7,8.7 0 0 0 -1,-3.3 2.78,2.78 0 0 0 -3,-1.32 5.32,5.32 0 0 0 -2.21,2 3,3 0 0 1 2.26,1.4 8.89,8.89 0 0 1 1.06,3.3 c 0.81,4.31 2.84,9 8,8.52 a 8.25,8.25 0 0 0 5.28,-2.74 7.46,7.46 0 0 1 -2.39,0.66 z" />
  </g>
  <g
     transform="matrix(-1.5274818,0,0,1.5274818,821.78805,-297.28572)"
     id="g13463">
    <path
       inkscape:connector-curvature="0"
       d="m 529.45116,302.06729 8.5507,35.27156 a 2.20311,2.20311 0 0 1 -0.0428,1.19048 l -38.78765,121.21126 a 2.20306,2.20306 0 0 1 -4.28722,-0.42269 l -5.36581,-47.21916 a 2.203,2.203 0 0 1 0.0943,-0.93128 l 35.60278,-109.26361 a 2.20306,2.20306 0 0 1 4.2357,0.16344 z"
       id="path20"
       style="fill:#2f2e41" />
    <polygon
       points="499.99,716.28 492.096,682.07 526.306,575.493 534.2,605.756 "
       id="polygon22"
       style="fill:#f2f2f2"
       transform="translate(0,-270.4471)" />
    <path
       inkscape:connector-curvature="0"
       d="m 353.94059,469.51648 c 1.31577,3.94729 136.83949,-1.31577 138.15525,-2.63153 a 28.56086,28.56086 0 0 0 2.89462,-5.26306 c 1.2369,-2.63153 2.36844,-5.26306 2.36844,-5.26306 l -5.26304,-42.60445 -134.208,-4.76306 c 0,0 -3.35527,36.10458 -4.03949,52.63057 -0.17087,4.17096 -0.17087,7.10508 0.0922,7.89459 z"
       id="path24"
       style="fill:#2f2e41" />
    <polygon
       points="418.413,726.806 418.413,689.965 474.991,689.965 477.622,726.806 "
       id="polygon26"
       style="opacity:0.1"
       transform="translate(0,-270.4471)" />
    <polygon
       points="364.467,717.596 364.467,701.806 398.677,701.806 399.03,701.736 397.361,717.596 "
       id="polygon28"
       style="opacity:0.1"
       transform="translate(0,-270.4471)" />
    <path
       inkscape:connector-curvature="0"
       d="m 353.94059,469.51648 c 1.31577,3.94729 136.83949,-1.31577 138.15525,-2.63153 a 28.56086,28.56086 0 0 0 2.89462,-5.26306 H 353.8484 c -0.1709,4.17096 -0.1709,7.10508 0.0922,7.89459 z"
       id="path30"
       style="opacity:0.1" />
  </g>
  <g
     id="g997"
     transform="translate(-315.31019,-27.559763)">
    <path
       id="path233"
       fill="#ffa200"
       transform="translate(-88.65,-57.09)"
       d="m 588.7,348.49 c -8.73,-11.6 -21.38,-18.92 -35.46,-18.92 -14.08,0 -26.73,7.32 -35.46,18.92 a 38.39,38.39 0 0 0 8.4,12.65 38.28,38.28 0 0 0 62.52,-12.65 z"
       inkscape:connector-curvature="0" />
    <path
       id="path235"
       fill="#ffa200"
       transform="translate(-88.65,-57.09)"
       d="m 513.17,355.28 a 9.17,9.17 0 0 1 -1.76,-1 7.06,7.06 0 0 1 -1.94,-2.51 7.18,7.18 0 1 0 -11.72,1.74 8,8 0 0 0 1.7,1.37 4.94,4.94 0 0 1 1.91,2 14.44,14.44 0 0 0 3.32,4.36 29,29 0 0 0 4.55,3.2 66.31,66.31 0 0 0 -3.74,19.56 27.05,27.05 0 0 0 -7.62,1.23 12.29,12.29 0 0 0 -3.53,1.76 8.48,8.48 0 0 0 -0.87,-0.06 7.19,7.19 0 1 0 6.73,9.72 4.59,4.59 0 0 1 3.71,-3 16.75,16.75 0 0 1 1.85,-0.12 64.4,64.4 0 0 0 8.55,26.67 c -4.24,3.29 -6.85,6.88 -7.95,10.86 a 3,3 0 0 0 -0.57,0.41 6.81,6.81 0 0 0 -0.84,0.78 7.18,7.18 0 1 0 12.05,2.35 4.71,4.71 0 0 1 1.17,-5.08 c 0.48,-0.45 1,-0.93 1.7,-1.46 8.11,9.47 17.76,15.54 29.81,16.26 V 380.07 C 533.75,379.2 519.87,368.83 513.17,355.28 Z M 613,387 a 7.93,7.93 0 0 0 -0.87,0.06 13.56,13.56 0 0 0 -3.53,-1.76 26.86,26.86 0 0 0 -7.62,-1.23 67.76,67.76 0 0 0 -3.74,-19.55 29,29 0 0 0 4.55,-3.2 15.58,15.58 0 0 0 3.44,-4.57 4.22,4.22 0 0 1 1.77,-1.75 7.18,7.18 0 1 0 -10,-3.17 6.82,6.82 0 0 1 -1.94,2.51 18.85,18.85 0 0 1 -1.76,1.29 c -6.7,13.54 -20.57,23.62 -36.48,24.49 v 64.31 c 12,-0.72 21.71,-6.82 29.81,-16.26 0.63,0.5 1.16,0.95 1.61,1.37 a 4.86,4.86 0 0 1 1.26,5.23 7.18,7.18 0 1 0 12.08,-2.33 6.81,6.81 0 0 0 -0.84,-0.78 c -0.33,-0.26 -0.57,-0.41 -0.57,-0.41 -1.1,-4 -3.7,-7.57 -8,-10.86 a 64.4,64.4 0 0 0 8.55,-26.67 15.9,15.9 0 0 1 1.77,0.12 4.8,4.8 0 0 1 3.85,3 7.18,7.18 0 0 0 13.85,-2.18 A 7.29,7.29 0 0 0 613,387 Z"
       inkscape:connector-curvature="0" />
  </g>
</svg>
