<?xml version="1.0" encoding="UTF-8" standalone="no"?>
<svg
   xmlns:dc="http://purl.org/dc/elements/1.1/"
   xmlns:cc="http://creativecommons.org/ns#"
   xmlns:rdf="http://www.w3.org/1999/02/22-rdf-syntax-ns#"
   xmlns:svg="http://www.w3.org/2000/svg"
   xmlns="http://www.w3.org/2000/svg"
   xmlns:sodipodi="http://sodipodi.sourceforge.net/DTD/sodipodi-0.dtd"
   xmlns:inkscape="http://www.inkscape.org/namespaces/inkscape"
   id="b8ea24f2-0d0e-4134-9f6b-a081050070ad"
   data-name="Layer 1"
   width="783.92771"
   height="868.73369"
   viewBox="0 0 783.92771 868.73369"
   version="1.1"
   sodipodi:docname="enter.svg"
   inkscape:version="0.92.4 (5da689c313, 2019-01-14)">
  <metadata
     id="metadata65">
    <rdf:RDF>
      <cc:Work
         rdf:about="">
        <dc:format>image/svg+xml</dc:format>
        <dc:type
           rdf:resource="http://purl.org/dc/dcmitype/StillImage" />
        <dc:title>enter</dc:title>
      </cc:Work>
    </rdf:RDF>
  </metadata>
  <defs
     id="defs63" />
  <sodipodi:namedview
     pagecolor="#ffffff"
     bordercolor="#666666"
     borderopacity="1"
     objecttolerance="10"
     gridtolerance="10"
     guidetolerance="10"
     inkscape:pageopacity="0"
     inkscape:pageshadow="2"
     inkscape:window-width="1280"
     inkscape:window-height="1376"
     id="namedview61"
     showgrid="false"
     inkscape:zoom="0.57875767"
     inkscape:cx="234.86512"
     inkscape:cy="434.36685"
     inkscape:window-x="0"
     inkscape:window-y="27"
     inkscape:window-maximized="0"
     inkscape:current-layer="b8ea24f2-0d0e-4134-9f6b-a081050070ad" />
  <title
     id="title2">enter</title>
  <path
     d="M741.2766,553.82947c427.43868,285.99636,288.51919,392.56531-266.62023,295.50409C329.60644,823.97285,208.03614,717.03187,208.03614,553.82947s119.37-295.50409,266.62023-295.50409S605.63611,463.0733,741.2766,553.82947Z"
     transform="translate(-208.03614 -15.63315)"
     fill="#3f3d56"
     id="path4"
     style="fill:#b3b3b3" />
  <ellipse
     cx="571.45602"
     cy="801.70598"
     rx="168.85948"
     ry="15.10848"
     opacity="0.1"
     id="ellipse6" />
  <ellipse
     cx="238.42771"
     cy="303.70598"
     rx="89.5"
     ry="15.10848"
     opacity="0.1"
     id="ellipse8" />
  <path
     d="M441.77321,356.53218A203.53841,203.53841,0,0,0,258.143,472.19205,203.02876,203.02876,0,0,1,408.89,405.41256c112.39817,0,203.52011,91.12188,203.52011,203.52011a202.64833,202.64833,0,0,1-19.88988,87.86024,202.7816,202.7816,0,0,0,52.773-136.74062C645.29332,447.65406,554.17138,356.53218,441.77321,356.53218Z"
     transform="translate(-208.03614 -15.63315)"
     opacity="0.1"
     id="path10" />
  <path
     d="M612.41016,608.044a202.6483,202.6483,0,0,1-19.88988,87.86024,203.02876,203.02876,0,0,1-150.74707,66.77949c-112.39818,0-203.52011-91.12193-203.52011-203.5201A202.64811,202.64811,0,0,1,258.143,471.30334,203.02877,203.02877,0,0,1,408.89,404.52384C521.28822,404.52384,612.41016,495.64572,612.41016,608.044Z"
     transform="translate(-208.03614 -15.63315)"
     fill="#ffa200"
     opacity="0.3"
     id="path12" />
  <path
     d="M441.77343,763.68346c-112.773,0-204.52051-91.74707-204.52051-204.51953a202.601,202.601,0,0,1,19.98828-88.293A204.539,204.539,0,0,1,441.77343,354.64342c112.77295,0,204.52,91.74756,204.52,204.52051a204.50619,204.50619,0,0,1-204.52,204.51953Zm0-407.04c-77.48926,0-149.21485,45.17627-182.72852,115.09277a200.60547,200.60547,0,0,0-19.792,87.42774c0,111.66992,90.8501,202.51953,202.52051,202.51953a202.50552,202.50552,0,0,0,202.52-202.51953C644.29345,447.49352,553.44335,356.64342,441.77343,356.64342Z"
     transform="translate(-208.03614 -15.63315)"
     fill="#fff"
     id="path14" />
  <path
     d="M907.39185,766.26778c-14.78157,19.33172-13.09129,45.458-13.09129,45.458s25.65595-5.21661,40.43753-24.54834,13.09128-45.458,13.09128-45.458S922.17342,746.93605,907.39185,766.26778Z"
     transform="translate(-208.03614 -15.63315)"
     fill="#d0cde1"
     id="path16" />
  <path
     d="M917.07859,770.60943c-2.86846,24.16572-22.286,41.72709-22.286,41.72709s-14.76681-21.619-11.89835-45.78475,22.286-41.7271,22.286-41.7271S919.94705,746.4437,917.07859,770.60943Z"
     transform="translate(-208.03614 -15.63315)"
     fill="#ffa200"
     id="path18" />
  <circle
     cx="172.82786"
     cy="104.91057"
     r="83.97916"
     fill="#ff6584"
     id="circle20"
     style="fill:#b3b3b3" />
  <path
     d="M562.93745,206.166c.04074,83.8842-49.81343,113.19375-111.32351,113.22362q-2.14317.001-4.26566-.04579-4.27613-.09017-8.46322-.38554c-55.51682-3.90373-98.66675-34.672-98.70463-112.68411C340.14122,125.5413,443.274,23.60786,451.00859,16.07085c.00676,0,.00676,0,.0136-.00685.29385-.28725.44423-.43085.44423-.43085S562.89671,122.28859,562.93745,206.166Z"
     transform="translate(-208.03614 -15.63315)"
     fill="#ffa200"
     id="path22" />
  <path
     d="M447.55394,306.56045l40.7079-56.9361-40.80742,63.18424-.10614,6.53524q-4.27613-.09017-8.46322-.38554l4.348-83.92055-.03444-.64937.075-.12312.41322-7.92991-40.97141-63.30175L443.807,220.39481l.10338,1.68162,3.28464-63.40527L412.11519,93.25422l35.505,54.27411,3.38836-131.45748.01339-.43748.00021.43063-.52377,103.66783L485.36237,78.617,450.3523,128.65968l-.89526,56.7732,32.56057-54.4985-32.68636,62.8453-.49737,31.56877,47.25439-75.86125-47.43363,86.87409Z"
     transform="translate(-208.03614 -15.63315)"
     fill="#3f3d56"
     id="path24" />
  <path
     d="M780.99194,254.22683c-10.67463-18.03682-31.79353-18.87742-31.79353-18.87742s-20.57917-2.63164-33.78057,24.83865c-12.30476,25.60458-29.2869,50.32632-2.734,56.32016l4.79623-14.928,2.97028,16.03938a103.89546,103.89546,0,0,0,11.361.19416c28.436-.91808,55.517.26861,54.64508-9.93543C785.29731,294.3135,791.26307,271.58185,780.99194,254.22683Z"
     transform="translate(-208.03614 -15.63315)"
     fill="#2f2e41"
     id="path26" />
  <polygon
     points="525.862 407.843 528.608 435.301 592.22 428.437 593.593 407.843 525.862 407.843"
     fill="#a0616a"
     id="polygon28" />
  <path
     d="M727.03377,438.57806l-1.83056,16.01748s-21.05155,29.2891-19.221,79.62975S677.15077,808.353,699.1176,810.18356s61.32406,4.57642,63.15463-2.28821,5.4917-267.26307,5.4917-267.26307,9.61049,267.588,26.08561,268.50324,71.84983,2.74586,71.84983-4.11878S817.1893,491.66456,817.1893,491.66456l-7.77992-25.628-7.77992-31.57731s-48.51008,8.23756-61.7817,5.03406S727.03377,438.57806,727.03377,438.57806Z"
     transform="translate(-208.03614 -15.63315)"
     fill="#2f2e41"
     id="path30" />
  <circle
     cx="540.96446"
     cy="266.8889"
     r="29.2891"
     fill="#a0616a"
     id="circle32" />
  <path
     d="M800.25653,331.03213l-5.56031,8.09112-3.56047,5.17593-5.98141,8.69978-29.74675,2.28821s-7.22619-2.334-15.56441-5.7434c-3.07993-1.2631-6.31549-2.67264-9.39083-4.16912-11.93071-5.79376-21.50461-12.86434-10.74085-17.546a35.73415,35.73415,0,0,0,5.48712-2.94722,27.877,27.877,0,0,0,4.39794-3.56044,23.9886,23.9886,0,0,0,6.59006-21.40852l28.83146-4.11878c-.83752,7.31312,6.43448,15.28982,14.58511,21.80208,2.67714,2.14635,5.45506,4.12792,8.06818,5.87612C794.52226,328.05746,800.25653,331.03213,800.25653,331.03213Z"
     transform="translate(-208.03614 -15.63315)"
     fill="#a0616a"
     id="path34" />
  <path
     d="M760.8993,339.72734s-28.145-4.80525-34.552-14.87338c0,0-27.68735,3.43232-25.39914,18.07687s25.17032,94.73195,25.17032,94.73195,57.20528-10.98342,78.25682-2.74586l12.814-102.05422s-4.57643-10.06813-13.27163-7.32227-12.12752.22882-12.12752.22882S781.95084,339.72734,760.8993,339.72734Z"
     transform="translate(-208.03614 -15.63315)"
     fill="#d0cde1"
     id="path36" />
  <path
     d="M786.52727,500.35976s19.67861,21.96683,8.6952,25.628-24.255-14.64455-24.255-14.64455Z"
     transform="translate(-208.03614 -15.63315)"
     fill="#a0616a"
     id="path38" />
  <path
     d="M792.93426,502.19033s-16.01748,10.98342-10.06813,18.30569,26.54325-6.407,26.54325-9.15284S792.93426,502.19033,792.93426,502.19033Z"
     transform="translate(-208.03614 -15.63315)"
     fill="#a0616a"
     id="path40" />
  <path
     d="M753.577,442.69684l-13.27162,2.28821-8.6952-64.52755a231.696,231.696,0,0,0-1.15785-35.08285c-.9702-7.77991-2.59022-15.2578-5.25373-20.49323a27.877,27.877,0,0,0,4.39794-3.56044c3.18523,5.04778,8.99726,15.73829,10.24662,28.22279a45.47952,45.47952,0,0,1,.00458,9.40454c-2.28821,21.50919-1.83057,25.628-1.83057,25.628Z"
     transform="translate(-208.03614 -15.63315)"
     fill="#2f2e41"
     id="path42" />
  <path
     d="M722.915,328.74392s-21.50918-5.94935-23.33975,6.86464.45764,45.76422,5.49171,58.12056S727.49142,446.358,727.49142,446.358s31.57731,40.27252,32.95024,49.883,8.23756,19.67862,8.23756,19.67862L790.646,501.73269l-43.01837-72.76512-18.76334-50.34064S736.64426,332.8627,722.915,328.74392Z"
     transform="translate(-208.03614 -15.63315)"
     fill="#d0cde1"
     id="path44" />
  <path
     d="M807.12117,330.57449l10.06813,2.28821s9.15284,39.35724,5.4917,60.40878-4.11878,28.37382-4.11878,28.37382l-3.20349,59.95113s.91528,38.44195-5.49171,32.4926-19.221-8.6952-19.221-8.6952,1.37292-16.93277,6.407-21.05155c0,0,5.94935-31.57731,2.28821-45.30658S807.12117,330.57449,807.12117,330.57449Z"
     transform="translate(-208.03614 -15.63315)"
     fill="#d0cde1"
     id="path46" />
  <path
     d="M810.7823,374.96579,799.11243,442.468l-7.09346-2.97468,12.35634-64.52755-13.23956-30.66661-11.53256-26.70342c2.67714,2.14635,5.45506,4.12792,8.06818,5.87612l7.02485,15.65137Z"
     transform="translate(-208.03614 -15.63315)"
     fill="#2f2e41"
     id="path48" />
  <polygon
     points="568.236 236.855 547.372 225.926 518.559 230.397 512.598 256.726 527.437 256.155 531.583 246.482 531.583 255.996 538.43 255.732 542.404 240.332 544.888 256.726 569.23 256.229 568.236 236.855"
     fill="#2f2e41"
     id="polygon50" />
  <ellipse
     cx="527.01932"
     cy="796.37357"
     rx="14.21975"
     ry="5.3324"
     fill="#2f2e41"
     id="ellipse52" />
  <ellipse
     cx="623.0026"
     cy="796.37357"
     rx="14.21975"
     ry="5.3324"
     fill="#2f2e41"
     id="ellipse54" />
  <path
     d="M426.354,574.00832c-14.78539,3.27254-34.46288,5.267-48.8008,3.18441l17.999,13.70676L345.16364,623.3983l2.71005,4.20186,50.38869-32.49887,5.06542,22.05426C407.34427,603.235,417.27721,586.13185,426.354,574.00832Z"
     transform="translate(-208.03614 -15.63315)"
     fill="#fff"
     id="path58"
     style="fill:#000000" />
  <g
     id="g1076"
     transform="matrix(4.277538,0,0,4.277538,144.56796,409.91447)">
    <g
       transform="translate(-10.076211,-8.721249)"
       style="display:inline"
       inkscape:label="durr"
       id="layer8">
      <g
         inkscape:export-ydpi="299.96201"
         inkscape:export-xdpi="299.96201"
         id="flowRoot4504-8-4"
         style="font-style:normal;font-variant:normal;font-weight:bold;font-stretch:normal;font-size:20px;line-height:25px;font-family:Arial;-inkscape-font-specification:'Arial, Bold';text-align:start;letter-spacing:0px;word-spacing:0px;writing-mode:lr-tb;text-anchor:start;display:inline;opacity:1;fill:#000000;fill-opacity:1;stroke:none;stroke-width:1px;stroke-linecap:butt;stroke-linejoin:miter;stroke-opacity:1"
         transform="matrix(0.26458333,0,0,0.26458333,23.911751,-45.388537)"
         aria-label="lad">
        <path
           sodipodi:nodetypes="cscsccscscc"
           inkscape:connector-curvature="0"
           id="path4584-3"
           style="font-style:normal;font-variant:normal;font-weight:bold;font-stretch:normal;font-size:96px;font-family:'Montserrat Alternates';-inkscape-font-specification:'Montserrat Alternates Bold';fill:#ffa200;fill-opacity:1"
           d="m 95.601062,269.44343 -0.0011,38.5225 c -5.7e-5,1.984 0.513084,3.552 1.537084,4.704 1.024,1.088 2.240001,1.632 3.648004,1.632 2.688,0 3.65097,0.033 6.816,0.0205 l 0.0103,12.55209 c -5.1871,0.009 -3.85034,0.003 -8.842344,0.003 -4.928,0 -9.12,-1.632 -12.576,-4.896 -3.392,-3.264 -5.088,-7.712 -5.088,-13.344 v -39.1945 z" />
      </g>
      <path
         sodipodi:nodetypes="ssscscccccccsscscscsss"
         inkscape:export-ydpi="299.96201"
         inkscape:export-xdpi="299.96201"
         id="path4588-1"
         style="font-style:normal;font-variant:normal;font-weight:bold;font-stretch:normal;font-size:96px;line-height:25px;font-family:'Montserrat Alternates';-inkscape-font-specification:'Montserrat Alternates Bold';text-align:start;letter-spacing:0px;word-spacing:0px;writing-mode:lr-tb;text-anchor:start;opacity:1;fill:#ffa200;fill-opacity:1;stroke:none;stroke-width:0.26458332px;stroke-linecap:butt;stroke-linejoin:miter;stroke-opacity:1"
         d="m 75.669676,41.098735 c -1.608667,0 -3.048,-0.6858 -4.318,-2.0574 -1.27,-1.3716 -1.905,-3.0734 -1.905,-5.105399 0,-2.032 0.618067,-3.691467 1.8542,-4.9784 1.236133,-1.303867 2.683933,-1.9558 4.3434,-1.9558 1.659469,0 3.014136,0.5842 4.064003,1.7526 l 1.77e-4,-5.64119 1.905,-1.700293 1.905,1.700293 -1.77e-4,17.782389 h -3.81 v -1.8034 c -1.0668,1.337733 -2.413001,2.0066 -4.038603,2.0066 z m -2.3876,-7.010399 c 0,1.100666 0.3302,2.006599 0.9906,2.717799 0.6604,0.694267 1.430867,1.0414 2.3114,1.0414 0.880535,0 1.625603,-0.347133 2.235203,-1.0414 0.626533,-0.7112 0.9398,-1.617133 0.9398,-2.717799 0,-1.1176 -0.313267,-2.040467 -0.9398,-2.7686 -0.6096,-0.745067 -1.363134,-1.1176 -2.260603,-1.1176 -0.897467,0 -1.667933,0.372533 -2.3114,1.1176 -0.643467,0.745067 -0.9652,1.667933 -0.9652,2.7686 z"
         inkscape:connector-curvature="0" />
      <g
         inkscape:export-ydpi="299.96201"
         inkscape:export-xdpi="299.96201"
         id="flowRoot4504-6"
         style="font-style:normal;font-variant:normal;font-weight:bold;font-stretch:normal;font-size:20px;line-height:25px;font-family:Arial;-inkscape-font-specification:'Arial, Bold';text-align:start;letter-spacing:0px;word-spacing:0px;writing-mode:lr-tb;text-anchor:start;opacity:1;fill:#ffffff;fill-opacity:1;stroke:none;stroke-width:1px;stroke-linecap:butt;stroke-linejoin:miter;stroke-opacity:1"
         transform="matrix(0.26458333,0,0,0.26458333,-10.022048,-59.473525)"
         aria-label="data">
        <path
           inkscape:connector-curvature="0"
           id="path4612-4"
           style="font-style:normal;font-variant:normal;font-weight:bold;font-stretch:normal;font-size:96px;font-family:'Montserrat Alternates';-inkscape-font-specification:'Montserrat Alternates Bold';fill:#ffffff;fill-opacity:1"
           d="m 171.53287,326.87793 q -9.888,0 -17.28,-7.392 -7.392,-7.392 -7.392,-19.392 0,-12.096 7.584,-19.296 7.584,-7.2 17.568,-7.2 7.776,0 13.536,5.184 v -4.32 h 14.496 v 51.648 h -14.496 v -4.224 q -6.144,4.992 -14.016,4.992 z m -10.176,-26.496 q 0,6.336 3.744,10.368 3.744,3.936 8.736,3.936 4.992,0 8.448,-3.936 3.456,-4.032 3.456,-10.272 0,-6.336 -3.456,-10.56 -3.456,-4.224 -8.544,-4.224 -5.088,0 -8.736,4.224 -3.648,4.128 -3.648,10.464 z" />
        <path
           sodipodi:nodetypes="sssssccccccsscscssscs"
           inkscape:connector-curvature="0"
           id="path4616-0"
           style="font-style:normal;font-variant:normal;font-weight:bold;font-stretch:normal;font-size:96px;font-family:'Montserrat Alternates';-inkscape-font-specification:'Montserrat Alternates Bold';fill:#ffffff;fill-opacity:1"
           d="m 264.91341,326.87793 c -6.592,0 -12.352,-2.464 -17.28,-7.392 -4.928,-4.928 -7.392,-11.392 -7.392,-19.392 0,-8.064 2.528,-14.496 7.584,-19.296 5.056,-4.8 10.912,-7.2 17.568,-7.2 5.184,0 9.696,1.728 13.536,5.184 v -4.32 h 14.496 v 52.44075 h -14.496 v -5.01675 c -4.096,3.328 -8.768,4.992 -14.016,4.992 z m -10.176,-26.496 c 0,4.224 1.248,7.68 3.744,10.368 2.496,2.624 5.408,3.936 8.736,3.936 3.328,0 6.144,-1.312 8.448,-3.936 2.304,-2.688 3.456,-6.112 3.456,-10.272 0,-4.224 -1.152,-7.744 -3.456,-10.56 -2.304,-2.816 -5.152,-4.224 -8.544,-4.224 -3.392,0 -6.304,1.408 -8.736,4.224 -2.432,2.752 -3.648,6.24 -3.648,10.464 z" />
        <path
           sodipodi:nodetypes="cccccccccccc"
           inkscape:connector-curvature="0"
           id="path4614-2"
           style="font-style:normal;font-variant:normal;font-weight:bold;font-stretch:normal;font-size:96px;font-family:'Montserrat Alternates';-inkscape-font-specification:'Montserrat Alternates Bold';fill:#ffffff;fill-opacity:1"
           d="m 209.3575,326.42845 4e-5,-17.79057 -7.6e-4,-49.632 14.49624,-10e-6 v 15.456 h 12.48 v 11.232 h -12.48 l -10e-4,22.272 -3e-5,15.24998 -7.24725,6.42519 -7.24724,-6.42519" />
      </g>
      <path
         inkscape:export-ydpi="299.96201"
         inkscape:export-xdpi="299.96201"
         sodipodi:nodetypes="cccsccssscccccsccsc"
         inkscape:connector-curvature="0"
         id="path1711-6-2-1"
         d="m 17.452682,8.7212544 -1.906485,1.9064846 1.940098,1.940098 h 0.282821 c 0.946542,0 1.789879,0.223753 2.529901,0.671209 0.740024,0.430247 1.316456,1.041043 1.729492,1.832696 0.430247,0.791651 0.645475,1.703714 0.645475,2.736304 0,1.015381 -0.197915,1.918919 -0.593741,2.710572 -0.395827,0.791653 -0.946686,1.40271 -1.652289,1.832957 -0.252626,0.154039 -0.518946,0.279256 -0.798045,0.378146 0.194754,0.207133 1.7463,1.536742 1.7463,1.536742 l -1.241054,2.325074 c 0.957959,-0.187072 1.84731,-0.490146 2.667767,-0.909914 1.497255,-0.757234 2.650383,-1.824061 3.459245,-3.200848 0.826073,-1.376788 1.239217,-2.951585 1.239217,-4.724198 0,-1.772614 -0.404618,-3.338623 -1.21348,-4.6982 C 25.479041,11.68159 24.343225,10.614499 22.880388,9.8572668 21.434762,9.1000353 19.765401,8.7212544 17.872319,8.7212544 Z"
         style="font-style:normal;font-variant:normal;font-weight:bold;font-stretch:normal;font-size:192px;line-height:25px;font-family:Montserrat;-inkscape-font-specification:'Montserrat Bold';text-align:start;letter-spacing:0px;word-spacing:0px;writing-mode:lr-tb;text-anchor:start;fill:#ffffff;fill-opacity:1;stroke:none;stroke-width:0.13445187px;stroke-linecap:butt;stroke-linejoin:miter;stroke-opacity:1" />
      <path
         inkscape:export-ydpi="299.96201"
         inkscape:export-xdpi="299.96201"
         sodipodi:nodetypes="ssssscccccccsscscssscs"
         id="path4586-7"
         style="font-style:normal;font-variant:normal;font-weight:bold;font-stretch:normal;font-size:96px;line-height:25px;font-family:'Montserrat Alternates';-inkscape-font-specification:'Montserrat Alternates Bold';text-align:start;letter-spacing:0px;word-spacing:0px;writing-mode:lr-tb;text-anchor:start;opacity:1;fill:#ffa200;fill-opacity:1;stroke:none;stroke-width:0.26458332px;stroke-linecap:butt;stroke-linejoin:miter;stroke-opacity:1"
         d="m 60.069768,41.098735 c -1.744133,0 -3.268133,-0.651933 -4.572,-1.9558 -1.303866,-1.303867 -1.9558,-3.014133 -1.9558,-5.130799 0,-2.1336 0.668867,-3.8354 2.0066,-5.1054 1.337734,-1.27 2.887134,-1.905 4.6482,-1.905 1.3716,0 2.5654,0.4572 3.5814,1.3716 l 2.88e-4,-1.35286 1.9175,-1.700476 1.9175,1.700476 1.12e-4,13.875059 h -3.8354 v -1.1176 c -1.083733,0.880531 -2.319866,1.3208 -3.7084,1.3208 z m -2.6924,-7.010399 c 0,1.117599 0.3302,2.031999 0.9906,2.743199 0.6604,0.694267 1.430867,1.0414 2.3114,1.0414 0.880534,0 1.6256,-0.347133 2.2352,-1.0414 0.6096,-0.7112 0.9144,-1.617133 0.9144,-2.717799 0,-1.1176 -0.3048,-2.048933 -0.9144,-2.794 -0.6096,-0.745067 -1.363133,-1.1176 -2.2606,-1.1176 -0.897466,0 -1.667933,0.372533 -2.3114,1.1176 -0.643466,0.728133 -0.9652,1.651 -0.9652,2.7686 z"
         inkscape:connector-curvature="0" />
      <path
         sodipodi:nodetypes="ccccccc"
         inkscape:connector-curvature="0"
         id="rect2037"
         d="m 79.708456,20.517949 1.905,-1.7 1.905,1.7 V 22.218 l -1.905,-1.700015 -1.905,1.700015 z"
         style="opacity:1;fill:#ffa200;fill-opacity:1;fill-rule:evenodd;stroke:none;stroke-width:1.05833328;stroke-linecap:butt;stroke-linejoin:miter;stroke-miterlimit:4;stroke-dasharray:none;stroke-opacity:0" />
      <path
         sodipodi:nodetypes="ccccccc"
         inkscape:connector-curvature="0"
         id="rect2037-6"
         d="m 79.708456,17.927898 1.905,-1.7 1.905,1.7 v 1.700051 l -1.905,-1.700015 -1.905,1.700015 z"
         style="display:inline;opacity:1;fill:#ffa200;fill-opacity:1;fill-rule:evenodd;stroke:none;stroke-width:1.05833328;stroke-linecap:butt;stroke-linejoin:miter;stroke-miterlimit:4;stroke-dasharray:none;stroke-opacity:0" />
    </g>
    <g
       transform="translate(-10.076211,-8.721249)"
       inkscape:label="L"
       id="layer9">
      <path
         inkscape:export-ydpi="299.96201"
         inkscape:export-xdpi="299.96201"
         sodipodi:nodetypes="cczcccccccccc"
         inkscape:connector-curvature="0"
         id="path1711-6-2-1-9"
         d="m 10.076211,8.721255 v 18.096381 c 0,0 6.723806,0.0017 7.275896,0 0.552089,-0.0017 0.786041,-0.100838 0.786041,-0.100838 l 1.26597,-1.979505 -2.025955,-1.740245 h -2.577755 v -10.42921 l -0.89967,-0.899934 -1.040165,-1.040164 -5.55e-4,-2.68e-4 c 1.3e-4,1.33e-4 0.957608,-0.957398 1.906482,-1.906223 z"
         style="font-style:normal;font-variant:normal;font-weight:bold;font-stretch:normal;font-size:192px;line-height:25px;font-family:Montserrat;-inkscape-font-specification:'Montserrat Bold';text-align:start;letter-spacing:0px;word-spacing:0px;writing-mode:lr-tb;text-anchor:start;fill:#ffa200;fill-opacity:1;stroke:none;stroke-width:0.13445187px;stroke-linecap:butt;stroke-linejoin:miter;stroke-opacity:1" />
    </g>
  </g>
  <path
     inkscape:connector-curvature="0"
     style="fill:#1a1a1a"
     d="m 283.57161,641.96324 a 99.80371,99.80371 0 0 1 -98.79146,5.75454 l 2.20106,-4.48976 a 95.5,95.5 0 1 0 -53.3445,-82.70937 l -4.99791,0.15331 a 100.50454,100.50454 0 1 1 154.93281,81.29128 z"
     id="path56" />
</svg>
