<?xml version="1.0" encoding="UTF-8" standalone="no"?>
<svg
   xmlns:dc="http://purl.org/dc/elements/1.1/"
   xmlns:cc="http://creativecommons.org/ns#"
   xmlns:rdf="http://www.w3.org/1999/02/22-rdf-syntax-ns#"
   xmlns:svg="http://www.w3.org/2000/svg"
   xmlns="http://www.w3.org/2000/svg"
   xmlns:sodipodi="http://sodipodi.sourceforge.net/DTD/sodipodi-0.dtd"
   xmlns:inkscape="http://www.inkscape.org/namespaces/inkscape"
   id="b8eef085-bbb0-4c81-9a53-f8aa424b48dc"
   data-name="Layer 1"
   width="1063.13"
   height="672.74"
   viewBox="0 0 1063.13 672.74"
   version="1.1"
   sodipodi:docname="further.svg"
   inkscape:version="0.92.4 (5da689c313, 2019-01-14)">
  <metadata
     id="metadata55">
    <rdf:RDF>
      <cc:Work
         rdf:about="">
        <dc:format>image/svg+xml</dc:format>
        <dc:type
           rdf:resource="http://purl.org/dc/dcmitype/StillImage" />
        <dc:title>aircraft</dc:title>
      </cc:Work>
    </rdf:RDF>
  </metadata>
  <defs
     id="defs53" />
  <sodipodi:namedview
     pagecolor="#ffffff"
     bordercolor="#666666"
     borderopacity="1"
     objecttolerance="10"
     gridtolerance="10"
     guidetolerance="10"
     inkscape:pageopacity="0"
     inkscape:pageshadow="2"
     inkscape:window-width="640"
     inkscape:window-height="480"
     id="namedview51"
     showgrid="false"
     inkscape:zoom="0.31040418"
     inkscape:cx="475.1869"
     inkscape:cy="336.37"
     inkscape:window-x="0"
     inkscape:window-y="27"
     inkscape:window-maximized="0"
     inkscape:current-layer="b8eef085-bbb0-4c81-9a53-f8aa424b48dc" />
  <title
     id="title2">aircraft</title>
  <path
     d="m 203.45825,396.66 c 9.77,3.6 26.93,6.56 46.79,8.94 54,6.48 128,8.78 128,8.78 0,0 380.41,31.55 665.51995,-85.79 0,0 41.47,-21.74 3,-51 a 125.29,125.29 0 0 0 -18.82,-11.48 l -0.47,-0.47 a 99.89,99.89 0 0 0 -14.13,-10.89 c -14.76995,-9.55 -39.70995,-20.87 -70.06995,-15.74 l -748.82,121.11 c 0,0 -27.35,23.11 9,36.54 z"
     id="path4"
     inkscape:connector-curvature="0"
     style="fill:#3f3d56" />
  <path
     d="m 352.65825,341.77 -156.76,-111.22 -69.09,11.95 67.65,117.62 c 0,0 156.4,1.25 158.2,-18.35 z"
     id="path6"
     inkscape:connector-curvature="0"
     style="fill:#3f3d56" />
  <polygon
     points="628.03,186.63 678.36,197.15 537.31,260.6 493.23,309.92 315.78,274.2 "
     id="polygon8"
     transform="matrix(-1,0,0,1,1063.0982,0)"
     style="fill:#3f3d56" />
  <path
     d="m 250.24825,405.6 c 54,6.48 128,8.78 128,8.78 0,0 380.41,31.55 665.51995,-85.79 0,0 41.47,-21.74 3,-51 l -0.13,0.54 c 0,0 -61.51995,41.58 -355.45995,76.29 z"
     id="path10"
     inkscape:connector-curvature="0"
     style="fill:#ffa200" />
  <path
     d="m 300.43825,403.2 -139.6,57 -35.07,-3.89 83.5,-62.76 c 0,0 101,-21.55 91.17,9.65 z"
     id="path12"
     inkscape:connector-curvature="0"
     style="fill:#3f3d56" />
  <path
     d="m 996.01825,284.22 c 6.65995,0.11 21.91995,-11.06 31.40995,-18.58 a 99.89,99.89 0 0 0 -14.13,-10.89 c -7.65,5.87 -21.25995,15.37 -28.82995,15 -10.93,-0.45 1.52,14.29 11.55,14.47 z"
     id="path14"
     inkscape:connector-curvature="0"
     style="fill:#ffa200" />
  <path
     d="m 361.80825,600.23 89.63,4.69 252,-169.92 46.78,-31.55 22.72,-15.33 c -42.63,-36 -216.56,13.65 -216.56,13.65 -3.33,2.81 -4.39,7.48 -4.24,12.64 0.29,9.66 4.83,21 6.58,25.08 0.42,1 0.68,1.53 0.68,1.53 z"
     id="path16"
     inkscape:connector-curvature="0"
     style="fill:#3f3d56" />
  <path
     d="m 656.98825,512.13 15.55,9.84 -9.42,-17.13 a 15.35,15.35 0 0 1 9.38,-3.35 h 0.25 a 17.21,17.21 0 0 0 3.22,-0.24 l 5.26,3.34 -2.25,-4.1 a 18.78,18.78 0 0 0 9.2,-7 l 9.41,6 -5.94,-10.82 c 5.5,-6.61 12.92,-10.66 21.09,-10.66 9.79,0 18.51,5.82 24.14,14.9 a 18.06,18.06 0 0 0 16,8.6 h 0.52 c 10.81,0 19.57,12.25 19.57,27.37 0,15.12 -8.76,27.37 -19.57,27.37 a 14.6,14.6 0 0 1 -6.81,-1.71 28.28,28.28 0 0 0 -23.69,-0.46 24.71,24.71 0 0 1 -20.14,0 28.27,28.27 0 0 0 -23.47,0.45 14.72,14.72 0 0 1 -6.75,1.67 c -10.81,0 -19.57,-12.25 -19.57,-27.37 a 34.77,34.77 0 0 1 4.02,-16.7 z"
     id="path18"
     inkscape:connector-curvature="0"
     style="fill:#f2f2f2" />
  <path
     d="m 686.23825,552.18 a 29,29 0 0 1 16.77,1.82 24.63,24.63 0 0 0 20.13,0 28.21,28.21 0 0 1 23.69,0.46 14.73,14.73 0 0 0 6.82,1.71 c 9.6,0 17.59,-9.68 19.25,-22.44 a 18.26,18.26 0 0 1 -4.8,-5.17 c -5.63,-9.07 -14.35,-14.89 -24.14,-14.89 -9.79,0 -18.42,5.7 -24.04,14.7 a 18.5,18.5 0 0 1 -15.95,8.77 h -0.25 c -7.64,-0.02 -14.26,6.1 -17.48,15.04 z"
     id="path20"
     inkscape:connector-curvature="0"
     style="opacity:0.02999998" />
  <path
     d="m 217.98825,499.13 15.55,9.84 -9.42,-17.13 a 15.35,15.35 0 0 1 9.38,-3.35 h 0.25 a 17.21,17.21 0 0 0 3.22,-0.24 l 5.26,3.34 -2.25,-4.1 a 18.78,18.78 0 0 0 9.2,-7 l 9.41,6 -5.94,-10.82 c 5.5,-6.61 12.92,-10.66 21.09,-10.66 9.79,0 18.51,5.82 24.14,14.9 a 18.06,18.06 0 0 0 16,8.6 h 0.52 c 10.81,0 19.57,12.25 19.57,27.37 0,15.12 -8.76,27.37 -19.57,27.37 a 14.6,14.6 0 0 1 -6.81,-1.71 28.28,28.28 0 0 0 -23.69,-0.46 24.71,24.71 0 0 1 -20.14,0 28.27,28.27 0 0 0 -23.47,0.45 14.72,14.72 0 0 1 -6.75,1.67 c -10.81,0 -19.57,-12.25 -19.57,-27.37 a 34.77,34.77 0 0 1 4.02,-16.7 z"
     id="path22"
     inkscape:connector-curvature="0"
     style="fill:#f2f2f2" />
  <path
     d="m 247.23825,539.18 a 29,29 0 0 1 16.77,1.82 24.63,24.63 0 0 0 20.13,0 28.21,28.21 0 0 1 23.69,0.46 14.73,14.73 0 0 0 6.82,1.71 c 9.6,0 17.59,-9.68 19.25,-22.44 a 18.26,18.26 0 0 1 -4.8,-5.17 c -5.63,-9.07 -14.35,-14.89 -24.14,-14.89 -9.79,0 -18.42,5.7 -24.04,14.7 a 18.5,18.5 0 0 1 -16,8.77 h -0.25 c -7.59,-0.02 -14.21,6.1 -17.43,15.04 z"
     id="path24"
     inkscape:connector-curvature="0"
     style="opacity:0.02999998" />
  <path
     d="m 217.98825,171.13 15.55,9.84 -9.42,-17.13 a 15.35,15.35 0 0 1 9.38,-3.35 h 0.25 a 17.21,17.21 0 0 0 3.22,-0.24 l 5.26,3.34 -2.25,-4.1 a 18.78,18.78 0 0 0 9.2,-7 l 9.41,6 -5.94,-10.82 c 5.5,-6.61 12.92,-10.66 21.09,-10.66 9.79,0 18.51,5.82 24.14,14.9 a 18.06,18.06 0 0 0 16,8.6 h 0.52 c 10.81,0 19.57,12.25 19.57,27.37 0,15.12 -8.76,27.37 -19.57,27.37 a 14.6,14.6 0 0 1 -6.81,-1.71 28.28,28.28 0 0 0 -23.69,-0.46 24.71,24.71 0 0 1 -20.14,0.05 28.27,28.27 0 0 0 -23.47,0.45 14.72,14.72 0 0 1 -6.75,1.67 c -10.81,0 -19.57,-12.25 -19.57,-27.37 a 34.77,34.77 0 0 1 4.02,-16.75 z"
     id="path26"
     inkscape:connector-curvature="0"
     style="fill:#f2f2f2" />
  <path
     d="m 247.23825,211.18 a 29,29 0 0 1 16.77,1.82 24.63,24.63 0 0 0 20.13,0 28.21,28.21 0 0 1 23.69,0.46 14.73,14.73 0 0 0 6.82,1.71 c 9.6,0 17.59,-9.68 19.25,-22.44 a 18.26,18.26 0 0 1 -4.8,-5.17 c -5.63,-9.07 -14.35,-14.89 -24.14,-14.89 -9.79,0 -18.42,5.7 -24.04,14.7 a 18.5,18.5 0 0 1 -16,8.77 h -0.25 c -7.59,-0.02 -14.21,6.1 -17.43,15.04 z"
     id="path28"
     inkscape:connector-curvature="0"
     style="opacity:0.02999998" />
  <path
     d="m 860.00825,135.74 7.75,4.91 -4.7,-8.54 a 7.62,7.62 0 0 1 4.68,-1.68 h 0.12 a 9.54,9.54 0 0 0 1.61,-0.12 l 2.62,1.66 -1.12,-2 a 9.36,9.36 0 0 0 4.59,-3.49 l 4.69,3 -3,-5.39 a 13.71,13.71 0 0 1 10.52,-5.32 c 4.88,0 9.23,2.9 12,7.43 a 9,9 0 0 0 8,4.29 h 0.26 c 5.39,0 9.76,6.12 9.76,13.66 0,7.54 -4.37,13.65 -9.76,13.65 a 7.32,7.32 0 0 1 -3.4,-0.85 14.07,14.07 0 0 0 -11.82,-0.23 12.31,12.31 0 0 1 -10,0 14.08,14.08 0 0 0 -11.71,0.23 7.42,7.42 0 0 1 -3.36,0.83 c -5.39,0 -9.76,-6.11 -9.76,-13.65 a 17.42,17.42 0 0 1 2.03,-8.39 z"
     id="path30"
     inkscape:connector-curvature="0"
     style="fill:#f2f2f2" />
  <path
     d="m 874.59825,155.72 a 14.36,14.36 0 0 1 8.37,0.91 12.44,12.44 0 0 0 5,1.06 12.26,12.26 0 0 0 5.05,-1.09 14.1,14.1 0 0 1 11.82,0.24 7.28,7.28 0 0 0 3.39,0.85 c 4.79,0 8.78,-4.83 9.61,-11.19 a 9.4,9.4 0 0 1 -2.4,-2.58 c -2.8,-4.53 -7.15,-7.43 -12,-7.43 -4.85,0 -9.18,2.87 -12,7.34 a 9.22,9.22 0 0 1 -8,4.37 h -0.13 c -3.77,0 -7.1,3.06 -8.71,7.52 z"
     id="path32"
     inkscape:connector-curvature="0"
     style="opacity:0.02999998" />
  <path
     d="m 170.00825,624.74 7.75,4.91 -4.7,-8.54 a 7.62,7.62 0 0 1 4.68,-1.68 h 0.12 a 9.54,9.54 0 0 0 1.61,-0.12 l 2.62,1.66 -1.12,-2 a 9.36,9.36 0 0 0 4.59,-3.49 l 4.69,3 -3,-5.39 a 13.71,13.71 0 0 1 10.52,-5.32 c 4.88,0 9.23,2.9 12,7.43 a 9,9 0 0 0 8,4.29 h 0.26 c 5.39,0 9.76,6.12 9.76,13.66 0,7.54 -4.37,13.65 -9.76,13.65 a 7.32,7.32 0 0 1 -3.4,-0.85 14.07,14.07 0 0 0 -11.82,-0.23 12.31,12.31 0 0 1 -10,0 14.08,14.08 0 0 0 -11.71,0.23 7.42,7.42 0 0 1 -3.36,0.83 c -5.39,0 -9.76,-6.11 -9.76,-13.65 a 17.42,17.42 0 0 1 2.03,-8.39 z"
     id="path34"
     inkscape:connector-curvature="0"
     style="fill:#f2f2f2" />
  <path
     d="m 184.59825,644.72 a 14.36,14.36 0 0 1 8.37,0.91 12.44,12.44 0 0 0 5,1.06 12.26,12.26 0 0 0 5.05,-1.09 14.1,14.1 0 0 1 11.82,0.24 7.28,7.28 0 0 0 3.39,0.85 c 4.79,0 8.78,-4.83 9.61,-11.19 a 9.4,9.4 0 0 1 -2.4,-2.58 c -2.8,-4.53 -7.15,-7.43 -12,-7.43 -4.85,0 -9.18,2.87 -12,7.34 a 9.22,9.22 0 0 1 -8,4.37 h -0.13 c -3.77,0 -7.1,3.06 -8.71,7.52 z"
     id="path36"
     inkscape:connector-curvature="0"
     style="opacity:0.02999998" />
  <path
     d="m 890.00825,650.74 7.75,4.91 -4.7,-8.54 a 7.62,7.62 0 0 1 4.68,-1.68 h 0.12 a 9.54,9.54 0 0 0 1.61,-0.12 l 2.62,1.66 -1.12,-2 a 9.36,9.36 0 0 0 4.59,-3.49 l 4.69,3 -3,-5.39 a 13.71,13.71 0 0 1 10.52,-5.32 c 4.88,0 9.23,2.9 12,7.43 a 9,9 0 0 0 8,4.29 h 0.26 c 5.39,0 9.76,6.12 9.76,13.66 0,7.54 -4.37,13.65 -9.76,13.65 a 7.32,7.32 0 0 1 -3.4,-0.85 14.07,14.07 0 0 0 -11.82,-0.23 12.31,12.31 0 0 1 -10,0 14.08,14.08 0 0 0 -11.71,0.23 7.42,7.42 0 0 1 -3.36,0.83 c -5.39,0 -9.76,-6.11 -9.76,-13.65 a 17.42,17.42 0 0 1 2.03,-8.39 z"
     id="path38"
     inkscape:connector-curvature="0"
     style="fill:#f2f2f2" />
  <path
     d="m 904.59825,670.72 a 14.36,14.36 0 0 1 8.37,0.91 12.44,12.44 0 0 0 5,1.06 12.26,12.26 0 0 0 5.05,-1.09 14.1,14.1 0 0 1 11.82,0.24 7.28,7.28 0 0 0 3.39,0.85 c 4.79,0 8.78,-4.83 9.61,-11.19 a 9.4,9.4 0 0 1 -2.4,-2.58 c -2.8,-4.53 -7.15,-7.43 -12,-7.43 -4.85,0 -9.18,2.87 -12,7.34 a 9.22,9.22 0 0 1 -8,4.37 h -0.13 c -3.77,0 -7.1,3.06 -8.71,7.52 z"
     id="path40"
     inkscape:connector-curvature="0"
     style="opacity:0.02999998" />
  <path
     d="m 531.98825,34.13 15.55,9.84 -9.42,-17.13 a 15.35,15.35 0 0 1 9.38,-3.35 h 0.25 a 17.21,17.21 0 0 0 3.22,-0.24 l 5.26,3.34 -2.25,-4.1 a 18.78,18.78 0 0 0 9.2,-7 l 9.41,6 -5.94,-10.82 c 5.5,-6.61 12.92,-10.66 21.09,-10.66 9.79,0 18.51,5.82 24.14,14.9 a 18.06,18.06 0 0 0 16,8.6 h 0.52 c 10.81,0 19.57,12.25 19.57,27.37 0,15.12 -8.76,27.37 -19.57,27.37 a 14.6,14.6 0 0 1 -6.81,-1.71 28.28,28.28 0 0 0 -23.69,-0.46 24.71,24.71 0 0 1 -20.14,0.05 28.27,28.27 0 0 0 -23.47,0.45 14.72,14.72 0 0 1 -6.75,1.67 c -10.81,0 -19.57,-12.25 -19.57,-27.37 a 34.77,34.77 0 0 1 4.02,-16.75 z"
     id="path42"
     inkscape:connector-curvature="0"
     style="fill:#f2f2f2" />
  <path
     d="m 561.23825,74.18 a 29,29 0 0 1 16.77,1.82 24.63,24.63 0 0 0 20.13,0 28.21,28.21 0 0 1 23.69,0.46 14.73,14.73 0 0 0 6.82,1.71 c 9.6,0 17.59,-9.68 19.25,-22.44 a 18.26,18.26 0 0 1 -4.8,-5.17 c -5.63,-9.07 -14.35,-14.89 -24.14,-14.89 -9.79,0 -18.42,5.7 -24.04,14.7 a 18.5,18.5 0 0 1 -16,8.77 h -0.25 c -7.59,-0.02 -14.21,6.1 -17.43,15.04 z"
     id="path44"
     inkscape:connector-curvature="0"
     style="opacity:0.02999998" />
  <path
     d="m 2.0082496,205.74 7.75,4.91 -4.7,-8.54 a 7.62,7.62 0 0 1 4.68,-1.68 h 0.12 a 9.54,9.54 0 0 0 1.6100004,-0.12 l 2.62,1.66 -1.12,-2 a 9.36,9.36 0 0 0 4.59,-3.49 l 4.69,3 -3,-5.39 a 13.71,13.71 0 0 1 10.52,-5.32 c 4.88,0 9.23,2.9 12,7.43 a 9,9 0 0 0 8,4.29 h 0.26 c 5.39,0 9.76,6.12 9.76,13.66 0,7.54 -4.37,13.65 -9.76,13.65 a 7.32,7.32 0 0 1 -3.4,-0.85 14.07,14.07 0 0 0 -11.82,-0.23 12.31,12.31 0 0 1 -10,0 14.08,14.08 0 0 0 -11.71,0.23 7.42,7.42 0 0 1 -3.3600004,0.83 c -5.39,0 -9.75999996,-6.11 -9.75999996,-13.65 a 17.42,17.42 0 0 1 2.02999996,-8.39 z"
     id="path46"
     inkscape:connector-curvature="0"
     style="fill:#f2f2f2" />
  <path
     d="m 16.59825,225.72 a 14.36,14.36 0 0 1 8.37,0.91 12.44,12.44 0 0 0 5,1.06 12.26,12.26 0 0 0 5,-1.09 14.1,14.1 0 0 1 11.82,0.24 7.28,7.28 0 0 0 3.39,0.85 c 4.79,0 8.78,-4.83 9.61,-11.19 a 9.4,9.4 0 0 1 -2.4,-2.58 c -2.8,-4.53 -7.15,-7.43 -12,-7.43 -4.85,0 -9.18,2.87 -12,7.34 a 9.22,9.22 0 0 1 -7.95,4.37 h -0.13 c -3.77,0 -7.1,3.06 -8.71,7.52 z"
     id="path48"
     inkscape:connector-curvature="0"
     style="opacity:0.02999998" />
</svg>
