<?xml version="1.0" encoding="UTF-8" standalone="no"?>
<svg
   xmlns:dc="http://purl.org/dc/elements/1.1/"
   xmlns:cc="http://creativecommons.org/ns#"
   xmlns:rdf="http://www.w3.org/1999/02/22-rdf-syntax-ns#"
   xmlns:svg="http://www.w3.org/2000/svg"
   xmlns="http://www.w3.org/2000/svg"
   version="1.1"
   viewBox="0 0 835.06371 484.78079"
   height="484.78079"
   width="835.06372"
   data-name="Layer 1"
   id="ade8c9af-7e2e-4eda-b5c8-b06129257226">
  <metadata
     id="metadata97">
    <rdf:RDF>
      <cc:Work
         rdf:about="">
        <dc:format>image/svg+xml</dc:format>
        <dc:type
           rdf:resource="http://purl.org/dc/dcmitype/StillImage" />
        <dc:title>web_developer</dc:title>
      </cc:Work>
    </rdf:RDF>
  </metadata>
  <defs
     id="defs95" />
  <title
     id="title2">web_developer</title>
  <path
     style="fill:#3f3d56"
     id="path4"
     d="m 668.14579,431.97622 c -6.98452,26.59789 -31.459,43.21966 -31.459,43.21966 0,0 -13.15033,-26.50193 -6.16581,-53.09982 6.98452,-26.59789 31.459,-43.21966 31.459,-43.21966 0,0 13.15033,26.50193 6.16581,53.09982 z" />
  <path
     style="fill:#ffa200"
     id="path6"
     d="m 657.55186,426.34951 c -19.56251,19.32716 -21.75117,48.83128 -21.75117,48.83128 0,0 29.52845,-1.83141 49.091,-21.15858 19.56255,-19.32717 21.75116,-48.83129 21.75116,-48.83129 0,0 -29.52851,1.83142 -49.09099,21.15859 z" />
  <path
     style="fill:#2f2e41"
     id="path8"
     d="m 144.73407,331.36123 h 36.8414 l 90.78774,-35.52564 c 0,0 64.47245,-26.31528 59.20939,23.68376 -5.26306,49.99904 -14.47341,117.103 -14.47341,117.103 0,0 -28.94681,-13.15764 -44.736,-9.21035 -15.78919,3.94729 -5.26306,-80.26162 -5.26306,-80.26162 0,0 -128.9449,61.84092 -140.78678,53.94634 -11.84188,-7.89458 -14.4734,-63.15669 -14.4734,-63.15669 z" />
  <path
     style="opacity:0.1"
     id="path10"
     d="m 144.73407,331.36123 h 36.8414 l 90.78774,-35.52564 c 0,0 64.47245,-26.31528 59.20939,23.68376 -5.26306,49.99904 -14.47341,117.103 -14.47341,117.103 0,0 -28.94681,-13.15764 -44.736,-9.21035 -15.78919,3.94729 -5.26306,-80.26162 -5.26306,-80.26162 0,0 -128.9449,61.84092 -140.78678,53.94634 -11.84188,-7.89458 -14.4734,-63.15669 -14.4734,-63.15669 z" />
  <path
     style="fill:#a0616a"
     id="path12"
     d="m 202.77793,215.98721 44.58576,64.05921 103.94537,86.84043 c 0,0 96.0508,22.368 82.89315,38.15717 -13.15765,15.78917 -93.41926,-15.78917 -93.41926,-15.78917 0,0 -119.73455,-86.84044 -123.68184,-93.41927 -3.94729,-6.57883 -47.36751,-68.41973 -47.36751,-68.41973 z" />
  <path
     style="opacity:0.1"
     id="path14"
     d="m 202.77793,215.98721 44.58576,64.05921 103.94537,86.84043 c 0,0 96.0508,22.368 82.89315,38.15717 -13.15765,15.78917 -93.41926,-15.78917 -93.41926,-15.78917 0,0 -119.73455,-86.84044 -123.68184,-93.41927 -3.94729,-6.57883 -47.36751,-68.41973 -47.36751,-68.41973 z" />
  <path
     style="fill:#d0cde1"
     id="path16"
     d="m 176.31242,164.25917 28.94681,56.57786 c 0,0 -6.57882,27.63105 -17.10494,30.26258 -10.52612,2.63153 -55.26209,-34.20987 -55.26209,-34.20987 z" />
  <path
     style="opacity:0.1"
     id="path18"
     d="m 176.31242,164.25917 28.94681,56.57786 c 0,0 -6.57882,27.63105 -17.10494,30.26258 -10.52612,2.63153 -55.26209,-34.20987 -55.26209,-34.20987 z" />
  <path
     style="fill:#2f2e41"
     id="path20"
     d="m 529.45116,302.06729 8.5507,35.27156 a 2.20311,2.20311 0 0 1 -0.0428,1.19048 l -38.78765,121.21126 a 2.20306,2.20306 0 0 1 -4.28722,-0.42269 l -5.36581,-47.21916 a 2.203,2.203 0 0 1 0.0943,-0.93128 l 35.60278,-109.26361 a 2.20306,2.20306 0 0 1 4.2357,0.16344 z" />
  <polygon
     transform="translate(0,-270.4471)"
     style="fill:#f2f2f2"
     id="polygon22"
     points="499.99,716.28 492.096,682.07 526.306,575.493 534.2,605.756 " />
  <path
     style="fill:#2f2e41"
     id="path24"
     d="m 353.94059,469.51648 c 1.31577,3.94729 136.83949,-1.31577 138.15525,-2.63153 a 28.56086,28.56086 0 0 0 2.89462,-5.26306 c 1.2369,-2.63153 2.36844,-5.26306 2.36844,-5.26306 l -5.26304,-42.60445 -134.208,-4.76306 c 0,0 -3.35527,36.10458 -4.03949,52.63057 -0.17087,4.17096 -0.17087,7.10508 0.0922,7.89459 z" />
  <polygon
     transform="translate(0,-270.4471)"
     style="opacity:0.1"
     id="polygon26"
     points="418.413,726.806 418.413,689.965 474.991,689.965 477.622,726.806 " />
  <polygon
     transform="translate(0,-270.4471)"
     style="opacity:0.1"
     id="polygon28"
     points="397.361,717.596 364.467,717.596 364.467,701.806 398.677,701.806 399.03,701.736 " />
  <path
     style="opacity:0.1"
     id="path30"
     d="m 353.94059,469.51648 c 1.31577,3.94729 136.83949,-1.31577 138.15525,-2.63153 a 28.56086,28.56086 0 0 0 2.89462,-5.26306 H 353.8484 c -0.1709,4.17096 -0.1709,7.10508 0.0922,7.89459 z" />
  <circle
     style="fill:#a0616a"
     id="circle32"
     r="59.209389"
     cy="86.629074"
     cx="196.04887" />
  <path
     style="fill:#a0616a"
     id="path34"
     d="m 192.10159,139.25965 c 0,0 -19.73647,34.20987 -23.68376,52.63057 -3.94729,18.4207 -59.20939,-36.8414 -59.20939,-36.8414 l -7.2367,-19.07858 c 0,0 51.97268,-24.34164 48.02539,-44.078108 -3.94729,-19.73647 42.10446,47.367518 42.10446,47.367518 z" />
  <path
     style="fill:#a0616a"
     id="path36"
     d="m 202.6277,241.88926 53.94634,71.05127 128.9449,96.05079 c 0,0 93.41926,19.73647 72.367,34.20987 -21.05226,14.4734 -81.57738,-13.15764 -81.57738,-13.15764 0,0 -130.26064,-69.73551 -157.8917,-98.68232 -27.63106,-28.94681 -78.94585,-77.63009 -78.94585,-77.63009 z" />
  <path
     style="fill:#2f2e41"
     id="path38"
     d="m 130.26067,352.41346 15.78919,24.99952 94.2313,-29.64581 c 20.67581,-6.50474 43.34783,-4.11124 61.68676,7.44229 16.44706,10.36164 26.97317,26.80869 3.28941,51.15033 -47.36751,48.68328 -78.94585,22.368 -78.94585,22.368 0,0 -159.2075,74.99856 -185.52278,38.15716 -26.31528,-36.8414 -27.631,-55.2621 -27.631,-55.2621 0,0 101.3138,-63.15669 117.10297,-59.20939 z" />
  <path
     style="fill:#d0cde1"
     id="path40"
     d="m 327.62531,439.2539 c 0,0 42.10445,27.63105 -7.89459,40.78869 -49.99904,13.15764 -86.84044,-5.26306 -86.84044,-5.26306 0,0 -43.42022,0 -43.42022,-22.368 0,-22.368 14.47341,-24.99952 14.47341,-24.99952 l 44.736,6.57882 c 0,0 53.94632,-14.47339 78.94584,5.26307 z" />
  <path
     style="fill:#2f2e41"
     id="path42"
     d="m 244.62111,71.734622 c 4.03,1.79653 8.02621,3.92291 12.40755,4.4444 4.38134,0.52149 9.37055,-1.00819 11.44376,-4.903 1.11982,-2.10373 1.24778,-4.57826 1.3,-6.96089 0.15849,-7.22517 -0.36406,-15.03591 -4.94264,-20.6274 -2.9139,-3.55854 -7.16747,-5.80183 -10.18374,-9.274 -2.161,-2.48761 -3.59924,-5.50284 -5.14786,-8.41141 -5.866,-11.01725 -14.55128,-21.6055897 -26.62195,-24.7817497 -5.04041,-1.32628996 -10.328,-1.26156996 -15.53945,-1.18799996 l -30.39725,0.42884 c -4.91906,0.0694 -9.914,0.15005 -14.623,1.57382996 -9.784,2.95823 -16.90779,11.1859097 -23.43216,19.0542697 -4.88119,5.88668 -9.7753,11.83425 -13.43862,18.54685 a 65.07888,65.07888 0 0 0 -7.71423,31.88675 29.83261,29.83261 0 0 0 1.09276,8.43732 46.82177,46.82177 0 0 0 3.31627,7.28423 c 5.70049,11.19673 9.08523,25.182188 2.66543,35.982578 11.15187,-4.55542 22.18591,-10.52835 29.54232,-20.0677 3.29093,-4.267478 5.87181,-9.263158 10.25758,-12.394718 4.38577,-3.13156 11.532,-3.40321 14.34592,1.1928 a 12.85719,12.85719 0 0 1 1.4508,6.02242 c 0.20551,3.449828 0.1999,7.032578 1.66258,10.163738 1.46268,3.13116 4.94686,5.65758 8.27337,4.72061 5.72869,-1.61358 5.18009,-10.406 9.59251,-14.399998 3.35094,-3.03318 8.52074,-2.45334 12.82574,-3.83026 5.01582,-1.60428 8.77937,-5.94959 10.92379,-10.75939 1.63,-3.65594 1.60645,-13.223 4.69084,-15.20283 3.86798,-2.48287 12.66429,1.46437 16.24968,3.06271 z" />
  <path
     style="fill:#d0cde1"
     id="path44"
     d="m 97.27156,129.72892 a 15.61579,15.61579 0 0 1 8.128,0.0207 c 8.44618,2.26753 27.38021,8.27035 31.43989,17.40462 5.26306,11.84188 23.68376,30.26258 23.68376,30.26258 0,0 24.99952,24.99952 19.73646,42.10446 -5.26306,17.10494 -24.99952,36.8414 -24.99952,36.8414 0,0 5.26306,81.57738 -21.05223,102.62961 -26.31529,21.05223 -36.8414,6.57882 -36.8414,26.31528 0,19.73646 -81.57734,81.57739 -97.36652,43.42023 0,0 7.89459,-71.05128 5.26306,-96.0508 -2.59358,-24.63898 1.20328,-178.36477 92.0085,-202.94807 z" />
  <path
     style="fill:#d0cde1"
     id="path46"
     d="m 139.47102,162.9434 c 0,0 80.26162,59.2094 65.78821,84.20892 0,0 -48.68328,23.68375 -59.20939,22.368 -10.52611,-1.31575 -51.31481,-47.36751 -61.84092,-51.31481 -10.52611,-3.9473 -15.78917,-74.99857 55.2621,-55.26211 z" />
  <rect
     style="fill:#3f3d56"
     id="rect90"
     height="2"
     width="283"
     y="474.0108"
     x="552.06372" />
</svg>
