<?xml version="1.0" encoding="UTF-8" standalone="no"?>
<svg
   xmlns:dc="http://purl.org/dc/elements/1.1/"
   xmlns:cc="http://creativecommons.org/ns#"
   xmlns:rdf="http://www.w3.org/1999/02/22-rdf-syntax-ns#"
   xmlns:svg="http://www.w3.org/2000/svg"
   xmlns="http://www.w3.org/2000/svg"
   version="1.1"
   viewBox="0 0 774.98617 854.88588"
   height="854.88586"
   width="774.98615"
   data-name="Layer 1"
   id="e547938f-82f5-44e4-b157-d028021b2880">
  <metadata
     id="metadata149">
    <rdf:RDF>
      <cc:Work
         rdf:about="">
        <dc:format>image/svg+xml</dc:format>
        <dc:type
           rdf:resource="http://purl.org/dc/dcmitype/StillImage" />
        <dc:title>personal_notebook</dc:title>
      </cc:Work>
    </rdf:RDF>
  </metadata>
  <defs
     id="defs147">
    <linearGradient
       gradientUnits="userSpaceOnUse"
       gradientTransform="translate(168)"
       y2="266.10986"
       x2="795.53027"
       y1="278.26926"
       x1="795.53027"
       id="a876bd90-f878-4b77-89d3-57d6c6545783">
      <stop
         id="stop2"
         stop-opacity="0.25"
         stop-color="gray"
         offset="0" />
      <stop
         id="stop4"
         stop-opacity="0.12"
         stop-color="gray"
         offset="0.53514" />
      <stop
         id="stop6"
         stop-opacity="0.1"
         stop-color="gray"
         offset="1" />
    </linearGradient>
  </defs>
  <title
     id="title2">personal_notebook</title>
  <path
     style="fill:#f2f2f2"
     id="path4"
     d="M 354.159,825.82648 C 204.55656,783.57694 46.938862,738.26071 7.190052,556.18613 -32.558758,374.11155 143.69012,25.976131 210.2158,166.47613 277.26432,308.08033 449.25724,390.18094 557.18479,436.11645 885.58243,575.88712 737.07962,933.96776 354.159,825.82648 Z" />
  <path
     style="fill:#f2f2f2"
     id="path6"
     d="m 354.55779,824.38006 c -80.97571,-22.87 -165.643,-45.82164 -234.70534,-95.948 C 85.528382,703.51918 56.686452,671.67936 36.768542,634.1349 A 288.91138,288.91138 0 0 1 3.300322,513.6811 c -1.80929,-37.43509 2.6962,-75.08186 10.32913,-111.68982 A 656.54144,656.54144 0 0 1 47.815872,290.0375 c 13.07431,-32.32914 28.62006,-63.981 48.07846,-92.97967 13.935138,-20.76746 30.738488,-42.89311 53.051598,-55.24423 16.33489,-9.04195 34.02187,-8.51271 47.18423,5.6381 10.46949,11.25571 15.65692,26.47386 23.09715,39.66638 a 361.81266,361.81266 0 0 0 39.57421,56.295 c 59.49475,70.04575 140.20565,119.72764 221.97937,159.69617 18.02452,8.80984 36.2638,17.17455 54.63635,25.23169 18.61582,8.16384 37.38588,15.87906 55.38309,25.37689 33.00987,17.4206 64.01162,39.29756 89.43857,66.772 39.29131,42.45521 63.77257,99.62544 54.58291,158.04887 -8.77172,55.76641 -46.2401,101.77509 -94.44221,129.39943 -65.51147,37.54423 -145.17714,42.33494 -218.42865,31.18129 a 561.686,561.686 0 0 1 -67.3932,-14.73936 1.50128,1.50128 0 0 0 -0.79751,2.89284 c 44.12511,12.40288 89.80874,20.13592 135.73052,20.09954 37.23287,-0.0295 74.74651,-5.198 109.9595,-17.56314 29.09966,-10.21842 56.59581,-25.38926 79.65039,-45.9909 20.4992,-18.31815 37.19485,-40.8842 47.78862,-66.3042 a 167.71379,167.71379 0 0 0 12.33907,-77.75806 c -2.291,-28.45058 -11.75243,-55.943 -26.20075,-80.47862 -17.06128,-28.97279 -40.6966,-53.65551 -67.25269,-74.09179 a 370.54964,370.54964 0 0 0 -50.67736,-32.57579 c -18.5301,-9.95679 -37.88963,-17.98169 -57.13508,-26.40763 -39.28823,-17.20094 -77.99156,-35.8301 -115.26263,-57.08392 -41.61126,-23.7288 -81.6186,-50.70477 -117.414,-82.63284 -35.97823,-32.09112 -67.76439,-69.48135 -89.754,-112.59132 -9.22988,-18.09492 -19.88577,-40.50185 -43.26418,-41.48417 -20.43406,-0.85861 -38.67256,14.86547 -51.85345,28.68446 -21.548418,22.59159 -38.112938,49.96456 -52.373518,77.57112 a 636.99515,636.99515 0 0 0 -43.08976,107.13691 c -11.42041,37.58317 -19.77193,76.2866 -23.32148,115.44054 -3.3582,37.0432 -1.86471999,74.06091 7.67547,110.12059 11.49915,43.46408 32.09375,84.16368 62.178,117.73088 27.84629,31.07017 62.591918,55.07552 99.661928,73.853 38.64786,19.57673 79.75342,33.86067 121.11767,46.47972 20.41688,6.22861 40.9564,12.04412 61.49776,17.84561 a 1.50128,1.50128 0 0 0 0.79752,-2.89283 z" />
  <path
     style="fill:#ffa200"
     id="path8"
     d="m 655.53817,251.01342 c 0.0326,67.24357 -39.93164,90.73881 -89.23959,90.76275 q -1.718,8.4e-4 -3.41945,-0.0367 -3.42784,-0.0723 -6.78432,-0.30906 c -44.5036,-3.12932 -79.09362,-27.79389 -79.124,-90.33027 -0.0314,-64.7174 82.64224,-146.42968 88.84251,-152.471529 0.005,0 0.005,0 0.0109,-0.0055 0.23555,-0.23026 0.3561,-0.34538 0.3561,-0.34538 0,0 89.32519,85.497549 89.35785,152.735679 z" />
  <path
     style="fill:#3f3d56"
     id="path10"
     d="m 563.04399,331.49201 32.63243,-45.64134 -32.71221,50.65 -0.0851,5.23881 q -3.42784,-0.0723 -6.78432,-0.30906 l 3.48544,-67.27272 -0.0276,-0.52054 0.0602,-0.0987 0.33124,-6.35681 -32.84366,-50.74419 32.93995,45.98213 0.0829,1.348 2.63305,-50.82717 -28.12079,-52.43978 28.46169,43.50741 2.71619,-105.379439 0.0107,-0.35069 1.7e-4,0.3452 -0.41987,83.102609 27.94777,-32.95862 -28.0649,40.1154 -0.71767,45.51075 26.10133,-43.6873 -26.20217,50.37829 -0.3987,25.30628 37.88025,-60.81219 -38.02393,69.64034 z" />
  <path
     style="fill:#333333"
     id="path12"
     d="m 660.7161,240.0132 h -426.73 v 614 h 426.73 a 21.26632,21.26632 0 0 0 21.27,-21.27 v -571.46 a 21.26627,21.26627 0 0 0 -21.27,-21.27 z m -403.73,603 a 11,11 0 1 1 11,-11 10.99379,10.99379 0 0 1 -10.99998,11 z m 0,-38 a 11,11 0 1 1 11,-11 10.99379,10.99379 0 0 1 -10.99998,11 z m 0,-38 a 11,11 0 1 1 11,-11 10.99379,10.99379 0 0 1 -10.99998,11 z m 0,-38 a 11,11 0 1 1 11,-11 10.99379,10.99379 0 0 1 -10.99998,11 z m 0,-38 a 11,11 0 1 1 11,-11 10.99379,10.99379 0 0 1 -10.99998,11 z m 0,-38 a 11,11 0 1 1 11,-11 10.99379,10.99379 0 0 1 -10.99998,11 z m 0,-38 a 11,11 0 1 1 11,-11 10.99379,10.99379 0 0 1 -10.99998,11 z m 0,-38 a 11,11 0 1 1 11,-11 10.99379,10.99379 0 0 1 -10.99998,11 z m 0,-38 a 11,11 0 1 1 11,-11 10.99379,10.99379 0 0 1 -10.99998,11 z m 0,-38 a 11,11 0 1 1 11,-11 10.99379,10.99379 0 0 1 -10.99998,11 z m 0,-38 a 11,11 0 1 1 11,-11 10.99379,10.99379 0 0 1 -10.99998,11 z m 0,-38 a 11,11 0 1 1 11,-11 10.99379,10.99379 0 0 1 -10.99998,11 z m 0,-38 a 11,11 0 1 1 11,-11 10.99379,10.99379 0 0 1 -10.99998,11 z m 0,-38 a 11,11 0 1 1 11,-11 10.99379,10.99379 0 0 1 -10.99998,11 z m 0,-38 a 11,11 0 1 1 11,-11 10.99379,10.99379 0 0 1 -10.99998,11 z m 0,-38 a 11,11 0 1 1 11,-11 10.99379,10.99379 0 0 1 -10.99998,11 z" />
  <path
     id="path14"
     d="m 235.98612,641.0132 c -4.3418,0 -26,-0.2168 -26,-4.5 0,-3.91895 18.36133,-4.42676 23.98877,-4.48926 l 0.0225,2 c -12.17822,0.13477 -20.06006,1.46191 -21.78613,2.48926 1.8374,1.09472 10.61963,2.5 23.7749,2.5 12.62012,0 21.21582,-1.293 23.51611,-2.36524 -1.05371,-0.36914 -3.70459,-0.998 -10.36181,-1.79882 l 0.23926,-1.98633 c 11.70214,1.4082 12.60644,2.40136 12.60644,3.65039 0,4.2832 -21.6582,4.5 -26,4.5 z" />
  <path
     id="path16"
     d="m 235.98612,650.0132 c -4.3418,0 -26,-0.2168 -26,-4.5 0,-3.91895 18.36133,-4.42676 23.98877,-4.48926 l 0.0225,2 c -12.17822,0.13477 -20.06006,1.46191 -21.78613,2.48926 1.8374,1.09472 10.61963,2.5 23.7749,2.5 12.30762,0 20.7876,-1.22949 23.3335,-2.28516 -2.27881,-0.60449 -7.87891,-1.25879 -11.127,-1.63769 l -2.05224,-0.24121 0.23926,-1.98633 2.04443,0.24121 c 12.22949,1.42676 13.562,1.95215 13.562,3.40918 5e-5,4.2832 -21.65815,4.5 -25.99995,4.5 z" />
  <path
     id="path18"
     d="m 235.98612,604.0132 c -4.3418,0 -26,-0.2168 -26,-4.5 0,-3.91895 18.36133,-4.42676 23.98877,-4.48926 l 0.0225,2 c -12.17822,0.13477 -20.06006,1.46191 -21.78613,2.48926 1.8374,1.09472 10.61963,2.5 23.7749,2.5 12.62012,0 21.21582,-1.293 23.51611,-2.36524 -1.05371,-0.36914 -3.70459,-0.998 -10.36181,-1.79882 l 0.23926,-1.98633 c 11.70214,1.4082 12.60644,2.40136 12.60644,3.65039 0,4.2832 -21.6582,4.5 -26,4.5 z" />
  <path
     id="path20"
     d="m 235.98612,613.0132 c -4.3418,0 -26,-0.2168 -26,-4.5 0,-3.91895 18.36133,-4.42676 23.98877,-4.48926 l 0.0225,2 c -12.17822,0.13477 -20.06006,1.46191 -21.78613,2.48926 1.8374,1.09472 10.61963,2.5 23.7749,2.5 12.30762,0 20.7876,-1.22949 23.3335,-2.28516 -2.27881,-0.60449 -7.87891,-1.25879 -11.127,-1.63769 l -2.05224,-0.24121 0.23926,-1.98633 2.04443,0.24121 c 12.22949,1.42676 13.562,1.95215 13.562,3.40918 5e-5,4.2832 -21.65815,4.5 -25.99995,4.5 z" />
  <path
     id="path22"
     d="m 235.98612,565.0132 c -4.3418,0 -26,-0.2168 -26,-4.5 0,-3.91895 18.36133,-4.42676 23.98877,-4.48926 l 0.0225,2 c -12.17822,0.13477 -20.06006,1.46191 -21.78613,2.48926 1.8374,1.09472 10.61963,2.5 23.7749,2.5 12.62012,0 21.21582,-1.293 23.51611,-2.36524 -1.05371,-0.36914 -3.70459,-0.998 -10.36181,-1.79882 l 0.23926,-1.98633 c 11.70214,1.4082 12.60644,2.40136 12.60644,3.65039 0,4.2832 -21.6582,4.5 -26,4.5 z" />
  <path
     id="path24"
     d="m 235.98612,574.0132 c -4.3418,0 -26,-0.2168 -26,-4.5 0,-3.91895 18.36133,-4.42676 23.98877,-4.48926 l 0.0225,2 c -12.17822,0.13477 -20.06006,1.46191 -21.78613,2.48926 1.8374,1.09472 10.61963,2.5 23.7749,2.5 12.30762,0 20.7876,-1.22949 23.3335,-2.28516 -2.27881,-0.60449 -7.87891,-1.25879 -11.127,-1.63769 l -2.05224,-0.24121 0.23926,-1.98633 2.04443,0.24121 c 12.22949,1.42676 13.562,1.95215 13.562,3.40918 5e-5,4.2832 -21.65815,4.5 -25.99995,4.5 z" />
  <path
     id="path26"
     d="m 235.98612,527.0132 c -4.3418,0 -26,-0.2168 -26,-4.5 0,-3.91895 18.36133,-4.42676 23.98877,-4.48926 l 0.0225,2 c -12.17822,0.13477 -20.06006,1.46191 -21.78613,2.48926 1.8374,1.09472 10.61963,2.5 23.7749,2.5 12.62012,0 21.21582,-1.293 23.51611,-2.36524 -1.05371,-0.36914 -3.70459,-0.998 -10.36181,-1.79882 l 0.23926,-1.98633 c 11.70214,1.4082 12.60644,2.40136 12.60644,3.65039 0,4.2832 -21.6582,4.5 -26,4.5 z" />
  <path
     id="path28"
     d="m 235.98612,536.0132 c -4.3418,0 -26,-0.2168 -26,-4.5 0,-3.91895 18.36133,-4.42676 23.98877,-4.48926 l 0.0225,2 c -12.17822,0.13477 -20.06006,1.46191 -21.78613,2.48926 1.8374,1.09472 10.61963,2.5 23.7749,2.5 12.30762,0 20.7876,-1.22949 23.3335,-2.28516 -2.27881,-0.60449 -7.87891,-1.25879 -11.127,-1.63769 l -2.05224,-0.24121 0.23926,-1.98633 2.04443,0.24121 c 12.22949,1.42676 13.562,1.95215 13.562,3.40918 5e-5,4.2832 -21.65815,4.5 -25.99995,4.5 z" />
  <path
     id="path30"
     d="m 235.98612,489.0132 c -4.3418,0 -26,-0.2168 -26,-4.5 0,-3.91846 18.36133,-4.42627 23.98877,-4.48877 l 0.0225,2 c -12.1792,0.13476 -20.061,1.46191 -21.78613,2.48877 1.83691,1.09472 10.61914,2.5 23.7749,2.5 12.62158,0 21.21729,-1.29346 23.51709,-2.36524 -1.05371,-0.36914 -3.7041,-0.999 -10.3623,-1.79882 l 0.23828,-1.98536 c 11.70263,1.40528 12.60693,2.39893 12.60693,3.64942 0,4.2832 -21.6582,4.5 -26,4.5 z" />
  <path
     id="path32"
     d="m 235.98612,498.0132 c -4.3418,0 -26,-0.2168 -26,-4.5 0,-3.91846 18.36133,-4.42627 23.98877,-4.48877 l 0.0225,2 c -12.1792,0.13476 -20.061,1.46191 -21.78613,2.48877 1.83691,1.09472 10.61914,2.5 23.7749,2.5 12.30908,0 20.78906,-1.23 23.33447,-2.28516 -2.28027,-0.606 -7.89013,-1.25976 -11.14453,-1.63916 l -2.03515,-0.23974 0.23828,-1.98536 2.02832,0.23829 c 12.24463,1.42773 13.57861,1.95312 13.57861,3.41113 0,4.2832 -21.6582,4.5 -26,4.5 z" />
  <path
     id="path34"
     d="m 235.98612,451.0132 c -4.3418,0 -26,-0.2168 -26,-4.5 0,-3.91846 18.36133,-4.42627 23.98877,-4.48877 l 0.0225,2 c -12.1792,0.13476 -20.061,1.46191 -21.78613,2.48877 1.83691,1.09472 10.61914,2.5 23.7749,2.5 12.62158,0 21.21729,-1.29346 23.51709,-2.36524 -1.05371,-0.36914 -3.7041,-0.999 -10.3623,-1.79882 l 0.23828,-1.98536 c 11.70263,1.40528 12.60693,2.39893 12.60693,3.64942 0,4.2832 -21.6582,4.5 -26,4.5 z" />
  <path
     id="path36"
     d="m 235.98612,460.0132 c -4.3418,0 -26,-0.2168 -26,-4.5 0,-3.91846 18.36133,-4.42627 23.98877,-4.48877 l 0.0225,2 c -12.1792,0.13476 -20.061,1.46191 -21.78613,2.48877 1.83691,1.09472 10.61914,2.5 23.7749,2.5 12.30908,0 20.78906,-1.23 23.33447,-2.28516 -2.28027,-0.606 -7.89013,-1.25976 -11.14453,-1.63916 l -2.03515,-0.23974 0.23828,-1.98536 2.02832,0.23829 c 12.24463,1.42773 13.57861,1.95312 13.57861,3.41113 0,4.2832 -21.6582,4.5 -26,4.5 z" />
  <path
     id="path38"
     d="m 235.98612,413.0132 c -4.3418,0 -26,-0.2168 -26,-4.5 0,-3.91846 18.36133,-4.42627 23.98877,-4.48877 l 0.0225,2 c -12.1792,0.13476 -20.061,1.46191 -21.78613,2.48877 1.83691,1.09472 10.61914,2.5 23.7749,2.5 12.62158,0 21.21729,-1.29346 23.51709,-2.36524 -1.05371,-0.36914 -3.7041,-0.999 -10.3623,-1.79882 l 0.23828,-1.98536 c 11.70263,1.40528 12.60693,2.39893 12.60693,3.64942 0,4.2832 -21.6582,4.5 -26,4.5 z" />
  <path
     id="path40"
     d="m 235.98612,422.0132 c -4.3418,0 -26,-0.2168 -26,-4.5 0,-3.91846 18.36133,-4.42627 23.98877,-4.48877 l 0.0225,2 c -12.1792,0.13476 -20.061,1.46191 -21.78613,2.48877 1.83691,1.09472 10.61914,2.5 23.7749,2.5 12.30908,0 20.78906,-1.23 23.33447,-2.28516 -2.28027,-0.606 -7.89013,-1.25976 -11.14453,-1.63916 l -2.03515,-0.23974 0.23828,-1.98536 2.02832,0.23829 c 12.24463,1.42773 13.57861,1.95312 13.57861,3.41113 0,4.2832 -21.6582,4.5 -26,4.5 z" />
  <path
     id="path42"
     d="m 235.98612,375.0132 c -4.3418,0 -26,-0.2168 -26,-4.5 0,-3.91846 18.36133,-4.42627 23.98877,-4.48877 l 0.0225,2 c -12.1792,0.13476 -20.061,1.46191 -21.78613,2.48877 1.83691,1.09472 10.61914,2.5 23.7749,2.5 12.62158,0 21.21729,-1.29346 23.51709,-2.36524 -1.05371,-0.36914 -3.7041,-0.999 -10.3623,-1.79882 l 0.23828,-1.98536 c 11.70263,1.40528 12.60693,2.39893 12.60693,3.64942 0,4.2832 -21.6582,4.5 -26,4.5 z" />
  <path
     id="path44"
     d="m 235.98612,384.0132 c -4.3418,0 -26,-0.2168 -26,-4.5 0,-3.91846 18.36133,-4.42627 23.98877,-4.48877 l 0.0225,2 c -12.1792,0.13476 -20.061,1.46191 -21.78613,2.48877 1.83691,1.09472 10.61914,2.5 23.7749,2.5 12.30908,0 20.78906,-1.23 23.33447,-2.28516 -2.28027,-0.606 -7.89013,-1.25976 -11.14453,-1.63916 l -2.03515,-0.23974 0.23828,-1.98536 2.02832,0.23829 c 12.24463,1.42773 13.57861,1.95312 13.57861,3.41113 0,4.2832 -21.6582,4.5 -26,4.5 z" />
  <path
     id="path46"
     d="m 235.98612,337.0132 c -4.3418,0 -26,-0.2168 -26,-4.5 0,-3.91846 18.36133,-4.42627 23.98877,-4.48877 l 0.0225,2 c -12.1792,0.13476 -20.061,1.46191 -21.78613,2.48877 1.83691,1.09472 10.61914,2.5 23.7749,2.5 12.62158,0 21.21729,-1.29346 23.51709,-2.36524 -1.05371,-0.36914 -3.7041,-0.999 -10.3623,-1.79882 l 0.23828,-1.98536 c 11.70263,1.40528 12.60693,2.39893 12.60693,3.64942 0,4.2832 -21.6582,4.5 -26,4.5 z" />
  <path
     id="path48"
     d="m 235.98612,346.0132 c -4.3418,0 -26,-0.2168 -26,-4.5 0,-3.91846 18.36133,-4.42627 23.98877,-4.48877 l 0.0225,2 c -12.1792,0.13476 -20.061,1.46191 -21.78613,2.48877 1.83691,1.09472 10.61914,2.5 23.7749,2.5 12.30908,0 20.78906,-1.23 23.33447,-2.28516 -2.28027,-0.606 -7.89013,-1.25976 -11.14453,-1.63916 l -2.03515,-0.23974 0.23828,-1.98536 2.02832,0.23829 c 12.24463,1.42773 13.57861,1.95312 13.57861,3.41113 0,4.2832 -21.6582,4.5 -26,4.5 z" />
  <path
     id="path50"
     d="m 235.98612,299.0132 c -4.3418,0 -26,-0.2168 -26,-4.5 0,-3.91846 18.36133,-4.42627 23.98877,-4.48877 l 0.0225,2 c -12.1792,0.13476 -20.061,1.46191 -21.78613,2.48877 1.83691,1.09472 10.61914,2.5 23.7749,2.5 12.62158,0 21.21729,-1.29346 23.51709,-2.36524 -1.05371,-0.36914 -3.7041,-0.999 -10.3623,-1.79882 l 0.23828,-1.98536 c 11.70263,1.40528 12.60693,2.39893 12.60693,3.64942 0,4.2832 -21.6582,4.5 -26,4.5 z" />
  <path
     id="path52"
     d="m 235.98612,308.0132 c -4.3418,0 -26,-0.2168 -26,-4.5 0,-3.91846 18.36133,-4.42627 23.98877,-4.48877 l 0.0225,2 c -12.1792,0.13476 -20.061,1.46191 -21.78613,2.48877 1.83691,1.09472 10.61914,2.5 23.7749,2.5 12.30908,0 20.78906,-1.23 23.33447,-2.28516 -2.28027,-0.606 -7.89013,-1.25976 -11.14453,-1.63916 l -2.03515,-0.23974 0.23828,-1.98536 2.02832,0.23829 c 12.24463,1.42773 13.57861,1.95312 13.57861,3.41113 0,4.2832 -21.6582,4.5 -26,4.5 z" />
  <path
     id="path54"
     d="m 235.98612,261.0132 c -4.3418,0 -26,-0.2168 -26,-4.5 0,-3.91846 18.36133,-4.42627 23.98877,-4.48877 l 0.0225,2 c -12.1792,0.13476 -20.061,1.46191 -21.78613,2.48877 1.83691,1.09472 10.61914,2.5 23.7749,2.5 12.62158,0 21.21729,-1.29346 23.51709,-2.36524 -1.05371,-0.36914 -3.7041,-0.999 -10.3623,-1.79882 l 0.23828,-1.98536 c 11.70263,1.40528 12.60693,2.39893 12.60693,3.64942 0,4.2832 -21.6582,4.5 -26,4.5 z" />
  <path
     id="path56"
     d="m 235.98612,270.0132 c -4.3418,0 -26,-0.2168 -26,-4.5 0,-3.91846 18.36133,-4.42627 23.98877,-4.48877 l 0.0225,2 c -12.1792,0.13476 -20.061,1.46191 -21.78613,2.48877 1.83691,1.09472 10.61914,2.5 23.7749,2.5 12.30908,0 20.78906,-1.23 23.33447,-2.28516 -2.28027,-0.606 -7.89013,-1.25976 -11.14453,-1.63916 l -2.03515,-0.23974 0.23828,-1.98536 2.02832,0.23829 c 12.24463,1.42773 13.57861,1.95312 13.57861,3.41113 0,4.2832 -21.6582,4.5 -26,4.5 z" />
  <path
     id="path58"
     d="m 235.98612,680.0132 c -4.3418,0 -26,-0.2168 -26,-4.5 0,-3.91895 18.36133,-4.42676 23.98877,-4.48926 l 0.0225,2 c -12.17822,0.13477 -20.06006,1.46191 -21.78613,2.48926 1.8374,1.09472 10.61963,2.5 23.7749,2.5 12.62012,0 21.21582,-1.293 23.51611,-2.36524 -1.05371,-0.36914 -3.70459,-0.998 -10.36181,-1.79882 l 0.23926,-1.98633 c 11.70214,1.4082 12.60644,2.40136 12.60644,3.65039 0,4.2832 -21.6582,4.5 -26,4.5 z" />
  <path
     id="path60"
     d="m 235.98612,689.0132 c -4.3418,0 -26,-0.2168 -26,-4.5 0,-3.91895 18.36133,-4.42676 23.98877,-4.48926 l 0.0225,2 c -12.17822,0.13477 -20.06006,1.46191 -21.78613,2.48926 1.8374,1.09472 10.61963,2.5 23.7749,2.5 12.30762,0 20.7876,-1.22949 23.3335,-2.28516 -2.27881,-0.60449 -7.87891,-1.25879 -11.127,-1.63769 l -2.05224,-0.24121 0.23926,-1.98633 2.04443,0.24121 c 12.22949,1.42676 13.562,1.95215 13.562,3.40918 5e-5,4.2832 -21.65815,4.5 -25.99995,4.5 z" />
  <path
     id="path62"
     d="m 235.98612,717.0132 c -4.3418,0 -26,-0.2168 -26,-4.5 0,-3.91895 18.36133,-4.42676 23.98877,-4.48926 l 0.0225,2 c -12.17822,0.13477 -20.06006,1.46191 -21.78613,2.48926 1.8374,1.09472 10.61963,2.5 23.7749,2.5 12.62012,0 21.21582,-1.293 23.51611,-2.36524 -1.05371,-0.36914 -3.70459,-0.998 -10.36181,-1.79882 l 0.23926,-1.98633 c 11.70214,1.4082 12.60644,2.40136 12.60644,3.65039 0,4.2832 -21.6582,4.5 -26,4.5 z" />
  <path
     id="path64"
     d="m 235.98612,726.0132 c -4.3418,0 -26,-0.2168 -26,-4.5 0,-3.91895 18.36133,-4.42676 23.98877,-4.48926 l 0.0225,2 c -12.17822,0.13477 -20.06006,1.46191 -21.78613,2.48926 1.8374,1.09472 10.61963,2.5 23.7749,2.5 12.30762,0 20.7876,-1.22949 23.3335,-2.28516 -2.27881,-0.60449 -7.87891,-1.25879 -11.127,-1.63769 l -2.05224,-0.24121 0.23926,-1.98633 2.04443,0.24121 c 12.22949,1.42676 13.562,1.95215 13.562,3.40918 5e-5,4.2832 -21.65815,4.5 -25.99995,4.5 z" />
  <path
     id="path66"
     d="m 235.98612,756.0132 c -4.3418,0 -26,-0.2168 -26,-4.5 0,-3.91895 18.36133,-4.42676 23.98877,-4.48926 l 0.0225,2 c -12.17822,0.13477 -20.06006,1.46191 -21.78613,2.48926 1.8374,1.09472 10.61963,2.5 23.7749,2.5 12.62012,0 21.21582,-1.293 23.51611,-2.36524 -1.05371,-0.36914 -3.70459,-0.998 -10.36181,-1.79882 l 0.23926,-1.98633 c 11.70214,1.4082 12.60644,2.40136 12.60644,3.65039 0,4.2832 -21.6582,4.5 -26,4.5 z" />
  <path
     id="path68"
     d="m 235.98612,765.0132 c -4.3418,0 -26,-0.2168 -26,-4.5 0,-3.91895 18.36133,-4.42676 23.98877,-4.48926 l 0.0225,2 c -12.17822,0.13477 -20.06006,1.46191 -21.78613,2.48926 1.8374,1.09472 10.61963,2.5 23.7749,2.5 12.30762,0 20.7876,-1.22949 23.3335,-2.28516 -2.27881,-0.60449 -7.87891,-1.25879 -11.127,-1.63769 l -2.05224,-0.24121 0.23926,-1.98633 2.04443,0.24121 c 12.22949,1.42676 13.562,1.95215 13.562,3.40918 5e-5,4.2832 -21.65815,4.5 -25.99995,4.5 z" />
  <path
     id="path70"
     d="m 235.98612,793.0132 c -4.3418,0 -26,-0.2168 -26,-4.5 0,-3.91895 18.36133,-4.42676 23.98877,-4.48926 l 0.0225,2 c -12.17822,0.13477 -20.06006,1.46191 -21.78613,2.48926 1.8374,1.09472 10.61963,2.5 23.7749,2.5 12.62012,0 21.21582,-1.293 23.51611,-2.36524 -1.05371,-0.36914 -3.70459,-0.998 -10.36181,-1.79882 l 0.23926,-1.98633 c 11.70214,1.4082 12.60644,2.40136 12.60644,3.65039 0,4.2832 -21.6582,4.5 -26,4.5 z" />
  <path
     id="path72"
     d="m 235.98612,802.0132 c -4.3418,0 -26,-0.2168 -26,-4.5 0,-3.91895 18.36133,-4.42676 23.98877,-4.48926 l 0.0225,2 c -12.17822,0.13477 -20.06006,1.46191 -21.78613,2.48926 1.8374,1.09472 10.61963,2.5 23.7749,2.5 12.30762,0 20.7876,-1.22949 23.3335,-2.28516 -2.27881,-0.60449 -7.87891,-1.25879 -11.127,-1.63769 l -2.05224,-0.24121 0.23926,-1.98633 2.04443,0.24121 c 12.22949,1.42676 13.562,1.95215 13.562,3.40918 5e-5,4.2832 -21.65815,4.5 -25.99995,4.5 z" />
  <path
     id="path74"
     d="m 235.98612,831.0132 c -4.3418,0 -26,-0.2168 -26,-4.5 0,-3.91895 18.36133,-4.42676 23.98877,-4.48926 l 0.0225,2 c -12.17822,0.13477 -20.06006,1.46191 -21.78613,2.48926 1.8374,1.09472 10.61963,2.5 23.7749,2.5 12.62012,0 21.21582,-1.293 23.51611,-2.36524 -1.05371,-0.36914 -3.70459,-0.998 -10.36181,-1.79882 l 0.23926,-1.98633 c 11.70214,1.4082 12.60644,2.40136 12.60644,3.65039 0,4.2832 -21.6582,4.5 -26,4.5 z" />
  <path
     id="path76"
     d="m 235.98612,840.0132 c -4.3418,0 -26,-0.2168 -26,-4.5 0,-3.91895 18.36133,-4.42676 23.98877,-4.48926 l 0.0225,2 c -12.17822,0.13477 -20.06006,1.46191 -21.78613,2.48926 1.8374,1.09472 10.61963,2.5 23.7749,2.5 12.30762,0 20.7876,-1.22949 23.3335,-2.28516 -2.27881,-0.60449 -7.87891,-1.25879 -11.127,-1.63769 l -2.05224,-0.24121 0.23926,-1.98633 2.04443,0.24121 c 12.22949,1.42676 13.562,1.95215 13.562,3.40918 5e-5,4.2832 -21.65815,4.5 -25.99995,4.5 z" />
  <path
     style="fill:#3f3d56"
     id="path80"
     d="m 96.348722,261.00055 a 12,12 0 1 1 11.999998,-12 12.01344,12.01344 0 0 1 -11.999998,12 z m 0,-22 a 10,10 0 1 0 9.999998,10 10.01146,10.01146 0 0 0 -9.999998,-10 z" />
  <path
     style="fill:#3f3d56"
     id="path82"
     d="m 139.48612,573.5132 h -26 v -26 h 26 z m -24,-2 h 22 v -22 h -22 z" />
  <path
     style="fill:#3f3d56"
     id="path84"
     d="m 387.46479,207.86958 -17.335,-19.37773 19.37773,-17.335 17.335,19.37773 z m -14.511,-19.22057 14.6681,16.39654 16.39655,-14.66811 -14.66811,-16.39654 z" />
  <rect
     style="fill:#ffa200"
     id="rect86"
     height="114"
     width="251"
     y="403.51318"
     x="350.48611" />
  <path
     style="fill:#f2f2f2"
     id="path88"
     d="m 376.32229,479.92552 a 138.47311,138.47311 0 0 1 50.02837,-5.03588 c 17.43763,1.4868 34.29481,6.71244 51.51515,9.57762 a 304.64671,304.64671 0 0 0 47.91017,4.14 c 13.86971,0.0942 30.84717,1.19107 43.12878,-6.39075 1.63984,-1.01233 0.13489,-3.60842 -1.51415,-2.59041 -7.13742,4.40614 -15.28742,5.11667 -23.48242,5.5598 q -12.39206,0.67008 -24.81415,0.30351 a 300.05793,300.05793 0 0 1 -49.82206,-5.63121 c -15.51736,-3.09035 -30.81932,-7.3366 -46.68748,-8.2371 a 141.43421,141.43421 0 0 0 -47.05973,5.41158 1.50128,1.50128 0 0 0 0.79752,2.89284 z" />
  <path
     style="fill:#f2f2f2"
     id="path90"
     d="m 376.32229,448.92552 a 138.47311,138.47311 0 0 1 50.02837,-5.03588 c 17.43763,1.4868 34.29481,6.71244 51.51515,9.57762 a 304.64671,304.64671 0 0 0 47.91017,4.14 c 13.86971,0.0942 30.84717,1.19107 43.12878,-6.39075 1.63984,-1.01233 0.13489,-3.60842 -1.51415,-2.59041 -7.13742,4.40614 -15.28742,5.11667 -23.48242,5.5598 q -12.39206,0.67008 -24.81415,0.30351 a 300.05793,300.05793 0 0 1 -49.82206,-5.63121 c -15.51736,-3.09035 -30.81932,-7.3366 -46.68748,-8.2371 a 141.43421,141.43421 0 0 0 -47.05973,5.41158 1.50128,1.50128 0 0 0 0.79752,2.89284 z" />
  <path
     style="opacity:0.2"
     id="path92"
     d="m 681.98612,713.62318 v 119.12 a 21.26632,21.26632 0 0 1 -21.27,21.27 h -160.84 z" />
  <path
     style="opacity:0.2"
     id="path94"
     d="m 681.98612,261.28316 v 113.81 l -212.33,-135.08 h 191.06 a 21.26627,21.26627 0 0 1 21.27,21.27 z" />
  <rect
     style="fill:#3f3d56"
     id="rect96"
     height="357.65039"
     width="2"
     y="497.23547"
     x="734.6004" />
  <ellipse
     style="fill:#333333"
     id="ellipse98"
     ry="89"
     rx="39"
     cy="735.23547"
     cx="735.98615" />
  <ellipse
     style="fill:#333333"
     id="ellipse100"
     ry="89"
     rx="39"
     cy="532.23547"
     cx="735.98615" />
  <path
     style="fill:#3f3d56"
     id="path102"
     d="m 736.94413,459.52259 -1.916,-0.57422 c 0.1211,-0.4043 11.87891,-40.69678 -7.42724,-66.63526 -10.9043,-14.64941 -29.61573,-22.07763 -55.61475,-22.07763 v -2 c 26.66992,0 45.92285,7.70166 57.22461,22.89111 19.90379,26.75142 7.8574,67.98291 7.73338,68.396 z" />
  <circle
     style="fill:#ffa200"
     id="circle104"
     r="25"
     cy="369.23547"
     cx="671.98615" />
  <circle
     style="fill:#d0cde1"
     id="circle106"
     r="7.6568599"
     cy="368.51453"
     cx="671.76062" />
  <g
     id="g977"
     transform="translate(-400.34417,-61.056129)">
    <path
       d="m 965.66657,267.50313 c 0.64438,-0.4376 1.267,-0.90492 1.87258,-1.39328 a 28.71667,28.71667 0 0 1 -5.97125,10.20038 v 0 c -0.62606,0.68951 -1.29436,1.33483 -1.98093,1.959 -0.0136,-0.1581 -0.0288,-0.31625 -0.0371,-0.47421 -0.08,-1.52987 0.0315,-3.13979 0.0525,-4.71533 a 20.11536,20.11536 0 0 0 6.06423,-5.57656 z"
       transform="translate(-134.87066,-124)"
       id="path71"
       style="fill:url(#a876bd90-f878-4b77-89d3-57d6c6545783)" />
    <path
       d="m 975.04868,211.71081 a 17.64909,17.64909 0 1 0 -32.53453,-5.80218 28.33744,28.33744 0 0 0 -16.1198,26.95992 28.3726,28.3726 0 1 0 52.14589,15.48492 c 0,-0.45238 -0.0132,-0.90162 -0.0341,-1.34881 a 28.36938,28.36938 0 0 0 -3.45743,-35.29385 z"
       transform="translate(-134.87066,-124)"
       id="path73"
       style="fill:#2f2e41" />
    <g
       id="g81"
       style="opacity:0.1">
      <path
         d="m 942.27984,201.42853 c 0.079,-0.0387 0.15488,-0.0831 0.23431,-0.12113 -0.0565,-0.30556 -0.0952,-0.61625 -0.13569,-0.92639 -0.009,0.0648 -0.0205,0.12839 -0.0284,0.19345 -0.0345,0.28608 -0.0497,0.56972 -0.0702,0.85407 z"
         transform="translate(-134.87066,-124)"
         id="path75" />
      <path
         d="m 982.90252,230.31443 a 28.2502,28.2502 0 0 1 -4.39641,12.089 c 0.0209,0.44719 0.0341,0.89643 0.0341,1.34881 a 28.37037,28.37037 0 0 1 -56.64874,2.2869 c -0.0619,0.76388 -0.0998,1.53445 -0.0998,2.31433 a 28.374265,28.374265 0 1 0 56.74853,0 c 0,-0.45238 -0.0132,-0.90162 -0.0341,-1.34881 a 28.28662,28.28662 0 0 0 4.49953,-17.81526 c -0.0304,0.37454 -0.0576,0.74866 -0.10312,1.12503 z"
         transform="translate(-134.87066,-124)"
         id="path77" />
      <path
         d="m 977.37673,200.36177 a 17.5815,17.5815 0 0 1 -2.328,6.74781 c 0.49606,0.50953 0.96505,1.0435 1.42127,1.58809 a 17.65508,17.65508 0 0 0 0.90678,-8.3359 z"
         transform="translate(-134.87066,-124)"
         id="path79" />
    </g>
    <path
       d="m 860.7076,516.13452 a 12.9424,12.9424 0 0 0 1.28943,4.64236 5.13438,5.13438 0 0 0 3.76177,2.75411 7.59114,7.59114 0 0 0 4.15009,-1.20318 c 2.52613,-1.31934 5.14805,-2.85275 6.46657,-5.37931 1.27662,-2.44625 1.09294,-5.36533 0.87725,-8.11621 l -1.6964,-21.63629 c -4.08633,-0.11246 -8.19213,-0.11056 -12.275,0.11193 -4.04432,0.2204 -4.75445,1.17279 -4.1915,5.12134 1.12029,7.85806 0.57471,15.84049 1.61779,23.70525 z"
       transform="translate(-134.87066,-124)"
       id="path83"
       style="fill:#fbbebe" />
    <path
       d="m 980.6,530.7578 9.72395,15.70981 a 3.84118,3.84118 0 0 0 2.11476,1.98853 3.31892,3.31892 0 0 0 2.03177,-0.3529 c 3.24281,-1.41722 5.72502,-4.10854 8.10662,-6.7262 1.616,-1.77618 3.2862,-3.64957 3.8928,-5.973 a 7.61068,7.61068 0 0 0 -1.9428,-7.15966 23.55856,23.55856 0 0 0 -3.6659,-2.62 c -7.68672,-5.18454 -11.1558,-15.03411 -18.74388,-20.362 a 2.95911,2.95911 0 0 0 -1.53688,-0.66116 3.17947,3.17947 0 0 0 -1.57931,0.52962 q -5.18669,2.84309 -10.37337,5.68619 c -4.492,2.45726 -3.06811,2.74575 0.34323,5.39268 5.02508,3.89903 8.16361,9.34999 11.62901,14.54809 z"
       transform="translate(-134.87066,-124)"
       id="path85"
       style="fill:#fbbebe" />
    <path
       d="m 881.81406,503.62145 c -1.42432,-0.449 -3.02018,-0.85329 -4.36305,-0.19989 a 4.81185,4.81185 0 0 0 -2.27371,3.58541 c -0.27087,1.44365 -0.238,2.94212 -0.63884,4.3552 -0.676,2.38293 -2.49168,4.24466 -4.24173,5.99756 a 6.1849,6.1849 0 0 1 -2.66265,1.85358 c -1.40206,0.359 -2.89333,-0.29764 -4.319,-0.0482 a 4.70184,4.70184 0 0 0 -3.40744,3.4727 13.83493,13.83493 0 0 0 -0.16642,5.09517 l 1.10379,12.059 a 18.27368,18.27368 0 0 1 0.0449,4.431 c -0.40681,2.65091 -1.94754,4.97737 -2.80236,7.51944 -0.85482,2.54207 -0.80721,5.78752 1.33217,7.40489 a 5.358,5.358 0 0 0 5.11862,0.451 11.89768,11.89768 0 0 0 4.23965,-3.21926 c 6.54944,-7.14192 9.4734,-16.81531 14.56733,-25.05875 a 48.79517,48.79517 0 0 0 3.48086,-5.97438 c 0.699,-1.60154 1.14321,-3.30022 1.709,-4.95353 a 49.459,49.459 0 0 1 2.805,-6.43485 c 0.60583,-1.18755 2.92539,-4.04686 2.43818,-5.373 -0.83137,-2.26273 -9.75837,-4.26767 -11.96431,-4.96304 z"
       transform="translate(-134.87066,-124)"
       id="path87"
       style="fill:#2f2e41" />
    <path
       d="m 999.90528,536.88306 a 12.46585,12.46585 0 0 1 -6.88961,5.90484 6.219,6.219 0 0 0 -2.34176,1.21176 3.62457,3.62457 0 0 0 -0.40971,3.972 12.736,12.736 0 0 0 2.60509,3.3258 42.98877,42.98877 0 0 1 11.16641,22.50185 c 0.3481,2.13082 0.5758,4.39566 1.8509,6.138 2.4909,3.40336 7.7933,3.18074 11.5382,1.24092 a 7.45991,7.45991 0 0 0 2.886,-2.34 9.37985,9.37985 0 0 0 1.1667,-3.55906 49.06406,49.06406 0 0 0 1.1146,-9.44361 c -0.072,-5.99537 -2.3246,-11.72672 -3.4002,-17.62525 -1.5266,-8.37135 -0.7616,-17.38812 -4.6602,-24.95193 a 5.56633,5.56633 0 0 0 -1.7798,-2.23792 6.24846,6.24846 0 0 0 -3.1704,-0.71145 q -5.2831,-0.21645 -10.57285,-0.0932 c -0.98793,0.023 -2.14312,0.14736 -2.65487,0.99273 -0.52337,0.86458 -0.0659,1.968 0.39392,2.868 2.18189,4.27036 5.7188,7.68409 3.15758,12.80651 z"
       transform="translate(-134.87066,-124)"
       id="path89"
       style="fill:#2f2e41" />
    <path
       d="m 916.24215,386.83514 a 5.43983,5.43983 0 0 0 -1.27637,6.86792 c 0.78116,1.29395 2.182,2.49846 1.875,3.9784 -0.31866,1.53612 -2.20742,2.0578 -3.75677,2.30424 -13.65535,2.172 -26.94412,6.1697 -40.184,10.156 l -13.8878,4.18141 c -4.00436,1.20565 -8.07855,2.44393 -11.53859,4.79268 a 20.76846,20.76846 0 0 0 -7.25826,8.67076 c -1.58761,3.56 -2.13341,7.48112 -2.70023,11.33769 -2.0858,14.19162 -4.74883,28.52365 -11.08114,41.39434 l 33.68292,11.04458 a 49.48452,49.48452 0 0 0 10.09225,2.53987 37.61163,37.61163 0 0 0 9.8298,-0.47571 c -0.20917,-7.52125 -0.33643,-15.269 -0.5456,-22.79021 a 63.97657,63.97657 0 0 0 -0.46215,-7.10662 c -0.50507,-3.6042 -1.62347,-7.11057 -1.972,-10.73327 1.55385,-1.28167 3.8125,-0.96295 5.82589,-0.90429 4.59491,0.13387 9.08086,-1.46335 13.16723,-3.56876 4.08637,-2.10541 7.88636,-4.72939 11.95,-6.87832 6.7707,-3.58046 14.47067,-5.98877 19.639,-11.64125 -2.63256,10.03367 -8.852,18.77686 -10.05514,29.08013 -1.21555,10.4098 3.02129,20.5973 7.16865,30.22232 l 13.25116,30.75281 c 1.463,3.39533 3.41148,7.21212 7.0188,8.022 2.24755,0.50459 4.56627,-0.3388 6.65231,-1.3158 12.19618,-5.71208 21.95349,-16.45045 34.97585,-19.88452 -0.97043,-6.44861 -6.06588,-11.77962 -8.95163,-17.62759 -2.43381,-4.93209 -3.22857,-10.48612 -4.85024,-15.74151 -1.62167,-5.25539 -4.40818,-10.58105 -9.30806,-13.07906 -2.32662,-1.18613 -5.46094,-2.21828 -5.67815,-4.82076 a 5.45341,5.45341 0 0 1 0.51783,-2.42035 31.55767,31.55767 0 0 1 7.92611,-11.53817 3.50507,3.50507 0 0 0 1.042,-1.30385 3.9321,3.9321 0 0 0 0.0774,-1.55209 c -0.24577,-4.18721 1.99616,-8.1042 4.49755,-11.47114 2.50139,-3.36694 5.39133,-6.57162 6.80146,-10.5219 2.42462,-6.79217 0.0182,-14.25643 -2.37883,-21.0584 -0.9688,-2.74915 -1.988,-5.58336 -3.97827,-7.713 -3.12078,-3.33942 -7.98148,-4.30191 -12.52493,-4.8 -14.69036,-1.61047 -31.92975,-5.46136 -43.60306,3.60142 z"
       transform="translate(-134.87066,-124)"
       id="path91"
       style="fill:#2f2e41" />
    <g
       id="g95"
       style="opacity:0.1">
      <path
         d="m 914.71251,388.86624 a 2.81894,2.81894 0 0 0 2.12828,-1.921 2.05365,2.05365 0 0 0 0.0342,-0.573 c -0.21137,0.15329 -0.42495,0.30153 -0.63281,0.46292 a 5.04241,5.04241 0 0 0 -1.52968,2.03108 z"
         transform="translate(-134.87066,-124)"
         id="path93" />
    </g>
    <path
       d="m 939.45606,280.38528 c 0.17528,3.35518 -0.8378,6.946 -3.41718,9.09883 -0.82751,0.69067 -1.78791,1.214 -2.584,1.94064 a 6.983,6.983 0 0 0 1.0213,10.60751 c 2.6783,1.63421 6.08376,1.19328 9.1751,0.657 a 53.6008,53.6008 0 0 0 12.04268,-3.14239 19.98676,19.98676 0 0 0 9.49182,-7.77438 c -3.366,-1.87668 -5.199,-5.81866 -5.40339,-9.667 -0.20462,-3.85352 0.85181,-8.22637 -1.58853,-11.21572 -2.35011,-2.87881 -6.77273,-2.85778 -10.3552,-1.86958 -1.79806,0.496 -3.53906,1.182 -5.33968,1.66734 -0.91241,0.24594 -3.92633,0.25243 -4.5225,0.92432 -1.08403,1.22169 1.37817,6.83215 1.47958,8.77343 z"
       transform="translate(-134.87066,-124)"
       id="path97"
       style="fill:#fbbebe" />
    <path
       d="m 939.45606,280.38528 c 0.17528,3.35518 -0.8378,6.946 -3.41718,9.09883 -0.82751,0.69067 -1.78791,1.214 -2.584,1.94064 a 6.983,6.983 0 0 0 1.0213,10.60751 c 2.6783,1.63421 6.08376,1.19328 9.1751,0.657 a 53.6008,53.6008 0 0 0 12.04268,-3.14239 19.98676,19.98676 0 0 0 9.49182,-7.77438 c -3.366,-1.87668 -5.199,-5.81866 -5.40339,-9.667 -0.20462,-3.85352 0.85181,-8.22637 -1.58853,-11.21572 -2.35011,-2.87881 -6.77273,-2.85778 -10.3552,-1.86958 -1.79806,0.496 -3.53906,1.182 -5.33968,1.66734 -0.91241,0.24594 -3.92633,0.25243 -4.5225,0.92432 -1.08403,1.22169 1.37817,6.83215 1.47958,8.77343 z"
       transform="translate(-134.87066,-124)"
       id="path99"
       style="opacity:0.1" />
    <circle
       cx="814.91187"
       cy="136.23999"
       r="19.938669"
       id="circle101"
       style="fill:#fbbebe" />
    <path
       d="m 886.8218,413.2129 a 13.61718,13.61718 0 0 1 -1.87717,4.42689 20.743,20.743 0 0 0 -2.37994,13.60708 14.36,14.36 0 0 0 8.38119,10.59433 c 1.86648,0.7348 4.17868,0.92871 5.71776,-0.35773 -2.66376,-3.46526 -2.805,-8.196 -2.64555,-12.56387 a 4.16645,4.16645 0 0 1 0.55909,-2.33222 1.465,1.465 0 0 1 2.10554,-0.37388 18.96508,18.96508 0 0 0 1.55746,8.00637 c 0.42167,0.97095 1.14243,2.04315 2.20063,2.01555 1.51824,-0.0396 1.92833,-2.09584 1.87073,-3.6135 -0.23471,-6.18391 -0.53755,-12.62474 -3.51873,-18.04769 -1.09127,-1.98509 -2.54566,-3.84916 -2.96057,-6.0761 a 3.60673,3.60673 0 0 0 -0.76216,-2.12659 2.71886,2.71886 0 0 0 -1.12172,-0.52259 c -1.71649,-0.485 -5.77921,-1.9953 -7.19589,-0.38724 -1.51875,1.72392 0.34418,5.69006 0.0693,7.75119 z"
       transform="translate(-134.87066,-124)"
       id="path103"
       style="fill:#fbbebe" />
    <path
       d="m 916.43317,307.27486 c -2.28671,-0.25724 -4.09194,1.8356 -5.34485,3.76574 a 72.847,72.847 0 0 0 -9.92327,23.5275 c -0.966,4.26984 -1.57269,8.70471 -3.59967,12.58494 a 12.19614,12.19614 0 0 0 -1.17172,2.5607 25.27141,25.27141 0 0 0 -0.18255,4.12666 c -0.21139,2.49147 -1.683,4.70453 -2.17735,7.1556 -0.29462,1.46073 -0.23505,2.97307 -0.49708,4.44 -0.459,2.5693 -1.87083,4.85445 -2.774,7.30317 -1.59017,4.31135 -1.57608,9.04493 -2.74616,13.48872 a 4.66125,4.66125 0 0 1 -0.92395,2.00452 c -0.79335,0.87127 -2.06143,1.08417 -3.0991,1.64252 a 6.715,6.715 0 0 0 -3.11313,4.59562 19.89489,19.89489 0 0 0 -0.10611,5.70725 l 0.91669,11.79408 c 0.94457,-0.39621 1.56143,-1.46536 2.34905,-2.12021 1.44157,-1.19858 3.55868,-0.92978 5.40338,-0.59539 l 2.68729,0.48713 c 2.74871,0.49825 5.73805,1.1332 7.50137,3.29984 1.40093,-2.191 0.6,-5.42047 2.75352,-6.87832 0.70049,-0.4742 1.56781,-0.63458 2.30645,-1.04686 a 5.1463,5.1463 0 0 0 2.34664,-4.13827 15.20022,15.20022 0 0 0 -0.67507,-4.88505 c 3.452,-1.45755 5.59271,-4.95239 6.94328,-8.4476 a 69.83731,69.83731 0 0 0 3.21047,-13.0302 c 3.118,-17.52708 5.9685,-35.17969 6.25146,-52.9797 a 25.43492,25.43492 0 0 0 -0.97072,-8.8301 c -0.98283,-2.81033 -2.4063,-5.19946 -5.36487,-5.53229 z"
       transform="translate(-134.87066,-124)"
       id="path105"
       style="fill:#d0cde1" />
    <path
       d="m 966.70076,288.1867 a 25.10779,25.10779 0 0 1 -12.12691,7.04322 74.89114,74.89114 0 0 1 -14.04266,2.06867 8.737,8.737 0 0 1 -4.343,-0.37507 c -1.33885,-0.60664 -2.35634,-2.192 -1.81148,-3.55714 a 3.79384,3.79384 0 0 0 0.52409,-1.3833 c -0.0232,-1.21453 -1.8104,-1.31512 -2.97092,-0.95619 -7.67552,2.3739 -15.03643,7.075 -18.57876,14.28616 -2.001,4.07346 -2.66139,8.65412 -3.29579,13.148 -1.66857,11.81952 -3.33295,23.89629 -1.09628,35.62158 1.19267,6.25238 3.487,12.34691 3.63012,18.71042 0.0802,3.56586 -0.52135,7.11814 -0.49327,10.68479 a 5.36976,5.36976 0 0 0 0.945,3.52509 c 0.55219,0.64131 1.385,1.04588 1.77011,1.79949 0.644,1.26025 -0.21679,2.99045 0.631,4.12365 1.04413,1.3956 3.2246,0.39352 4.663,-0.59085 a 37.10749,37.10749 0 0 1 24.67231,-6.21118 c 10.45016,1.12146 20.834,6.691 30.96885,3.90753 a 14.92871,14.92871 0 0 1 -1.3451,-2.41226 c -5.0538,-16.60635 -4.71157,-35.16877 2.85171,-50.79273 2.58384,-5.3376 6.01275,-10.42456 7.00253,-16.27148 a 30.98034,30.98034 0 0 0 0.0935,-8.254 c -0.53256,-5.308 -1.79659,-10.65993 -4.68132,-15.14736 -2.88473,-4.48743 -7.65805,-8.44155 -12.96677,-8.96704 z"
       transform="translate(-134.87066,-124)"
       id="path107"
       style="fill:#d0cde1" />
    <path
       d="m 918.46266,418.34444 a 18.16093,18.16093 0 0 0 -1.14811,6.78661 39.715,39.715 0 0 0 0.33,6.62638 10.55278,10.55278 0 0 0 1.93691,5.20484 4.7637,4.7637 0 0 0 4.97786,1.76957 5.22174,5.22174 0 0 0 3.00294,-3.33908 30.51913,30.51913 0 0 0 0.94237,-4.54668 c 0.87422,-4.52578 3.25062,-8.7736 3.292,-13.38286 a 3.7638,3.7638 0 0 0 -0.2536,-1.60379 c -0.86438,-1.89464 -5.09934,-4.02066 -7.16862,-3.70171 -2.5886,0.399 -4.97241,3.9986 -5.91175,6.18672 z"
       transform="translate(-134.87066,-124)"
       id="path109"
       style="fill:#fbbebe" />
    <path
       d="m 976.00177,305.02012 c -0.39451,3.96432 3.44061,6.9523 4.95665,10.63646 a 17.90587,17.90587 0 0 1 1.04628,5.35142 c 1.06527,12.67583 0.23789,25.4258 -0.58983,38.11935 a 71.78078,71.78078 0 0 1 -1.56631,12.56373 c -2.14025,8.67422 -7.40513,16.19349 -12.56459,23.48751 a 15.117,15.117 0 0 1 -7.69321,6.34494 l -17.70353,8.57605 a 34.2699,34.2699 0 0 0 -6.2885,3.61622 17.20149,17.20149 0 0 0 -5.20552,6.77757 c -3.43459,-1.75511 -7.00092,-3.33081 -10.4355,-5.08592 -0.80388,-0.41079 -1.70281,-0.94689 -1.84156,-1.83891 -0.18618,-1.19685 1.06465,-2.04207 1.92563,-2.894 1.61072,-1.59387 2.10752,-3.95594 2.97965,-6.0474 2.84916,-6.83256 10.015,-11.20587 12.59977,-18.14276 0.99336,-2.66592 1.297,-5.67861 3.05839,-7.91277 a 19.622,19.622 0 0 1 3.37776,-2.9809 57.45985,57.45985 0 0 0 7.48821,-7.66586 12.99729,12.99729 0 0 0 2.44909,-3.58615 c 0.77373,-1.96871 0.54209,-4.16387 0.58235,-6.27879 0.1318,-6.92378 3.26229,-13.381 5.17892,-20.03552 1.805,-6.26678 2.55811,-12.84057 4.92582,-18.91712 2.36771,-6.07655 7.00643,-12.45345 13.32003,-14.08715 z"
       transform="translate(-134.87066,-124)"
       id="path111"
       style="opacity:0.1" />
    <path
       d="m 978.30238,305.02012 c -0.3945,3.96432 3.44061,6.9523 4.95666,10.63646 a 17.90586,17.90586 0 0 1 1.04627,5.35142 c 1.06528,12.67583 0.23789,25.4258 -0.58982,38.11935 a 71.78079,71.78079 0 0 1 -1.56632,12.56373 c -2.14025,8.67422 -7.40512,16.19349 -12.56459,23.48751 a 15.11706,15.11706 0 0 1 -7.6932,6.34494 l -17.70354,8.57605 a 34.27015,34.27015 0 0 0 -6.28849,3.61622 17.20161,17.20161 0 0 0 -5.20553,6.77757 c -3.43459,-1.75511 -7.00091,-3.33081 -10.4355,-5.08592 -0.80387,-0.41079 -1.7028,-0.94689 -1.84156,-1.83891 -0.18617,-1.19685 1.06466,-2.04207 1.92563,-2.894 1.61073,-1.59387 2.10752,-3.95594 2.97966,-6.0474 2.84916,-6.83256 10.015,-11.20587 12.59976,-18.14276 0.99336,-2.66592 1.297,-5.67861 3.05839,-7.91277 a 19.62274,19.62274 0 0 1 3.37776,-2.9809 57.45931,57.45931 0 0 0 7.48822,-7.66586 12.99773,12.99773 0 0 0 2.44909,-3.58615 c 0.77373,-1.96871 0.54209,-4.16387 0.58235,-6.27879 0.13179,-6.92378 3.26229,-13.381 5.17891,-20.03552 1.805,-6.26678 2.55811,-12.84057 4.92582,-18.91712 2.36771,-6.07655 7.00644,-12.45345 13.32003,-14.08715 z"
       transform="translate(-134.87066,-124)"
       id="path113"
       style="fill:#d0cde1" />
    <path
       d="m 959.67034,229.41645 a 28.24459,28.24459 0 0 0 -17.70363,3.66516 c 0.78676,0.0294 1.57736,0.0831 2.373,0.17927 a 28.37213,28.37213 0 0 1 10.89671,52.67367 28.37069,28.37069 0 0 0 4.4339,-56.5181 z"
       transform="translate(-134.87066,-124)"
       id="path115"
       style="fill:#2f2e41" />
    <path
       d="m 968.39877,245.19011 a 12.96867,12.96867 0 0 1 0.22427,9.938 12.6485,12.6485 0 0 0 -0.46523,-1.20992 c -3.50723,-7.80385 -14.3112,-11.03408 -24.13135,-7.21491 -5.7851,2.2499 -9.93565,6.44481 -11.65487,11.10735 -2.50049,-7.54389 2.57789,-16.21158 11.89584,-19.83543 9.82014,-3.8192 20.62412,-0.58894 24.13134,7.21491 z"
       transform="translate(-134.87066,-124)"
       id="path117"
       style="fill:#2f2e41" />
    <g
       id="g127"
       style="opacity:0.1">
      <path
         d="m 968.4537,254.50905 a 28.40506,28.40506 0 0 0 -18.96113,-24.4784 28.35092,28.35092 0 0 0 -7.52586,3.051 c 0.78676,0.0294 1.57736,0.0831 2.373,0.17927 a 28.37877,28.37877 0 0 1 24.11399,21.24813 z"
         transform="translate(-134.87066,-124)"
         id="path119" />
      <path
         d="m 973.05493,233.8035 a 28.40505,28.40505 0 0 0 -18.96113,-24.4784 28.35128,28.35128 0 0 0 -7.52586,3.051 c 0.78676,0.0294 1.57736,0.0831 2.373,0.17926 a 28.37877,28.37877 0 0 1 24.11399,21.24814 z"
         transform="translate(-134.87066,-124)"
         id="path121" />
      <path
         d="m 973.17213,202.87715 a 17.14276,17.14276 0 0 0 -11.44324,-14.773 17.11069,17.11069 0 0 0 -4.54195,1.84129 c 0.47482,0.0178 0.952,0.0502 1.43215,0.10819 a 17.1269,17.1269 0 0 1 14.55304,12.82352 z"
         transform="translate(-134.87066,-124)"
         id="path123" />
      <path
         d="m 983.7843,250.66462 a 28.39508,28.39508 0 0 1 -21.98035,29.977 28.54951,28.54951 0 0 1 -6.56751,5.29288 28.36866,28.36866 0 0 0 28.54786,-35.26993 z"
         transform="translate(-134.87066,-124)"
         id="path125" />
    </g>
    <line
       x1="760.65582"
       y1="308.46878"
       x2="756.98676"
       y2="197.54086"
       stroke-miterlimit="10"
       id="line129"
       style="fill:none;stroke:#ffa200;stroke-width:2;stroke-miterlimit:10" />
    <circle
       cx="756.98676"
       cy="197.54086"
       r="15.69535"
       id="circle131"
       style="fill:#ffa200" />
    <path
       d="m 894.11873,389.908 c 0,0 -3.83519,-48.12433 -49.58972,-41.0024"
       transform="translate(-134.87066,-124)"
       id="path133"
       style="fill:#ffa200" />
  </g>
  <path
     id="path4436"
     d="m 562.49811,657.65477 -26.39857,12.35753 c -14.5187,6.79722 -28.84721,13.48621 -31.84055,14.86564 -22.07167,10.1718 -31.5453,14.80693 -32.11803,15.71562 -0.47621,0.75297 -0.48025,1.34895 -0.004,2.08697 0.52256,0.82891 87.1568,41.84471 90.62282,42.90437 h 10e-4 c 0.5282,0.16247 2.73506,0.19276 4.90466,0.0744 3.73037,-0.20396 6.36339,-1.35055 48.50824,-21.09303 24.5091,-11.4818 44.85199,-21.33519 45.20657,-21.89803 0.45808,-0.72541 0.45188,-1.32897 -0.004,-2.07665 -0.57325,-0.90862 -10.04637,-5.54396 -32.11803,-15.71507 -2.9932,-1.3795 -17.32159,-8.06905 -31.84067,-14.8655 l -26.3987,-12.35747 h -4.25477 z m 70.8002,72.97182 -30.84973,14.47936 -30.85044,14.47931 h -4.85455 -4.85493 l -30.82891,-14.46966 -30.82819,-14.46874 -4.40327,0.22171 c -3.99491,0.19677 -5.28662,0.63917 -13.89983,4.71294 -5.22244,2.46961 -9.65046,4.89484 -9.84016,5.38921 -0.18886,0.49471 -0.19042,1.38003 -10e-4,1.96749 0.35292,1.11404 85.36996,41.25022 90.71544,42.82699 h 10e-4 c 1.50996,0.44265 3.95125,0.65993 5.46063,0.48101 1.84628,-0.21731 16.29722,-6.63073 44.60383,-19.79273 23.03016,-10.70821 43.2976,-20.1645 45.03885,-21.01438 5.48939,-2.68046 5.05851,-4.50877 -1.81366,-7.7008 -2.74657,-1.27609 -6.90478,-3.26019 -9.24109,-4.40941 -3.3571,-1.65121 -5.22408,-2.15381 -8.89912,-2.39654 z M 495.1527,771.184 c -3.17066,0.0428 -4.44315,0.60488 -12.69548,4.49953 -9.95951,4.70029 -11.49688,5.85277 -10.31878,7.73717 0.54863,0.87715 87.06528,41.84621 90.49592,42.85334 0.59153,0.17614 2.85104,0.22373 5.02076,0.1127 3.74172,-0.19245 6.23529,-1.27636 48.48789,-21.0529 24.4991,-11.46669 44.84295,-21.32643 45.20816,-21.9106 1.17784,-1.88424 -0.36069,-3.03741 -10.32023,-7.73761 -9.43107,-4.44974 -9.74382,-4.5501 -14.19464,-4.49321 l -4.55124,0.0592 -29.96932,14.08077 c -16.48345,7.74441 -31.26889,14.38098 -32.85534,14.74683 -2.1329,0.49219 -3.61557,0.48149 -5.68351,-0.0381 -1.53852,-0.38735 -16.24689,-7.02302 -32.68497,-14.74675 l -29.88763,-14.04296 -4.55108,-0.0578 c -0.55667,-0.001 -1.04714,-0.003 -1.50051,-0.001 z"
     style="fill:#ffa200;fill-opacity:1;stroke-width:3.03022051;stroke-linecap:butt;stroke-linejoin:round;stroke-miterlimit:100000" />
  <g
     transform="matrix(17.623507,0,0,10.685861,-246.65113,-1229.2243)"
     id="g37464"
     style="stroke-width:0.27541435;stroke-linecap:butt;stroke-linejoin:round;stroke-miterlimit:100000">
    <g
       transform="matrix(0.01941788,0,0,0.01941788,50.318833,166.6375)"
       id="g37458"
       style="stroke-width:16.90579033;stroke-linecap:butt;stroke-linejoin:round;stroke-miterlimit:100000">
      <path
         id="path37454"
         d="m -217.6168,604.40873 -22.23511,22.23499 22.6271,22.6271 h 3.29849 c 11.03936,0 20.87511,2.60956 29.50585,7.82822 8.63086,5.01794 15.35368,12.14149 20.17078,21.37451 5.01795,9.23289 7.52814,19.87011 7.52814,31.91306 0,11.84222 -2.30831,22.38008 -6.9247,31.61297 -4.61651,9.23301 -11.0411,16.3596 -19.27041,21.37754 -2.94639,1.79655 -6.05244,3.25697 -9.30754,4.41031 2.27146,2.41572 20.36684,17.92277 20.36684,17.92277 l -14.47419,27.11695 c 11.17255,-2.18177 21.54491,-5.71643 31.11381,-10.61215 17.4622,-8.83158 30.91099,-21.27374 40.3446,-37.33104 9.63445,-16.05729 14.45284,-34.42395 14.45284,-55.09764 0,-20.67369 -4.71902,-38.93783 -14.15264,-54.79441 -9.43361,-16.0573 -22.68051,-28.50261 -39.7414,-37.33407 -16.86005,-8.83146 -36.32955,-13.24911 -58.40837,-13.24911 z"
         style="font-style:normal;font-variant:normal;font-weight:bold;font-stretch:normal;font-size:192px;line-height:25px;font-family:Montserrat;-inkscape-font-specification:'Montserrat Bold';text-align:start;letter-spacing:0px;word-spacing:0px;writing-mode:lr-tb;text-anchor:start;display:inline;fill:#ffffff;fill-opacity:1;stroke:none;stroke-width:26.50983047px;stroke-linecap:butt;stroke-linejoin:miter;stroke-miterlimit:100000;stroke-opacity:1" />
      <path
         id="path37456"
         d="m -303.64747,604.40873 v 211.05539 c 0,0 78.41868,0.0233 84.85763,0 6.43894,-0.0233 9.16746,-1.17609 9.16746,-1.17609 l 14.76482,-23.08661 -23.62835,-20.29628 h -30.06403 V 649.27082 l -10.49272,-10.49575 -12.13123,-12.13135 -0.007,-0.003 c 0.002,10e-4 11.16846,-11.16602 22.23511,-22.23208 z"
         style="font-style:normal;font-variant:normal;font-weight:bold;font-stretch:normal;font-size:192px;line-height:25px;font-family:Montserrat;-inkscape-font-specification:'Montserrat Bold';text-align:start;letter-spacing:0px;word-spacing:0px;writing-mode:lr-tb;text-anchor:start;fill:#333333;fill-opacity:1;stroke:none;stroke-width:26.50983047px;stroke-linecap:butt;stroke-linejoin:miter;stroke-miterlimit:100000;stroke-opacity:1" />
    </g>
    <text
       xml:space="preserve"
       style="font-style:normal;font-variant:normal;font-weight:normal;font-stretch:normal;font-size:5.42379856px;line-height:125%;font-family:'Droid Sans';-inkscape-font-specification:'Droid Sans';text-align:start;letter-spacing:0px;word-spacing:0px;text-anchor:start;fill:#ffffff;fill-opacity:1;stroke:none;stroke-width:0.08685602px;stroke-linecap:butt;stroke-linejoin:miter;stroke-miterlimit:100000;stroke-opacity:1"
       x="46.462242"
       y="183.33057"
       id="text37462"><tspan
         id="tspan37460"
         x="46.462242"
         y="188.12936"
         style="font-style:normal;font-variant:normal;font-weight:bold;font-stretch:normal;font-family:'Latin Modern Sans';-inkscape-font-specification:'Latin Modern Sans Bold';fill:#ffffff;stroke-width:0.08685602px;stroke-linecap:butt;stroke-linejoin:round;stroke-miterlimit:100000" /></text>
  </g>
</svg>
