<?xml version="1.0" encoding="UTF-8" standalone="no"?>
<svg
   xmlns:dc="http://purl.org/dc/elements/1.1/"
   xmlns:cc="http://creativecommons.org/ns#"
   xmlns:rdf="http://www.w3.org/1999/02/22-rdf-syntax-ns#"
   xmlns:svg="http://www.w3.org/2000/svg"
   xmlns="http://www.w3.org/2000/svg"
   version="1.1"
   viewBox="0 0 940.1006 814.72886"
   height="814.72886"
   width="940.1006"
   data-name="Layer 1"
   id="e483d58f-078e-482f-9486-99203dd27031">
  <metadata
     id="metadata91">
    <rdf:RDF>
      <cc:Work
         rdf:about="">
        <dc:format>image/svg+xml</dc:format>
        <dc:type
           rdf:resource="http://purl.org/dc/dcmitype/StillImage" />
        <dc:title>reading_book</dc:title>
      </cc:Work>
    </rdf:RDF>
  </metadata>
  <defs
     id="defs89">
    <linearGradient
       gradientUnits="userSpaceOnUse"
       gradientTransform="translate(298.63322,-114.11696)"
       y2="266.10986"
       x2="795.53027"
       y1="278.26926"
       x1="795.53027"
       id="a876bd90-f878-4b77-89d3-57d6c6545783">
      <stop
         id="stop2"
         stop-opacity="0.25"
         stop-color="gray"
         offset="0" />
      <stop
         id="stop4"
         stop-opacity="0.12"
         stop-color="gray"
         offset="0.53514" />
      <stop
         id="stop6"
         stop-opacity="0.1"
         stop-color="gray"
         offset="1" />
    </linearGradient>
  </defs>
  <title
     id="title2">reading_book</title>
  <ellipse
     id="ellipse4"
     fill="#3f3d56"
     ry="10.16101"
     rx="65.66513"
     cy="686.96485"
     cx="83.43547" />
  <circle
     id="circle6"
     fill="#f2f2f2"
     r="335.13058"
     cy="395.17481"
     cx="549.11492" />
  <path
     id="path8"
     fill="#3f3d56"
     transform="translate(-129.9497 -42.63557)"
     d="M702.803,777.13009c-3.87413,0-7.78781-.06137-11.62921-.18137l.08728-2.79c5.516.17182,11.14511.21955,16.687.14319l.03818,2.79275Q705.39874,777.1294,702.803,777.13009Zm21.98612-.64774-.16363-2.7873c5.52414-.32591,11.1192-.7841,16.62971-1.36092l.29182,2.77639C735.99428,775.6928,730.357,776.15508,724.78916,776.48235Zm-50.40322-.435c-5.57051-.42682-11.19966-.98592-16.732-1.665l.34091-2.77093c5.49.67227,11.07556,1.22864,16.6038,1.65138Zm83.83719-3.07094-.41864-2.76c5.48869-.83319,11.01965-1.8,16.43471-2.87594l.54409,2.73821C769.326,771.16275,763.75409,772.13776,758.22313,772.97641Zm-117.205-1.02138c-5.503-.93273-11.05784-2.00456-16.50971-3.18821l.59251-2.73c5.41028,1.17547,10.92215,2.23912,16.38357,3.16367Zm150.17807-5.53232-.67091-2.71094c5.38778-1.33228,10.80556-2.805,16.10334-4.37595l.79364,2.67821C802.08356,763.59723,796.62487,765.08088,791.19618,766.42271Zm-183.0318-1.60093c-5.398-1.43592-10.83011-3.015-16.14562-4.69641l.84138-2.66184c5.27528,1.66774,10.66578,3.23458,16.02152,4.65823Zm215.263-7.961-.91637-2.6373c5.22823-1.81775,10.48646-3.78277,15.63152-5.84188l1.03637,2.59366C833.9957,753.04939,828.69655,755.02941,823.42741,756.8608Zm-247.362-2.1873c-5.24255-1.92684-10.51783-4.0064-15.67788-6.18006l1.0841-2.57457c5.12051,2.15729,10.35488,4.2205,15.55789,6.1337Zm278.54184-10.28874-1.15637-2.54184c5.021-2.28139,10.06783-4.71687,15.00015-7.23825L869.722,737.092C864.75145,739.63244,859.6664,742.08565,854.60726,744.38476ZM545.0158,741.60019c-5.03937-2.40139-10.09783-4.9555-15.03288-7.5928l1.31593-2.46275c4.89823,2.61684,9.91714,5.15187,14.91833,7.53553Zm339.47176-12.48967-1.38274-2.42457c4.815-2.74775,9.62191-5.636,14.28423-8.58554l1.49183,2.35912C894.18311,723.43228,889.34079,726.34368,884.48756,729.11052Zm-369.16864-3.3764c-4.79323-2.85139-9.59328-5.85824-14.26583-8.936l1.53684-2.33184c4.63641,3.05457,9.39964,6.03824,14.15673,8.86781Zm397.54755-14.57741-1.59819-2.28821c4.53413-3.16776,9.05872-6.48552,13.44831-9.85918l1.70184,2.21456C921.99611,704.62346,917.43607,707.96577,912.86647,711.15671Zm-425.65169-3.93277c-4.50755-3.27412-9.01032-6.7037-13.38423-10.196l1.74275-2.18184c4.34049,3.465,8.80918,6.86871,13.28195,10.11692Zm452.29059-16.54107-1.8-2.13548c4.226-3.56594,8.43144-7.28189,12.50194-11.04556l1.89547,2.05093C948.00228,683.34507,943.76405,687.08965,939.50537,690.68287ZM460.9277,686.23464c-4.198-3.6764-8.36872-7.50007-12.39558-11.366l1.93366-2.01547c3.99685,3.83731,8.13553,7.63235,12.30148,11.28147Zm503.25564-18.3779-1.9882-1.96093c3.89595-3.94777,7.74962-8.03326,11.45193-12.14194l2.07548,1.8682C971.9916,659.76347,968.10929,663.879,964.18334,667.85674Zm-527.51361-4.90369c-3.85163-4.05-7.65553-8.23644-11.306-12.44194l2.10957-1.83c3.62253,4.17413,7.39712,8.32781,11.22011,12.34649Zm550.02338-20.07974-2.15729-1.77275c3.51958-4.28322,6.98461-8.70281,10.30237-13.13876l2.23639,1.67183C993.73227,634.10368,990.24,638.55872,986.69311,642.87331Zm-572.05519-5.30187c-3.45889-4.3705-6.86461-8.88282-10.12305-13.4115l2.26639-1.63092c3.23389,4.49322,6.6137,8.97145,10.04669,13.31058ZM1006.841,615.93168l-2.31-1.5682c3.11457-4.586,6.16506-9.30555,9.06554-14.03059l2.38093,1.46183C1013.05246,606.55522,1009.9788,611.31163,1006.841,615.93168Zm-611.824-5.62642c-3.043-4.665-6.0212-9.46509-8.85282-14.2706l2.40548-1.41819c2.81048,4.76868,5.7662,9.53327,8.786,14.1615ZM1024.45667,587.25l-2.44366-1.35c2.68093-4.85187,5.2855-9.83464,7.74416-14.8106l2.50366,1.23819C1029.78445,577.34039,1027.15806,582.36135,1024.45667,587.25Zm-646.48184-5.87188c-2.60457-4.92277-5.13-9.97373-7.50621-15.011l2.52548-1.19183c2.35844,4.99914,4.86414,10.01191,7.44894,14.89651Zm661.39607-24.31933-2.5582-1.12092c2.22547-5.08232,4.36231-10.28737,6.35188-15.46924l2.6073,1.00092C1043.76731,546.69236,1041.61274,551.937,1039.3709,557.05882Zm-675.7103-6.026c-2.14093-5.13824-4.19118-10.39511-6.09347-15.62607l2.625-.95455c1.88729,5.19141,3.92186,10.40737,6.04574,15.50606Zm687.78679-25.43616-2.65094-.87819c1.74275-5.25142,3.38731-10.61875,4.88732-15.95471l2.68912.75546C1054.8606,514.89614,1053.2024,520.30573,1051.44739,525.5967Zm-699.25986-6.12006c-1.6616-5.32233-3.223-10.7592-4.6405-16.162l2.70139-.7091c1.40661,5.36187,2.9564,10.75783,4.60505,16.03925Zm708.36222-26.24481-2.72048-.63273c1.25046-5.38233,2.3932-10.8792,3.39821-16.33516l2.74639.50455C1062.96205,482.26809,1061.80976,487.80587,1060.54975,493.23183Zm-716.89184-6.27552c-1.16456-5.45459-2.21866-11.01147-3.13231-16.51925l2.75457-.45819c.90751,5.46688,1.95343,10.98148,3.10913,16.3938Zm722.97781-26.78753-2.76821-.3791c.75137-5.4696,1.38547-11.04692,1.88593-16.57789l2.78184.25091C1068.03073,449.0373,1067.39118,454.6569,1066.63572,460.16878Zm-728.48151-6.37643c-.65864-5.52824-1.19933-11.15875-1.60774-16.73471l2.78594-.20455c.40432,5.53506.9416,11.12193,1.59547,16.60926Zm731.51836-27.10254-2.79-.12545c.24818-5.5337.375-11.14648.375-16.68153h2.79276C1070.0503,415.46015,1069.92348,421.11521,1069.67257,426.68981Zm-733.97224-6.42552c-.09546-3.42412-.14387-6.91779-.14455-10.38146q0-3.22368.05523-6.43507l2.79275.04909q-.05523,3.18686-.05523,6.386c.00069,3.43776.0491,6.90552.14319,10.3051Zm731.53676-14.27741c-.05728-5.5371-.24273-11.1492-.54955-16.68153l2.7873-.15545c.30955,5.5746.49637,11.229.555,16.807ZM339.0665,386.82419l-2.7873-.17455c.34841-5.58.82978-11.216,1.4291-16.75175l2.77639.30068C339.88946,375.69272,339.41286,381.28573,339.0665,386.82419Zm726.31466-14.152c-.55773-5.50573-1.25183-11.07624-2.06184-16.55812l2.76276-.40773c.81546,5.52347,1.515,11.13625,2.0782,16.68358ZM342.659,353.65614l-2.76-.42683c.85569-5.52482,1.8498-11.09329,2.955-16.55266l2.73685.55364C344.4945,342.64807,343.5079,348.17426,342.659,353.65614Zm717.84163-13.9856c-1.065-5.44778-2.26639-10.9317-3.57276-16.299l2.71366-.66c1.31592,5.40824,2.52684,10.93443,3.6,16.42312ZM349.2741,320.95718l-2.70889-.6791c1.35615-5.40892,2.85821-10.86284,4.46459-16.21107l2.67411.80319C352.11049,310.17753,350.62,315.58985,349.2741,320.95718Zm703.33375-13.70332c-1.55729-5.31755-3.25912-10.66647-5.05777-15.90016l2.64-.90819c1.81366,5.27392,3.52913,10.66511,5.09869,16.02289Zm-693.72-18.29268-2.63457-.92592c1.85592-5.27937,3.85981-10.584,5.95574-15.76652l2.58957,1.04729C362.71832,278.45835,360.72944,283.72272,358.88783,288.96118Zm682.87492-13.25809c-2.0373-5.13959-4.21914-10.2976-6.48552-15.33151l2.5473-1.14683c2.28411,5.07278,4.48231,10.27033,6.53461,15.44879ZM371.4225,257.96542l-2.53776-1.16592c2.33253-5.0796,4.815-10.17351,7.37871-15.13992L378.7453,242.94C376.20073,247.869,373.73729,252.924,371.4225,257.96542Zm656.67238-12.61717c-2.49957-4.93028-5.14777-9.87078-7.871-14.68242l2.43-1.37592c2.745,4.84914,5.41233,9.82714,7.931,14.7956Zm-641.34428-17.077-2.42048-1.39365c2.78594-4.83755,5.72392-9.67987,8.73282-14.39128l2.35366,1.50275C392.43089,218.665,389.51472,223.47053,386.7506,228.27126Zm624.93685-11.9183c-2.95094-4.69777-6.041-9.37782-9.18418-13.91059l2.29366-1.59138c3.16776,4.56755,6.28233,9.28305,9.25509,14.017ZM404.72623,200.12212l-2.28274-1.60911c3.21957-4.56618,6.58574-9.11736,10.00714-13.5274L414.657,186.697C411.26221,191.0743,407.92058,195.59071,404.72623,200.12212ZM992.69044,188.962c-3.36548-4.408-6.87006-8.79009-10.41964-13.02422l2.14093-1.79388c3.57549,4.26686,7.10734,8.68168,10.49874,13.12308ZM425.1878,173.743l-2.12593-1.81093c3.613-4.24368,7.37871-8.46758,11.19216-12.55444l2.04138,1.905C432.51128,165.33882,428.7742,169.53137,425.1878,173.743Zm546.08107-10.34465c-3.7514-4.08345-7.64326-8.13076-11.56512-12.02807l1.96912-1.98139c3.95185,3.928,7.87235,8.00531,11.65238,12.11944ZM447.9553,149.34526l-1.95275-1.99639c3.99345-3.90685,8.126-7.76939,12.28171-11.47988l1.86,2.08365C456.01992,141.6345,451.91875,145.46772,447.9553,149.34526Zm499.64879-9.46714c-4.1114-3.7289-8.35645-7.40667-12.61649-10.931l1.78093-2.15184c4.2914,3.551,8.56917,7.25666,12.71194,11.0142ZM472.83645,127.12663l-1.7632-2.16548c4.31936-3.51753,8.78327-6.98666,13.26832-10.31124l1.66365,2.24321C481.55358,120.19315,477.12309,123.63569,472.83645,127.12663Zm449.0492-8.52759c-4.436-3.34026-9.00008-6.61779-13.56558-9.74123l1.57638-2.30457c4.601,3.14663,9.19918,6.4487,13.66922,9.81487ZM499.62194,107.27393l-1.55865-2.31684c4.62277-3.11048,9.38191-6.1562,14.14582-9.05463L513.66,98.28884C508.93294,101.16478,504.20994,104.188,499.62194,107.27393Zm394.6989-7.528c-4.71959-2.92093-9.566-5.76823-14.40424-8.46417l1.3582-2.43957c4.87641,2.71639,9.75964,5.58619,14.516,8.52827Zm-366.23-9.789-1.34047-2.45047c4.89073-2.67617,9.90556-5.27256,14.9047-7.71826l1.22728,2.50911C537.92141,84.72394,532.94477,87.30055,528.09086,89.95694Zm337.04378-6.47051c-4.96914-2.47571-10.05964-4.86755-15.12969-7.10871l1.1291-2.55412c5.10959,2.25821,10.23964,4.66846,15.247,7.16326ZM558.00388,75.32566l-1.11-2.56229c5.111-2.21525,10.3392-4.33982,15.53879-6.31507l.99138,2.61139C568.264,71.01926,563.076,73.12746,558.00388,75.32566Zm276.555-5.35437c-5.171-2.00524-10.46328-3.91845-15.73106-5.68574l.8891-2.6482c5.30732,1.7816,10.64056,3.70912,15.85106,5.73073ZM589.1551,63.49668l-.87-2.65366c5.30733-1.74,10.72238-3.37844,16.0938-4.86823l.74659,2.69048C599.795,60.14415,594.42152,61.76962,589.1551,63.49668Zm213.73438-4.15231c-5.32642-1.51842-10.7592-2.93253-16.147-4.20277l.64092-2.71775c5.43005,1.27978,10.90374,2.7048,16.27243,4.23413ZM621.30246,54.575l-.62182-2.72252c5.441-1.243,10.98352-2.37548,16.47289-3.36549l.49637,2.74775C632.20143,52.21794,626.70183,53.34158,621.30246,54.575Zm149.11579-2.88616C764.98,50.66815,759.44087,49.76,753.95354,48.98949l.38728-2.76548c5.5296.7766,11.11238,1.69161,16.59289,2.7198ZM654.13438,48.64995l-.36955-2.76821c5.52823-.73774,11.15056-1.3582,16.71016-1.84229l.24273,2.78184C665.2004,47.30266,659.6217,47.91767,654.13438,48.64995Zm83.24673-1.60229c-5.501-.51819-11.10011-.91774-16.64335-1.1857l.13637-2.79c5.58414.27068,11.22556.673,16.7688,1.19523Zm-50.0105-1.29752-.11727-2.79c5.13278-.2141,10.36374-.32319,15.5497-.32455l1.2641.002-.00818,2.79276-1.25592-.00205C697.65662,45.42969,692.46385,45.5381,687.37061,45.75014Z" />
  <path
     id="path10"
     fill="#ffa200"
     transform="translate(-129.9497 -42.63557)"
     d="M251.3703,675.37564c-8.38218,30.98558-37.093,50.17573-37.093,50.17573s-15.12066-31.0474-6.73848-62.033,37.09305-50.17573,37.09305-50.17573S259.75248,644.39006,251.3703,675.37564Z" />
  <path
     id="path12"
     fill="#ffa200"
     transform="translate(-129.9497 -42.63557)"
     d="M175.11583,675.37564c8.38218,30.98558,37.093,50.17573,37.093,50.17573s15.12066-31.0474,6.73848-62.033-37.093-50.17573-37.093-50.17573S166.73365,644.39006,175.11583,675.37564Z" />
  <path
     id="path14"
     fill="#3f3d56"
     transform="translate(-129.9497 -42.63557)"
     d="M187.43285,668.71651c23.00083,22.39037,25.81021,56.8096,25.81021,56.8096s-34.48232-1.88276-57.48315-24.27313-25.81021-56.8096-25.81021-56.8096S164.432,646.32613,187.43285,668.71651Z" />
  <path
     id="path16"
     fill="#3f3d56"
     transform="translate(-129.9497 -42.63557)"
     d="M239.05327,668.71651c-23.00082,22.39037-25.81021,56.8096-25.81021,56.8096s34.48233-1.88276,57.48315-24.27313,25.81021-56.8096,25.81021-56.8096S262.0541,646.32613,239.05327,668.71651Z" />
  <ellipse
     id="ellipse18"
     fill="#3f3d56"
     ry="13.15147"
     rx="84.99088"
     cy="801.57739"
     cx="829.47729" />
  <path
     id="path20"
     fill="#ffa200"
     transform="translate(-129.9497 -42.63557)"
     d="M1008.59143,774.02942c-10.84912,40.10487-48.00981,64.94282-48.00981,64.94282s-19.57078-40.18488-8.72166-80.28975,48.00981-64.94283,48.00981-64.94283S1019.44056,733.92455,1008.59143,774.02942Z" />
  <path
     id="path22"
     fill="#ffa200"
     transform="translate(-129.9497 -42.63557)"
     d="M909.89469,774.02942c10.84912,40.10487,48.00981,64.94282,48.00981,64.94282s19.57079-40.18488,8.72167-80.28975-48.00981-64.94283-48.00981-64.94283S899.04557,733.92455,909.89469,774.02942Z" />
  <path
     id="path24"
     fill="#3f3d56"
     transform="translate(-129.9497 -42.63557)"
     d="M925.83671,765.41045c29.77015,28.98,33.40635,73.5291,33.40635,73.5291s-44.63073-2.43686-74.40088-31.4169-33.40635-73.5291-33.40635-73.5291S896.06656,736.43041,925.83671,765.41045Z" />
  <path
     id="path26"
     fill="#3f3d56"
     transform="translate(-129.9497 -42.63557)"
     d="M992.64942,765.41045c-29.77015,28.98-33.40636,73.5291-33.40636,73.5291s44.63074-2.43686,74.40088-31.4169,33.40636-73.5291,33.40636-73.5291S1022.41956,736.43041,992.64942,765.41045Z" />
  <ellipse
     id="ellipse28"
     fill="#3f3d56"
     ry="37.67914"
     rx="243.5"
     cy="728.96485"
     cx="410.43547" />
  <path
     style="fill:#fbbebe;fill-opacity:1"
     id="path38"
     fill="#a0616a"
     transform="translate(-129.9497 -42.63557)"
     d="M609.5503,505.38283l-2,42,96,32s-5-53-2-58Z" />
  <polygon
     style="fill:#fbbebe;fill-opacity:1"
     id="polygon40"
     fill="#a0616a"
     points="323.601 649.747 314.601 684.747 356.601 684.747 356.601 649.747 323.601 649.747" />
  <polygon
     id="polygon42"
     fill="#a0616a"
     points="541.601 659.052 560.601 665.747 570.601 640.639 553.601 627.247 541.601 659.052" />
  <path
     id="path44"
     fill="#2f2e41"
     transform="translate(-129.9497 -42.63557)"
     d="M705.21867,658.105s28.33163-3.72217,28.33163,20.27783,4,83-36,76c0,0-18,2-11-19,0,0,7.12574-8.54279,4.56287-13.7714s-17.56287-9.2286-15.56287-12.2286,24-27,24-27Z" />
  <path
     id="path46"
     fill="#2f2e41"
     transform="translate(-129.9497 -42.63557)"
     d="M705.5503,574.38283l-98-34-6,24s-147-85-156-27c0,0-8,47,4,109l1,50s25,6,37,1l1-54s10-35,5-62c0,0,75,59,109,66,0,0-119,92-105,121s31,34,53,29c15.16081-3.44564,83.03522-58.18019,123.77058-91.87808,28.1707-23.30392,44.16815-58.49417,42.16236-94.99947C715.75438,597.24,712.69315,584.38283,705.5503,574.38283Z" />
  <path
     id="path48"
     fill="#2f2e41"
     transform="translate(-129.9497 -42.63557)"
     d="M451.5503,714.38283s-1-12-7-7-27,24-27,24-76,20-30,39c0,0,30,6,62-8,0,0,51.11135,1.4643,50.05568-11.26785s-13.05568-33.99593-13.05568-33.99593-14,10.26378-30-3.73622Z" />
  <path
     style="fill:#e2abab;fill-opacity:1"
     transform="translate(-129.9497,-42.63557)"
     id="path52"
     d="m 679.5503,355.38283 c 0,0 6,30 17,37 l -61,72 -23,-22 17,-30 c 0,0 23.88221,-26.86717 17.88221,-41.86717 z" />
  <path
     style="fill:#fbbebe;fill-opacity:1"
     id="path54"
     fill="#a0616a"
     transform="translate(-129.9497 -42.63557)"
     d="M701.5503,395.38283s44,9,49,38-5,82-5,82l-21,156s-1,66-27,55,7-61,7-61l9-98s4-83-4-93l-32-10S684.5503,398.38283,701.5503,395.38283Z" />
  <path
     style="fill:#fbbebe;fill-opacity:1"
     id="path56"
     fill="#a0616a"
     transform="translate(-129.9497 -42.63557)"
     d="M629.5503,412.38283s-30-1-49,23-65,42-65,42l-115,45s-21-37-34-24,24,46,41,42,120-35,120-35l82-37Z" />
  <path
     id="path58"
     fill="#d0cde1"
     transform="translate(-129.9497 -42.63557)"
     d="M695,390s-38.4497,51.38283-55.4497,50.38283S634,409,634,409l-12,3s-16.4497,31.38283-18.4497,33.38283c0,0-24,39,3,48l1,21s67-3,96,12l6-52s-38-19-17-56C692.5503,418.38283,700,399,708,397Z" />
  <path
     id="path60"
     opacity="0.1"
     transform="translate(-129.9497 -42.63557)"
     d="M705.0503,664.88283l-153,112S706.0503,685.88283,705.0503,664.88283Z" />
  <path
     id="path72"
     fill="#d0cde1"
     transform="translate(-129.9497 -42.63557)"
     d="M369.209,375.52886l-43.84885,10.62376-.14286.034-4.76653,4.31527-1.3719,1.24039-2.94109-.5329-5.20645-.94105,3.62818-12.24512.68029-23.35642-2.49438-14.286,13.83245-9.524S353.56244,329.26953,369.209,375.52886Z" />
  <path
     id="path74"
     opacity="0.1"
     transform="translate(-129.9497 -42.63557)"
     d="M325.36012,386.15262c-.59411,1.26761.65081.43086-.02948,1.73474l-6.34932,2.04085-2.84358,1.28119-5.20645-.94105,3.62818-12.24512.68029-23.35642-2.49438-14.286,13.83245-9.524S341.42389,351.88217,325.36012,386.15262Z" />
  <path
     id="path76"
     fill="#d0cde1"
     transform="translate(-129.9497 -42.63557)"
     d="M420.91057,341.96817s-57.59739,26.75785-80.95382,30.83955-21.31557,27.43813-21.31557,27.43813l130.84133-20.40852S444.94728,358.74852,420.91057,341.96817Z" />
  <path
     id="path78"
     fill="#ffa200"
     transform="translate(-129.9497 -42.63557)"
     d="M309.79749,337.43294s9.9775,24.26347-1.13381,54.42274l12.9254,5.8958,4.98875-5.8958.11338-.5669-13.71907-1.24719s11.33807-30.386,2.04086-51.47484C315.013,338.56675,312.97214,334.03152,309.79749,337.43294Z" />
  <path
     id="path80"
     fill="#ffa200"
     transform="translate(-129.9497 -42.63557)"
     d="M500.0503,517.25473c-51.02132-11.33807-98.52783,12.13174-98.52783,12.13174l-.12926-.11565-18.9187-16.89146L308.5503,391.7423l18.02753.11338c50.11427-29.9325,120.63706-25.8508,120.63706-25.8508C477.60092,400.47261,500.0503,517.25473,500.0503,517.25473Z" />
  <path
     id="path82"
     opacity="0.1"
     transform="translate(-129.9497 -42.63557)"
     d="M401.39321,529.27082l-18.9187-16.89146L308.5503,391.7423l18.02753.11338S398.42944,486.75305,401.39321,529.27082Z" />
  <ellipse
     id="ellipse84"
     fill="#d0cde1"
     transform="translate(-234.5663 94.25111) rotate(-17.05185)"
     ry="18.59443"
     rx="29.25222"
     cy="417.36634"
     cx="404.24361" />
  <g
     transform="matrix(1.8296933,0,0,1.8267782,-1262.5034,-119.53664)"
     id="g961">
    <g
       transform="matrix(0.99691024,-0.07867452,0.009324,1.0023635,-105.80972,170.68338)"
       id="g977">
      <path
         d="m 1096.2998,153.38617 c 0.6444,-0.4376 1.267,-0.90492 1.8726,-1.39328 a 28.71667,28.71667 0 0 1 -5.9713,10.20038 v 0 c -0.626,0.68951 -1.2943,1.33483 -1.9809,1.959 -0.014,-0.1581 -0.029,-0.31625 -0.037,-0.47421 -0.08,-1.52987 0.032,-3.13979 0.053,-4.71533 a 20.11536,20.11536 0 0 0 6.0642,-5.57656 z"
         id="path71"
         style="fill:url(#a876bd90-f878-4b77-89d3-57d6c6545783)" />
      <path
         d="m 1105.6819,97.593854 a 17.64909,17.64909 0 1 0 -32.5345,-5.80218 28.33744,28.33744 0 0 0 -16.1198,26.959916 28.3726,28.3726 0 1 0 52.1459,15.48492 c 0,-0.45238 -0.013,-0.90162 -0.034,-1.34881 a 28.36938,28.36938 0 0 0 -3.4575,-35.293846 z"
         id="path73"
         style="fill:#2f2e41" />
      <g
         id="g81"
         style="opacity:0.1"
         transform="translate(265.50388,9.8830452)">
        <path
           d="m 942.27984,201.42853 c 0.079,-0.0387 0.15488,-0.0831 0.23431,-0.12113 -0.0565,-0.30556 -0.0952,-0.61625 -0.13569,-0.92639 -0.009,0.0648 -0.0205,0.12839 -0.0284,0.19345 -0.0345,0.28608 -0.0497,0.56972 -0.0702,0.85407 z"
           transform="translate(-134.87066,-124)"
           id="path75" />
        <path
           d="m 982.90252,230.31443 a 28.2502,28.2502 0 0 1 -4.39641,12.089 c 0.0209,0.44719 0.0341,0.89643 0.0341,1.34881 a 28.37037,28.37037 0 0 1 -56.64874,2.2869 c -0.0619,0.76388 -0.0998,1.53445 -0.0998,2.31433 a 28.374265,28.374265 0 1 0 56.74853,0 c 0,-0.45238 -0.0132,-0.90162 -0.0341,-1.34881 a 28.28662,28.28662 0 0 0 4.49953,-17.81526 c -0.0304,0.37454 -0.0576,0.74866 -0.10312,1.12503 z"
           transform="translate(-134.87066,-124)"
           id="path77" />
        <path
           d="m 977.37673,200.36177 a 17.5815,17.5815 0 0 1 -2.328,6.74781 c 0.49606,0.50953 0.96505,1.0435 1.42127,1.58809 a 17.65508,17.65508 0 0 0 0.90678,-8.3359 z"
           transform="translate(-134.87066,-124)"
           id="path79" />
      </g>
      <circle
         cx="1080.4158"
         cy="146.12303"
         r="19.938669"
         id="circle101"
         style="fill:#fbbebe" />
      <path
         d="m 1090.3036,115.29949 a 28.24459,28.24459 0 0 0 -17.7037,3.66516 c 0.7868,0.0294 1.5774,0.0831 2.373,0.17927 a 28.37213,28.37213 0 0 1 10.8967,52.67367 28.37069,28.37069 0 0 0 4.4339,-56.5181 z"
         id="path115"
         style="fill:#2f2e41" />
      <path
         d="m 1099.032,131.07315 a 12.96867,12.96867 0 0 1 0.2243,9.938 12.6485,12.6485 0 0 0 -0.4653,-1.20992 c -3.5072,-7.80385 -14.3112,-11.03408 -24.1313,-7.21491 -5.7851,2.2499 -9.9357,6.44481 -11.6549,11.10735 -2.5005,-7.54389 2.5779,-16.21158 11.8958,-19.83543 9.8202,-3.8192 20.6242,-0.58894 24.1314,7.21491 z"
         id="path117"
         style="fill:#2f2e41" />
      <g
         id="g127"
         style="opacity:0.1"
         transform="translate(265.50388,9.8830452)">
        <path
           d="m 968.4537,254.50905 a 28.40506,28.40506 0 0 0 -18.96113,-24.4784 28.35092,28.35092 0 0 0 -7.52586,3.051 c 0.78676,0.0294 1.57736,0.0831 2.373,0.17927 a 28.37877,28.37877 0 0 1 24.11399,21.24813 z"
           transform="translate(-134.87066,-124)"
           id="path119" />
        <path
           d="m 973.05493,233.8035 a 28.40505,28.40505 0 0 0 -18.96113,-24.4784 28.35128,28.35128 0 0 0 -7.52586,3.051 c 0.78676,0.0294 1.57736,0.0831 2.373,0.17926 a 28.37877,28.37877 0 0 1 24.11399,21.24814 z"
           transform="translate(-134.87066,-124)"
           id="path121" />
        <path
           d="m 973.17213,202.87715 a 17.14276,17.14276 0 0 0 -11.44324,-14.773 17.11069,17.11069 0 0 0 -4.54195,1.84129 c 0.47482,0.0178 0.952,0.0502 1.43215,0.10819 a 17.1269,17.1269 0 0 1 14.55304,12.82352 z"
           transform="translate(-134.87066,-124)"
           id="path123" />
        <path
           d="m 983.7843,250.66462 a 28.39508,28.39508 0 0 1 -21.98035,29.977 28.54951,28.54951 0 0 1 -6.56751,5.29288 28.36866,28.36866 0 0 0 28.54786,-35.26993 z"
           transform="translate(-134.87066,-124)"
           id="path125" />
      </g>
    </g>
  </g>
</svg>
