<?xml version="1.0" encoding="UTF-8" standalone="no"?>
<svg
   xmlns:dc="http://purl.org/dc/elements/1.1/"
   xmlns:cc="http://creativecommons.org/ns#"
   xmlns:rdf="http://www.w3.org/1999/02/22-rdf-syntax-ns#"
   xmlns:svg="http://www.w3.org/2000/svg"
   xmlns="http://www.w3.org/2000/svg"
   version="1.1"
   viewBox="0 0 814.82122 661.22516"
   height="661.22516"
   width="814.82123"
   data-name="Layer 1"
   id="a8799fd1-c1d8-478d-a00b-541cf9441083">
  <metadata
     id="metadata109">
    <rdf:RDF>
      <cc:Work
         rdf:about="">
        <dc:format>image/svg+xml</dc:format>
        <dc:type
           rdf:resource="http://purl.org/dc/dcmitype/StillImage" />
        <dc:title>synchronize</dc:title>
      </cc:Work>
    </rdf:RDF>
  </metadata>
  <defs
     id="defs107" />
  <title
     id="title2">synchronize</title>
  <rect
     style="fill:#f2f2f2"
     id="rect4"
     height="295.24753"
     width="352"
     y="26.671659"
     x="184.21613" />
  <path
     style="fill:#fbbebe"
     id="path6"
     d="m 627.71613,509 c 0,0 8,29 8,33 0,4 13,3 13,3 l 10,-16 c 0,0 -8,-16 -10,-24 -2,-8 -21,4 -21,4 z" />
  <path
     style="fill:#2f2e41"
     id="path8"
     d="m 642.71613,536 c 0,0 12,3 12,-6 0,-9 5,-5 5,-5 0,0 12,7 7,14 -5,7 -14,15 -17,22 -3,7 -12,26 -22,22 -10,-4 -3,-13 -3,-13 0,0 8,-12 6,-22 -2,-10 -3,-15 0,-15 3,0 8,-3 8,1 0,4 4,2 4,2 z" />
  <polygon
     transform="translate(15.216126)"
     style="fill:#3f3d56"
     id="polygon14"
     points="605,295.5 585,293.5 576.835,273.528 578,255.5 605,255.5 " />
  <polygon
     transform="translate(15.216126)"
     style="opacity:0.1"
     id="polygon16"
     points="605,295.5 585,293.5 576.835,273.528 578,255.5 605,255.5 " />
  <path
     style="fill:#fbbebe"
     id="path18"
     d="m 621.71613,152 c 0,0 -1,25 -5,28 -4,3 6,15 6,15 l 16,-4 12,-11 -5,-1 c 0,0 0,-14 3,-18 3,-4 -27,-9 -27,-9 z" />
  <path
     style="opacity:0.1"
     id="path20"
     d="m 621.71613,152 c 0,0 -1,25 -5,28 -4,3 6,15 6,15 l 16,-4 12,-11 -5,-1 c 0,0 0,-14 3,-18 3,-4 -27,-9 -27,-9 z" />
  <path
     style="fill:#fbbebe"
     id="path22"
     d="m 593.71613,250 c 0,0 10,26 8,48 -2,22 45,3 45,3 l 14,-9 c 0,0 4,-27 0,-33 -4,-6 -12,-27 -12,-27 l -21,-3 z" />
  <path
     style="fill:#fbbebe"
     id="path24"
     d="m 761.85789,364.79097 c 0,0 17.05251,-18.84858 19.90472,-20.66157 2.85221,-1.81299 -3.75306,-10.6294 -3.75306,-10.6294 l -15.94129,0.12143 c 0,0 -7.78285,12.95637 -12.58077,18.00845 -4.79792,5.05208 12.3704,13.16109 12.3704,13.16109 z" />
  <path
     style="fill:#2f2e41"
     id="path26"
     d="m 774.31157,341.85753 c 0,0 -3.29981,-9.91636 -9.71727,-5.83714 -6.41746,4.07922 -5.83149,-1.299 -5.83149,-1.299 0,0 -0.44761,-11.72935 6.81,-11.33682 7.25761,0.39253 17.04122,3.184 23.39233,2.15044 6.35111,-1.03356 23.9783,-3.2278 25.65856,5.7157 1.68026,8.9435 -7.90993,8.03136 -7.90993,8.03136 0,0 -12.18259,-0.26544 -18.40661,5.69313 -6.22402,5.95857 -9.336,8.93786 -10.69577,6.7987 -1.35977,-2.13916 -5.76513,-4.34467 -2.91293,-6.15765 2.8522,-1.81298 -0.38689,-3.75872 -0.38689,-3.75872 z" />
  <path
     style="fill:#fbbebe"
     id="path28"
     d="m 610.71613,170 c 0,0 -12,-7 -15,-27 -3,-20 -24,-90 -24,-90 0,0 -14,-48 -19,-32 -5,16 6,34 6,34 l 14,65 c 0,0 12,84 18,88 6,4 20,-38 20,-38 z" />
  <path
     style="fill:#fbbebe"
     id="path30"
     d="m 659.412,173.88443 c 0,0 13.89162,-0.15122 26.388,-16.05215 12.49638,-15.90093 65.36058,-66.3626 65.36058,-66.3626 0,0 35.902,-34.80006 32.33708,-18.42046 -3.56492,16.3796 -22.02619,26.58659 -22.02619,26.58659 l -44.30746,49.57667 c 0,0 -51.96341,67.08058 -59.15644,67.5908 -7.19303,0.51022 1.40443,-42.91885 1.40443,-42.91885 z" />
  <circle
     style="fill:#fbbebe"
     id="circle32"
     r="25"
     cy="143"
     cx="638.71613" />
  <path
     style="fill:#2f2e41"
     id="path34"
     d="m 662.49391,276.26378 c 0,0 -34.77778,24.73622 -47.77778,20.73622 -13,-4 -15,-7 -15,-7 0,0 -12,82 -3,114 0,0 1,32 10,44 l 21,69 c 0,0 23,-1 23,-9 0,0 -3,-17 -3,-29 0,-12 -16,-42 -16,-42 l 11,-84 c 0,0 42,84 59,78 17,-6 65,-69 65,-69 l -15,-14 c 0,0 -42,25 -47,38 0,0 -33.44444,-102.47245 -42.22222,-109.73622 z" />
  <ellipse
     style="opacity:0.1"
     id="ellipse38"
     ry="3"
     rx="1.5"
     cy="288.5"
     cx="620.71613" />
  <path
     style="fill:#a0616a"
     id="path44"
     d="m 138.74669,228.59828 c 0,0 16.96949,-16.59831 18.96949,-22.59831 2,-6 26,-108 26,-108 0,0 20,-57 29,-43 9,14 -15,47 -15,47 0,0 -6,63 -10,78 -4,15 -18,71 -27,77 l -9,18 -10,2 -9,-25 1,-10 z" />
  <path
     style="fill:#ffa200"
     id="path56"
     d="m 580.30141,290.14989 c 0,0 15.14429,39.38238 15.95232,31.17585 2.04211,-20.73993 2.04211,-20.73993 2.04211,-20.73993 z" />
  <path
     style="fill:#ffa200"
     id="path70"
     d="m 624.71613,190 c 0,0 17,-16 21,-15 4,1 13.69587,-1.11557 13.69587,-1.11557 -2.22516,7.67692 -1.92752,10.15969 -2.69587,18.11557 -0.54166,6.5 0.67709,10.066 1.90806,11.96932 1.42721,2.14444 2.58622,4.45571 3.45112,6.88212 1.655,4.8376 -3.91971,6.53285 0,0 0,0 6.64082,15.14856 4.64082,47.14856 -2,32 9,38.25189 9,38.25189 0,0 9,39.74811 5,44.74811 0,0 -28.04723,-30.3347 -55.0828,-26.04723 0,0 -45.9172,-12.95277 -45.9172,-25.95277 -0.039,-7.60351 3.7104,-14.72732 10,-19 0.66896,-6.12857 2.01036,-12.16491 4,-18 0,0 -11.98426,-25.95277 -1.98426,-44.95277 0,0 6.25598,-29.4449 18.25598,-35.4449 12,-6 11.74402,0.4449 11.74402,0.4449 0,0 -4.64956,6.04723 -1.5551,11.04723 z" />
  <rect
     style="fill:none;stroke:#3f3d56;stroke-miterlimit:10"
     id="rect82"
     stroke-miterlimit="10"
     height="295.24753"
     width="352"
     y="0.5"
     x="206.21613" />
  <path
     style="fill:#ffa200"
     id="path84"
     d="M 382.21613,97.76366 V 78.879 l -24.73027,25.17975 24.73027,25.18036 v -18.88558 c 20.40124,0 37.09541,16.99649 37.09541,37.77023 a 38.03436,38.03436 0 0 1 -4.329,17.62526 l 8.966,9.12887 a 49.99621,49.99621 0 0 0 7.72821,-26.75413 c -6e-5,-27.69759 -22.25795,-50.3601 -49.46062,-50.3601 z m 0,88.13064 c -20.40278,0 -37.0954,-16.99836 -37.0954,-37.77054 a 38.06555,38.06555 0 0 1 4.32748,-17.6265 l -8.96441,-9.12733 a 49.18217,49.18217 0 0 0 -7.72821,26.75383 c 0,27.69759 22.25786,50.3601 49.46054,50.3601 v 18.88465 l 24.73027,-25.17943 -24.73027,-25.18067 z" />
  <g
     id="g977"
     transform="matrix(0.79570882,0,0,0.79570882,-228.23478,58.965025)">
    <path
       style="fill:#a0616a"
       d="m 392.62132,155 c 0,0 1,26 -5,32 -6,6 30,27 30,27 l 21,-33 c 0,0 -8,-14 -6,-26 z"
       id="path22-3" />
    <polygon
       transform="translate(22.621339)"
       style="fill:#a0616a"
       points="305.5,683.5 305.5,708.5 336.5,710.5 334.5,683.5 "
       id="polygon24" />
    <polygon
       transform="translate(22.621339)"
       style="fill:#a0616a"
       points="475.5,683.5 475.5,708.5 444.5,710.5 446.5,683.5 "
       id="polygon26" />
    <path
       style="fill:#d0cde1"
       d="m 344.12132,406.5 c 0,0 -16,58 -6,104 0,0 0,20 4,24 4,4 5,4 2,6 -3,2 -9,7 -6,10 3,3 4,7 2,8 -2,1 -4,3 -2,7 2,4 -10,111 -10,111 0,0 -12,13 0,14 12,1 32,6 34,-2 2,-8 18,-121 18,-121 0,0 2,-3 6,-8 4,-5 2,-7 2,-8 0,-1 21,-96 21,-96 0,0 31,108 34,110 3,2 4,2 4,5 0,3 -2,5 0,8 a 51.953,51.953 0 0 1 3,5 c 0,0 5,112 15,112 10,0 40,-2 37,-11 -3,-9 -7,-7 -7,-7 0,0 7,-92 -10,-119 v -22 c 0,-2 1,-3 0,-5 -1,-2 3,-121 -16,-128 -19,-7 -125,3 -125,3 z"
       id="path28-6" />
    <path
       style="fill:#2f2e41"
       d="m 347.12132,701.5 c 0,0 -5,-8 -12,-8 -7,0 -12,8 -12,8 l -18,25 c 0,0 -26,16 -16,25 10,9 37,4 37,4 0,0 22,-16 25,-17 3,-1 11,-6 12,-7 1,-1 -2,-37 -5,-34.5 -3,2.5 -5,10.5 -11,4.5 z"
       id="path30-7" />
    <path
       style="fill:#2f2e41"
       d="m 479.12132,701.5 c 0,0 5,-8 12,-8 7,0 12,8 12,8 l 18,25 c 0,0 26,16 16,25 -10,9 -37,4 -37,4 0,0 -22,-16 -25,-17 -3,-1 -11,-6 -12,-7 -1,-1 2,-37 5,-34.5 3,2.5 5,10.5 11,4.5 z"
       id="path32" />
    <circle
       style="fill:#a0616a"
       cx="410.1214"
       cy="133.5"
       r="36"
       id="circle34" />
    <path
       style="fill:#3f3d56"
       d="m 400.62132,190 c 0,0 -6.72751,0.37087 -9.86376,-9.81457 L 337.62132,219 l 22,59 c 0,0 3,32 0,41 -3,9 -5,16 -5,20 0,4 -21,71 -13,74 8,3 130,15 133,-5 3,-20 14.18935,-159.12134 14.18935,-159.12134 L 485.62132,205 434.56641,171.60343 c 0,0 -4.94509,20.39657 -33.94509,18.39657 z"
       id="path36-5" />
    <path
       style="fill:#a0616a"
       d="m 334.12132,282.5 -4,31 c 0,0 -16,33 -12,77 l -1,29 c 0,0 -10,50 10,52 20,2 7,-55 7,-55 l 11,-27 11.26029,-60.06194 5.73971,-41.93806 z"
       id="path38" />
    <path
       style="fill:#3f3d56"
       d="m 352.12132,217.5 -14.5,1.5 c 0,0 -9.5,70.5 -6.5,70.5 3,0 37,8 38,6 1,-2 -17,-78 -17,-78 z"
       id="path40" />
    <path
       style="fill:#2f2e41"
       d="m 382.34492,96.59754 -6.48961,-2.35987 c 0,0 13.56911,-13.5691 32.448,-12.38912 l -5.3098,-5.30972 c 0,0 12.9792,-4.71963 24.77842,7.66949 6.20262,6.51271 13.37914,14.168 17.853,22.79168 h 6.9499 l -2.90063,5.80127 10.15222,5.80126 -10.42026,-1.04206 a 29.27363,29.27363 0 0 1 -0.98558,15.02464 l -2.35978,6.48952 c 0,0 -9.43948,-18.87873 -9.43948,-21.23863 v 5.89961 c 0,0 -6.4896,-5.30963 -6.4896,-8.84938 l -3.53975,4.12974 -1.76988,-6.4896 -21.82857,6.48963 3.53975,-5.30962 -13.5691,1.76987 5.3098,-6.4896 c 0,0 -15.339,7.66949 -15.929,14.15909 -0.5899,6.48951 -8.2593,14.749 -8.2593,14.749 l -3.53975,-5.89961 c 0,0 -5.30986,-26.54822 11.799,-35.39759 z"
       id="path42" />
    <path
       style="fill:#3f3d56"
       d="m 453.97803,303.20579 12.33005,-90.42553 c 0,0 20.98211,-57.0917 27.27217,-54.76038 6.29007,2.33132 20.79082,52.94403 20.79082,52.94403 z"
       id="path56-5" />
    <g
       transform="matrix(1.089827,0,0,1.089827,380.37103,232.56041)"
       id="g1076">
      <g
         id="layer8"
         style="display:inline"
         transform="translate(-10.076211,-8.721249)">
        <g
           aria-label="lad"
           transform="matrix(0.26458333,0,0,0.26458333,23.911751,-45.388537)"
           style="font-style:normal;font-variant:normal;font-weight:bold;font-stretch:normal;font-size:20px;line-height:25px;font-family:Arial;-inkscape-font-specification:'Arial, Bold';text-align:start;letter-spacing:0px;word-spacing:0px;writing-mode:lr-tb;text-anchor:start;display:inline;opacity:1;fill:#000000;fill-opacity:1;stroke:none;stroke-width:1px;stroke-linecap:butt;stroke-linejoin:miter;stroke-opacity:1"
           id="flowRoot4504-8-4-7">
          <path
             d="m 95.601062,269.44343 -0.0011,38.5225 c -5.7e-5,1.984 0.513084,3.552 1.537084,4.704 1.024,1.088 2.240001,1.632 3.648004,1.632 2.688,0 3.65097,0.033 6.816,0.0205 l 0.0103,12.55209 c -5.1871,0.009 -3.85034,0.003 -8.842344,0.003 -4.928,0 -9.12,-1.632 -12.576,-4.896 -3.392,-3.264 -5.088,-7.712 -5.088,-13.344 v -39.1945 z"
             style="font-style:normal;font-variant:normal;font-weight:bold;font-stretch:normal;font-size:96px;font-family:'Montserrat Alternates';-inkscape-font-specification:'Montserrat Alternates Bold';fill:#ffa200;fill-opacity:1"
             id="path4584-3-7" />
        </g>
        <path
           d="m 75.669676,41.098735 c -1.608667,0 -3.048,-0.6858 -4.318,-2.0574 -1.27,-1.3716 -1.905,-3.0734 -1.905,-5.105399 0,-2.032 0.618067,-3.691467 1.8542,-4.9784 1.236133,-1.303867 2.683933,-1.9558 4.3434,-1.9558 1.659469,0 3.014136,0.5842 4.064003,1.7526 l 1.77e-4,-5.64119 1.905,-1.700293 1.905,1.700293 -1.77e-4,17.782389 h -3.81 v -1.8034 c -1.0668,1.337733 -2.413001,2.0066 -4.038603,2.0066 z m -2.3876,-7.010399 c 0,1.100666 0.3302,2.006599 0.9906,2.717799 0.6604,0.694267 1.430867,1.0414 2.3114,1.0414 0.880535,0 1.625603,-0.347133 2.235203,-1.0414 0.626533,-0.7112 0.9398,-1.617133 0.9398,-2.717799 0,-1.1176 -0.313267,-2.040467 -0.9398,-2.7686 -0.6096,-0.745067 -1.363134,-1.1176 -2.260603,-1.1176 -0.897467,0 -1.667933,0.372533 -2.3114,1.1176 -0.643467,0.745067 -0.9652,1.667933 -0.9652,2.7686 z"
           style="font-style:normal;font-variant:normal;font-weight:bold;font-stretch:normal;font-size:96px;line-height:25px;font-family:'Montserrat Alternates';-inkscape-font-specification:'Montserrat Alternates Bold';text-align:start;letter-spacing:0px;word-spacing:0px;writing-mode:lr-tb;text-anchor:start;opacity:1;fill:#ffa200;fill-opacity:1;stroke:none;stroke-width:0.26458332px;stroke-linecap:butt;stroke-linejoin:miter;stroke-opacity:1"
           id="path4588-1-6" />
        <g
           aria-label="data"
           transform="matrix(0.26458333,0,0,0.26458333,-10.022048,-59.473525)"
           style="font-style:normal;font-variant:normal;font-weight:bold;font-stretch:normal;font-size:20px;line-height:25px;font-family:Arial;-inkscape-font-specification:'Arial, Bold';text-align:start;letter-spacing:0px;word-spacing:0px;writing-mode:lr-tb;text-anchor:start;opacity:1;fill:#ffffff;fill-opacity:1;stroke:none;stroke-width:1px;stroke-linecap:butt;stroke-linejoin:miter;stroke-opacity:1"
           id="flowRoot4504-6-7">
          <path
             d="m 171.53287,326.87793 q -9.888,0 -17.28,-7.392 -7.392,-7.392 -7.392,-19.392 0,-12.096 7.584,-19.296 7.584,-7.2 17.568,-7.2 7.776,0 13.536,5.184 v -4.32 h 14.496 v 51.648 h -14.496 v -4.224 q -6.144,4.992 -14.016,4.992 z m -10.176,-26.496 q 0,6.336 3.744,10.368 3.744,3.936 8.736,3.936 4.992,0 8.448,-3.936 3.456,-4.032 3.456,-10.272 0,-6.336 -3.456,-10.56 -3.456,-4.224 -8.544,-4.224 -5.088,0 -8.736,4.224 -3.648,4.128 -3.648,10.464 z"
             style="font-style:normal;font-variant:normal;font-weight:bold;font-stretch:normal;font-size:96px;font-family:'Montserrat Alternates';-inkscape-font-specification:'Montserrat Alternates Bold';fill:#ffffff;fill-opacity:1"
             id="path4612-4-3" />
          <path
             d="m 264.91341,326.87793 c -6.592,0 -12.352,-2.464 -17.28,-7.392 -4.928,-4.928 -7.392,-11.392 -7.392,-19.392 0,-8.064 2.528,-14.496 7.584,-19.296 5.056,-4.8 10.912,-7.2 17.568,-7.2 5.184,0 9.696,1.728 13.536,5.184 v -4.32 h 14.496 v 52.44075 h -14.496 v -5.01675 c -4.096,3.328 -8.768,4.992 -14.016,4.992 z m -10.176,-26.496 c 0,4.224 1.248,7.68 3.744,10.368 2.496,2.624 5.408,3.936 8.736,3.936 3.328,0 6.144,-1.312 8.448,-3.936 2.304,-2.688 3.456,-6.112 3.456,-10.272 0,-4.224 -1.152,-7.744 -3.456,-10.56 -2.304,-2.816 -5.152,-4.224 -8.544,-4.224 -3.392,0 -6.304,1.408 -8.736,4.224 -2.432,2.752 -3.648,6.24 -3.648,10.464 z"
             style="font-style:normal;font-variant:normal;font-weight:bold;font-stretch:normal;font-size:96px;font-family:'Montserrat Alternates';-inkscape-font-specification:'Montserrat Alternates Bold';fill:#ffffff;fill-opacity:1"
             id="path4616-0-6" />
          <path
             d="m 209.3575,326.42845 4e-5,-17.79057 -7.6e-4,-49.632 14.49624,-10e-6 v 15.456 h 12.48 v 11.232 h -12.48 l -10e-4,22.272 -3e-5,15.24998 -7.24725,6.42519 -7.24724,-6.42519"
             style="font-style:normal;font-variant:normal;font-weight:bold;font-stretch:normal;font-size:96px;font-family:'Montserrat Alternates';-inkscape-font-specification:'Montserrat Alternates Bold';fill:#ffffff;fill-opacity:1"
             id="path4614-2-5" />
        </g>
        <path
           style="font-style:normal;font-variant:normal;font-weight:bold;font-stretch:normal;font-size:192px;line-height:25px;font-family:Montserrat;-inkscape-font-specification:'Montserrat Bold';text-align:start;letter-spacing:0px;word-spacing:0px;writing-mode:lr-tb;text-anchor:start;fill:#ffffff;fill-opacity:1;stroke:none;stroke-width:0.13445187px;stroke-linecap:butt;stroke-linejoin:miter;stroke-opacity:1"
           d="m 17.452682,8.7212544 -1.906485,1.9064846 1.940098,1.940098 h 0.282821 c 0.946542,0 1.789879,0.223753 2.529901,0.671209 0.740024,0.430247 1.316456,1.041043 1.729492,1.832696 0.430247,0.791651 0.645475,1.703714 0.645475,2.736304 0,1.015381 -0.197915,1.918919 -0.593741,2.710572 -0.395827,0.791653 -0.946686,1.40271 -1.652289,1.832957 -0.252626,0.154039 -0.518946,0.279256 -0.798045,0.378146 0.194754,0.207133 1.7463,1.536742 1.7463,1.536742 l -1.241054,2.325074 c 0.957959,-0.187072 1.84731,-0.490146 2.667767,-0.909914 1.497255,-0.757234 2.650383,-1.824061 3.459245,-3.200848 0.826073,-1.376788 1.239217,-2.951585 1.239217,-4.724198 0,-1.772614 -0.404618,-3.338623 -1.21348,-4.6982 C 25.479041,11.68159 24.343225,10.614499 22.880388,9.8572668 21.434762,9.1000353 19.765401,8.7212544 17.872319,8.7212544 Z"
           id="path1711-6-2-1-6" />
        <path
           d="m 60.069768,41.098735 c -1.744133,0 -3.268133,-0.651933 -4.572,-1.9558 -1.303866,-1.303867 -1.9558,-3.014133 -1.9558,-5.130799 0,-2.1336 0.668867,-3.8354 2.0066,-5.1054 1.337734,-1.27 2.887134,-1.905 4.6482,-1.905 1.3716,0 2.5654,0.4572 3.5814,1.3716 l 2.88e-4,-1.35286 1.9175,-1.700476 1.9175,1.700476 1.12e-4,13.875059 h -3.8354 v -1.1176 c -1.083733,0.880531 -2.319866,1.3208 -3.7084,1.3208 z m -2.6924,-7.010399 c 0,1.117599 0.3302,2.031999 0.9906,2.743199 0.6604,0.694267 1.430867,1.0414 2.3114,1.0414 0.880534,0 1.6256,-0.347133 2.2352,-1.0414 0.6096,-0.7112 0.9144,-1.617133 0.9144,-2.717799 0,-1.1176 -0.3048,-2.048933 -0.9144,-2.794 -0.6096,-0.745067 -1.363133,-1.1176 -2.2606,-1.1176 -0.897466,0 -1.667933,0.372533 -2.3114,1.1176 -0.643466,0.728133 -0.9652,1.651 -0.9652,2.7686 z"
           style="font-style:normal;font-variant:normal;font-weight:bold;font-stretch:normal;font-size:96px;line-height:25px;font-family:'Montserrat Alternates';-inkscape-font-specification:'Montserrat Alternates Bold';text-align:start;letter-spacing:0px;word-spacing:0px;writing-mode:lr-tb;text-anchor:start;opacity:1;fill:#ffa200;fill-opacity:1;stroke:none;stroke-width:0.26458332px;stroke-linecap:butt;stroke-linejoin:miter;stroke-opacity:1"
           id="path4586-7-3" />
        <path
           style="opacity:1;fill:#ffa200;fill-opacity:1;fill-rule:evenodd;stroke:none;stroke-width:1.05833328;stroke-linecap:butt;stroke-linejoin:miter;stroke-miterlimit:4;stroke-dasharray:none;stroke-opacity:0"
           d="m 79.708456,20.517949 1.905,-1.7 1.905,1.7 V 22.218 l -1.905,-1.700015 -1.905,1.700015 z"
           id="rect2037-9" />
        <path
           style="display:inline;opacity:1;fill:#ffa200;fill-opacity:1;fill-rule:evenodd;stroke:none;stroke-width:1.05833328;stroke-linecap:butt;stroke-linejoin:miter;stroke-miterlimit:4;stroke-dasharray:none;stroke-opacity:0"
           d="m 79.708456,17.927898 1.905,-1.7 1.905,1.7 v 1.700051 l -1.905,-1.700015 -1.905,1.700015 z"
           id="rect2037-6-4" />
      </g>
      <g
         id="layer9"
         transform="translate(-10.076211,-8.721249)">
        <path
           style="font-style:normal;font-variant:normal;font-weight:bold;font-stretch:normal;font-size:192px;line-height:25px;font-family:Montserrat;-inkscape-font-specification:'Montserrat Bold';text-align:start;letter-spacing:0px;word-spacing:0px;writing-mode:lr-tb;text-anchor:start;fill:#ffa200;fill-opacity:1;stroke:none;stroke-width:0.13445187px;stroke-linecap:butt;stroke-linejoin:miter;stroke-opacity:1"
           d="m 10.076211,8.721255 v 18.096381 c 0,0 6.723806,0.0017 7.275896,0 0.552089,-0.0017 0.786041,-0.100838 0.786041,-0.100838 l 1.26597,-1.979505 -2.025955,-1.740245 h -2.577755 v -10.42921 l -0.89967,-0.899934 -1.040165,-1.040164 -5.55e-4,-2.68e-4 c 1.3e-4,1.33e-4 0.957608,-0.957398 1.906482,-1.906223 z"
           id="path1711-6-2-1-9-8" />
      </g>
    </g>
  </g>
  <path
     style="fill:#2f2e41;stroke-width:1.38224316"
     d="m 674.24092,64.089492 a 24.396591,24.396591 0 1 0 -45.19935,-15.398189 24.797441,24.797441 0 0 0 0.22116,7.381178 39.200414,39.200414 0 0 0 -22.04678,30.685798 40.513545,40.513545 0 0 0 -0.23498,6.579477 39.214237,39.214237 0 1 0 72.08398,21.397124 q 0,-0.9261 0,-1.86603 a 39.228059,39.228059 0 0 0 -4.78256,-48.779358 z"
     id="path264" />
  <g
     transform="matrix(1.3822431,0,0,1.3822431,-534.08838,19.33246)"
     style="opacity:0.1"
     id="g272">
    <path
       d="m 847.41,74.43 0.23,-0.12 c 0,-0.31 -0.09,-0.62 -0.13,-0.93 v 0.19 c -0.07,0.29 -0.08,0.57 -0.1,0.86 z"
       transform="translate(-6,-52.33)"
       id="path266" />
    <path
       d="m 888,103.31 a 28.24,28.24 0 0 1 -4.39,12.09 q 0,0.67 0,1.35 A 28.37,28.37 0 0 1 827,119 c -0.06,0.76 -0.1,1.53 -0.1,2.31 a 28.38,28.38 0 1 0 56.75,0 q 0,-0.67 0,-1.35 a 28.24,28.24 0 0 0 4.35,-12.04 27.53,27.53 0 0 0 0.1,-5.73 c 0,0.37 -0.02,0.75 -0.1,1.12 z"
       transform="translate(-6,-52.33)"
       id="path268" />
    <path
       d="m 882.51,73.36 a 17.71,17.71 0 0 1 -2.33,6.75 c 0.49,0.51 1,1 1.42,1.59 a 17.68,17.68 0 0 0 0.93,-3.89 17.9,17.9 0 0 0 -0.02,-4.45 z"
       transform="translate(-6,-52.33)"
       id="path270" />
  </g>
  <circle
     style="fill:#fbbebe;stroke-width:1.38224316"
     cx="639.31152"
     cy="131.15593"
     r="27.561928"
     id="circle300" />
  <path
     style="fill:#2f2e41;stroke-width:1.38224316"
     d="m 652.98202,88.569017 a 38.923966,38.923966 0 0 0 -24.4657,5.05901 c 1.07815,0 2.17012,0.110579 3.27591,0.248804 a 39.214237,39.214237 0 0 1 15.06645,72.802739 39.214237,39.214237 0 0 0 6.12334,-78.110553 z"
     id="path316" />
  <path
     style="fill:#2f2e41;stroke-width:1.38224316"
     d="m 665.049,110.36699 a 17.96916,17.96916 0 0 1 0.3041,13.7395 15.370543,15.370543 0 0 0 -0.63584,-1.67252 c -4.85167,-10.79532 -19.77989,-15.20467 -33.35352,-9.97979 -8.00319,3.11004 -13.7395,8.91547 -16.11696,15.35671 -3.4556,-10.4221 3.56619,-22.40615 16.4487,-27.40987 13.57362,-5.28017 28.4742,-0.815525 33.35352,9.96597 z"
     id="path318" />
  <g
     transform="matrix(1.3822431,0,0,1.3822431,-534.08838,19.33246)"
     style="opacity:0.1"
     id="g328">
    <path
       d="m 873.58,127.51 a 28.41,28.41 0 0 0 -19,-24.48 28.55,28.55 0 0 0 -7.52,3 c 0.78,0 1.57,0.08 2.37,0.18 a 28.37,28.37 0 0 1 24.15,21.3 z"
       transform="translate(-6,-52.33)"
       id="path320" />
    <path
       d="m 878.18,106.8 a 28.38,28.38 0 0 0 -19,-24.47 27.89,27.89 0 0 0 -7.52,3 c 0.78,0 1.57,0.08 2.37,0.18 a 28.36,28.36 0 0 1 24.15,21.29 z"
       transform="translate(-6,-52.33)"
       id="path322" />
    <path
       d="M 878.3,75.88 A 17.14,17.14 0 0 0 866.86,61.1 16.87,16.87 0 0 0 862.32,63 c 0.47,0 0.95,0 1.43,0.1 a 17.13,17.13 0 0 1 14.55,12.78 z"
       transform="translate(-6,-52.33)"
       id="path324" />
    <path
       d="m 888.91,123.66 a 28.36,28.36 0 0 1 -22,30 28.33,28.33 0 0 1 -6.56,5.29 28.35,28.35 0 0 0 28.54,-35.27 z"
       transform="translate(-6,-52.33)"
       id="path326" />
  </g>
  <path
     style="opacity:0.33000004;fill:#b3b3b3"
     id="path56-6"
     d="m 581.65476,294.20995 c 0,0 13.79094,35.32232 14.59897,27.11579 l 1.18089,-16.92594 z" />
</svg>
