<?xml version="1.0" encoding="UTF-8" standalone="no"?>
<svg
   xmlns:dc="http://purl.org/dc/elements/1.1/"
   xmlns:cc="http://creativecommons.org/ns#"
   xmlns:rdf="http://www.w3.org/1999/02/22-rdf-syntax-ns#"
   xmlns:svg="http://www.w3.org/2000/svg"
   xmlns="http://www.w3.org/2000/svg"
   xmlns:sodipodi="http://sodipodi.sourceforge.net/DTD/sodipodi-0.dtd"
   xmlns:inkscape="http://www.inkscape.org/namespaces/inkscape"
   id="fc5c3225-7602-4bc9-83b7-60b4757d2e45"
   data-name="Layer 1"
   width="832"
   height="753.79816"
   viewBox="0 0 832 753.79814"
   version="1.1"
   sodipodi:docname="student.svg"
   inkscape:version="0.92.4 (5da689c313, 2019-01-14)">
  <metadata
     id="metadata95">
    <rdf:RDF>
      <cc:Work
         rdf:about="">
        <dc:format>image/svg+xml</dc:format>
        <dc:type
           rdf:resource="http://purl.org/dc/dcmitype/StillImage" />
        <dc:title>invest</dc:title>
      </cc:Work>
    </rdf:RDF>
  </metadata>
  <defs
     id="defs93">
    <linearGradient
       id="a09f8209-a7b7-4999-9a81-8afbf160c3ae"
       x1="661.46997"
       y1="455.57999"
       x2="661.46997"
       y2="52.330002"
       gradientTransform="translate(361.72004,-70.165499)"
       gradientUnits="userSpaceOnUse">
      <stop
         offset="0"
         stop-color="gray"
         stop-opacity="0.25"
         id="stop7" />
      <stop
         offset="0.54"
         stop-color="gray"
         stop-opacity="0.12"
         id="stop9" />
      <stop
         offset="1"
         stop-color="gray"
         stop-opacity="0.1"
         id="stop11" />
    </linearGradient>
  </defs>
  <sodipodi:namedview
     pagecolor="#ffffff"
     bordercolor="#666666"
     borderopacity="1"
     objecttolerance="10"
     gridtolerance="10"
     guidetolerance="10"
     inkscape:pageopacity="0"
     inkscape:pageshadow="2"
     inkscape:window-width="1920"
     inkscape:window-height="1043"
     id="namedview91"
     showgrid="false"
     fit-margin-top="0"
     fit-margin-left="0"
     fit-margin-right="0"
     fit-margin-bottom="0"
     inkscape:zoom="0.86019175"
     inkscape:cx="317.74635"
     inkscape:cy="400.57767"
     inkscape:window-x="0"
     inkscape:window-y="0"
     inkscape:window-maximized="1"
     inkscape:current-layer="fc5c3225-7602-4bc9-83b7-60b4757d2e45" />
  <title
     id="title2">invest</title>
  <ellipse
     cx="416"
     cy="721.29816"
     rx="416"
     ry="32.5"
     id="ellipse4"
     style="fill:#3f3d56" />
  <g
     id="g1127"
     transform="translate(-35.763056,55.779451)">
    <path
       style="fill:#3f3d56"
       inkscape:connector-curvature="0"
       id="path6"
       d="m 156.14648,644.8652 c -0.22949,-0.375 -5.64062,-9.41015 -7.5166,-28.17187 -1.7207,-17.21289 -0.61425,-46.22656 14.43262,-86.69824 28.50586,-76.6709 -6.56934,-138.53321 -6.92773,-139.14942 l 1.73046,-1.0039 c 0.0908,0.15625 9.14161,15.92871 14.48829,41.04394 a 179.06122,179.06122 0 0 1 -7.416,99.80664 c -28.457,76.54 -7.30078,112.77344 -7.084,113.13086 z" />
    <circle
       style="fill:#ffa200"
       id="circle8"
       r="13"
       cy="373.34372"
       cx="145" />
    <circle
       style="fill:#3f3d56"
       id="circle10"
       r="13"
       cy="421.34372"
       cx="186" />
    <circle
       style="fill:#ffa200"
       id="circle12"
       r="13"
       cy="453.34372"
       cx="158" />
    <circle
       style="fill:#ffa200"
       id="circle14"
       r="13"
       cy="480.34372"
       cx="192" />
    <circle
       style="fill:#3f3d56"
       id="circle16"
       r="13"
       cy="522.34375"
       cx="148" />
    <path
       style="fill:#3f3d56"
       inkscape:connector-curvature="0"
       id="path18"
       d="m 164,645.34372 c 0,0 -13,-32 26,-56 z" />
    <path
       style="fill:#3f3d56"
       inkscape:connector-curvature="0"
       id="path20"
       d="m 148.012,644.76325 c 0,0 -5.91642,-34.02934 -51.7085,-33.73768 z" />
  </g>
  <path
     d="m 572.99997,414.61255 h -12 v -2 h 12 z m -24,0 h -12 v -2 h 12 z m -24,0 h -12 v -2 h 12 z m -24,0 h -12 v -2 h 12 z"
     id="path60"
     inkscape:connector-curvature="0"
     style="fill:#e6e6e6" />
  <rect
     x="578"
     y="444.7981"
     width="2"
     height="6"
     id="rect70"
     style="fill:#e6e6e6" />
  <g
     transform="matrix(0.58194181,0,0,0.58186441,738.47083,246.25305)"
     id="g958">
    <g
       id="g1010"
       transform="translate(-921.95662,-20.300496)">
      <rect
         transform="matrix(1.7183849,0,0,1.7186134,-1444.2524,-461.37029)"
         id="rect76"
         height="6"
         width="2"
         y="376"
         x="854"
         style="fill:#e6e6e6" />
      <rect
         x="196.19354"
         y="162"
         width="752"
         height="590"
         id="rect14"
         style="fill:#3f3d56" />
      <path
         d="M 600.54135,265.12914 H 415.02363 a 2.25143,2.25143 0 1 1 0,-4.50285 h 185.51772 a 2.25143,2.25143 0 0 1 0,4.50285 z"
         transform="translate(-36.90323,-22.5)"
         id="path16"
         inkscape:connector-curvature="0"
         style="fill:#f2f2f2" />
      <path
         d="M 803.6202,289.89486 H 511.83506 a 2.25143,2.25143 0 0 1 0,-4.50286 H 803.6202 a 2.25143,2.25143 0 1 1 0,4.50286 z"
         transform="translate(-36.90323,-22.5)"
         id="path18-3"
         inkscape:connector-curvature="0"
         style="fill:#f2f2f2" />
      <path
         d="M 601.44192,314.66057 H 415.9242 a 2.25143,2.25143 0 1 1 0,-4.50286 h 185.51772 a 2.25143,2.25143 0 1 1 0,4.50286 z"
         transform="translate(-36.90323,-22.5)"
         id="path20-6"
         inkscape:connector-curvature="0"
         style="fill:#f2f2f2" />
      <path
         d="M 803.6202,315.11086 H 618.10249 a 2.25143,2.25143 0 0 1 0,-4.50286 H 803.6202 a 2.25143,2.25143 0 1 1 0,4.50286 z"
         transform="translate(-36.90323,-22.5)"
         id="path22-7"
         inkscape:connector-curvature="0"
         style="fill:#f2f2f2" />
      <path
         d="M 601.8922,339.42629 H 416.37449 a 2.25143,2.25143 0 0 1 0,-4.50286 H 601.8922 a 2.25143,2.25143 0 1 1 0,4.50286 z"
         transform="translate(-36.90323,-22.5)"
         id="path24"
         inkscape:connector-curvature="0"
         style="fill:#f2f2f2" />
      <path
         d="M 602.34249,364.192 H 416.82477 a 2.25143,2.25143 0 0 1 0,-4.50286 h 185.51772 a 2.25143,2.25143 0 1 1 0,4.50286 z"
         transform="translate(-36.90323,-22.5)"
         id="path26"
         inkscape:connector-curvature="0"
         style="fill:#f2f2f2" />
      <path
         d="M 686.54592,265.57943 H 633.4122 a 2.25143,2.25143 0 0 1 0,-4.50286 h 53.13372 a 2.25143,2.25143 0 1 1 0,4.50286 z"
         transform="translate(-36.90323,-22.5)"
         id="path28-5"
         inkscape:connector-curvature="0"
         style="fill:#f2f2f2" />
      <path
         d="M 686.54592,339.42629 H 633.4122 a 2.25143,2.25143 0 0 1 0,-4.50286 h 53.13372 a 2.25143,2.25143 0 1 1 0,4.50286 z"
         transform="translate(-36.90323,-22.5)"
         id="path30-3"
         inkscape:connector-curvature="0"
         style="fill:#f2f2f2" />
      <path
         d="M 686.54592,363.74171 H 633.4122 a 2.25143,2.25143 0 1 1 0,-4.50285 h 53.13372 a 2.25143,2.25143 0 1 1 0,4.50285 z"
         transform="translate(-36.90323,-22.5)"
         id="path32-5"
         inkscape:connector-curvature="0"
         style="fill:#f2f2f2" />
      <path
         d="m 775.70249,363.74171 h -53.13372 a 2.25143,2.25143 0 0 1 0,-4.50285 h 53.13372 a 2.25143,2.25143 0 1 1 0,4.50285 z"
         transform="translate(-36.90323,-22.5)"
         id="path34"
         inkscape:connector-curvature="0"
         style="fill:#f2f2f2" />
      <path
         d="m 467.70706,289.89486 h -53.13371 a 2.25143,2.25143 0 0 1 0,-4.50286 h 53.13371 a 2.25143,2.25143 0 0 1 0,4.50286 z"
         transform="translate(-36.90323,-22.5)"
         id="path36-6"
         inkscape:connector-curvature="0"
         style="fill:#f2f2f2" />
      <path
         d="M 600.76649,629.86057 H 415.24877 a 2.25143,2.25143 0 0 1 0,-4.50286 h 185.51772 a 2.25143,2.25143 0 0 1 0,4.50286 z"
         transform="translate(-36.90323,-22.5)"
         id="path38-2"
         inkscape:connector-curvature="0"
         style="fill:#f2f2f2" />
      <path
         d="M 599.86592,679.392 H 414.3482 a 2.25143,2.25143 0 1 1 0,-4.50286 h 185.51772 a 2.25143,2.25143 0 0 1 0,4.50286 z"
         transform="translate(-36.90323,-22.5)"
         id="path40-9"
         inkscape:connector-curvature="0"
         style="fill:#f2f2f2" />
      <path
         d="M 600.3162,704.15771 H 414.79849 a 2.25143,2.25143 0 1 1 0,-4.50285 H 600.3162 a 2.25143,2.25143 0 1 1 0,4.50285 z"
         transform="translate(-36.90323,-22.5)"
         id="path42-1"
         inkscape:connector-curvature="0"
         style="fill:#f2f2f2" />
      <path
         d="m 679.56649,679.84229 h -53.13372 a 2.25143,2.25143 0 0 1 0,-4.50286 h 53.13372 a 2.25143,2.25143 0 0 1 0,4.50286 z"
         transform="translate(-36.90323,-22.5)"
         id="path44"
         inkscape:connector-curvature="0"
         style="fill:#f2f2f2" />
      <path
         d="m 679.56649,704.15771 h -53.13372 a 2.251425,2.251425 0 0 1 0,-4.50285 h 53.13372 a 2.251425,2.251425 0 1 1 0,4.50285 z"
         transform="translate(-36.90323,-22.5)"
         id="path46"
         inkscape:connector-curvature="0"
         style="fill:#f2f2f2" />
      <path
         d="m 768.72306,679.84229 h -53.13371 a 2.25143,2.25143 0 1 1 0,-4.50286 h 53.13371 a 2.25143,2.25143 0 0 1 0,4.50286 z"
         transform="translate(-36.90323,-22.5)"
         id="path48"
         inkscape:connector-curvature="0"
         style="fill:#f2f2f2" />
      <path
         d="M 803.84535,654.62629 H 512.0602 a 2.25143,2.25143 0 0 1 0,-4.50286 h 291.78515 a 2.25143,2.25143 0 0 1 0,4.50286 z"
         transform="translate(-36.90323,-22.5)"
         id="path50"
         inkscape:connector-curvature="0"
         style="fill:#f2f2f2" />
      <path
         d="m 467.9322,654.62629 h -53.13371 a 2.25143,2.25143 0 0 1 0,-4.50286 h 53.13371 a 2.25143,2.25143 0 0 1 0,4.50286 z"
         transform="translate(-36.90323,-22.5)"
         id="path52"
         inkscape:connector-curvature="0"
         style="fill:#f2f2f2" />
      <path
         d="M 803.84535,729.37371 H 512.0602 a 2.25143,2.25143 0 1 1 0,-4.50285 h 291.78515 a 2.251425,2.251425 0 0 1 0,4.50285 z"
         transform="translate(-36.90323,-22.5)"
         id="path54-2"
         inkscape:connector-curvature="0"
         style="fill:#f2f2f2" />
      <path
         d="m 467.9322,729.37371 h -53.13371 a 2.25143,2.25143 0 1 1 0,-4.50285 h 53.13371 a 2.25143,2.25143 0 1 1 0,4.50285 z"
         transform="translate(-36.90323,-22.5)"
         id="path56-7"
         inkscape:connector-curvature="0"
         style="fill:#f2f2f2" />
      <polygon
         points="519.06,543.42 535.27,527.21 480.786,472.725 535.72,417.79 519.06,401.13 447.014,472.275 "
         id="polygon58"
         style="fill:#ffa200" />
      <polygon
         points="625.327,543.42 609.117,527.21 663.602,472.725 608.667,417.79 625.327,401.13 697.373,472.275 "
         id="polygon60"
         style="fill:#ffa200" />
      <circle
         cx="216.19354"
         cy="177"
         r="9"
         id="circle62"
         style="fill:#ffa200" />
      <circle
         cx="240.19354"
         cy="177"
         r="9"
         id="circle64"
         style="fill:#ffa200" />
      <circle
         cx="264.19354"
         cy="177"
         r="9"
         id="circle66"
         style="fill:#ffa200" />
      <rect
         x="196.19354"
         y="192"
         width="752"
         height="3"
         id="rect68"
         style="opacity:0.1" />
    </g>
  </g>
  <g
     inkscape:groupmode="layer"
     id="layer1"
     inkscape:label="Layer 1"
     transform="translate(-102.00003,-22.201899)" />
  <g
     id="g1257"
     transform="matrix(1.3822431,0,0,1.3822431,-937.29696,24.659827)">
    <circle
       id="circle220"
       r="2"
       cy="267.78448"
       cx="966.72009"
       style="opacity:0.6;fill:#ffffff" />
    <path
       id="path262"
       d="m 1117.7201,350.5545 c -1.53,-8.49 -0.77,-17.64 -4.66,-25.31 a 5.61,5.61 0 0 0 -1.77,-2.27 6.12,6.12 0 0 0 -3.17,-0.72 q -5.26,-0.23 -10.55,-0.1 c -1,0 -2.14,0.15 -2.65,1 a 2,2 0 0 0 -0.14,0.3 c -4,-4.5 -7.08,-10.1 -11.42,-14.26 0.62,-0.2 1.24,-0.4 1.87,-0.57 -0.06,-0.42 -0.14,-0.84 -0.23,-1.25 l -0.1,-0.37 c -0.07,-0.29 -0.15,-0.57 -0.23,-0.85 -0.08,-0.28 -0.1,-0.27 -0.14,-0.41 -0.04,-0.14 -0.17,-0.53 -0.27,-0.79 l -0.17,-0.41 c -0.1,-0.26 -0.2,-0.52 -0.32,-0.77 -0.12,-0.25 -0.11,-0.25 -0.17,-0.38 l -0.38,-0.8 c 0,-0.11 -0.11,-0.21 -0.16,-0.32 -0.15,-0.29 -0.29,-0.57 -0.44,-0.84 l -0.15,-0.27 -0.51,-0.9 -0.1,-0.17 c -0.2,-0.34 -0.4,-0.68 -0.61,-1 v 0 c -1.7,-2.78 -3.58,-5.5 -4.95,-8.33 -2.43,-5 -3.23,-10.64 -4.84,-16 -1.61,-5.36 -4.41,-10.74 -9.3,-13.27 -2.32,-1.2 -5.45,-2.25 -5.66,-4.89 a 5.64,5.64 0 0 1 0.51,-2.45 31.57,31.57 0 0 1 2.43,-4.91 c 0.34,-0.58 0.72,-1.15 1.1,-1.7 0.09,-0.14 0.19,-0.27 0.29,-0.41 0.3,-0.42 0.61,-0.82 0.92,-1.22 l 0.39,-0.49 c 0.32,-0.38 0.64,-0.75 1,-1.11 l 0.39,-0.44 c 0.46,-0.49 0.93,-1 1.42,-1.43 a 3.33,3.33 0 0 0 1,-1.32 4,4 0 0 0 0.08,-1.57 c -0.24,-4.25 2,-8.22 4.49,-11.64 2.49,-3.42 5.38,-6.67 6.79,-10.67 0.16,-0.46 0.3,-0.93 0.42,-1.39 0,-0.16 0.07,-0.31 0.1,-0.47 0.03,-0.16 0.14,-0.63 0.2,-0.94 0.06,-0.31 0.05,-0.37 0.08,-0.55 0.03,-0.18 0.08,-0.59 0.11,-0.88 0.03,-0.29 0,-0.39 0,-0.58 0,-0.19 0,-0.58 0,-0.87 0,-0.29 0,-0.38 0,-0.58 0,-0.2 0,-0.58 0,-0.88 0,-0.3 0,-0.37 0,-0.56 0,-0.19 0,-0.63 -0.08,-0.94 -0.08,-0.31 0,-0.34 -0.05,-0.51 q -0.06,-0.54 -0.15,-1.08 c 0,-0.12 0,-0.24 0,-0.36 -0.08,-0.5 -0.17,-1 -0.27,-1.48 v 0 a 75.63,75.63 0 0 0 -2.73,-9.29 33.12,33.12 0 0 0 -2.26,-5.42 c 0.55,-0.1 1.1,-0.23 1.66,-0.38 -0.35,-0.64 -0.9,-1.39 -1.21,-2.11 3.29,-5.16 6.16,-10.56 7.6,-16.49 a 73.68,73.68 0 0 0 1.56,-12.75 c 0.83,-12.87 1.65,-25.81 0.59,-38.66 0,-0.17 0,-0.34 0,-0.51 a 31.81,31.81 0 0 0 0.08,-8.33 c -0.53,-5.38 -1.79,-10.81 -4.67,-15.360001 -2.88,-4.55 -7.65,-8.56 -12.94,-9.1 a 19.19,19.19 0 0 1 -2.89,2.67 11.34,11.34 0 0 1 -3.36,-5.24 28.56,28.56 0 0 0 23.95,-24.999998 c 0.06,-0.47 0.1,-0.94 0.13,-1.41 0,-0.2 0,-0.39 0,-0.58 0,-0.19 0,-0.54 0,-0.81 v -0.75 c 0,-0.2 0,-0.4 0,-0.61 0,-0.21 0,-0.57 0,-0.86 v -0.47 c 0,-0.32 0,-0.64 -0.08,-1 0,-0.11 0,-0.22 0,-0.34 0,-0.35 -0.08,-0.69 -0.14,-1 v -0.22 c -0.06,-0.38 -0.13,-0.75 -0.2,-1.12 a 0.5,0.5 0 0 1 0,-0.12 c -0.08,-0.4 -0.17,-0.79 -0.27,-1.19 v 0 a 29,29 0 0 0 -3.14,-7.7 29,29 0 0 0 2.26,-8.27 c 0.06,-0.52 0.11,-1 0.14,-1.54 0,-0.33 0,-0.66 0,-1 0,-0.17 0,-0.33 0,-0.49 0,-0.43 0,-0.85 0,-1.28 v -0.13 a 29,29 0 0 0 -8,-19.1200004 17.78,17.78 0 0 0 1.42,-3.06 v 0 c 0.11,-0.31 0.21,-0.62 0.31,-0.94 v 0 c 0.09,-0.3 0.17,-0.6 0.24,-0.91 0,0 0,0 0,-0.08 0.07,-0.28 0.12,-0.56 0.18,-0.85 v -0.15 c 0.06,-0.33 0.11,-0.66 0.15,-1 0.04,-0.34 0.07,-0.7 0.09,-1 0,-0.11 0,-0.22000001 0,-0.33000001 0,-0.11 0,-0.48 0,-0.72 v -0.36 -0.72 c 0,-0.10999999 0,-0.20999999 0,-0.31999999 a 17.59,17.59 0 0 0 -35.06,-0.8 18.15,18.15 0 0 0 0.16,5.42 28.69,28.69 0 0 0 -16,22.4600004 29.09,29.09 0 0 0 -0.17,4.83 29,29 0 0 0 -4.5,13.36 v 0 0.54 c 0,0.6 -0.07,1.2 -0.07,1.81 a 28.88,28.88 0 0 0 11.12,22.85 20.22,20.22 0 0 0 5.62,5.92 23.1,23.1 0 0 1 0.9,3.72 c 0.17,3.399998 -0.84,6.999998 -3.41,9.229998 -0.65,0.54 -1.37,1 -2,1.51 a 3.65,3.65 0 0 0 -2.07,0.05 c -7.67,2.41 -15,7.18 -18.55,14.500001 a 27.65,27.65 0 0 0 -1.84,5.17 c -0.14,0.21 -0.29,0.42 -0.42,0.64 a 74.6,74.6 0 0 0 -9.97001,23.87 c -1,4.33 -1.57,8.83 -3.59,12.77 a 12.55,12.55 0 0 0 -1.17,2.59 26.51,26.51 0 0 0 -0.18,4.19 c -0.21,2.53 -1.68,4.77 -2.17,7.26 -0.3,1.48 -0.24,3 -0.5,4.5 -0.46,2.61 -1.87,4.93 -2.77,7.41 -1.59,4.37 -1.57,9.17 -2.74,13.68 a 4.71,4.71 0 0 1 -0.92,2 c -0.8,0.89 -2.06,1.1 -3.1,1.67 a 6.83,6.83 0 0 0 -3.11,4.66 20.78,20.78 0 0 0 -0.1,5.79 l 0.58,7.55 c -2.82,0.84 -5.63,1.7 -8.44,2.56 l -13.87,4.24 c -4,1.22 -8.06,2.48 -11.51,4.86 a 21,21 0 0 0 -7.25,8.8 c -1.58,3.61 -2.13,7.58 -2.69,11.5 -1.59,11 -3.52,22 -7.13,32.41 -0.28,0.81 -0.58,1.62 -0.88,2.43 v 0 c -0.3,0.8 -0.62,1.59 -0.94,2.38 l -0.21,0.48 c -0.26,0.64 -0.52,1.27 -0.8,1.89 -0.36,0.8 -0.72,1.6 -1.11,2.38 l 32.44,10.87 c 0,0.39 0.08,0.8 0.14,1.27 1.12,8 0.58,16.06 1.62,24 a 15.61,15.61 0 0 0 0.9,3.89 5.52,5.52 0 0 0 -1.7,2.71 14.46,14.46 0 0 0 -0.17,5.17 q 0.56,6.1 1.1,12.23 a 18.74,18.74 0 0 1 0.05,4.49 c -0.41,2.69 -1.94,5.05 -2.8,7.63 -0.86,2.58 -0.8,5.87 1.33,7.51 a 5.28,5.28 0 0 0 5.11,0.46 11.89,11.89 0 0 0 4.23,-3.27 c 6.54,-7.24 9.46,-17.05 14.55,-25.42 a 49.15,49.15 0 0 0 3.47,-6.06 c 0.7,-1.62 1.14,-3.34 1.71,-5 a 48.79,48.79 0 0 1 2.8,-6.53 c 0.6,-1.2 2.92,-4.1 2.43,-5.45 -0.83,-2.29 -9.74,-4.33 -11.94,-5 -1.42,-0.46 -3,-0.87 -4.36,-0.2 a 2.87,2.87 0 0 0 -0.59,0.39 c -0.25,-3.28 -0.51,-6.56 -0.76,-9.83 1.32,-0.12 2.63,-0.29 3.93,-0.5 -0.05,-1.85 -0.09,-3.71 -0.13,-5.58 l -0.12,-5.13 c -0.09,-4.15 -0.18,-8.31 -0.29,-12.41 a 66.59,66.59 0 0 0 -0.46,-7.2 c -0.51,-3.66 -1.62,-7.22 -2,-10.89 a 4.12,4.12 0 0 1 1.84,-0.84 v 0 a 12.67,12.67 0 0 1 3.15,-0.11 h 0.83 c 4.58,0.14 9.06,-1.48 13.14,-3.62 4.08,-2.14 7.87001,-4.8 11.93001,-7 0.5,-0.27 1,-0.53 1.53,-0.79 l 0.56,-0.28 0.95,-0.47 0.79,-0.38 0.18,-0.09 c 2.37,-1.13 4.76,-2.23 7,-3.46 a 7.11,7.11 0 0 0 0.5,0.72 4.7,4.7 0 0 0 5,1.8 c -2.8,6.77 -6.1,13.32 -6.94,20.64 -1.22,10.56 3,20.9 7.15,30.66 l 13.23,31.19 c 1.46,3.45 3.41,7.32 7,8.14 2.24,0.51 4.56,-0.34 6.64,-1.33 6,-2.88 11.5,-7 17,-10.88 a 1.84,1.84 0 0 1 0.22,0.17 c 5,3.95 8.15,9.48 11.61,14.75 l 9.28,15.23 a 4.43,4.43 0 0 0 0.37,2.24 13,13 0 0 0 2.6,3.37 43.91,43.91 0 0 1 11.15,22.82 c 0.34,2.16 0.57,4.46 1.84,6.23 2.49,3.45 7.78,3.23 11.52,1.26 a 7.51,7.51 0 0 0 2.88,-2.38 9.53,9.53 0 0 0 1.17,-3.61 50.6,50.6 0 0 0 1.11,-9.57 c 0.03,-6.05 -2.22,-11.86 -3.28,-17.84 z m -53.2,-280.219999 c 0.64,-0.43 1.26,-0.9 1.87,-1.39 a 28.73,28.73 0 0 1 -6,10.2 v 0 c -0.63,0.69 -1.3,1.34 -2,2 0,-0.16 0,-0.32 0,-0.47 -0.08,-1.53 0,-3.14 0.05,-4.72 a 20.22,20.22 0 0 0 6.08,-5.62 z m -52.52,117.349999 c 0,-0.09 0.07,-0.19 0.11,-0.29 a 6.17,6.17 0 0 1 1.35,1.4 5.57,5.57 0 0 0 0.2,5 c 0.78,1.32 2.18,2.54 1.87,4 -0.31,1.46 -2.2,2.09 -3.75,2.34 -2,0.32 -4,0.7 -6,1.11 0,0 0,-0.07 0,-0.11 a 15.46,15.46 0 0 0 -0.68,-4.95 c 3.42,-1.41 5.56,-4.95 6.9,-8.5 z"
       style="fill:url(#a09f8209-a7b7-4999-9a81-8afbf160c3ae)"
       inkscape:connector-curvature="0" />
    <path
       id="path264"
       d="m 1073.9001,14.544501 a 17.65,17.65 0 1 0 -32.7,-11.1400004 17.94,17.94 0 0 0 0.16,5.34 28.36,28.36 0 0 0 -15.95,22.2000004 29.31,29.31 0 0 0 -0.17,4.76 28.37,28.37 0 1 0 52.15,15.48 q 0,-0.67 0,-1.35 a 28.38,28.38 0 0 0 -3.46,-35.29 z"
       style="fill:#2f2e41"
       inkscape:connector-curvature="0" />
    <g
       id="g272"
       style="opacity:0.1"
       transform="translate(199.72004,-17.835499)">
      <path
         id="path266"
         transform="translate(-6,-52.33)"
         d="m 847.41,74.43 0.23,-0.12 c 0,-0.31 -0.09,-0.62 -0.13,-0.93 v 0.19 c -0.07,0.29 -0.08,0.57 -0.1,0.86 z"
         inkscape:connector-curvature="0" />
      <path
         id="path268"
         transform="translate(-6,-52.33)"
         d="m 888,103.31 a 28.24,28.24 0 0 1 -4.39,12.09 q 0,0.67 0,1.35 A 28.37,28.37 0 0 1 827,119 c -0.06,0.76 -0.1,1.53 -0.1,2.31 a 28.38,28.38 0 1 0 56.75,0 q 0,-0.67 0,-1.35 a 28.24,28.24 0 0 0 4.35,-12.04 27.53,27.53 0 0 0 0.1,-5.73 c 0,0.37 -0.02,0.75 -0.1,1.12 z"
         inkscape:connector-curvature="0" />
      <path
         id="path270"
         transform="translate(-6,-52.33)"
         d="m 882.51,73.36 a 17.71,17.71 0 0 1 -2.33,6.75 c 0.49,0.51 1,1 1.42,1.59 a 17.68,17.68 0 0 0 0.93,-3.89 17.9,17.9 0 0 0 -0.02,-4.45 z"
         inkscape:connector-curvature="0" />
    </g>
    <path
       id="path274"
       d="m 959.56009,318.9645 a 12.85,12.85 0 0 0 1.29,4.65 5.11,5.11 0 0 0 3.76,2.75 7.65,7.65 0 0 0 4.15,-1.2 c 2.52,-1.32 5.15,-2.85 6.46,-5.38 1.31,-2.53 1.1,-5.37 0.88,-8.12 l -1.69,-21.63 c -4.09,-0.12 -8.2,-0.11 -12.28,0.11 -4.08,0.22 -4.75,1.17 -4.19,5.12 1.12,7.86 0.57,15.84 1.62,23.7 z"
       style="fill:#fbbebe"
       inkscape:connector-curvature="0" />
    <path
       id="path276"
       d="m 1079.4501,333.5945 9.72,15.71 a 3.92,3.92 0 0 0 2.12,2 3.37,3.37 0 0 0 2,-0.36 c 3.24,-1.41 5.72,-4.11 8.11,-6.72 1.61,-1.78 3.28,-3.65 3.89,-6 a 7.62,7.62 0 0 0 -1.94,-7.16 24.65,24.65 0 0 0 -3.67,-2.62 c -7.69,-5.18 -11.16,-15 -18.74,-20.36 a 3,3 0 0 0 -1.54,-0.66 3.17,3.17 0 0 0 -1.58,0.53 l -10.37,5.69 c -4.49,2.45 -3.07,2.74 0.34,5.39 5.06,3.91 8.19,9.36 11.66,14.56 z"
       style="fill:#fbbebe"
       inkscape:connector-curvature="0" />
    <path
       id="path278"
       d="m 980.66009,306.4545 c -1.42,-0.45 -3,-0.85 -4.36,-0.2 a 4.8,4.8 0 0 0 -2.27,3.59 c -0.27,1.44 -0.24,2.94 -0.64,4.35 -0.68,2.39 -2.49,4.25 -4.24,6 a 6.27,6.27 0 0 1 -2.67,1.85 c -1.4,0.36 -2.89,-0.29 -4.32,0 a 4.67,4.67 0 0 0 -3.4,3.47 13.59,13.59 0 0 0 -0.17,5.09 l 1.1,12.06 a 18.25,18.25 0 0 1 0,4.43 c -0.41,2.65 -1.95,5 -2.8,7.52 -0.85,2.52 -0.81,5.79 1.33,7.41 a 5.37,5.37 0 0 0 5.12,0.45 12,12 0 0 0 4.24,-3.22 c 6.55,-7.14 9.47,-16.82 14.56,-25.06 a 49,49 0 0 0 3.49,-6 c 0.69,-1.61 1.14,-3.3 1.7,-5 a 49.66,49.66 0 0 1 2.81,-6.43 c 0.61,-1.19 2.92,-4 2.44,-5.38 -0.78,-2.23 -9.71,-4.23 -11.92,-4.93 z"
       style="fill:#2f2e41"
       inkscape:connector-curvature="0" />
    <path
       id="path280"
       d="m 1098.7201,339.7145 a 12.46,12.46 0 0 1 -6.88,5.91 6.26,6.26 0 0 0 -2.32,1.21 3.64,3.64 0 0 0 -0.41,4 12.86,12.86 0 0 0 2.61,3.3 43,43 0 0 1 11.17,22.5 c 0.34,2.13 0.57,4.39 1.85,6.14 2.49,3.4 7.79,3.18 11.53,1.24 a 7.46,7.46 0 0 0 2.89,-2.34 9.35,9.35 0 0 0 1.17,-3.56 49.35,49.35 0 0 0 1.11,-9.44 c -0.07,-6 -2.32,-11.73 -3.4,-17.63 -1.53,-8.37 -0.76,-17.39 -4.66,-24.95 a 5.54,5.54 0 0 0 -1.78,-2.24 6.21,6.21 0 0 0 -3.17,-0.71 c -3.52,-0.15 -7.05,-0.18 -10.57,-0.09 -1,0 -2.15,0.14 -2.66,1 -0.51,0.86 -0.06,2 0.4,2.87 2.18,4.26 5.72,7.67 3.12,12.79 z"
       style="fill:#2f2e41"
       inkscape:connector-curvature="0" />
    <path
       id="path282"
       d="m 1015.0901,189.6745 a 5.42,5.42 0 0 0 -1.27,6.86 c 0.78,1.3 2.18,2.5 1.87,4 -0.31,1.5 -2.21,2.06 -3.76,2.31 -13.65001,2.17 -26.94001,6.17 -40.18001,10.15 l -13.89,4.18 c -4,1.21 -8.08,2.45 -11.54,4.8 a 20.75,20.75 0 0 0 -7.26,8.67 c -1.58,3.56 -2.13,7.48 -2.7,11.33 -2.08,14.2 -4.74,28.53 -11.08,41.4 l 33.69,11 a 48.45,48.45 0 0 0 10.09,2.54 37.7,37.7 0 0 0 9.83,-0.47 c -0.21,-7.52 -0.34,-15.27 -0.55,-22.79 a 62.4,62.4 0 0 0 -0.46,-7.11 c -0.5,-3.6 -1.62,-7.11 -2,-10.73 1.55,-1.28 3.81,-1 5.82,-0.91 4.6,0.14 9.09,-1.46 13.17,-3.57 4.08,-2.11 7.89001,-4.73 12.00001,-6.87 6.77,-3.58 14.47,-6 19.64,-11.65 -2.63,10 -8.85,18.78 -10,29.08 -1.15,10.3 3,20.6 7.16,30.23 l 13.26,30.75 c 1.46,3.4 3.41,7.21 7,8 2.25,0.51 4.57,-0.34 6.66,-1.31 12.19,-5.72 22,-16.45 35,-19.89 -1,-6.45 -6.06,-11.78 -8.95,-17.63 -2.43,-4.93 -3.23,-10.48 -4.85,-15.74 -1.62,-5.26 -4.41,-10.58 -9.31,-13.08 -2.32,-1.18 -5.46,-2.21 -5.68,-4.82 a 5.56,5.56 0 0 1 0.52,-2.42 31.72,31.72 0 0 1 7.93,-11.54 3.53,3.53 0 0 0 1,-1.3 3.84,3.84 0 0 0 0.08,-1.55 c -0.25,-4.19 2,-8.11 4.5,-11.47 2.5,-3.36 5.39,-6.57 6.8,-10.52 2.42,-6.8 0,-14.26 -2.38,-21.06 -1,-2.75 -2,-5.59 -4,-7.72 -3.12,-3.34 -8,-4.3 -12.53,-4.8 -14.72,-1.57 -32,-5.42 -43.63,3.65 z"
       style="fill:#2f2e41"
       inkscape:connector-curvature="0" />
    <g
       id="g294"
       style="opacity:0.1"
       transform="translate(199.72004,-17.835499)">
      <path
         id="path284"
         transform="translate(-6,-52.33)"
         d="m 877.06,289.59 c -2.51,3.37 -4.75,7.28 -4.5,11.47 a 3.84,3.84 0 0 1 -0.08,1.55 3.56,3.56 0 0 1 -1,1.31 31.64,31.64 0 0 0 -7.93,11.54 5.53,5.53 0 0 0 -0.52,2.42 c 0.14,1.63 1.43,2.65 3,3.47 a 31.6,31.6 0 0 1 5.5,-6.7 3.53,3.53 0 0 0 1,-1.3 3.84,3.84 0 0 0 0.08,-1.55 c -0.25,-4.19 2,-8.11 4.5,-11.47 2.5,-3.36 5.39,-6.57 6.8,-10.52 a 21.94,21.94 0 0 0 0.36,-11.9 c -0.11,0.39 -0.23,0.78 -0.36,1.16 -1.46,3.93 -4.35,7.15 -6.85,10.52 z"
         inkscape:connector-curvature="0" />
      <path
         id="path286"
         transform="translate(-6,-52.33)"
         d="M 819.84,261.87 A 2.83,2.83 0 0 0 822,260 a 1.9,1.9 0 0 0 0,-0.58 c -0.21,0.16 -0.42,0.3 -0.63,0.47 a 5,5 0 0 0 -1.53,1.98 z"
         inkscape:connector-curvature="0" />
      <path
         id="path288"
         transform="translate(-6,-52.33)"
         d="m 775.34,356.37 a 49.73,49.73 0 0 1 -10.09,-2.54 l -29.74,-9.75 a 88.36,88.36 0 0 1 -4,9.44 l 33.69,11 a 48.45,48.45 0 0 0 10.09,2.54 37.7,37.7 0 0 0 9.83,-0.47 c -0.1,-3.53 -0.18,-7.12 -0.26,-10.7 a 37,37 0 0 1 -9.52,0.48 z"
         inkscape:connector-curvature="0" />
      <path
         id="path290"
         transform="translate(-6,-52.33)"
         d="m 856.81,389 c -2.09,1 -4.41,1.82 -6.66,1.32 -3.6,-0.81 -5.55,-4.63 -7,-8 l -13.26,-30.75 c -2.91,-6.76 -5.86,-13.8 -6.94,-21 -0.08,0.51 -0.16,1 -0.22,1.52 -1.22,10.41 3,20.6 7.16,30.23 l 13.26,30.75 c 1.46,3.4 3.41,7.21 7,8 2.25,0.51 4.57,-0.34 6.66,-1.31 12.19,-5.72 22,-16.45 35,-19.89 -0.5,-3.36 -2.14,-6.42 -4,-9.41 -11.12,4.33 -20.09,13.46 -31,18.54 z"
         inkscape:connector-curvature="0" />
      <path
         id="path292"
         transform="translate(-6,-52.33)"
         d="m 832.77,292.27 c -5.17,5.65 -12.87,8.06 -19.64,11.64 -4.06,2.15 -7.86,4.77 -12,6.88 -4.14,2.11 -8.57,3.7 -13.17,3.57 -2,-0.06 -4.27,-0.38 -5.82,0.9 0.32,3.35 1.29,6.59 1.84,9.91 a 17.61,17.61 0 0 1 4,-0.08 c 4.6,0.14 9.09,-1.46 13.17,-3.57 4.08,-2.11 7.89,-4.73 12,-6.87 4.46,-2.36 9.32,-4.22 13.6,-6.82 2.14,-5.11 4.6,-10.15 6.02,-15.56 z"
         inkscape:connector-curvature="0" />
    </g>
    <path
       id="path296"
       d="m 1038.3101,83.224499 c 0.17,3.35 -0.84,6.94 -3.42,9.09 -0.83,0.69 -1.79,1.22 -2.59,1.94 a 7,7 0 0 0 1,10.610001 c 2.67,1.64 6.08,1.2 9.17,0.66 a 53.89,53.89 0 0 0 12,-3.14 20,20 0 0 0 9.5,-7.780001 c -3.37,-1.87 -5.2,-5.82 -5.41,-9.66 -0.21,-3.839998 0.85,-8.229998 -1.59,-11.219998 -2.44,-2.99 -6.7,-2.89 -10.25,-1.89 -1.8,0.5 -3.54,1.18 -5.34,1.67 -0.91,0.24 -3.93,0.25 -4.52,0.92 -1.14,1.24 1.34,6.85 1.45,8.799998 z"
       style="fill:#fbbebe"
       inkscape:connector-curvature="0" />
    <path
       id="path298"
       d="m 1038.3101,83.224499 c 0.17,3.35 -0.84,6.94 -3.42,9.09 -0.83,0.69 -1.79,1.22 -2.59,1.94 a 7,7 0 0 0 1,10.610001 c 2.67,1.64 6.08,1.2 9.17,0.66 a 53.89,53.89 0 0 0 12,-3.14 20,20 0 0 0 9.5,-7.780001 c -3.37,-1.87 -5.2,-5.82 -5.41,-9.66 -0.21,-3.839998 0.85,-8.229998 -1.59,-11.219998 -2.44,-2.99 -6.7,-2.89 -10.25,-1.89 -1.8,0.5 -3.54,1.18 -5.34,1.67 -0.91,0.24 -3.93,0.25 -4.52,0.92 -1.14,1.24 1.34,6.85 1.45,8.799998 z"
       style="opacity:0.1"
       inkscape:connector-curvature="0" />
    <circle
       id="circle300"
       r="19.940001"
       cy="63.064503"
       cx="1048.63"
       style="fill:#fbbebe" />
    <path
       id="path302"
       d="m 985.72009,216.0445 a 13.5,13.5 0 0 1 -1.88,4.43 20.83,20.83 0 0 0 -2.38,13.61 14.39,14.39 0 0 0 8.39,10.59 c 1.86,0.74 4.17,0.93 5.71,-0.36 -2.66,-3.46 -2.8,-8.19 -2.64,-12.56 a 4.14,4.14 0 0 1 0.56,-2.33 1.46,1.46 0 0 1 2.1,-0.38 19,19 0 0 0 1.56,8 c 0.42,1 1.14,2 2.2,2 1.52001,0 1.93001,-2.1 1.87001,-3.62 -0.23,-6.18 -0.54,-12.62 -3.52001,-18.05 -1.09,-2 -2.54,-3.84 -3,-6.07 a 3.6,3.6 0 0 0 -0.76,-2.13 2.68,2.68 0 0 0 -1.12,-0.52 c -1.72,-0.49 -5.78,-2 -7.2,-0.39 -1.42,1.61 0.34,5.72 0.11,7.78 z"
       style="fill:#fbbebe"
       inkscape:connector-curvature="0" />
    <path
       id="path304"
       d="m 1015.2801,110.1045 c -2.28,-0.25 -4.09,1.84 -5.34,3.77 a 72.87,72.87 0 0 0 -9.93,23.53 c -1.00001,4.27 -1.57001,8.7 -3.60001,12.58 a 13.12,13.12 0 0 0 -1.17,2.56 25.75,25.75 0 0 0 -0.18,4.13 c -0.21,2.49 -1.68,4.7 -2.18,7.16 -0.29,1.46 -0.23,3 -0.49,4.44 -0.46,2.57 -1.87,4.85 -2.78,7.3 -1.59,4.31 -1.57,9 -2.74,13.49 a 4.66,4.66 0 0 1 -0.93,2 c -0.79,0.87 -2.06,1.09 -3.1,1.64 a 6.73,6.73 0 0 0 -3.11,4.6 20.21,20.21 0 0 0 -0.11,5.71 l 0.92,11.79 c 0.94,-0.39 1.56,-1.46 2.35,-2.12 1.44,-1.2 3.56,-0.93 5.4,-0.59 l 2.69,0.48 c 2.75,0.5 5.74,1.14 7.5,3.3 1.4,-2.19 0.6,-5.42 2.75001,-6.88 0.71,-0.47 1.57,-0.63 2.31,-1 a 5.18,5.18 0 0 0 2.35,-4.14 15.14,15.14 0 0 0 -0.68,-4.89 c 3.45,-1.45 5.6,-4.95 7,-8.44 a 70.68,70.68 0 0 0 3.21,-13 c 3.11,-17.53 6,-35.18 6.25,-53 a 25.43,25.43 0 0 0 -1,-8.83 c -1.01,-2.86 -2.43,-5.25 -5.39,-5.59 z"
       style="fill:#ffa200;fill-opacity:1"
       inkscape:connector-curvature="0" />
    <path
       id="path306"
       d="m 1016.0577,109.3245 c -2.28,-0.25 -4.09,1.84 -5.34,3.77 a 72.87,72.87 0 0 0 -9.9299,23.53 c -1.00002,4.27 -1.57002,8.7 -3.60002,12.58 a 13.12,13.12 0 0 0 -1.17,2.56 25.75,25.75 0 0 0 -0.18,4.13 c -0.21,2.49 -1.68,4.7 -2.18,7.16 -0.29,1.46 -0.23,3 -0.49,4.44 -0.46,2.57 -1.87,4.85 -2.78,7.3 -1.59,4.31 -1.57,9 -2.74,13.49 a 4.66,4.66 0 0 1 -0.93,2 c -0.79,0.87 -2.06,1.09 -3.1,1.64 a 6.73,6.73 0 0 0 -3.11,4.6 20.21,20.21 0 0 0 -0.11,5.71 l 0.92,11.79 c 0.94,-0.39 1.56,-1.46 2.35,-2.12 1.44,-1.2 3.56,-0.93 5.4,-0.59 l 2.69,0.48 c 2.75,0.5 5.74,1.14 7.5,3.3 1.40002,-2.19 0.6,-5.42 2.75002,-6.88 0.71,-0.47 1.5699,-0.63 2.3099,-1 a 5.18,5.18 0 0 0 2.35,-4.14 15.14,15.14 0 0 0 -0.68,-4.89 c 3.45,-1.45 5.6,-4.95 7,-8.44 a 70.68,70.68 0 0 0 3.21,-13 c 3.11,-17.53 6,-35.18 6.25,-53 a 25.43,25.43 0 0 0 -1,-8.83 c -1.01,-2.86 -2.43,-5.25 -5.39,-5.59 z"
       style="opacity:0.2932002;fill:#333333;fill-opacity:1"
       inkscape:connector-curvature="0" />
    <path
       id="path308"
       d="m 1065.5501,91.024499 a 25.08,25.08 0 0 1 -12.13,7 74.45,74.45 0 0 1 -14,2.070001 8.71,8.71 0 0 1 -4.34,-0.380001 c -1.34,-0.6 -2.36,-2.19 -1.81,-3.55 a 3.93,3.93 0 0 0 0.45,-1.33 c 0,-1.21 -1.81,-1.31 -3,-0.95 -7.68,2.37 -15,7.070001 -18.58,14.280001 -2,4.08 -2.66,8.66 -3.3,13.15 -1.66,11.82 -3.33,23.9 -1.09,35.62 1.19,6.25 3.49,12.35 3.63,18.71 0.08,3.57 -0.52,7.12 -0.49,10.69 a 5.36,5.36 0 0 0 0.94,3.52 c 0.55,0.64 1.39,1.05 1.77,1.8 0.64,1.26 -0.22,3 0.63,4.13 1,1.39 3.23,0.39 4.66,-0.59 a 37.11,37.11 0 0 1 24.68,-6.22 c 10.45,1.13 20.83,6.69 31,3.91 a 14,14 0 0 1 -1.35,-2.41 c -5,-16.61 -4.71,-35.17 2.85,-50.79 2.59,-5.34 6,-10.43 7,-16.27 a 30.87,30.87 0 0 0 0.1,-8.26 c -0.53,-5.31 -1.8,-10.66 -4.68,-15.15 -2.88,-4.490001 -7.63,-8.460001 -12.94,-8.980001 z"
       style="fill:#ffa200;fill-opacity:1"
       inkscape:connector-curvature="0" />
    <path
       id="path310"
       d="m 1017.3101,221.1745 a 18.37,18.37 0 0 0 -1.15,6.79 39.71,39.71 0 0 0 0.33,6.63 10.53,10.53 0 0 0 1.94,5.2 4.75,4.75 0 0 0 5,1.77 5.21,5.21 0 0 0 3,-3.34 30.23,30.23 0 0 0 0.94,-4.54 c 0.88,-4.53 3.25,-8.78 3.3,-13.39 a 3.8,3.8 0 0 0 -0.26,-1.6 c -0.86,-1.9 -5.1,-4 -7.17,-3.7 -2.6,0.4 -4.99,4 -5.93,6.18 z"
       style="fill:#fbbebe"
       inkscape:connector-curvature="0" />
    <path
       id="path312"
       d="m 1074.8501,107.8345 c -0.39,4 3.44,6.95 5,10.64 a 17.89,17.89 0 0 1 1,5.35 c 1.07,12.67 0.24,25.42 -0.59,38.12 a 71.53,71.53 0 0 1 -1.54,12.58 c -2.14,8.68 -7.41,16.19 -12.57,23.49 a 20.33,20.33 0 0 1 -2.69,3.29 20.12,20.12 0 0 1 -5,3 l -17.74,8.63 a 34.12,34.12 0 0 0 -6.29,3.62 17.16,17.16 0 0 0 -5.21,6.77 c -3.43,-1.75 -7,-3.33 -10.43,-5.08 -0.81,-0.41 -1.71,-1 -1.84,-1.84 -0.19,-1.2 1.06,-2 1.92,-2.9 1.61,-1.59 2.11,-3.95 3,-6 2.85,-6.84 10,-11.21 12.6,-18.15 1,-2.66 1.3,-5.67 3.06,-7.91 a 19.66,19.66 0 0 1 3.38,-3 57.09,57.09 0 0 0 7.48,-7.67 13,13 0 0 0 2.45,-3.58 c 0.78,-2 0.55,-4.17 0.59,-6.28 0.13,-6.92 3.26,-13.38 5.18,-20 1.8,-6.26 2.55,-12.84 4.92,-18.91 2.37,-6.07 7.01,-12.52 13.32,-14.17 z"
       style="opacity:0.1"
       inkscape:connector-curvature="0" />
    <path
       id="path314"
       d="m 1077.1501,107.8345 c -0.39,4 3.44,6.95 5,10.64 a 17.89,17.89 0 0 1 1,5.35 c 1.07,12.67 0.24,25.42 -0.59,38.12 a 71.53,71.53 0 0 1 -1.56,12.56 c -2.14,8.68 -7.41,16.19 -12.57,23.49 a 20.33,20.33 0 0 1 -2.69,3.29 20.12,20.12 0 0 1 -5,3 l -17.7,8.58 a 34.12,34.12 0 0 0 -6.29,3.62 17.16,17.16 0 0 0 -5.21,6.77 c -3.43,-1.75 -7,-3.33 -10.43,-5.08 -0.81,-0.41 -1.71,-1 -1.84,-1.84 -0.19,-1.2 1.06,-2 1.92,-2.9 1.61,-1.59 2.11,-3.95 3,-6 2.85,-6.84 10,-11.21 12.6,-18.15 1,-2.66 1.3,-5.67 3.06,-7.91 a 19.66,19.66 0 0 1 3.38,-3 57.78,57.78 0 0 0 7.49,-7.67 12.92,12.92 0 0 0 2.44,-3.58 c 0.78,-2 0.55,-4.17 0.59,-6.28 0.13,-6.92 3.26,-13.38 5.18,-20 1.8,-6.26 2.55,-12.84 4.92,-18.91 2.37,-6.07 6.99,-12.45 13.3,-14.1 z"
       style="fill:#ffa200;fill-opacity:1"
       inkscape:connector-curvature="0" />
    <path
       id="path316"
       d="m 1058.5201,32.254501 a 28.16,28.16 0 0 0 -17.7,3.66 c 0.78,0 1.57,0.08 2.37,0.18 a 28.37,28.37 0 0 1 10.9,52.669998 28.37,28.37 0 0 0 4.43,-56.509998 z"
       style="fill:#2f2e41"
       inkscape:connector-curvature="0" />
    <path
       id="path318"
       d="m 1067.2501,48.024501 a 13,13 0 0 1 0.22,9.94 11.12,11.12 0 0 0 -0.46,-1.21 c -3.51,-7.81 -14.31,-11 -24.13,-7.22 -5.79,2.25 -9.94,6.45 -11.66,11.11 -2.5,-7.54 2.58,-16.21 11.9,-19.83 9.82,-3.82 20.6,-0.59 24.13,7.21 z"
       style="fill:#2f2e41"
       inkscape:connector-curvature="0" />
    <g
       id="g328"
       style="opacity:0.1"
       transform="translate(199.72004,-17.835499)">
      <path
         id="path320"
         transform="translate(-6,-52.33)"
         d="m 873.58,127.51 a 28.41,28.41 0 0 0 -19,-24.48 28.55,28.55 0 0 0 -7.52,3 c 0.78,0 1.57,0.08 2.37,0.18 a 28.37,28.37 0 0 1 24.15,21.3 z"
         inkscape:connector-curvature="0" />
      <path
         id="path322"
         transform="translate(-6,-52.33)"
         d="m 878.18,106.8 a 28.38,28.38 0 0 0 -19,-24.47 27.89,27.89 0 0 0 -7.52,3 c 0.78,0 1.57,0.08 2.37,0.18 a 28.36,28.36 0 0 1 24.15,21.29 z"
         inkscape:connector-curvature="0" />
      <path
         id="path324"
         transform="translate(-6,-52.33)"
         d="M 878.3,75.88 A 17.14,17.14 0 0 0 866.86,61.1 16.87,16.87 0 0 0 862.32,63 c 0.47,0 0.95,0 1.43,0.1 a 17.13,17.13 0 0 1 14.55,12.78 z"
         inkscape:connector-curvature="0" />
      <path
         id="path326"
         transform="translate(-6,-52.33)"
         d="m 888.91,123.66 a 28.36,28.36 0 0 1 -22,30 28.33,28.33 0 0 1 -6.56,5.29 28.35,28.35 0 0 0 28.54,-35.27 z"
         inkscape:connector-curvature="0" />
    </g>
  </g>
  <g
     transform="translate(-75.991856,-32.471462)"
     id="g977">
    <path
       id="path22"
       transform="translate(-247,-162)"
       d="m 617,317 c 0,0 1,26 -5,32 -6,6 30,27 30,27 l 21,-33 c 0,0 -8,-14 -6,-26 z"
       inkscape:connector-curvature="0"
       style="fill:#a0616a" />
    <polygon
       id="polygon24"
       points="336.5,710.5 334.5,683.5 305.5,683.5 305.5,708.5 "
       style="fill:#a0616a" />
    <polygon
       id="polygon26"
       points="444.5,710.5 446.5,683.5 475.5,683.5 475.5,708.5 "
       style="fill:#a0616a" />
    <path
       id="path28"
       transform="translate(-247,-162)"
       d="m 568.5,568.5 c 0,0 -16,58 -6,104 0,0 0,20 4,24 4,4 5,4 2,6 -3,2 -9,7 -6,10 3,3 4,7 2,8 -2,1 -4,3 -2,7 2,4 -10,111 -10,111 0,0 -12,13 0,14 12,1 32,6 34,-2 2,-8 18,-121 18,-121 0,0 2,-3 6,-8 4,-5 2,-7 2,-8 0,-1 21,-96 21,-96 0,0 31,108 34,110 3,2 4,2 4,5 0,3 -2,5 0,8 a 51.953,51.953 0 0 1 3,5 c 0,0 5,112 15,112 10,0 40,-2 37,-11 -3,-9 -7,-7 -7,-7 0,0 7,-92 -10,-119 v -22 c 0,-2 1,-3 0,-5 -1,-2 3,-121 -16,-128 -19,-7 -125,3 -125,3 z"
       inkscape:connector-curvature="0"
       style="fill:#d0cde1" />
    <path
       id="path30"
       transform="translate(-247,-162)"
       d="m 571.5,863.5 c 0,0 -5,-8 -12,-8 -7,0 -12,8 -12,8 l -18,25 c 0,0 -26,16 -16,25 10,9 37,4 37,4 0,0 22,-16 25,-17 3,-1 11,-6 12,-7 1,-1 -2,-37 -5,-34.5 -3,2.5 -5,10.5 -11,4.5 z"
       inkscape:connector-curvature="0"
       style="fill:#2f2e41" />
    <path
       id="path32"
       transform="translate(-247,-162)"
       d="m 703.5,863.5 c 0,0 5,-8 12,-8 7,0 12,8 12,8 l 18,25 c 0,0 26,16 16,25 -10,9 -37,4 -37,4 0,0 -22,-16 -25,-17 -3,-1 -11,-6 -12,-7 -1,-1 2,-37 5,-34.5 3,2.5 5,10.5 11,4.5 z"
       inkscape:connector-curvature="0"
       style="fill:#2f2e41" />
    <circle
       id="circle34"
       r="36"
       cy="133.5"
       cx="387.5"
       style="fill:#a0616a" />
    <path
       id="path36"
       transform="translate(-247,-162)"
       d="m 625,352 c 0,0 -6.72751,0.37087 -9.86376,-9.81457 L 562,381 l 22,59 c 0,0 3,32 0,41 -3,9 -5,16 -5,20 0,4 -21,71 -13,74 8,3 130,15 133,-5 3,-20 -10,-152 -10,-152 l 21,-51 -51.05491,-33.39657 C 658.94509,333.60343 654,354 625,352 Z"
       inkscape:connector-curvature="0"
       style="fill:#3f3d56" />
    <path
       id="path38"
       transform="translate(-247,-162)"
       d="m 558.5,444.5 -4,31 c 0,0 -16,33 -12,77 l -1,29 c 0,0 -10,50 10,52 20,2 7,-55 7,-55 l 11,-27 11.26029,-60.06194 L 586.5,449.5 Z"
       inkscape:connector-curvature="0"
       style="fill:#a0616a" />
    <path
       id="path40"
       transform="translate(-247,-162)"
       d="M 576.5,379.5 562,381 c 0,0 -9.5,70.5 -6.5,70.5 3,0 37,8 38,6 1,-2 -17,-78 -17,-78 z"
       inkscape:connector-curvature="0"
       style="fill:#3f3d56" />
    <path
       id="path42"
       transform="translate(-247,-162)"
       d="m 606.7236,258.59754 -6.48961,-2.35987 c 0,0 13.56911,-13.5691 32.448,-12.38912 l -5.3098,-5.30972 c 0,0 12.9792,-4.71963 24.77842,7.66949 6.20262,6.51271 13.37914,14.168 17.853,22.79168 h 6.9499 l -2.90063,5.80127 10.15222,5.80126 -10.42026,-1.04206 a 29.27363,29.27363 0 0 1 -0.98558,15.02464 l -2.35978,6.48952 c 0,0 -9.43948,-18.87873 -9.43948,-21.23863 v 5.89961 c 0,0 -6.4896,-5.30963 -6.4896,-8.84938 l -3.53975,4.12974 -1.76988,-6.4896 -21.82857,6.48963 3.53975,-5.30962 -13.5691,1.76987 5.3098,-6.4896 c 0,0 -15.339,7.66949 -15.929,14.15909 -0.5899,6.48951 -8.2593,14.749 -8.2593,14.749 l -3.53975,-5.89961 c 0,0 -5.30986,-26.54822 11.799,-35.39759 z"
       inkscape:connector-curvature="0"
       style="fill:#2f2e41" />
    <path
       id="path54"
       transform="translate(-247,-162)"
       d="m 724.5,433.5 v 41 c 0,0 1,50 -16,81 l -9,20 c 0,0 -18,58 -29,40 -11,-18 12,-48 12,-48 L 695.51614,491.38044 687.5,440.5 Z"
       inkscape:connector-curvature="0"
       style="fill:#a0616a" />
    <path
       id="path56"
       transform="translate(-247,-162)"
       d="M 690.5,364.5 710,367 c 0,0 23.5,71.5 17.5,74.5 -6,3 -45,5 -45,5 z"
       inkscape:connector-curvature="0"
       style="fill:#3f3d56" />
  </g>
  <g
     id="g1076"
     transform="matrix(1.271584,0,0,1.271584,263.1989,192.66633)">
    <g
       transform="translate(-10.076211,-8.721249)"
       style="display:inline"
       inkscape:label="durr"
       id="layer8">
      <g
         inkscape:export-ydpi="299.96201"
         inkscape:export-xdpi="299.96201"
         id="flowRoot4504-8-4-7"
         style="font-style:normal;font-variant:normal;font-weight:bold;font-stretch:normal;font-size:20px;line-height:25px;font-family:Arial;-inkscape-font-specification:'Arial, Bold';text-align:start;letter-spacing:0px;word-spacing:0px;writing-mode:lr-tb;text-anchor:start;display:inline;opacity:1;fill:#000000;fill-opacity:1;stroke:none;stroke-width:1px;stroke-linecap:butt;stroke-linejoin:miter;stroke-opacity:1"
         transform="matrix(0.26458333,0,0,0.26458333,23.911751,-45.388537)"
         aria-label="lad">
        <path
           sodipodi:nodetypes="cscsccscscc"
           inkscape:connector-curvature="0"
           id="path4584-3-7"
           style="font-style:normal;font-variant:normal;font-weight:bold;font-stretch:normal;font-size:96px;font-family:'Montserrat Alternates';-inkscape-font-specification:'Montserrat Alternates Bold';fill:#ffa200;fill-opacity:1"
           d="m 95.601062,269.44343 -0.0011,38.5225 c -5.7e-5,1.984 0.513084,3.552 1.537084,4.704 1.024,1.088 2.240001,1.632 3.648004,1.632 2.688,0 3.65097,0.033 6.816,0.0205 l 0.0103,12.55209 c -5.1871,0.009 -3.85034,0.003 -8.842344,0.003 -4.928,0 -9.12,-1.632 -12.576,-4.896 -3.392,-3.264 -5.088,-7.712 -5.088,-13.344 v -39.1945 z" />
      </g>
      <path
         sodipodi:nodetypes="ssscscccccccsscscscsss"
         inkscape:export-ydpi="299.96201"
         inkscape:export-xdpi="299.96201"
         id="path4588-1-6"
         style="font-style:normal;font-variant:normal;font-weight:bold;font-stretch:normal;font-size:96px;line-height:25px;font-family:'Montserrat Alternates';-inkscape-font-specification:'Montserrat Alternates Bold';text-align:start;letter-spacing:0px;word-spacing:0px;writing-mode:lr-tb;text-anchor:start;opacity:1;fill:#ffa200;fill-opacity:1;stroke:none;stroke-width:0.26458332px;stroke-linecap:butt;stroke-linejoin:miter;stroke-opacity:1"
         d="m 75.669676,41.098735 c -1.608667,0 -3.048,-0.6858 -4.318,-2.0574 -1.27,-1.3716 -1.905,-3.0734 -1.905,-5.105399 0,-2.032 0.618067,-3.691467 1.8542,-4.9784 1.236133,-1.303867 2.683933,-1.9558 4.3434,-1.9558 1.659469,0 3.014136,0.5842 4.064003,1.7526 l 1.77e-4,-5.64119 1.905,-1.700293 1.905,1.700293 -1.77e-4,17.782389 h -3.81 v -1.8034 c -1.0668,1.337733 -2.413001,2.0066 -4.038603,2.0066 z m -2.3876,-7.010399 c 0,1.100666 0.3302,2.006599 0.9906,2.717799 0.6604,0.694267 1.430867,1.0414 2.3114,1.0414 0.880535,0 1.625603,-0.347133 2.235203,-1.0414 0.626533,-0.7112 0.9398,-1.617133 0.9398,-2.717799 0,-1.1176 -0.313267,-2.040467 -0.9398,-2.7686 -0.6096,-0.745067 -1.363134,-1.1176 -2.260603,-1.1176 -0.897467,0 -1.667933,0.372533 -2.3114,1.1176 -0.643467,0.745067 -0.9652,1.667933 -0.9652,2.7686 z"
         inkscape:connector-curvature="0" />
      <g
         inkscape:export-ydpi="299.96201"
         inkscape:export-xdpi="299.96201"
         id="flowRoot4504-6-7"
         style="font-style:normal;font-variant:normal;font-weight:bold;font-stretch:normal;font-size:20px;line-height:25px;font-family:Arial;-inkscape-font-specification:'Arial, Bold';text-align:start;letter-spacing:0px;word-spacing:0px;writing-mode:lr-tb;text-anchor:start;opacity:1;fill:#ffffff;fill-opacity:1;stroke:none;stroke-width:1px;stroke-linecap:butt;stroke-linejoin:miter;stroke-opacity:1"
         transform="matrix(0.26458333,0,0,0.26458333,-10.022048,-59.473525)"
         aria-label="data">
        <path
           inkscape:connector-curvature="0"
           id="path4612-4-3"
           style="font-style:normal;font-variant:normal;font-weight:bold;font-stretch:normal;font-size:96px;font-family:'Montserrat Alternates';-inkscape-font-specification:'Montserrat Alternates Bold';fill:#ffffff;fill-opacity:1"
           d="m 171.53287,326.87793 q -9.888,0 -17.28,-7.392 -7.392,-7.392 -7.392,-19.392 0,-12.096 7.584,-19.296 7.584,-7.2 17.568,-7.2 7.776,0 13.536,5.184 v -4.32 h 14.496 v 51.648 h -14.496 v -4.224 q -6.144,4.992 -14.016,4.992 z m -10.176,-26.496 q 0,6.336 3.744,10.368 3.744,3.936 8.736,3.936 4.992,0 8.448,-3.936 3.456,-4.032 3.456,-10.272 0,-6.336 -3.456,-10.56 -3.456,-4.224 -8.544,-4.224 -5.088,0 -8.736,4.224 -3.648,4.128 -3.648,10.464 z" />
        <path
           sodipodi:nodetypes="sssssccccccsscscssscs"
           inkscape:connector-curvature="0"
           id="path4616-0-6"
           style="font-style:normal;font-variant:normal;font-weight:bold;font-stretch:normal;font-size:96px;font-family:'Montserrat Alternates';-inkscape-font-specification:'Montserrat Alternates Bold';fill:#ffffff;fill-opacity:1"
           d="m 264.91341,326.87793 c -6.592,0 -12.352,-2.464 -17.28,-7.392 -4.928,-4.928 -7.392,-11.392 -7.392,-19.392 0,-8.064 2.528,-14.496 7.584,-19.296 5.056,-4.8 10.912,-7.2 17.568,-7.2 5.184,0 9.696,1.728 13.536,5.184 v -4.32 h 14.496 v 52.44075 h -14.496 v -5.01675 c -4.096,3.328 -8.768,4.992 -14.016,4.992 z m -10.176,-26.496 c 0,4.224 1.248,7.68 3.744,10.368 2.496,2.624 5.408,3.936 8.736,3.936 3.328,0 6.144,-1.312 8.448,-3.936 2.304,-2.688 3.456,-6.112 3.456,-10.272 0,-4.224 -1.152,-7.744 -3.456,-10.56 -2.304,-2.816 -5.152,-4.224 -8.544,-4.224 -3.392,0 -6.304,1.408 -8.736,4.224 -2.432,2.752 -3.648,6.24 -3.648,10.464 z" />
        <path
           sodipodi:nodetypes="cccccccccccc"
           inkscape:connector-curvature="0"
           id="path4614-2-5"
           style="font-style:normal;font-variant:normal;font-weight:bold;font-stretch:normal;font-size:96px;font-family:'Montserrat Alternates';-inkscape-font-specification:'Montserrat Alternates Bold';fill:#ffffff;fill-opacity:1"
           d="m 209.3575,326.42845 4e-5,-17.79057 -7.6e-4,-49.632 14.49624,-10e-6 v 15.456 h 12.48 v 11.232 h -12.48 l -10e-4,22.272 -3e-5,15.24998 -7.24725,6.42519 -7.24724,-6.42519" />
      </g>
      <path
         inkscape:export-ydpi="299.96201"
         inkscape:export-xdpi="299.96201"
         sodipodi:nodetypes="cccsccssscccccsccsc"
         inkscape:connector-curvature="0"
         id="path1711-6-2-1-6"
         d="m 17.452682,8.7212544 -1.906485,1.9064846 1.940098,1.940098 h 0.282821 c 0.946542,0 1.789879,0.223753 2.529901,0.671209 0.740024,0.430247 1.316456,1.041043 1.729492,1.832696 0.430247,0.791651 0.645475,1.703714 0.645475,2.736304 0,1.015381 -0.197915,1.918919 -0.593741,2.710572 -0.395827,0.791653 -0.946686,1.40271 -1.652289,1.832957 -0.252626,0.154039 -0.518946,0.279256 -0.798045,0.378146 0.194754,0.207133 1.7463,1.536742 1.7463,1.536742 l -1.241054,2.325074 c 0.957959,-0.187072 1.84731,-0.490146 2.667767,-0.909914 1.497255,-0.757234 2.650383,-1.824061 3.459245,-3.200848 0.826073,-1.376788 1.239217,-2.951585 1.239217,-4.724198 0,-1.772614 -0.404618,-3.338623 -1.21348,-4.6982 C 25.479041,11.68159 24.343225,10.614499 22.880388,9.8572668 21.434762,9.1000353 19.765401,8.7212544 17.872319,8.7212544 Z"
         style="font-style:normal;font-variant:normal;font-weight:bold;font-stretch:normal;font-size:192px;line-height:25px;font-family:Montserrat;-inkscape-font-specification:'Montserrat Bold';text-align:start;letter-spacing:0px;word-spacing:0px;writing-mode:lr-tb;text-anchor:start;fill:#ffffff;fill-opacity:1;stroke:none;stroke-width:0.13445187px;stroke-linecap:butt;stroke-linejoin:miter;stroke-opacity:1" />
      <path
         inkscape:export-ydpi="299.96201"
         inkscape:export-xdpi="299.96201"
         sodipodi:nodetypes="ssssscccccccsscscssscs"
         id="path4586-7-3"
         style="font-style:normal;font-variant:normal;font-weight:bold;font-stretch:normal;font-size:96px;line-height:25px;font-family:'Montserrat Alternates';-inkscape-font-specification:'Montserrat Alternates Bold';text-align:start;letter-spacing:0px;word-spacing:0px;writing-mode:lr-tb;text-anchor:start;opacity:1;fill:#ffa200;fill-opacity:1;stroke:none;stroke-width:0.26458332px;stroke-linecap:butt;stroke-linejoin:miter;stroke-opacity:1"
         d="m 60.069768,41.098735 c -1.744133,0 -3.268133,-0.651933 -4.572,-1.9558 -1.303866,-1.303867 -1.9558,-3.014133 -1.9558,-5.130799 0,-2.1336 0.668867,-3.8354 2.0066,-5.1054 1.337734,-1.27 2.887134,-1.905 4.6482,-1.905 1.3716,0 2.5654,0.4572 3.5814,1.3716 l 2.88e-4,-1.35286 1.9175,-1.700476 1.9175,1.700476 1.12e-4,13.875059 h -3.8354 v -1.1176 c -1.083733,0.880531 -2.319866,1.3208 -3.7084,1.3208 z m -2.6924,-7.010399 c 0,1.117599 0.3302,2.031999 0.9906,2.743199 0.6604,0.694267 1.430867,1.0414 2.3114,1.0414 0.880534,0 1.6256,-0.347133 2.2352,-1.0414 0.6096,-0.7112 0.9144,-1.617133 0.9144,-2.717799 0,-1.1176 -0.3048,-2.048933 -0.9144,-2.794 -0.6096,-0.745067 -1.363133,-1.1176 -2.2606,-1.1176 -0.897466,0 -1.667933,0.372533 -2.3114,1.1176 -0.643466,0.728133 -0.9652,1.651 -0.9652,2.7686 z"
         inkscape:connector-curvature="0" />
      <path
         sodipodi:nodetypes="ccccccc"
         inkscape:connector-curvature="0"
         id="rect2037-9"
         d="m 79.708456,20.517949 1.905,-1.7 1.905,1.7 V 22.218 l -1.905,-1.700015 -1.905,1.700015 z"
         style="opacity:1;fill:#ffa200;fill-opacity:1;fill-rule:evenodd;stroke:none;stroke-width:1.05833328;stroke-linecap:butt;stroke-linejoin:miter;stroke-miterlimit:4;stroke-dasharray:none;stroke-opacity:0" />
      <path
         sodipodi:nodetypes="ccccccc"
         inkscape:connector-curvature="0"
         id="rect2037-6-4"
         d="m 79.708456,17.927898 1.905,-1.7 1.905,1.7 v 1.700051 l -1.905,-1.700015 -1.905,1.700015 z"
         style="display:inline;opacity:1;fill:#ffa200;fill-opacity:1;fill-rule:evenodd;stroke:none;stroke-width:1.05833328;stroke-linecap:butt;stroke-linejoin:miter;stroke-miterlimit:4;stroke-dasharray:none;stroke-opacity:0" />
    </g>
    <g
       transform="translate(-10.076211,-8.721249)"
       inkscape:label="L"
       id="layer9">
      <path
         inkscape:export-ydpi="299.96201"
         inkscape:export-xdpi="299.96201"
         sodipodi:nodetypes="cczcccccccccc"
         inkscape:connector-curvature="0"
         id="path1711-6-2-1-9-8"
         d="m 10.076211,8.721255 v 18.096381 c 0,0 6.723806,0.0017 7.275896,0 0.552089,-0.0017 0.786041,-0.100838 0.786041,-0.100838 l 1.26597,-1.979505 -2.025955,-1.740245 h -2.577755 v -10.42921 l -0.89967,-0.899934 -1.040165,-1.040164 -5.55e-4,-2.68e-4 c 1.3e-4,1.33e-4 0.957608,-0.957398 1.906482,-1.906223 z"
         style="font-style:normal;font-variant:normal;font-weight:bold;font-stretch:normal;font-size:192px;line-height:25px;font-family:Montserrat;-inkscape-font-specification:'Montserrat Bold';text-align:start;letter-spacing:0px;word-spacing:0px;writing-mode:lr-tb;text-anchor:start;fill:#ffa200;fill-opacity:1;stroke:none;stroke-width:0.13445187px;stroke-linecap:butt;stroke-linejoin:miter;stroke-opacity:1" />
    </g>
  </g>
</svg>
